<?xml version="1.0" encoding="UTF-8"?>
<svg width="60px" height="75px" viewBox="0 0 60 75" version="1.1" xmlns="http://www.w3.org/2000/svg" xmlns:xlink="http://www.w3.org/1999/xlink">
    <title>Group</title>
    <g id="Page-1" stroke="none" stroke-width="1" fill="none" fill-rule="evenodd">
        <g id="Group" fill="#D78506">
            <rect id="Rectangle-2" x="15" y="0" width="5" height="5"></rect>
            <rect id="Rectangle-2-Copy" x="15" y="5" width="5" height="5"></rect>
            <rect id="Rectangle-2-Copy-14" x="29" y="20" width="5" height="5"></rect>
            <rect id="Rectangle-2-Copy-16" x="35" y="35" width="5" height="5"></rect>
            <rect id="Rectangle-2-Copy-17" x="40" y="35" width="5" height="5"></rect>
            <rect id="Rectangle-2-Copy-18" x="45" y="30" width="5" height="5"></rect>
            <rect id="Rectangle-2-Copy-19" x="30" y="40" width="5" height="5"></rect>
            <rect id="Rectangle-2-Copy-20" x="40" y="55" width="5" height="5"></rect>
            <rect id="Rectangle-2-Copy-21" x="45" y="55" width="5" height="5"></rect>
            <rect id="Rectangle-2-Copy-24" x="45" y="65" width="5" height="5"></rect>
            <rect id="Rectangle-2-Copy-25" x="50" y="65" width="5" height="5"></rect>
            <rect id="Rectangle-2-Copy-26" x="55" y="70" width="5" height="5"></rect>
            <rect id="Rectangle-2-Copy-22" x="50" y="50" width="5" height="5"></rect>
            <rect id="Rectangle-2-Copy-23" x="55" y="50" width="5" height="5"></rect>
            <rect id="Rectangle-2-Copy-15" x="25" y="25" width="5" height="5"></rect>
            <rect id="Rectangle-2-Copy-2" x="10" y="10" width="5" height="5"></rect>
            <rect id="Rectangle-2-Copy-3" x="10" y="15" width="5" height="5"></rect>
            <rect id="Rectangle-2-Copy-4" x="0" y="0" width="5" height="5"></rect>
            <rect id="Rectangle-2-Copy-5" x="0" y="5" width="5" height="5"></rect>
        </g>
    </g>
</svg>