<?xml version="1.0" encoding="UTF-8"?>
<svg width="640px" height="620px" viewBox="0 0 640 620" version="1.1" xmlns="http://www.w3.org/2000/svg" xmlns:xlink="http://www.w3.org/1999/xlink">
    <title>YOTO - COMPLETE Copy 2</title>
    <g id="Page-1" stroke="none" stroke-width="1" fill="none" fill-rule="evenodd">
        <g id="YOTO---COMPLETE-Copy-2">
            <path d="M130,600 L130,590 L110,590 L110,580 L90,580 L90,570 L80,570 L80,560 L70,560 L70,550 L60,550 L60,530 L50,530 L50,510 L40,510 L40,350 L30,350 L30,290 L40,290 L40,120 L50,120 L50,100 L60,100 L60,90 L70,90 L70,80 L80,80 L80,70 L90,70 L90,60 L100,60 L100,50 L120,50 L120,40 L520,40 L520,50 L540,50 L540,60 L550,60 L550,70 L560,70 L560,80 L570,80 L570,90 L580,90 L580,100 L590,100 L590,120 L600,120 L600,290 L610,290 L610,350 L600,350 L600,510 L590,510 L590,530 L580,530 L580,550 L570,550 L570,560 L560,560 L560,570 L550,570 L550,580 L530,580 L530,590 L510,590 L510,600 L130,600 Z M490,570 L490,560 L520,560 L520,550 L540,550 L540,540 L550,540 L550,520 L560,520 L560,490 L570,490 L570,150 L560,150 L560,120 L550,120 L550,90 L540,90 L540,80 L530,80 L530,70 L500,70 L500,60 L140,60 L140,70 L110,70 L110,80 L100,80 L100,90 L90,90 L90,120 L80,120 L80,150 L70,150 L70,490 L80,490 L80,520 L90,520 L90,540 L100,540 L100,550 L120,550 L120,560 L150,560 L150,570 L490,570 Z" id="Combined-Shape" fill="#D8D7D0"></path>
            <path d="M150,570 L150,560 L490,560 L490,570 L150,570 Z M150,550 L150,560 L120,560 L120,550 L150,550 Z M520,550 L520,560 L490,560 L490,550 L520,550 Z M100,520 L100,530 L110,530 L110,540 L120,540 L120,550 L100,550 L100,540 L90,540 L90,520 L100,520 Z M550,520 L550,540 L540,540 L540,550 L520,550 L520,540 L530,540 L530,530 L540,530 L540,520 L550,520 Z M90,490 L90,520 L80,520 L80,490 L90,490 Z M560,490 L560,520 L550,520 L550,490 L560,490 Z M80,150 L80,490 L70,490 L70,150 L80,150 Z M560,150 L570,150 L570,490 L560,490 L560,150 Z M90,120 L90,150 L80,150 L80,120 L90,120 Z M560,120 L560,150 L550,150 L550,120 L560,120 Z M100,90 L100,120 L90,120 L90,90 L100,90 Z M550,90 L550,120 L540,120 L540,90 L550,90 Z M110,80 L110,90 L100,90 L100,80 L110,80 Z M540,80 L540,90 L530,90 L530,80 L540,80 Z M140,70 L140,80 L110,80 L110,70 L140,70 Z M530,70 L530,80 L500,80 L500,70 L530,70 Z M500,60 L500,70 L140,70 L140,60 L500,60 Z" id="Combined-Shape" fill="#9B9888"></path>
            <g id="Group" transform="translate(60, 60)" fill="#C4C0AE">
                <rect id="Rectangle-2-Copy-116" x="0" y="120" width="10" height="10"></rect>
                <rect id="Rectangle-2-Copy-2278" x="0" y="110" width="10" height="10"></rect>
                <rect id="Rectangle-2-Copy-2279" x="0" y="100" width="10" height="10"></rect>
                <rect id="Rectangle-2-Copy-2280" x="0" y="90" width="10" height="10"></rect>
                <rect id="Rectangle-2-Copy-2315" x="10" y="80" width="10" height="10"></rect>
                <rect id="Rectangle-2-Copy-2316" x="10" y="70" width="10" height="10"></rect>
                <rect id="Rectangle-2-Copy-2317" x="10" y="60" width="10" height="10"></rect>
                <rect id="Rectangle-2-Copy-2318" x="20" y="50" width="10" height="10"></rect>
                <rect id="Rectangle-2-Copy-2319" x="20" y="40" width="10" height="10"></rect>
                <rect id="Rectangle-2-Copy-2320" x="20" y="30" width="10" height="10"></rect>
                <rect id="Rectangle-2-Copy-2321" x="30" y="20" width="10" height="10"></rect>
                <rect id="Rectangle-2-Copy-2322" x="40" y="10" width="10" height="10"></rect>
                <rect id="Rectangle-2-Copy-2323" x="70" y="0" width="10" height="10"></rect>
                <rect id="Rectangle-2-Copy-2324" x="60" y="0" width="10" height="10"></rect>
                <rect id="Rectangle-2-Copy-2325" x="50" y="0" width="10" height="10"></rect>
                <rect id="Rectangle-2-Copy-2281" x="0" y="130" width="10" height="10"></rect>
                <rect id="Rectangle-2-Copy-2286" x="0" y="170" width="10" height="10"></rect>
                <rect id="Rectangle-2-Copy-2285" x="0" y="160" width="10" height="10"></rect>
                <rect id="Rectangle-2-Copy-2284" x="0" y="150" width="10" height="10"></rect>
                <rect id="Rectangle-2-Copy-2283" x="0" y="140" width="10" height="10"></rect>
                <rect id="Rectangle-2-Copy-2282" x="0" y="180" width="10" height="10"></rect>
                <rect id="Rectangle-2-Copy-2291" x="0" y="220" width="10" height="10"></rect>
                <rect id="Rectangle-2-Copy-2290" x="0" y="210" width="10" height="10"></rect>
                <rect id="Rectangle-2-Copy-2289" x="0" y="200" width="10" height="10"></rect>
                <rect id="Rectangle-2-Copy-2288" x="0" y="190" width="10" height="10"></rect>
                <rect id="Rectangle-2-Copy-2287" x="0" y="230" width="10" height="10"></rect>
                <rect id="Rectangle-2-Copy-2296" x="0" y="270" width="10" height="10"></rect>
                <rect id="Rectangle-2-Copy-2295" x="0" y="260" width="10" height="10"></rect>
                <rect id="Rectangle-2-Copy-2294" x="0" y="250" width="10" height="10"></rect>
                <rect id="Rectangle-2-Copy-2293" x="0" y="240" width="10" height="10"></rect>
                <rect id="Rectangle-2-Copy-2292" x="0" y="280" width="10" height="10"></rect>
                <rect id="Rectangle-2-Copy-2301" x="0" y="320" width="10" height="10"></rect>
                <rect id="Rectangle-2-Copy-2300" x="0" y="310" width="10" height="10"></rect>
                <rect id="Rectangle-2-Copy-2299" x="0" y="300" width="10" height="10"></rect>
                <rect id="Rectangle-2-Copy-2298" x="0" y="290" width="10" height="10"></rect>
                <rect id="Rectangle-2-Copy-2297" x="0" y="330" width="10" height="10"></rect>
                <rect id="Rectangle-2-Copy-2306" x="0" y="370" width="10" height="10"></rect>
                <rect id="Rectangle-2-Copy-2305" x="0" y="360" width="10" height="10"></rect>
                <rect id="Rectangle-2-Copy-2304" x="0" y="350" width="10" height="10"></rect>
                <rect id="Rectangle-2-Copy-2303" x="0" y="340" width="10" height="10"></rect>
                <rect id="Rectangle-2-Copy-2302" x="0" y="380" width="10" height="10"></rect>
                <rect id="Rectangle-2-Copy-2311" x="0" y="420" width="10" height="10"></rect>
                <rect id="Rectangle-2-Copy-2310" x="0" y="410" width="10" height="10"></rect>
                <rect id="Rectangle-2-Copy-2309" x="0" y="400" width="10" height="10"></rect>
                <rect id="Rectangle-2-Copy-2308" x="0" y="390" width="10" height="10"></rect>
                <rect id="Rectangle-2-Copy-2307" x="10" y="430" width="10" height="10"></rect>
                <rect id="Rectangle-2-Copy-2312" x="10" y="440" width="10" height="10"></rect>
                <rect id="Rectangle-2-Copy-2313" x="10" y="450" width="10" height="10"></rect>
                <rect id="Rectangle-2-Copy-2314" x="20" y="460" width="10" height="10"></rect>
            </g>
            <g id="Group-Copy" transform="translate(540, 295) scale(-1, 1) translate(-540, -295)translate(500, 60)" fill="#C4C0AE">
                <rect id="Rectangle-2-Copy-116" x="0" y="120" width="10" height="10"></rect>
                <rect id="Rectangle-2-Copy-2278" x="0" y="110" width="10" height="10"></rect>
                <rect id="Rectangle-2-Copy-2279" x="0" y="100" width="10" height="10"></rect>
                <rect id="Rectangle-2-Copy-2280" x="0" y="90" width="10" height="10"></rect>
                <rect id="Rectangle-2-Copy-2315" x="10" y="80" width="10" height="10"></rect>
                <rect id="Rectangle-2-Copy-2316" x="10" y="70" width="10" height="10"></rect>
                <rect id="Rectangle-2-Copy-2317" x="10" y="60" width="10" height="10"></rect>
                <rect id="Rectangle-2-Copy-2318" x="20" y="50" width="10" height="10"></rect>
                <rect id="Rectangle-2-Copy-2319" x="20" y="40" width="10" height="10"></rect>
                <rect id="Rectangle-2-Copy-2320" x="20" y="30" width="10" height="10"></rect>
                <rect id="Rectangle-2-Copy-2321" x="30" y="20" width="10" height="10"></rect>
                <rect id="Rectangle-2-Copy-2322" x="40" y="10" width="10" height="10"></rect>
                <rect id="Rectangle-2-Copy-2323" x="70" y="0" width="10" height="10"></rect>
                <rect id="Rectangle-2-Copy-2324" x="60" y="0" width="10" height="10"></rect>
                <rect id="Rectangle-2-Copy-2325" x="50" y="0" width="10" height="10"></rect>
                <rect id="Rectangle-2-Copy-2281" x="0" y="130" width="10" height="10"></rect>
                <rect id="Rectangle-2-Copy-2286" x="0" y="170" width="10" height="10"></rect>
                <rect id="Rectangle-2-Copy-2285" x="0" y="160" width="10" height="10"></rect>
                <rect id="Rectangle-2-Copy-2284" x="0" y="150" width="10" height="10"></rect>
                <rect id="Rectangle-2-Copy-2283" x="0" y="140" width="10" height="10"></rect>
                <rect id="Rectangle-2-Copy-2282" x="0" y="180" width="10" height="10"></rect>
                <rect id="Rectangle-2-Copy-2291" x="0" y="220" width="10" height="10"></rect>
                <rect id="Rectangle-2-Copy-2290" x="0" y="210" width="10" height="10"></rect>
                <rect id="Rectangle-2-Copy-2289" x="0" y="200" width="10" height="10"></rect>
                <rect id="Rectangle-2-Copy-2288" x="0" y="190" width="10" height="10"></rect>
                <rect id="Rectangle-2-Copy-2287" x="0" y="230" width="10" height="10"></rect>
                <rect id="Rectangle-2-Copy-2296" x="0" y="270" width="10" height="10"></rect>
                <rect id="Rectangle-2-Copy-2295" x="0" y="260" width="10" height="10"></rect>
                <rect id="Rectangle-2-Copy-2294" x="0" y="250" width="10" height="10"></rect>
                <rect id="Rectangle-2-Copy-2293" x="0" y="240" width="10" height="10"></rect>
                <rect id="Rectangle-2-Copy-2292" x="0" y="280" width="10" height="10"></rect>
                <rect id="Rectangle-2-Copy-2301" x="0" y="320" width="10" height="10"></rect>
                <rect id="Rectangle-2-Copy-2300" x="0" y="310" width="10" height="10"></rect>
                <rect id="Rectangle-2-Copy-2299" x="0" y="300" width="10" height="10"></rect>
                <rect id="Rectangle-2-Copy-2298" x="0" y="290" width="10" height="10"></rect>
                <rect id="Rectangle-2-Copy-2297" x="0" y="330" width="10" height="10"></rect>
                <rect id="Rectangle-2-Copy-2306" x="0" y="370" width="10" height="10"></rect>
                <rect id="Rectangle-2-Copy-2305" x="0" y="360" width="10" height="10"></rect>
                <rect id="Rectangle-2-Copy-2304" x="0" y="350" width="10" height="10"></rect>
                <rect id="Rectangle-2-Copy-2303" x="0" y="340" width="10" height="10"></rect>
                <rect id="Rectangle-2-Copy-2302" x="0" y="380" width="10" height="10"></rect>
                <rect id="Rectangle-2-Copy-2311" x="0" y="420" width="10" height="10"></rect>
                <rect id="Rectangle-2-Copy-2310" x="0" y="410" width="10" height="10"></rect>
                <rect id="Rectangle-2-Copy-2309" x="0" y="400" width="10" height="10"></rect>
                <rect id="Rectangle-2-Copy-2308" x="0" y="390" width="10" height="10"></rect>
                <rect id="Rectangle-2-Copy-2307" x="10" y="430" width="10" height="10"></rect>
                <rect id="Rectangle-2-Copy-2312" x="10" y="440" width="10" height="10"></rect>
                <rect id="Rectangle-2-Copy-2313" x="10" y="450" width="10" height="10"></rect>
                <rect id="Rectangle-2-Copy-2314" x="20" y="460" width="10" height="10"></rect>
            </g>
            <path d="M50,100 L50,120 L40,120 L40,100 L50,100 Z M600,100 L600,120 L590,120 L590,100 L600,100 Z M60,90 L60,100 L50,100 L50,90 L60,90 Z M590,90 L590,100 L580,100 L580,90 L590,90 Z M70,80 L70,90 L60,90 L60,80 L70,80 Z M580,80 L580,90 L570,90 L570,80 L580,80 Z M80,70 L80,80 L70,80 L70,70 L80,70 Z M570,70 L570,80 L560,80 L560,70 L570,70 Z M90,60 L90,70 L80,70 L80,60 L90,60 Z M560,60 L560,70 L550,70 L550,60 L560,60 Z M100,50 L100,60 L90,60 L90,50 L100,50 Z M550,50 L550,60 L540,60 L540,50 L550,50 Z M120,40 L120,50 L100,50 L100,40 L120,40 Z M120,40 L120,30 L530,30 L530,40 L540,40 L540,50 L520,50 L520,40 L120,40 Z M130,610 L130,600 L510,600 L510,610 L130,610 Z M130,590 L130,600 L110,600 L110,590 L130,590 Z M530,590 L530,600 L510,600 L510,590 L530,590 Z M110,580 L110,590 L90,590 L90,580 L110,580 Z M550,580 L550,590 L530,590 L530,580 L550,580 Z M90,570 L90,580 L80,580 L80,570 L90,570 Z M560,570 L560,580 L550,580 L550,570 L560,570 Z M80,560 L80,570 L70,570 L70,560 L80,560 Z M570,560 L570,570 L560,570 L560,560 L570,560 Z M70,550 L70,560 L60,560 L60,550 L70,550 Z M580,550 L580,560 L570,560 L570,550 L580,550 Z M60,530 L60,550 L50,550 L50,530 L60,530 Z M590,530 L590,550 L580,550 L580,530 L590,530 Z M50,510 L50,530 L40,530 L40,510 L50,510 Z M600,510 L600,530 L590,530 L590,510 L600,510 Z M40,350 L40,510 L30,510 L30,350 L40,350 Z M610,350 L610,510 L600,510 L600,350 L610,350 Z M30,290 L30,350 L20,350 L20,290 L30,290 Z M620,290 L620,350 L610,350 L610,290 L620,290 Z M40,130 L40,290 L30,290 L30,130 L40,130 Z M610,130 L610,290 L600,290 L600,130 L610,130 Z" id="Combined-Shape" fill="#84816B"></path>
            <path d="M150,620 L150,610 L190,610 L190,620 L150,620 Z" id="Combined-Shape" fill="#42413C"></path>
            <path d="M450,620 L450,610 L490,610 L490,620 L450,620 Z" id="Combined-Shape-Copy" fill="#42413C"></path>
            <g id="Button">
                <g id="Group" transform="translate(10, 80)" fill="#D75838">
                    <rect id="Rectangle-2" x="0" y="0" width="10" height="10"></rect>
                    <rect id="Rectangle-2-Copy" x="0" y="10" width="10" height="10"></rect>
                    <rect id="Rectangle-2-Copy-3" x="10" y="10" width="10" height="10"></rect>
                    <rect id="Rectangle-2-Copy-2" x="10" y="20" width="10" height="10"></rect>
                    <rect id="Rectangle-2-Copy-4" x="20" y="30" width="10" height="10"></rect>
                    <rect id="Rectangle-2-Copy-5" x="20" y="20" width="10" height="10"></rect>
                </g>
                <g id="Group" fill="#872B14">
                    <rect id="Rectangle-2" x="0" y="60" width="10" height="10"></rect>
                    <rect id="Rectangle-2-Copy-4" x="10" y="50" width="10" height="10"></rect>
                    <rect id="Rectangle-2-Copy-5" x="20" y="40" width="10" height="10"></rect>
                    <rect id="Rectangle-2-Copy-6" x="30" y="30" width="10" height="10"></rect>
                    <rect id="Rectangle-2-Copy-7" x="40" y="20" width="10" height="10"></rect>
                    <rect id="Rectangle-2-Copy-8" x="50" y="10" width="10" height="10"></rect>
                    <rect id="Rectangle-2-Copy-9" x="60" y="0" width="10" height="10"></rect>
                    <rect id="Rectangle-2-Copy-10" x="70" y="0" width="10" height="10"></rect>
                    <rect id="Rectangle-2-Copy-11" x="80" y="0" width="10" height="10"></rect>
                    <rect id="Rectangle-2-Copy-12" x="90" y="10" width="10" height="10"></rect>
                    <rect id="Rectangle-2-Copy-13" x="100" y="20" width="10" height="10"></rect>
                    <rect id="Rectangle-2-Copy-14" x="110" y="30" width="10" height="10"></rect>
                    <rect id="Rectangle-2-Copy" x="0" y="70" width="10" height="10"></rect>
                    <rect id="Rectangle-2-Copy-2" x="0" y="80" width="10" height="10"></rect>
                    <rect id="Rectangle-2-Copy-3" x="0" y="90" width="10" height="10"></rect>
                    <rect id="Rectangle-2-Copy-15" x="10" y="100" width="10" height="10"></rect>
                    <rect id="Rectangle-2-Copy-16" x="20" y="110" width="10" height="10"></rect>
                    <rect id="Rectangle-2-Copy-17" x="30" y="120" width="10" height="10"></rect>
                </g>
                <g id="Group" transform="translate(10, 20)" fill="#F76D50">
                    <rect id="Rectangle-2" x="0" y="50" width="10" height="10"></rect>
                    <rect id="Rectangle-2-Copy-11" x="10" y="50" width="10" height="10"></rect>
                    <rect id="Rectangle-2-Copy-12" x="20" y="50" width="10" height="10"></rect>
                    <rect id="Rectangle-2-Copy-13" x="30" y="50" width="10" height="10"></rect>
                    <rect id="Rectangle-2-Copy-31" x="30" y="60" width="10" height="10"></rect>
                    <rect id="Rectangle-2-Copy-32" x="20" y="60" width="10" height="10"></rect>
                    <rect id="Rectangle-2-Copy-14" x="40" y="50" width="10" height="10"></rect>
                    <rect id="Rectangle-2-Copy-19" x="30" y="30" width="10" height="10"></rect>
                    <rect id="Rectangle-2-Copy-18" x="40" y="30" width="10" height="10"></rect>
                    <rect id="Rectangle-2-Copy-20" x="40" y="20" width="10" height="10"></rect>
                    <rect id="Rectangle-2-Copy-17" x="20" y="40" width="10" height="10"></rect>
                    <rect id="Rectangle-2-Copy-16" x="30" y="40" width="10" height="10"></rect>
                    <rect id="Rectangle-2-Copy-15" x="40" y="40" width="10" height="10"></rect>
                    <rect id="Rectangle-2-Copy-3" x="10" y="40" width="10" height="10"></rect>
                    <rect id="Rectangle-2-Copy-4" x="20" y="30" width="10" height="10"></rect>
                    <rect id="Rectangle-2-Copy-5" x="30" y="20" width="10" height="10"></rect>
                    <rect id="Rectangle-2-Copy-22" x="60" y="20" width="10" height="10"></rect>
                    <rect id="Rectangle-2-Copy-29" x="60" y="30" width="10" height="10"></rect>
                    <rect id="Rectangle-2-Copy-21" x="50" y="20" width="10" height="10"></rect>
                    <rect id="Rectangle-2-Copy-28" x="50" y="30" width="10" height="10"></rect>
                    <rect id="Rectangle-2-Copy-30" x="50" y="40" width="10" height="10"></rect>
                    <rect id="Rectangle-2-Copy-24" x="70" y="20" width="10" height="10"></rect>
                    <rect id="Rectangle-2-Copy-27" x="60" y="10" width="10" height="10"></rect>
                    <rect id="Rectangle-2-Copy-26" x="50" y="10" width="10" height="10"></rect>
                    <rect id="Rectangle-2-Copy-25" x="70" y="10" width="10" height="10"></rect>
                    <rect id="Rectangle-2-Copy-23" x="80" y="20" width="10" height="10"></rect>
                    <rect id="Rectangle-2-Copy-6" x="40" y="10" width="10" height="10"></rect>
                    <rect id="Rectangle-2-Copy-7" x="50" y="0" width="10" height="10"></rect>
                    <rect id="Rectangle-2-Copy-8" x="60" y="0" width="10" height="10"></rect>
                    <rect id="Rectangle-2-Copy-9" x="70" y="0" width="10" height="10"></rect>
                    <rect id="Rectangle-2-Copy-10" x="80" y="10" width="10" height="10"></rect>
                    <rect id="Rectangle-2-Copy" x="10" y="60" width="10" height="10"></rect>
                    <rect id="Rectangle-2-Copy-2" x="20" y="70" width="10" height="10"></rect>
                </g>
                <g id="Group" transform="translate(10, 10)" fill="#FF8C71">
                    <rect id="Rectangle-2" x="0" y="50" width="10" height="10"></rect>
                    <rect id="Rectangle-2-Copy-10" x="30" y="80" width="10" height="10"></rect>
                    <rect id="Rectangle-2-Copy-11" x="40" y="70" width="10" height="10"></rect>
                    <rect id="Rectangle-2-Copy-12" x="50" y="60" width="10" height="10"></rect>
                    <rect id="Rectangle-2-Copy-13" x="60" y="50" width="10" height="10"></rect>
                    <rect id="Rectangle-2-Copy-14" x="70" y="40" width="10" height="10"></rect>
                    <rect id="Rectangle-2-Copy" x="10" y="40" width="10" height="10"></rect>
                    <rect id="Rectangle-2-Copy-2" x="20" y="30" width="10" height="10"></rect>
                    <rect id="Rectangle-2-Copy-3" x="30" y="20" width="10" height="10"></rect>
                    <rect id="Rectangle-2-Copy-4" x="40" y="10" width="10" height="10"></rect>
                    <rect id="Rectangle-2-Copy-5" x="50" y="0" width="10" height="10"></rect>
                    <rect id="Rectangle-2-Copy-6" x="60" y="0" width="10" height="10"></rect>
                    <rect id="Rectangle-2-Copy-7" x="70" y="0" width="10" height="10"></rect>
                    <rect id="Rectangle-2-Copy-8" x="80" y="10" width="10" height="10"></rect>
                    <rect id="Rectangle-2-Copy-9" x="90" y="20" width="10" height="10"></rect>
                </g>
            </g>
            <g id="Button-Copy" transform="translate(580, 65) scale(-1, 1) translate(-580, -65)translate(520, 0)">
                <g id="Group" transform="translate(10, 80)" fill="#D75838">
                    <rect id="Rectangle-2" x="0" y="0" width="10" height="10"></rect>
                    <rect id="Rectangle-2-Copy" x="0" y="10" width="10" height="10"></rect>
                    <rect id="Rectangle-2-Copy-3" x="10" y="10" width="10" height="10"></rect>
                    <rect id="Rectangle-2-Copy-2" x="10" y="20" width="10" height="10"></rect>
                    <rect id="Rectangle-2-Copy-4" x="20" y="30" width="10" height="10"></rect>
                    <rect id="Rectangle-2-Copy-5" x="20" y="20" width="10" height="10"></rect>
                </g>
                <g id="Group" fill="#872B14">
                    <rect id="Rectangle-2" x="0" y="60" width="10" height="10"></rect>
                    <rect id="Rectangle-2-Copy-4" x="10" y="50" width="10" height="10"></rect>
                    <rect id="Rectangle-2-Copy-5" x="20" y="40" width="10" height="10"></rect>
                    <rect id="Rectangle-2-Copy-6" x="30" y="30" width="10" height="10"></rect>
                    <rect id="Rectangle-2-Copy-7" x="40" y="20" width="10" height="10"></rect>
                    <rect id="Rectangle-2-Copy-8" x="50" y="10" width="10" height="10"></rect>
                    <rect id="Rectangle-2-Copy-9" x="60" y="0" width="10" height="10"></rect>
                    <rect id="Rectangle-2-Copy-10" x="70" y="0" width="10" height="10"></rect>
                    <rect id="Rectangle-2-Copy-11" x="80" y="0" width="10" height="10"></rect>
                    <rect id="Rectangle-2-Copy-12" x="90" y="10" width="10" height="10"></rect>
                    <rect id="Rectangle-2-Copy-13" x="100" y="20" width="10" height="10"></rect>
                    <rect id="Rectangle-2-Copy-14" x="110" y="30" width="10" height="10"></rect>
                    <rect id="Rectangle-2-Copy" x="0" y="70" width="10" height="10"></rect>
                    <rect id="Rectangle-2-Copy-2" x="0" y="80" width="10" height="10"></rect>
                    <rect id="Rectangle-2-Copy-3" x="0" y="90" width="10" height="10"></rect>
                    <rect id="Rectangle-2-Copy-15" x="10" y="100" width="10" height="10"></rect>
                    <rect id="Rectangle-2-Copy-16" x="20" y="110" width="10" height="10"></rect>
                    <rect id="Rectangle-2-Copy-17" x="30" y="120" width="10" height="10"></rect>
                </g>
                <g id="Group" transform="translate(10, 20)" fill="#F76D50">
                    <rect id="Rectangle-2" x="0" y="50" width="10" height="10"></rect>
                    <rect id="Rectangle-2-Copy-11" x="10" y="50" width="10" height="10"></rect>
                    <rect id="Rectangle-2-Copy-12" x="20" y="50" width="10" height="10"></rect>
                    <rect id="Rectangle-2-Copy-13" x="30" y="50" width="10" height="10"></rect>
                    <rect id="Rectangle-2-Copy-31" x="30" y="60" width="10" height="10"></rect>
                    <rect id="Rectangle-2-Copy-32" x="20" y="60" width="10" height="10"></rect>
                    <rect id="Rectangle-2-Copy-14" x="40" y="50" width="10" height="10"></rect>
                    <rect id="Rectangle-2-Copy-19" x="30" y="30" width="10" height="10"></rect>
                    <rect id="Rectangle-2-Copy-18" x="40" y="30" width="10" height="10"></rect>
                    <rect id="Rectangle-2-Copy-20" x="40" y="20" width="10" height="10"></rect>
                    <rect id="Rectangle-2-Copy-17" x="20" y="40" width="10" height="10"></rect>
                    <rect id="Rectangle-2-Copy-16" x="30" y="40" width="10" height="10"></rect>
                    <rect id="Rectangle-2-Copy-15" x="40" y="40" width="10" height="10"></rect>
                    <rect id="Rectangle-2-Copy-3" x="10" y="40" width="10" height="10"></rect>
                    <rect id="Rectangle-2-Copy-4" x="20" y="30" width="10" height="10"></rect>
                    <rect id="Rectangle-2-Copy-5" x="30" y="20" width="10" height="10"></rect>
                    <rect id="Rectangle-2-Copy-22" x="60" y="20" width="10" height="10"></rect>
                    <rect id="Rectangle-2-Copy-29" x="60" y="30" width="10" height="10"></rect>
                    <rect id="Rectangle-2-Copy-21" x="50" y="20" width="10" height="10"></rect>
                    <rect id="Rectangle-2-Copy-28" x="50" y="30" width="10" height="10"></rect>
                    <rect id="Rectangle-2-Copy-30" x="50" y="40" width="10" height="10"></rect>
                    <rect id="Rectangle-2-Copy-24" x="70" y="20" width="10" height="10"></rect>
                    <rect id="Rectangle-2-Copy-27" x="60" y="10" width="10" height="10"></rect>
                    <rect id="Rectangle-2-Copy-26" x="50" y="10" width="10" height="10"></rect>
                    <rect id="Rectangle-2-Copy-25" x="70" y="10" width="10" height="10"></rect>
                    <rect id="Rectangle-2-Copy-23" x="80" y="20" width="10" height="10"></rect>
                    <rect id="Rectangle-2-Copy-6" x="40" y="10" width="10" height="10"></rect>
                    <rect id="Rectangle-2-Copy-7" x="50" y="0" width="10" height="10"></rect>
                    <rect id="Rectangle-2-Copy-8" x="60" y="0" width="10" height="10"></rect>
                    <rect id="Rectangle-2-Copy-9" x="70" y="0" width="10" height="10"></rect>
                    <rect id="Rectangle-2-Copy-10" x="80" y="10" width="10" height="10"></rect>
                    <rect id="Rectangle-2-Copy" x="10" y="60" width="10" height="10"></rect>
                    <rect id="Rectangle-2-Copy-2" x="20" y="70" width="10" height="10"></rect>
                </g>
                <g id="Group" transform="translate(10, 10)" fill="#FF8C71">
                    <rect id="Rectangle-2" x="0" y="50" width="10" height="10"></rect>
                    <rect id="Rectangle-2-Copy-10" x="30" y="80" width="10" height="10"></rect>
                    <rect id="Rectangle-2-Copy-11" x="40" y="70" width="10" height="10"></rect>
                    <rect id="Rectangle-2-Copy-12" x="50" y="60" width="10" height="10"></rect>
                    <rect id="Rectangle-2-Copy-13" x="60" y="50" width="10" height="10"></rect>
                    <rect id="Rectangle-2-Copy-14" x="70" y="40" width="10" height="10"></rect>
                    <rect id="Rectangle-2-Copy" x="10" y="40" width="10" height="10"></rect>
                    <rect id="Rectangle-2-Copy-2" x="20" y="30" width="10" height="10"></rect>
                    <rect id="Rectangle-2-Copy-3" x="30" y="20" width="10" height="10"></rect>
                    <rect id="Rectangle-2-Copy-4" x="40" y="10" width="10" height="10"></rect>
                    <rect id="Rectangle-2-Copy-5" x="50" y="0" width="10" height="10"></rect>
                    <rect id="Rectangle-2-Copy-6" x="60" y="0" width="10" height="10"></rect>
                    <rect id="Rectangle-2-Copy-7" x="70" y="0" width="10" height="10"></rect>
                    <rect id="Rectangle-2-Copy-8" x="80" y="10" width="10" height="10"></rect>
                    <rect id="Rectangle-2-Copy-9" x="90" y="20" width="10" height="10"></rect>
                </g>
            </g>
            <path d="M500,70 L500,80 L530,80 L530,90 L540,90 L540,120 L550,120 L550,150 L560,150 L560,490 L550,490 L550,520 L540,520 L540,530 L530,530 L530,540 L520,540 L520,550 L490,550 L490,560 L150,560 L150,550 L120,550 L120,540 L110,540 L110,530 L100,530 L100,520 L90,520 L90,490 L80,490 L80,150 L90,150 L90,120 L100,120 L100,90 L110,90 L110,80 L140,80 L140,70 L500,70 Z" id="Combined-Shape" fill="#BCBCBA"></path>
        </g>
    </g>
</svg>