<svg id="1st-Place-Medal--Streamline-Openmoji" viewBox="0 0 32 32" xmlns="http://www.w3.org/2000/svg" height="32" width="32">
  <desc>
    1st Place Medal Streamline Emoji: https://streamlinehq.com
  </desc>
  <g id="color">
    <path fill="#fcea2b" stroke="none" d="m12.469644444444443 9.9676 0 -2.412044444444444 7.0481333333333325 0 0 2.412044444444444" stroke-width="0.4444"></path>
    <path fill="#92d3f5" stroke="#92d3f5" stroke-linecap="round" stroke-linejoin="round" stroke-miterlimit="10" stroke-width="0.8" d="M24.44391111111111 1.7875999999999999 19.11111111111111 7.120355555555555l-3.1111111111111107 0 -2.240711111111111 -2.240711111111111 3.0943555555555555 -3.0943555555555555 7.590266666666666 0"></path>
    <path fill="#ea5a47" stroke="#ea5a47" stroke-linecap="round" stroke-linejoin="round" stroke-miterlimit="10" stroke-width="0.8" d="M10.659155555555555 1.7795111111111108 16 7.120355555555555l-3.1111111111111107 0L7.541111111111111 1.7725777777777778l3.118044444444444 0"></path>
    <path fill="#fcea2b" stroke="none" stroke-linecap="round" stroke-linejoin="round" stroke-miterlimit="10" stroke-width="0.8889" d="M5.777777777777778 19.98871111111111a10.222222222222221 10.222222222222221 0 1 0 20.444444444444443 0 10.222222222222221 10.222222222222221 0 1 0 -20.444444444444443 0"></path>
  </g>
  <g id="hair"></g>
  <g id="skin"></g>
  <g id="skin-shadow"></g>
  <g id="line">
    <path fill="none" stroke="#000000" stroke-miterlimit="10" stroke-width="0.8889" d="M5.777777777777778 19.98871111111111a10.222222222222221 10.222222222222221 0 1 0 20.444444444444443 0 10.222222222222221 10.222222222222221 0 1 0 -20.444444444444443 0"></path>
    <path fill="none" stroke="#000000" stroke-linecap="round" stroke-linejoin="round" stroke-miterlimit="10" stroke-width="0.8889" d="M5.777777777777778 19.98871111111111a10.222222222222221 10.222222222222221 0 1 0 20.444444444444443 0 10.222222222222221 10.222222222222221 0 1 0 -20.444444444444443 0"></path>
    <path fill="none" stroke="#000000" stroke-linecap="round" stroke-linejoin="round" stroke-miterlimit="10" stroke-width="0.8889" d="m12.888888888888888 8.444444444444445 0 -1.3240888888888889"></path>
    <path fill="none" stroke="#000000" stroke-linecap="round" stroke-linejoin="round" stroke-miterlimit="10" stroke-width="0.8889" d="m19.11111111111111 8.444444444444445 0 -1.3240888888888889"></path>
    <path fill="none" stroke="#000000" stroke-linecap="round" stroke-linejoin="round" stroke-miterlimit="10" stroke-width="0.8889" d="m12.888888888888888 7.120355555555555 6.222222222222221 0"></path>
    <path fill="none" stroke="#000000" stroke-linecap="round" stroke-linejoin="round" stroke-miterlimit="10" stroke-width="0.8889" d="m11.550933333333333 5.7824 -4.009822222222222 -4.009822222222222"></path>
    <path fill="none" stroke="#000000" stroke-linecap="round" stroke-linejoin="round" stroke-miterlimit="10" stroke-width="0.8889" d="m14.2176 5.337955555555555 -3.5584444444444445 -3.5584444444444445"></path>
    <path fill="none" stroke="#000000" stroke-linecap="round" stroke-linejoin="round" stroke-miterlimit="10" stroke-width="0.8889" d="m15.11111111111111 3.5555555555555554 1.7425333333333333 -1.7702666666666664"></path>
    <path fill="none" stroke="#000000" stroke-linecap="round" stroke-linejoin="round" stroke-miterlimit="10" stroke-width="0.8889" d="m20.444444444444443 5.777777777777778 3.9994666666666663 -3.9901777777777774"></path>
    <path fill="none" stroke="#000000" stroke-linecap="round" stroke-linejoin="round" stroke-miterlimit="10" stroke-width="0.8889" d="m7.541111111111111 1.7725777777777778 3.118044444444444 0"></path>
    <path fill="none" stroke="#000000" stroke-linecap="round" stroke-linejoin="round" stroke-miterlimit="10" stroke-width="0.8889" d="m16.85364444444444 1.7852888888888887 7.590266666666666 0"></path>
    <path fill="none" stroke="#000000" stroke-linecap="round" stroke-linejoin="round" stroke-miterlimit="10" stroke-width="0.8889" d="M13.493022222222223 16.618844444444445 16.69208888888889 14.222222222222221l0 11.555555555555555"></path>
  </g>
</svg>