<svg id="Alien--Streamline-Openmoji" viewBox="0 0 32 32" xmlns="http://www.w3.org/2000/svg" height="32" width="32">
  <desc>
    Alien Streamline Emoji: https://streamlinehq.com
  </desc>
  <g id="color">
    <path fill="#d0cfce" d="M27.850844444444444 13.6496c0 3.1235999999999997 -1.4789333333333332 6.145511111111111 -2.9203111111111113 8.918222222222221 -0.36177777777777775 0.6959555555555555 -0.9440888888888889 1.1208888888888888 -1.3600444444444444 1.7586666666666666 -0.3466666666666667 0.531511111111111 -0.5614222222222223 1.276622222222222 -0.9363111111111111 1.7584888888888888C20.35728888888889 29.01182222222222 18.20568888888889 31.10982222222222 16 31.10982222222222c-2.1821333333333333 0 -4.42831111111111 -1.8924888888888887 -6.690133333333333 -4.767066666666666 -0.38866666666666666 -0.4939555555555555 -0.6538666666666667 -1.4010666666666667 -1.0128888888888887 -1.9484444444444444 -0.30306666666666665 -0.462 -0.9266222222222222 -1.3737333333333333 -1.2023555555555554 -1.8677333333333332 -1.6262666666666665 -2.913333333333333 -2.9454666666666665 -5.5178666666666665 -2.9454666666666665 -8.876977777777777C4.149155555555555 5.1192 10.074577777777778 0.8901777777777777 16 0.8901777777777777s11.850844444444444 4.229022222222222 11.850844444444444 12.759422222222222Z" stroke-width="0.4444"></path>
    <path fill="#9b9b9a" d="M16.570177777777776 30.682177777777774c3.4211111111111108 -2.850888888888889 6.758577777777777 -26.432044444444443 6.8004 -26.971644444444443 1.7725333333333333 1.4490666666666667 4.048533333333333 5.089155555555555 4.4046666666666665 7.430666666666667 0.6639111111111111 4.365777777777778 -1.3664444444444444 10.139288888888888 -4.204711111111111 13.185288888888888 -2.942133333333333 6.334177777777777 -7.000355555555555 6.3556888888888885 -7.000355555555555 6.3556888888888885" stroke-width="0.4444"></path>
    <path fill="#3f3f3f" d="M8.374977777777776 19.3344c1.1361333333333332 2.109688888888889 3.0471555555555554 3.2569777777777773 4.268444444444444 2.5625777777777774 1.2211999999999998 -0.6943555555555555 1.2901777777777776 -2.967511111111111 0.15404444444444446 -5.077155555555556s-3.0471555555555554 -3.256933333333333 -4.268444444444444 -2.5625777777777774 -1.2902222222222222 2.9675555555555553 -0.15404444444444446 5.077155555555556Z" stroke-width="0.4444"></path>
    <path fill="#3f3f3f" d="M23.463155555555552 19.3344c-1.1361333333333332 2.109688888888889 -3.0471555555555554 3.2569777777777773 -4.268444444444444 2.5625777777777774 -1.2211999999999998 -0.6943555555555555 -1.2901777777777776 -2.967511111111111 -0.15404444444444446 -5.077155555555556s3.0471555555555554 -3.256933333333333 4.268444444444444 -2.5625777777777774c1.2211999999999998 0.6944 1.2902222222222222 2.9675555555555553 0.15404444444444446 5.077155555555556Z" stroke-width="0.4444"></path>
  </g>
  <g id="line">
    <path fill="none" stroke="#000000" stroke-linecap="round" stroke-linejoin="round" stroke-width="0.8889" d="M13.037288888888888 25.789377777777776c0.2448888888888889 0.23097777777777778 1.3306222222222222 1.203111111111111 2.9088444444444446 1.0989333333333333 1.2804 -0.08457777777777777 2.139022222222222 -0.8282666666666666 2.424 -1.0989333333333333"></path>
    <path fill="none" stroke="#000000" stroke-miterlimit="10" stroke-width="0.8889" d="M8.374977777777776 19.3344c1.1361333333333332 2.109688888888889 3.0471555555555554 3.2569777777777773 4.268444444444444 2.5625777777777774 1.2211999999999998 -0.6943555555555555 1.2901777777777776 -2.967511111111111 0.15404444444444446 -5.077155555555556s-3.0471555555555554 -3.256933333333333 -4.268444444444444 -2.5625777777777774 -1.2902222222222222 2.9675555555555553 -0.15404444444444446 5.077155555555556Z"></path>
    <path fill="none" stroke="#000000" stroke-linecap="round" stroke-linejoin="round" stroke-width="0.8889" d="M16 31.10982222222222c-4.632711111111111 0 -6.822488888888889 -4.433288888888889 -7.4808 -6.095777777777777 -0.1542222222222222 -0.3894666666666666 -0.3788888888888889 -0.7428888888888888 -0.6695555555555555 -1.0444888888888888 -1.0721777777777777 -1.1126222222222222 -3.7004888888888887 -4.439688888888889 -3.7004888888888887 -10.319955555555554C4.149155555555555 5.1192 10.074577777777778 0.8901777777777777 16 0.8901777777777777s11.850844444444444 4.229022222222222 11.850844444444444 12.759422222222222c0 5.9140444444444435 -2.3795555555555556 8.946444444444444 -3.5519111111111106 10.159999999999998 -0.38177777777777777 0.3952444444444444 -0.7046222222222221 0.8436444444444444 -0.944 1.3383555555555555C21.05848888888889 29.893866666666668 18.375555555555554 31.10982222222222 16 31.10982222222222Z"></path>
    <path fill="none" stroke="#000000" stroke-miterlimit="10" stroke-width="0.8889" d="M23.463155555555552 19.3344c-1.1361333333333332 2.109688888888889 -3.0471555555555554 3.2569777777777773 -4.268444444444444 2.5625777777777774 -1.2211999999999998 -0.6943555555555555 -1.2901777777777776 -2.967511111111111 -0.15404444444444446 -5.077155555555556s3.0471555555555554 -3.256933333333333 4.268444444444444 -2.5625777777777774c1.2211999999999998 0.6944 1.2902222222222222 2.9675555555555553 0.15404444444444446 5.077155555555556Z"></path>
  </g>
</svg>