<svg id="Alien-Monster--Streamline-Openmoji" viewBox="0 0 32 32" xmlns="http://www.w3.org/2000/svg" height="32" width="32">
  <desc>
    Alien Monster Streamline Emoji: https://streamlinehq.com
  </desc>
  <g id="color">
    <path fill="#8967aa" d="M0.9007555555555555 7.579244444444444v8.130399999999998h1.7422222222222221v1.7422222222222221h1.7422222222222221v4.065155555555555h3.4844444444444442v3.4844444444444442h3.4844444444444442v-3.4844444444444442h9.291822222222223v3.4844444444444442h3.4844444444444442v-3.4844444444444442h3.4844444444444442v-4.065155555555555h1.7422222222222221v-1.7422222222222221h1.7422222222222221v-8.711111111111112h-3.4844444444444442V9.902222222222223h-4.065155555555555v-2.9036888888888885H21.226666666666663v-3.4844444444444442h-3.4844444444444442v3.4844444444444442h-4.065199999999999v-3.4844444444444442h-3.4844444444444442v3.4844444444444442h-2.3229333333333333V9.902222222222223h-3.4844444444444442v-2.9036888888888885h-3.4844444444444442Z" stroke-width="0.4444"></path>
    <path fill="#8967aa" d="M4.385199999999999 25.001466666666666h3.4844444444444442v3.4844444444444442h-3.4844444444444442Z" stroke-width="0.4444"></path>
    <path fill="#8967aa" d="M24.130355555555557 25.001466666666666h3.4844444444444442v3.4844444444444442h-3.4844444444444442Z" stroke-width="0.4444"></path>
  </g>
  <g id="line">
    <path stroke="#000000" stroke-linecap="round" stroke-linejoin="round" stroke-width="0.8889" d="M9.713466666666665 13.386666666666667h2.0906666666666665v3.4844444444444442h-2.0906666666666665Z"></path>
    <path fill="none" stroke="#000000" stroke-linecap="round" stroke-linejoin="round" stroke-width="0.8889" d="M7.869644444444445 21.51702222222222h-3.4844444444444442v-3.4844444444444442"></path>
    <path fill="none" stroke="#000000" stroke-linecap="round" stroke-linejoin="round" stroke-width="0.8889" d="M8.208222222222222 9.902222222222223v-2.9036888888888885l1.9843555555555557 0"></path>
    <path fill="none" stroke="#000000" stroke-linecap="round" stroke-linejoin="round" stroke-width="0.8889" d="M23.380044444444444 9.902222222222223v-2.9036888888888885h-1.9837777777777776"></path>
    <path fill="none" stroke="#000000" stroke-linecap="round" stroke-linejoin="round" stroke-width="0.8889" d="M2.6429777777777774 15.709644444444443h-1.7422222222222221v-8.711111111111112h3.4844444444444442v8.711111111111112"></path>
    <path fill="none" stroke="#000000" stroke-linecap="round" stroke-linejoin="round" stroke-width="0.8889" d="M27.6148 15.709644444444443v-8.711111111111112h3.4844444444444442v8.711111111111112h-1.7422222222222221"></path>
    <path fill="none" stroke="#000000" stroke-linecap="round" stroke-linejoin="round" stroke-width="0.8889" d="M10.192577777777776 6.9985333333333335v-3.4844444444444442h3.4844444444444442v3.4844444444444442"></path>
    <path fill="none" stroke="#000000" stroke-linecap="round" stroke-linejoin="round" stroke-width="0.8889" d="M17.74222222222222 6.9985333333333335v-3.4844444444444442h3.4844444444444442v3.4844444444444442"></path>
    <path fill="none" stroke="#000000" stroke-linecap="round" stroke-linejoin="round" stroke-width="0.8889" d="M4.385199999999999 15.709644444444443h1.7422222222222221v1.7422222222222221h-3.4844444444444442v-1.7422222222222221"></path>
    <path fill="none" stroke="#000000" stroke-linecap="round" stroke-linejoin="round" stroke-width="0.8889" d="M29.357022222222216 15.709644444444443v1.7422222222222221h-3.4844444444444442v-1.7422222222222221h1.7422222222222221"></path>
    <path fill="none" stroke="#000000" stroke-linecap="round" stroke-linejoin="round" stroke-width="0.8889" d="M4.385199999999999 25.001466666666666h3.4844444444444442v3.4844444444444442h-3.4844444444444442Z"></path>
    <path fill="none" stroke="#000000" stroke-linecap="round" stroke-linejoin="round" stroke-width="0.8889" d="M24.130355555555557 25.001466666666666h3.4844444444444442v3.4844444444444442h-3.4844444444444442Z"></path>
    <path fill="none" stroke="#000000" stroke-linecap="round" stroke-linejoin="round" stroke-width="0.8889" d="M11.354088888888889 21.51702222222222v3.4844444444444442h-3.4844444444444442v-3.4844444444444442"></path>
    <path fill="none" stroke="#000000" stroke-linecap="round" stroke-linejoin="round" stroke-width="0.8889" d="M24.130355555555557 21.51702222222222h3.4844444444444442v-3.4844444444444442"></path>
    <path fill="none" stroke="#000000" stroke-linecap="round" stroke-linejoin="round" stroke-width="0.8889" d="M20.645911111111108 21.51702222222222v3.4844444444444442h3.4844444444444442v-3.4844444444444442"></path>
    <path stroke="#000000" stroke-linecap="round" stroke-linejoin="round" stroke-width="0.8889" d="M20.311999999999998 13.386666666666667h2.0906666666666665v3.4844444444444442h-2.0906666666666665Z"></path>
    <path fill="none" stroke="#000000" stroke-linecap="round" stroke-linejoin="round" stroke-width="0.8889" d="M20.645911111111108 21.51702222222222h0Z"></path>
    <path fill="none" stroke="#000000" stroke-linecap="round" stroke-linejoin="round" stroke-width="0.8889" d="M17.74222222222222 6.9985333333333335h0Z"></path>
    <path fill="none" stroke="#000000" stroke-linecap="round" stroke-linejoin="round" stroke-width="0.8889" d="M4.385199999999999 9.902222222222223h0Z"></path>
    <path fill="none" stroke="#000000" stroke-linecap="round" stroke-linejoin="round" stroke-width="0.8889" d="M23.549644444444443 9.902222222222223h0Z"></path>
    <path fill="none" stroke="#000000" stroke-linecap="round" stroke-linejoin="round" stroke-width="0.8889" d="M11.354088888888889 21.51702222222222h9.291822222222223"></path>
    <path fill="none" stroke="#000000" stroke-linecap="round" stroke-linejoin="round" stroke-width="0.8889" d="M13.67702222222222 6.9985333333333335H17.74222222222222"></path>
    <path fill="none" stroke="#000000" stroke-linecap="round" stroke-linejoin="round" stroke-width="0.8889" d="M4.385199999999999 9.902222222222223h3.4844444444444442"></path>
    <path fill="none" stroke="#000000" stroke-linecap="round" stroke-linejoin="round" stroke-width="0.8889" d="M23.549644444444443 9.902222222222223h4.065155555555555"></path>
  </g>
</svg>