<svg id="American-Football--Streamline-Openmoji" viewBox="0 0 32 32" version="1.1" xmlns="http://www.w3.org/2000/svg" height="32" width="32">
  <desc>
    American Football Streamline Emoji: https://streamlinehq.com
  </desc>
  <g id="line-supplement">
    <path fill="none" stroke="#000000" stroke-linecap="round" stroke-linejoin="round" stroke-miterlimit="10" stroke-width="0.8889" d="m16 1.8666666666666667 0 28.22222222222222"></path>
    <path fill="none" stroke="#000000" stroke-linecap="round" stroke-linejoin="round" stroke-miterlimit="10" stroke-width="0.8889" d="m17.288888888888888 15.955555555555554 -2.5777777777777775 0"></path>
    <path fill="none" stroke="#000000" stroke-linecap="round" stroke-linejoin="round" stroke-miterlimit="10" stroke-width="0.8889" d="m17.288888888888888 13.733333333333333 -2.5777777777777775 0"></path>
    <path fill="none" stroke="#000000" stroke-linecap="round" stroke-linejoin="round" stroke-miterlimit="10" stroke-width="0.8889" d="m17.288888888888888 18.177777777777777 -2.5777777777777775 0"></path>
    <path fill="none" stroke="#000000" stroke-linecap="round" stroke-linejoin="round" stroke-miterlimit="10" stroke-width="0.8889" d="m11.377777777777778 26.044444444444444 9.288888888888888 0"></path>
    <path fill="none" stroke="#000000" stroke-linecap="round" stroke-linejoin="round" stroke-miterlimit="10" stroke-width="0.8889" d="m10.488888888888889 7.111111111111111 11.022222222222222 0"></path>
  </g>
  <g id="color">
    <path fill="#a57939" d="M15.955555555555554 1.7777777777777777c-4.888888888888888 2.8444444444444446 -8.133333333333333 8.133333333333333 -8.133333333333333 14.177777777777777S11.11111111111111 27.333333333333332 16 30.177777777777777h0.044444444444444446C20.88888888888889 27.333333333333332 24.177777777777777 22.044444444444444 24.177777777777777 16c0 -6.088888888888889 -3.2888888888888888 -11.377777777777778 -8.222222222222221 -14.222222222222221" stroke-width="0.4444"></path>
    <path fill="#6a462f" d="M18.533333333333335 3.5999999999999996c2.5777777777777775 3.511111111111111 4.088888888888889 8.355555555555556 3.2888888888888888 12.933333333333334 -0.9333333333333333 5.199999999999999 -4.222222222222222 9.42222222222222 -8.533333333333333 11.688888888888888 0.8444444444444443 0.7555555555555555 1.7333333333333332 1.4222222222222223 2.711111111111111 2h0.044444444444444446c4.888888888888888 -2.8444444444444446 8.133333333333333 -8.133333333333333 8.133333333333333 -14.177777777777777 0 -4.8 -2.355555555555555 -9.42222222222222 -5.644444444444444 -12.444444444444443z" stroke-width="0.4444"></path>
    <path fill="none" stroke="#ffffff" stroke-linecap="round" stroke-linejoin="round" stroke-miterlimit="10" stroke-width="0.8889" d="m16 1.8666666666666667 0 28.22222222222222"></path>
    <path fill="none" stroke="#ffffff" stroke-linecap="round" stroke-linejoin="round" stroke-miterlimit="10" stroke-width="0.8889" d="m17.288888888888888 15.955555555555554 -2.5777777777777775 0"></path>
    <path fill="none" stroke="#ffffff" stroke-linecap="round" stroke-linejoin="round" stroke-miterlimit="10" stroke-width="0.8889" d="m17.288888888888888 13.733333333333333 -2.5777777777777775 0"></path>
    <path fill="none" stroke="#ffffff" stroke-linecap="round" stroke-linejoin="round" stroke-miterlimit="10" stroke-width="0.8889" d="m17.288888888888888 18.177777777777777 -2.5777777777777775 0"></path>
    <path fill="none" stroke="#ffffff" stroke-linecap="round" stroke-linejoin="round" stroke-miterlimit="10" stroke-width="0.8889" d="m11.377777777777778 26.044444444444444 9.288888888888888 0"></path>
    <path fill="none" stroke="#ffffff" stroke-linecap="round" stroke-linejoin="round" stroke-miterlimit="10" stroke-width="0.8889" d="m10.488888888888889 7.111111111111111 11.022222222222222 0"></path>
  </g>
  <g id="hair"></g>
  <g id="skin"></g>
  <g id="skin-shadow"></g>
  <g id="line">
    <path fill="none" stroke="#000000" stroke-linecap="round" stroke-linejoin="round" stroke-miterlimit="10" stroke-width="0.8889" d="M15.955555555555554 1.7777777777777777c-4.888888888888888 2.8444444444444446 -8.133333333333333 8.133333333333333 -8.133333333333333 14.177777777777777S11.11111111111111 27.333333333333332 16 30.177777777777777h0.044444444444444446C20.88888888888889 27.333333333333332 24.177777777777777 22.044444444444444 24.177777777777777 16c0 -6.088888888888889 -3.2888888888888888 -11.377777777777778 -8.222222222222221 -14.222222222222221"></path>
  </g>
</svg>