<svg id="Angry-Face--Streamline-Openmoji" viewBox="0 0 32 32" xmlns="http://www.w3.org/2000/svg" height="32" width="32">
  <desc>
    Angry Face Streamline Emoji: https://streamlinehq.com
  </desc>
  <g id="color">
    <path fill="#fcea2b" d="M16 0.9733333333333333C7.714222222222221 0.9733333333333333 0.9733333333333333 7.714222222222221 0.9733333333333333 16c0 8.285688888888888 6.740888888888889 15.026666666666667 15.026666666666667 15.026666666666667 8.285688888888888 0 15.026666666666667 -6.740977777777777 15.026666666666667 -15.026666666666667C31.026666666666667 7.714222222222221 24.285688888888888 0.9733333333333333 16 0.9733333333333333Z" stroke-width="0.4444"></path>
  </g>
  <g id="hair"></g>
  <g id="skin"></g>
  <g id="skin-shadow"></g>
  <g id="line">
    <path fill="none" stroke="#000000" stroke-miterlimit="10" stroke-width="0.8889" d="M0.9733333333333333 16c0 11.567555555555556 12.522222222222222 18.79724444444444 22.54 13.013466666666666C28.162622222222222 26.329199999999997 31.026666666666667 21.368488888888887 31.026666666666667 16c0 -11.567555555555556 -12.522222222222222 -18.79724444444444 -22.54 -13.013466666666666C3.8373777777777778 5.6708 0.9733333333333333 10.631511111111111 0.9733333333333333 16"></path>
    <path d="M12.08 13.99111111111111c0 1.0824 -0.8786222222222222 1.96 -1.96 1.96 -1.0814666666666666 0 -1.96 -0.8775999999999999 -1.96 -1.96 0 -1.081422222222222 0.8785333333333333 -1.96 1.96 -1.96 1.0813777777777778 0 1.96 0.8786222222222222 1.96 1.96" stroke-width="0.4444"></path>
    <path d="M23.84 13.99111111111111c0 1.0824 -0.8785333333333333 1.96 -1.96 1.96s-1.96 -0.8775999999999999 -1.96 -1.96c0 -1.081422222222222 0.8785333333333333 -1.96 1.96 -1.96s1.96 0.8786222222222222 1.96 1.96" stroke-width="0.4444"></path>
    <path fill="none" stroke="#000000" stroke-linecap="round" stroke-linejoin="round" stroke-miterlimit="10" stroke-width="0.8889" d="m7.506666666666667 8.16 4.573333333333332 2.6133333333333333"></path>
    <path fill="none" stroke="#000000" stroke-linecap="round" stroke-linejoin="round" stroke-miterlimit="10" stroke-width="0.8889" d="m24.493333333333332 8.16 -4.573333333333332 2.6133333333333333"></path>
    <path fill="none" stroke="#000000" stroke-linecap="round" stroke-linejoin="round" stroke-miterlimit="10" stroke-width="0.8889" d="M11.753333333333332 20.57333333333333c0.8389333333333333 -0.41657777777777777 2.603333333333333 -0.6734666666666667 4.470177777777778 -0.6520888888888888 1.714 0.0196 3.2599555555555555 0.27084444444444444 4.023155555555555 0.6520888888888888"></path>
  </g>
</svg>