<svg id="Angry-Face-With-Horns--Streamline-Openmoji" viewBox="0 0 32 32" xmlns="http://www.w3.org/2000/svg" height="32" width="32">
  <desc>
    Angry Face With Horns Streamline Emoji: https://streamlinehq.com
  </desc>
  <g id="color">
    <path fill="#d22f27" d="M23.465955555555556 6.127422222222222c1.7422222222222221 -1.161511111111111 2.3229777777777776 -2.9037333333333333 1.7422222222222221 -5.226666666666667 4.065199999999999 1.1614666666666666 3.4844444444444442 5.807377777777777 1.7422222222222221 8.711111111111112" stroke-width="0.4444"></path>
    <path fill="#d22f27" d="M8.534044444444444 6.127422222222222c-1.7422222222222221 -1.161511111111111 -2.3229333333333333 -2.9037333333333333 -1.7422222222222221 -5.226666666666667 -4.065155555555555 1.1614666666666666 -3.4844444444444442 5.807377777777777 -1.7422222222222221 8.711111111111112" stroke-width="0.4444"></path>
    <path fill="#ea5a47" d="M16 4.385199999999999c-7.365111111111111 0 -13.357022222222222 5.9919111111111105 -13.357022222222222 13.357022222222222S8.634888888888888 31.09924444444444 16 31.09924444444444c7.365066666666666 0 13.357022222222222 -5.991955555555555 13.357022222222222 -13.357022222222222C29.357022222222216 10.377022222222221 23.365066666666664 4.385199999999999 16 4.385199999999999Z" stroke-width="0.4444"></path>
  </g>
  <g id="hair"></g>
  <g id="skin"></g>
  <g id="skin-shadow"></g>
  <g id="line">
    <path fill="none" stroke="#000000" stroke-miterlimit="10" stroke-width="0.8889" d="M2.6429777777777774 17.74222222222222c0 10.282266666666667 11.130844444444444 16.708666666666666 20.035555555555554 11.567555555555556 4.132666666666667 -2.3860444444444444 6.6784888888888885 -6.795555555555555 6.6784888888888885 -11.567555555555556 0 -10.282266666666667 -11.130844444444444 -16.708666666666666 -20.035555555555554 -11.567555555555556 -4.132666666666667 2.3860444444444444 -6.6784888888888885 6.795555555555555 -6.6784888888888885 11.567555555555556"></path>
    <path d="M12.515555555555554 15.956577777777776c0 0.9620888888888888 -0.7809777777777778 1.7422222222222221 -1.7422222222222221 1.7422222222222221 -0.9612888888888889 0 -1.7422222222222221 -0.7801333333333333 -1.7422222222222221 -1.7422222222222221 0 -0.9613333333333332 0.7809333333333334 -1.7422222222222221 1.7422222222222221 -1.7422222222222221 0.9612444444444443 0 1.7422222222222221 0.7809777777777778 1.7422222222222221 1.7422222222222221" stroke-width="0.4444"></path>
    <path d="M22.968888888888888 15.956577777777776c0 0.9620888888888888 -0.7809333333333334 1.7422222222222221 -1.7422222222222221 1.7422222222222221s-1.7422222222222221 -0.7801333333333333 -1.7422222222222221 -1.7422222222222221c0 -0.9613333333333332 0.7809333333333334 -1.7422222222222221 1.7422222222222221 -1.7422222222222221s1.7422222222222221 0.7809777777777778 1.7422222222222221 1.7422222222222221" stroke-width="0.4444"></path>
    <path fill="none" stroke="#000000" stroke-linecap="round" stroke-linejoin="round" stroke-miterlimit="10" stroke-width="0.8889" d="m8.450355555555555 11.354088888888889 4.065199999999999 2.3229333333333333"></path>
    <path fill="none" stroke="#000000" stroke-linecap="round" stroke-linejoin="round" stroke-miterlimit="10" stroke-width="0.8889" d="M23.549644444444443 11.354088888888889 19.484444444444446 13.67702222222222"></path>
    <path fill="none" stroke="#000000" stroke-linecap="round" stroke-linejoin="round" stroke-miterlimit="10" stroke-width="0.8889" d="M23.465955555555556 6.127422222222222c1.7422222222222221 -1.161511111111111 2.3229777777777776 -2.9037333333333333 1.7422222222222221 -5.226666666666667 4.065199999999999 1.1614666666666666 3.4844444444444442 5.807377777777777 1.7422222222222221 8.711111111111112"></path>
    <path fill="none" stroke="#000000" stroke-linecap="round" stroke-linejoin="round" stroke-miterlimit="10" stroke-width="0.8889" d="M8.534044444444444 6.127422222222222c-1.7422222222222221 -1.161511111111111 -2.3229333333333333 -2.9037333333333333 -1.7422222222222221 -5.226666666666667 -4.065155555555555 1.1614666666666666 -3.4844444444444442 5.807377777777777 -1.7422222222222221 8.711111111111112"></path>
    <path fill="none" stroke="#000000" stroke-linecap="round" stroke-linejoin="round" stroke-miterlimit="10" stroke-width="0.8889" d="M12.2252 22.388133333333332c0.7457333333333332 -0.37026666666666663 2.3140444444444443 -0.5986222222222222 3.973466666666667 -0.5796 1.5236 0.01742222222222222 2.897733333333333 0.24075555555555553 3.5761333333333334 0.5796"></path>
  </g>
</svg>