<svg id="Anguished-Face--Streamline-Openmoji" viewBox="0 0 32 32" xmlns="http://www.w3.org/2000/svg" height="32" width="32">
  <desc>
    Anguished Face Streamline Emoji: https://streamlinehq.com
  </desc>
  <g id="color">
    <path fill="#fcea2b" d="M16 0.9733333333333333C7.714222222222221 0.9733333333333333 0.9733333333333333 7.714222222222221 0.9733333333333333 16c0 8.285688888888888 6.740888888888889 15.026666666666667 15.026666666666667 15.026666666666667 8.285688888888888 0 15.026666666666667 -6.740977777777777 15.026666666666667 -15.026666666666667C31.026666666666667 7.714222222222221 24.285688888888888 0.9733333333333333 16 0.9733333333333333Z" stroke-width="0.4444"></path>
    <path fill="#ffffff" d="M10.773333333333332 22.533333333333335s-0.07782222222222222 -1.8971555555555555 0 -1.96c0.8941333333333333 -0.47746666666666665 2.590133333333333 -0.6533333333333333 5.226666666666667 -0.6533333333333333 2.6133333333333333 0 4.346088888888889 0.1826222222222222 5.226666666666667 0.6533333333333333 0.05737777777777777 0.037377777777777774 0 1.96 0 1.96H10.773333333333332Z" stroke-width="0.4444"></path>
  </g>
  <g id="hair"></g>
  <g id="skin"></g>
  <g id="skin-shadow"></g>
  <g id="line">
    <path fill="none" stroke="#000000" stroke-miterlimit="10" stroke-width="0.8889" d="M0.9733333333333333 16c0 11.567555555555556 12.522222222222222 18.79724444444444 22.54 13.013466666666666C28.162622222222222 26.329199999999997 31.026666666666667 21.368488888888887 31.026666666666667 16c0 -11.567555555555556 -12.522222222222222 -18.79724444444444 -22.54 -13.013466666666666C3.8373777777777778 5.6708 0.9733333333333333 10.631511111111111 0.9733333333333333 16"></path>
    <path d="M12.08 12.684444444444443c0 1.0824444444444445 -0.8786222222222222 1.96 -1.96 1.96 -1.0814666666666666 0 -1.96 -0.8775999999999999 -1.96 -1.96 0 -1.0813777777777778 0.8785333333333333 -1.96 1.96 -1.96 1.0813777777777778 0 1.96 0.8786222222222222 1.96 1.96" stroke-width="0.4444"></path>
    <path d="M23.84 12.684444444444443c0 1.0824444444444445 -0.8785333333333333 1.96 -1.96 1.96s-1.96 -0.8775999999999999 -1.96 -1.96c0 -1.0813777777777778 0.8785333333333333 -1.96 1.96 -1.96s1.96 0.8786222222222222 1.96 1.96" stroke-width="0.4444"></path>
    <path fill="none" stroke="#000000" stroke-linecap="round" stroke-linejoin="round" stroke-miterlimit="10" stroke-width="0.8889" d="M10.773333333333332 22.533333333333335s-0.07782222222222222 -1.8971555555555555 0 -1.96c0.8941333333333333 -0.47746666666666665 2.590133333333333 -0.6533333333333333 5.226666666666667 -0.6533333333333333 2.6133333333333333 0 4.346088888888889 0.1826222222222222 5.226666666666667 0.6533333333333333 0.05737777777777777 0.037377777777777774 0 1.96 0 1.96H10.773333333333332Z"></path>
    <path fill="none" stroke="#000000" stroke-linecap="round" stroke-linejoin="round" stroke-miterlimit="10" stroke-width="0.8889" d="M7.603555555555555 8.323377777777777c0.31831111111111104 0.14866666666666667 1.7167555555555554 0.7584 3.3737333333333335 0.21737777777777775 1.344311111111111 -0.4388888888888889 2.075733333333333 -1.3796444444444445 2.312533333333333 -1.7142666666666666"></path>
    <path fill="none" stroke="#000000" stroke-linecap="round" stroke-linejoin="round" stroke-miterlimit="10" stroke-width="0.8889" d="M24.396444444444445 8.323377777777777c-0.31831111111111104 0.14866666666666667 -1.7167555555555554 0.7584 -3.3737333333333335 0.21737777777777775 -1.344311111111111 -0.4388888888888889 -2.075733333333333 -1.3796444444444445 -2.312533333333333 -1.7142666666666666"></path>
  </g>
</svg>