<svg id="Annoyed-Face-With-Tongue--Streamline-Openmoji" viewBox="0 0 32 32" xmlns="http://www.w3.org/2000/svg" height="32" width="32">
  <desc>
    Annoyed Face With Tongue Streamline Emoji: https://streamlinehq.com
  </desc>
  <g id="color">
    <path fill="#fcea2b" d="M16.130666666666663 1.1693333333333331C4.663733333333333 1.1698666666666666 -2.5032444444444444 13.58351111111111 3.2306666666666666 23.51391111111111c5.733955555555555 9.930399999999999 20.0676 9.929777777777776 25.800666666666665 -0.0011555555555555555C30.33848888888889 21.2484 31.026666666666667 18.67991111111111 31.026666666666667 16.06533333333333c0.0035999999999999995 -8.228355555555556 -6.667644444444444 -14.899644444444444 -14.895999999999999 -14.895999999999999Z" stroke-width="0.4444"></path>
    <path fill="#ea5a47" d="M18.94 19.723999999999997c-1.176 2.809333333333333 -1.3066666666666666 3.92 -3.5933333333333337 5.814666666666667 -3.658666666666666 3.1359999999999997 -4.965333333333334 -2.6786666666666665 -3.7239999999999998 -5.814666666666667Z" stroke-width="0.4444"></path>
  </g>
  <g id="line">
    <path fill="none" stroke="#000000" stroke-miterlimit="10" stroke-width="0.8889" d="M0.9733333333333333 16c0 11.567555555555556 12.522222222222222 18.79724444444444 22.54 13.013466666666666C28.162622222222222 26.329199999999997 31.026666666666667 21.368488888888887 31.026666666666667 16c0 -11.567555555555556 -12.522222222222222 -18.79724444444444 -22.54 -13.013466666666666C3.8373777777777778 5.6708 0.9733333333333333 10.631511111111111 0.9733333333333333 16"></path>
    <path fill="none" stroke="#000000" stroke-miterlimit="10" stroke-width="0.8889" d="M18.94 20.083333333333332c-1.176 3.789333333333333 -3.92 6.990666666666666 -5.88 6.402666666666667s-2.6133333333333333 -3.2013333333333334 -1.5026666666666666 -7.055999999999999"></path>
    <path fill="none" stroke="#000000" stroke-linecap="round" stroke-linejoin="round" stroke-width="0.8893" d="M23.055999999999997 18.417333333333332c-1.1796888888888888 1.0404 -1.1796888888888888 2.8796 0 3.92"></path>
    <path fill="none" stroke="#000000" stroke-linecap="round" stroke-linejoin="round" stroke-width="0.8893" d="M8.029333333333332 20.37733333333333c1.5026666666666666 -0.5226666666666666 4.442666666666667 -0.6533333333333333 6.859999999999999 -0.6533333333333333s5.422666666666666 0.13066666666666665 6.859999999999999 0.6533333333333333"></path>
    <path fill="none" stroke="#000000" stroke-linecap="round" stroke-miterlimit="10" stroke-width="0.8889" d="M24.428 13.647999999999998c-0.9542666666666666 -2.1626222222222222 -3.891777777777778 -2.481244444444444 -5.287555555555556 -0.5735555555555555 -0.13071111111111108 0.1787111111111111 -0.24173333333333336 0.37097777777777774 -0.3311111111111111 0.5735555555555555"></path>
    <path fill="none" stroke="#000000" stroke-linecap="round" stroke-miterlimit="10" stroke-width="0.8889" d="M13.190666666666665 13.647999999999998c-0.9542666666666666 -2.1626222222222222 -3.891777777777778 -2.481244444444444 -5.287555555555556 -0.5735555555555555 -0.13071111111111108 0.1787111111111111 -0.24173333333333336 0.37097777777777774 -0.3311111111111111 0.5735555555555555"></path>
  </g>
</svg>