<svg id="Artist-Palette--Streamline-Openmoji" viewBox="0 0 32 32" xmlns="http://www.w3.org/2000/svg" height="32" width="32">
  <desc>
    Artist Palette Streamline Emoji: https://streamlinehq.com
  </desc>
  <g id="color">
    <path fill="#a57939" stroke="none" stroke-linecap="round" stroke-linejoin="round" stroke-miterlimit="10" stroke-width="0.8889" d="M30.77711111111111 15.598044444444442c-0.1645333333333333 -0.4936 -0.4672888888888888 -1.382 -1.3162222222222222 -1.974311111111111 -1.026622222222222 -0.7107555555555555 -2.388888888888889 -0.6646666666666666 -2.6324 -0.6580888888888888 -0.5001777777777777 0.019733333333333332 -0.7765777777777778 0.10528888888888888 -1.3162222222222222 0 -0.38168888888888886 -0.07897777777777777 -1.0068888888888887 -0.1974222222222222 -1.3161777777777777 -0.6580888888888888 -0.26324444444444445 -0.3883111111111111 -0.0987111111111111 -0.7107555555555555 0 -1.974311111111111 0.07897777777777777 -0.9937333333333332 0.11186666666666666 -1.493911111111111 0 -1.974311111111111 -0.24351111111111112 -1.0398222222222222 -0.9805777777777778 -1.6847555555555556 -1.3162222222222222 -1.974311111111111 -0.6909777777777777 -0.6054666666666667 -1.5662666666666665 -1.026622222222222 -3.2904888888888886 -1.3161777777777777 -1.1977333333333333 -0.20404444444444444 -3.126 -0.39488888888888884 -5.922933333333333 0 -1.4148888888888889 0.1974222222222222 -3.5931999999999995 0.5725333333333333 -5.2648 1.131911111111111 -1.1648444444444443 0.38168888888888886 -2.4612888888888884 0.9279111111111111 -3.948622222222222 1.974311111111111 -0.013155555555555556 0.006577777777777778 -0.02631111111111111 0.013155555555555556 -0.032888888888888884 0.019733333333333332 -2.2638666666666665 1.4741333333333333 -3.5471555555555554 4.080222222222222 -3.4352888888888886 6.785022222222222 0.5988888888888888 14.524311111111109 26.870266666666666 16.353822222222224 29.792266666666666 3.909111111111111 0.0592 -0.3948444444444444 0.5198666666666666 -1.7439555555555555 0 -3.2904888888888886Zm-13.681955555555556 -3.869644444444444c-1.0068888888888887 0 -1.8163555555555555 -0.8160444444444445 -1.8163555555555555 -1.8163555555555555 0 -1.0068888888888887 0.8094666666666666 -1.8163555555555555 1.8163555555555555 -1.8163555555555555h1.7834666666666668c1.0003111111111112 0 1.8163555555555555 0.8094666666666666 1.8163555555555555 1.8163555555555555 0 0.5001777777777777 -0.204 0.9542666666666666 -0.5330666666666667 1.2832888888888887s-0.7831111111111111 0.5330666666666667 -1.2832888888888887 0.5330666666666667h-1.7834666666666668Z"></path>
    <path fill="#61b2e4" stroke="none" stroke-miterlimit="10" stroke-width="0.8889" d="M3.1368444444444443 13.623733333333334c0 1.5198222222222222 1.6452444444444443 2.469688888888889 2.9614666666666665 1.7097777777777776 0.6108444444444444 -0.35266666666666663 0.9871555555555555 -1.0044444444444443 0.9871555555555555 -1.7097777777777776 0 -1.5198222222222222 -1.6452444444444443 -2.469688888888889 -2.9614666666666665 -1.7097777777777776 -0.6108444444444444 0.35266666666666663 -0.9871555555555555 1.0044444444444443 -0.9871555555555555 1.7097777777777776"></path>
    <path fill="#5c9e31" stroke="none" stroke-linecap="round" stroke-linejoin="round" stroke-miterlimit="10" stroke-width="0.8889" d="M6.4273333333333325 19.546666666666663c0 1.519777777777778 1.6452888888888888 2.469688888888889 2.9614666666666665 1.7097777777777776 0.6108444444444444 -0.35266666666666663 0.9871555555555555 -1.0044444444444443 0.9871555555555555 -1.7097777777777776 0 -1.5198222222222222 -1.6452444444444443 -2.469733333333333 -2.9614666666666665 -1.7098222222222221 -0.6108444444444444 0.35266666666666663 -0.9871555555555555 1.0044444444444443 -0.9871555555555555 1.7098222222222221"></path>
    <path fill="#fcea2b" stroke="none" stroke-miterlimit="10" stroke-width="0.8889" d="M13.008355555555553 21.520933333333332c0 1.5198222222222222 1.6452444444444443 2.469733333333333 2.9614666666666665 1.7098222222222221 0.6108444444444444 -0.35266666666666663 0.9871555555555555 -1.0044444444444443 0.9871555555555555 -1.7098222222222221 0 -1.5198222222222222 -1.6452444444444443 -2.469688888888889 -2.9614666666666665 -1.7097777777777776 -0.6108444444444444 0.35266666666666663 -0.9871555555555555 1.0044444444444443 -0.9871555555555555 1.7097777777777776"></path>
    <path fill="#d22f27" stroke="none" stroke-miterlimit="10" stroke-width="0.8889" d="M19.589377777777774 20.862844444444445c0 1.5198222222222222 1.6452444444444443 2.469733333333333 2.9614666666666665 1.7098222222222221 0.6108444444444444 -0.3527111111111111 0.9871555555555555 -1.0044444444444443 0.9871555555555555 -1.7098222222222221 0 -1.5198222222222222 -1.6452888888888888 -2.469688888888889 -2.9614666666666665 -1.7097777777777776 -0.6108444444444444 0.35266666666666663 -0.9871555555555555 1.0044444444444443 -0.9871555555555555 1.7097777777777776"></path>
  </g>
  <g id="hair"></g>
  <g id="skin"></g>
  <g id="skin-shadow"></g>
  <g id="line">
    <path fill="none" stroke="#000000" stroke-linecap="round" stroke-linejoin="round" stroke-miterlimit="10" stroke-width="0.8889" d="M30.77711111111111 15.598044444444442c-0.1645333333333333 -0.4936 -0.4672888888888888 -1.382 -1.3162222222222222 -1.974311111111111 -1.026622222222222 -0.7107555555555555 -2.388888888888889 -0.6646666666666666 -2.6324 -0.6580888888888888 -0.5001777777777777 0.019733333333333332 -0.7765777777777778 0.10528888888888888 -1.3162222222222222 0 -0.38168888888888886 -0.07897777777777777 -1.0068888888888887 -0.1974222222222222 -1.3161777777777777 -0.6580888888888888 -0.26324444444444445 -0.3883111111111111 -0.0987111111111111 -0.7107555555555555 0 -1.974311111111111 0.07897777777777777 -0.9937333333333332 0.11186666666666666 -1.493911111111111 0 -1.974311111111111 -0.24351111111111112 -1.0398222222222222 -0.9805777777777778 -1.6847555555555556 -1.3162222222222222 -1.974311111111111 -0.6909777777777777 -0.6054666666666667 -1.5662666666666665 -1.026622222222222 -3.2904888888888886 -1.3161777777777777 -1.1977333333333333 -0.20404444444444444 -3.126 -0.39488888888888884 -5.922933333333333 0 -1.4148888888888889 0.1974222222222222 -3.5931999999999995 0.5725333333333333 -5.2648 1.131911111111111 -1.1648444444444443 0.38168888888888886 -2.4612888888888884 0.9279111111111111 -3.948622222222222 1.974311111111111 -0.013155555555555556 0.006577777777777778 -0.02631111111111111 0.013155555555555556 -0.032888888888888884 0.019733333333333332 -2.2638666666666665 1.4741333333333333 -3.5471555555555554 4.080222222222222 -3.4352888888888886 6.785022222222222 0.5988888888888888 14.524311111111109 26.870266666666666 16.353822222222224 29.792266666666666 3.909111111111111 0.0592 -0.3948444444444444 0.5198666666666666 -1.7439555555555555 0 -3.2904888888888886Zm-13.681955555555556 -3.869644444444444c-1.0068888888888887 0 -1.8163555555555555 -0.8160444444444445 -1.8163555555555555 -1.8163555555555555 0 -1.0068888888888887 0.8094666666666666 -1.8163555555555555 1.8163555555555555 -1.8163555555555555h1.7834666666666668c1.0003111111111112 0 1.8163555555555555 0.8094666666666666 1.8163555555555555 1.8163555555555555 0 0.5001777777777777 -0.204 0.9542666666666666 -0.5330666666666667 1.2832888888888887s-0.7831111111111111 0.5330666666666667 -1.2832888888888887 0.5330666666666667h-1.7834666666666668Z"></path>
    <path fill="none" stroke="#000000" stroke-miterlimit="10" stroke-width="0.8889" d="M3.1368444444444443 13.623733333333334c0 1.5198222222222222 1.6452444444444443 2.469688888888889 2.9614666666666665 1.7097777777777776 0.6108444444444444 -0.35266666666666663 0.9871555555555555 -1.0044444444444443 0.9871555555555555 -1.7097777777777776 0 -1.5198222222222222 -1.6452444444444443 -2.469688888888889 -2.9614666666666665 -1.7097777777777776 -0.6108444444444444 0.35266666666666663 -0.9871555555555555 1.0044444444444443 -0.9871555555555555 1.7097777777777776"></path>
    <path fill="none" stroke="#000000" stroke-linecap="round" stroke-linejoin="round" stroke-miterlimit="10" stroke-width="0.8889" d="M6.4273333333333325 19.546666666666663c0 1.519777777777778 1.6452888888888888 2.469688888888889 2.9614666666666665 1.7097777777777776 0.6108444444444444 -0.35266666666666663 0.9871555555555555 -1.0044444444444443 0.9871555555555555 -1.7097777777777776 0 -1.5198222222222222 -1.6452444444444443 -2.469733333333333 -2.9614666666666665 -1.7098222222222221 -0.6108444444444444 0.35266666666666663 -0.9871555555555555 1.0044444444444443 -0.9871555555555555 1.7098222222222221"></path>
    <path fill="none" stroke="#000000" stroke-miterlimit="10" stroke-width="0.8889" d="M13.008355555555553 21.520933333333332c0 1.5198222222222222 1.6452444444444443 2.469733333333333 2.9614666666666665 1.7098222222222221 0.6108444444444444 -0.35266666666666663 0.9871555555555555 -1.0044444444444443 0.9871555555555555 -1.7098222222222221 0 -1.5198222222222222 -1.6452444444444443 -2.469688888888889 -2.9614666666666665 -1.7097777777777776 -0.6108444444444444 0.35266666666666663 -0.9871555555555555 1.0044444444444443 -0.9871555555555555 1.7097777777777776"></path>
    <path fill="none" stroke="#000000" stroke-miterlimit="10" stroke-width="0.8889" d="M19.589377777777774 20.862844444444445c0 1.5198222222222222 1.6452444444444443 2.469733333333333 2.9614666666666665 1.7098222222222221 0.6108444444444444 -0.3527111111111111 0.9871555555555555 -1.0044444444444443 0.9871555555555555 -1.7098222222222221 0 -1.5198222222222222 -1.6452888888888888 -2.469688888888889 -2.9614666666666665 -1.7097777777777776 -0.6108444444444444 0.35266666666666663 -0.9871555555555555 1.0044444444444443 -0.9871555555555555 1.7097777777777776"></path>
  </g>
</svg>