<svg id="Atom-Symbol--Streamline-Openmoji" viewBox="0 0 32 32" xmlns="http://www.w3.org/2000/svg" height="32" width="32">
  <desc>
    Atom Symbol Streamline Emoji: https://streamlinehq.com
  </desc>
  <g id="color">
    <path fill="#92d3f5" stroke="#92d3f5" stroke-linejoin="round" stroke-miterlimit="10" stroke-width="0.8" d="M11.623955555555556 9.072444444444445c-0.20684444444444441 1.2103555555555554 -0.35888888888888887 2.511911111111111 -0.44399999999999995 3.8864888888888887 -1.7516444444444443 0.9792444444444444 -3.3207999999999998 2.0132 -4.640666666666666 3.041022222222222C3.3158222222222222 13.488088888888887 1.5884444444444443 11.012622222222221 2.3122222222222217 9.492088888888889c0.821111111111111 -1.7272888888888889 4.549377777777778 -1.7820888888888886 9.311733333333333 -0.41964444444444443Z"></path>
    <path fill="#92d3f5" stroke="#92d3f5" stroke-linejoin="round" stroke-miterlimit="10" stroke-width="0.8" d="M29.687822222222223 22.507866666666665c-0.8210666666666666 1.7273333333333332 -4.5494666666666665 1.7820444444444443 -9.31782222222222 0.4196888888888889 -1.380622222222222 -0.3953777777777777 -2.852577777777778 -0.9123555555555555 -4.366977777777778 -1.5448888888888888 -0.6993777777777778 -0.28586666666666666 -1.4049333333333331 -0.596 -2.1165777777777777 -0.9366222222222222 -0.9427111111111112 -0.4500444444444444 -1.8489777777777776 -0.9183999999999999 -2.7064888888888885 -1.3988444444444446 -0.06697777777777777 -0.9853333333333333 -0.10342222222222221 -2.0010222222222223 -0.10342222222222221 -3.0472 0 -1.0399999999999998 0.03648888888888889 -2.0618222222222222 0.10342222222222221 -3.041022222222222 0.8575555555555555 -0.4804444444444444 1.7637777777777777 -0.9487999999999999 2.7064888888888885 -1.3988444444444446 0.7116444444444444 -0.3406222222222222 1.4171999999999998 -0.6568888888888889 2.1165777777777777 -0.9427555555555555 0.6934666666666667 0.2919555555555556 1.3988888888888888 0.6021333333333333 2.110488888888889 0.9427555555555555 0.9427555555555555 0.44395555555555555 1.8428888888888886 0.9123111111111112 2.7004888888888887 1.3927999999999998 0.06688888888888889 0.9852888888888888 0.10342222222222221 2.0010222222222223 0.10342222222222221 3.0471555555555554 0 1.0461333333333334 -0.03653333333333333 2.067911111111111 -0.10342222222222221 3.0532 1.7577333333333331 -0.9852888888888888 3.326933333333333 -2.0192444444444444 4.64671111111111 -3.0532 3.2236 2.5117777777777777 4.9509333333333325 4.9872 4.22711111111111 6.507777777777777Z"></path>
    <path fill="#92d3f5" stroke="#92d3f5" stroke-linejoin="round" stroke-miterlimit="10" stroke-width="0.8" d="M20.37 22.92751111111111c-0.8089333333333333 4.889955555555555 -2.4632444444444443 8.229066666666666 -4.373066666666666 8.229066666666666 -1.9096888888888888 0 -3.5640444444444443 -3.339111111111111 -4.372977777777778 -8.229066666666666 1.386711111111111 -0.3953777777777777 2.8585777777777777 -0.9123555555555555 4.379066666666667 -1.5448888888888888 1.5144444444444445 0.6325777777777778 2.9863555555555554 1.149511111111111 4.366977777777778 1.5448888888888888Z"></path>
    <path fill="#92d3f5" stroke="#92d3f5" stroke-linejoin="round" stroke-miterlimit="10" stroke-width="0.8" d="M20.37 9.072444444444445c-1.380622222222222 0.3953777777777777 -2.852577777777778 0.9123555555555555 -4.366977777777778 1.5448888888888888 -1.520533333333333 -0.6325333333333333 -2.9923555555555557 -1.149511111111111 -4.379066666666667 -1.5448888888888888 0.8150222222222222 -4.89 2.4632888888888886 -8.229066666666666 4.372977777777778 -8.229066666666666 1.9098666666666666 -0.00004444444444444445 3.5581333333333336 3.3390222222222223 4.373066666666666 8.229066666666666Z"></path>
    <path fill="#92d3f5" stroke="#92d3f5" stroke-linejoin="round" stroke-miterlimit="10" stroke-width="0.8889" d="M16.00302222222222 10.617333333333333c-0.6993777777777778 0.28586666666666666 -1.4049333333333331 0.6021333333333333 -2.1165777777777777 0.9427555555555555 -0.9427111111111112 0.4500444444444444 -1.8489777777777776 0.9183999999999999 -2.7064888888888885 1.3988444444444446 0.08511111111111111 -1.3745777777777777 0.23715555555555554 -2.676133333333333 0.44399999999999995 -3.8864888888888887 1.386711111111111 0.3953777777777777 2.8585777777777777 0.9123111111111112 4.379066666666667 1.5448888888888888Z"></path>
    <path fill="#92d3f5" stroke="#92d3f5" stroke-linejoin="round" stroke-miterlimit="10" stroke-width="0.8889" d="M20.917466666666666 15.999955555555553c0 1.0461777777777777 -0.03653333333333333 2.0679555555555553 -0.10342222222222221 3.053244444444444 -0.08515555555555555 1.3684444444444444 -0.23719999999999997 2.670044444444444 -0.44399999999999995 3.874311111111111 -1.380622222222222 -0.3953777777777777 -2.852533333333333 -0.9123555555555555 -4.366977777777778 -1.5448888888888888 -0.6993777777777778 -0.28586666666666666 -1.4049333333333331 -0.596 -2.1165333333333334 -0.9366222222222222 -0.9427555555555555 -0.4500444444444444 -1.8490222222222223 -0.9183999999999999 -2.7065333333333332 -1.3988888888888888 -0.06697777777777777 -0.9852888888888888 -0.10342222222222221 -2.000977777777778 -0.10342222222222221 -3.0471555555555554 0 -1.0400444444444443 0.03648888888888889 -2.0618666666666665 0.10342222222222221 -3.041022222222222 0.8575555555555555 -0.4804444444444444 1.7637777777777777 -0.9487999999999999 2.7065333333333332 -1.3988444444444446 0.7115999999999999 -0.3406222222222222 1.4171555555555555 -0.6568888888888889 2.1165333333333334 -0.9427555555555555 0.6934666666666667 0.2919111111111111 1.3989333333333334 0.6021333333333333 2.110488888888889 0.9427555555555555 0.9427555555555555 0.44395555555555555 1.8428888888888886 0.9123111111111112 2.7004888888888887 1.3927555555555555 0.06688888888888889 0.9852444444444445 0.10342222222222221 2.0010222222222223 0.10342222222222221 3.047111111111111Z"></path>
    <path fill="#92d3f5" stroke="#92d3f5" stroke-linejoin="round" stroke-miterlimit="10" stroke-width="0.8889" d="M16.00302222222222 21.38262222222222c-1.520533333333333 0.6325333333333333 -2.9923555555555557 1.149511111111111 -4.379066666666667 1.5448888888888888 -0.20684444444444441 -1.2042666666666666 -0.35888888888888887 -2.511911111111111 -0.44399999999999995 -3.880444444444444 0.8575555555555555 0.48048888888888885 1.7637777777777777 0.9488444444444444 2.7064888888888885 1.3988888888888888 0.7116444444444444 0.3406666666666666 1.4171999999999998 0.6508444444444443 2.1165777777777777 0.9366666666666665Z"></path>
    <path fill="#92d3f5" stroke="#92d3f5" stroke-linejoin="round" stroke-miterlimit="10" stroke-width="0.8" d="M11.623955555555556 22.92751111111111c-4.768444444444444 1.3623555555555555 -8.490622222222221 1.3015555555555556 -9.311777777777777 -0.4196888888888889 -0.7237333333333333 -1.5204888888888888 1.0036444444444443 -3.9959555555555553 4.22711111111111 -6.507866666666666 1.3198666666666665 1.0339999999999998 2.889022222222222 2.0679555555555553 4.640666666666666 3.0472 0.08506666666666665 1.3684444444444444 0.23715555555555554 2.6760888888888887 0.44399999999999995 3.8803555555555556Z"></path>
    <path fill="#92d3f5" stroke="#92d3f5" stroke-linejoin="round" stroke-miterlimit="10" stroke-width="0.8889" d="M11.076533333333332 15.999955555555553c0 1.0461777777777777 0.03648888888888889 2.0618666666666665 0.10342222222222221 3.0472 -1.7516444444444443 -0.9792444444444444 -3.3207999999999998 -2.0132 -4.640666666666666 -3.0472 1.3198666666666665 -1.0278666666666667 2.889022222222222 -2.0618222222222222 4.640666666666666 -3.041022222222222 -0.06697777777777777 0.9791555555555556 -0.10342222222222221 2.0010222222222223 -0.10342222222222221 3.041022222222222Z"></path>
    <path fill="#92d3f5" stroke="#92d3f5" stroke-linejoin="round" stroke-miterlimit="10" stroke-width="0.8889" d="M20.814044444444445 12.952799999999998c-0.8575999999999999 -0.4804444444444444 -1.7577333333333331 -0.9487999999999999 -2.7004888888888887 -1.3927555555555555 -0.7115555555555555 -0.3406222222222222 -1.4170222222222222 -0.6508444444444443 -2.110488888888889 -0.9427555555555555 1.5144444444444445 -0.6325333333333333 2.9863555555555554 -1.1495555555555554 4.366977777777778 -1.5448888888888888 0.20675555555555555 1.204311111111111 0.3588 2.5119555555555557 0.44399999999999995 3.8804Z"></path>
    <path fill="#92d3f5" stroke="#92d3f5" stroke-linejoin="round" stroke-miterlimit="10" stroke-width="0.8" d="M25.460755555555554 15.999955555555553c-1.3197777777777777 -1.0278666666666667 -2.888977777777778 -2.0618222222222222 -4.64671111111111 -3.0471555555555554 -0.08515555555555555 -1.3684444444444444 -0.23719999999999997 -2.6760888888888887 -0.44399999999999995 -3.8804 4.7684 -1.3623999999999998 8.49671111111111 -1.3076444444444444 9.31782222222222 0.4196888888888889 0.7237777777777777 1.520533333333333 -1.0035555555555555 3.9959555555555553 -4.22711111111111 6.507866666666666Z"></path>
    <path fill="#92d3f5" stroke="#92d3f5" stroke-linejoin="round" stroke-miterlimit="10" stroke-width="0.8889" d="M20.814044444444445 19.0532c0.06688888888888889 -0.9852888888888888 0.10342222222222221 -2.0070666666666668 0.10342222222222221 -3.053244444444444 0 -1.0460888888888888 -0.03653333333333333 -2.0618666666666665 -0.10342222222222221 -3.0471555555555554 1.7577333333333331 0.9852888888888888 3.326933333333333 2.0192888888888887 4.64671111111111 3.0471555555555554 -1.3197777777777777 1.0339999999999998 -2.888977777777778 2.0679555555555553 -4.64671111111111 3.053244444444444Z"></path>
    <path fill="#92d3f5" stroke="#92d3f5" stroke-linejoin="round" stroke-miterlimit="10" stroke-width="0.8889" d="M20.917466666666666 15.999955555555553c0 1.0461777777777777 -0.03653333333333333 2.0679555555555553 -0.10342222222222221 3.053244444444444 -0.8575999999999999 0.4804444444444444 -1.7577333333333331 0.9487999999999999 -2.7004888888888887 1.3927999999999998 -0.7115555555555555 0.3344888888888889 -1.4170222222222222 0.6507999999999999 -2.110488888888889 0.9366222222222222 -0.6993777777777778 -0.28586666666666666 -1.4049333333333331 -0.596 -2.1165333333333334 -0.9366222222222222 -0.9427555555555555 -0.4500444444444444 -1.8490222222222223 -0.9183999999999999 -2.7065333333333332 -1.3988444444444446 -0.06697777777777777 -0.9853333333333333 -0.10342222222222221 -2.0010222222222223 -0.10342222222222221 -3.0472 0 -1.0399999999999998 0.03648888888888889 -2.0618222222222222 0.10342222222222221 -3.041022222222222 0.8575555555555555 -0.4804444444444444 1.7637777777777777 -0.9487999999999999 2.7065333333333332 -1.3988444444444446 0.7115999999999999 -0.3406222222222222 1.4171555555555555 -0.6568888888888889 2.1165333333333334 -0.9427555555555555 0.6934666666666667 0.2919555555555556 1.3989333333333334 0.6021333333333333 2.110488888888889 0.9427555555555555 0.9427555555555555 0.44395555555555555 1.8428888888888886 0.9123111111111112 2.7004888888888887 1.3927999999999998 0.06688888888888889 0.9851999999999999 0.10342222222222221 2.000977777777778 0.10342222222222221 3.0470666666666664Z"></path>
  </g>
  <g id="hair"></g>
  <g id="skin"></g>
  <g id="skin-shadow"></g>
  <g id="line">
    <path fill="none" stroke="#000000" stroke-linejoin="round" stroke-miterlimit="10" stroke-width="0.8889" d="M6.539288888888889 15.999955555555553C3.3158222222222222 13.488088888888887 1.5884444444444443 11.012622222222221 2.3122222222222217 9.492088888888889c0.8211555555555554 -1.7273333333333332 4.549422222222222 -1.7820888888888886 9.311777777777777 -0.4196888888888889"></path>
    <path fill="none" stroke="#000000" stroke-linejoin="round" stroke-miterlimit="10" stroke-width="0.8889" d="M25.460755555555554 15.999955555555553c3.2235555555555555 2.511911111111111 4.950888888888889 4.987377777777778 4.2270666666666665 6.5079111111111105 -0.8210666666666666 1.7273333333333332 -4.5494666666666665 1.7820444444444443 -9.31782222222222 0.4196888888888889 -1.380622222222222 -0.3953777777777777 -2.852577777777778 -0.9123555555555555 -4.366977777777778 -1.5448888888888888 -0.6993777777777778 -0.28586666666666666 -1.4049333333333331 -0.596 -2.1165777777777777 -0.9366222222222222 -0.9427111111111112 -0.4500444444444444 -1.8489777777777776 -0.9183999999999999 -2.7064888888888885 -1.3988444444444446"></path>
    <path fill="none" stroke="#000000" stroke-linecap="round" stroke-linejoin="round" stroke-miterlimit="10" stroke-width="0.8889" d="M19.979377777777778 24.897244444444443c-0.889511111111111 3.7950222222222223 -2.3417333333333334 6.259377777777778 -3.982444444444444 6.259377777777778 -1.9096888888888888 0 -3.564 -3.3390666666666666 -4.372977777777778 -8.229066666666666l-0.2534222222222222 -1.2275555555555555"></path>
    <path fill="none" stroke="#000000" stroke-linecap="round" stroke-linejoin="round" stroke-miterlimit="10" stroke-width="0.8889" d="M12.042622222222223 6.992533333333333c0.8941777777777776 -3.732444444444444 2.3296444444444444 -6.149155555555555 3.9543111111111107 -6.149155555555555 1.909911111111111 0 3.5581333333333336 3.3390666666666666 4.373066666666666 8.229066666666666"></path>
    <path fill="none" stroke="#000000" stroke-linejoin="round" stroke-miterlimit="10" stroke-width="0.8889" d="M11.623955555555556 9.072444444444445c1.386711111111111 0.3953777777777777 2.8585777777777777 0.9123555555555555 4.379066666666667 1.5448888888888888"></path>
    <path fill="none" stroke="#000000" stroke-linejoin="round" stroke-miterlimit="10" stroke-width="0.8889" d="M20.37 22.92751111111111c-1.380622222222222 -0.3953777777777777 -2.852577777777778 -0.9123555555555555 -4.366977777777778 -1.5448888888888888 -0.6993777777777778 -0.28586666666666666 -1.4049333333333331 -0.596 -2.1165777777777777 -0.9366222222222222 -0.9427111111111112 -0.4500444444444444 -1.8489777777777776 -0.9183999999999999 -2.7064888888888885 -1.3988888888888888"></path>
    <path fill="none" stroke="#000000" stroke-linecap="round" stroke-linejoin="round" stroke-miterlimit="10" stroke-width="0.8889" d="M20.90911111111111 15.136488888888888c0.005511111111111111 0.28546666666666665 0.008355555555555555 0.5733333333333334 0.008355555555555555 0.8634666666666666 0 1.0461777777777777 -0.03653333333333333 2.0679555555555553 -0.10342222222222221 3.053244444444444 -0.02791111111111111 0.4485777777777778 -0.06302222222222223 0.8899555555555556 -0.10488888888888888 1.3230666666666666"></path>
    <path fill="none" stroke="#000000" stroke-linecap="round" stroke-linejoin="round" stroke-miterlimit="10" stroke-width="0.8889" d="M9.316488888888887 23.492844444444444c-3.6305333333333327 0.7296888888888888 -6.321244444444444 0.4468888888888889 -7.004311111111111 -0.9849777777777778 -0.5786666666666667 -1.2156888888888888 0.40946666666666665 -3.041688888888889 2.4762666666666666 -5.008755555555555"></path>
    <path fill="none" stroke="#000000" stroke-linejoin="round" stroke-miterlimit="10" stroke-width="0.8889" d="M11.10391111111111 19.00453333333333c-1.7210222222222222 -0.9666222222222222 -3.2639111111111108 -1.9855555555555555 -4.564622222222222 -3.0045777777777776"></path>
    <path fill="none" stroke="#000000" stroke-linejoin="round" stroke-miterlimit="10" stroke-width="0.8889" d="M11.179955555555555 19.04711111111111c-0.025377777777777777 -0.014177777777777775 -0.050755555555555554 -0.028399999999999998 -0.07604444444444444 -0.04257777777777778"></path>
    <path fill="none" stroke="#000000" stroke-linecap="round" stroke-linejoin="round" stroke-miterlimit="10" stroke-width="0.8889" d="M20.37 9.072444444444445c0.07217777777777777 0.4202666666666666 0.13764444444444443 0.853111111111111 0.19595555555555555 1.2967555555555554"></path>
    <path fill="none" stroke="#000000" stroke-linecap="round" stroke-linejoin="round" stroke-miterlimit="10" stroke-width="0.8889" d="M22.616666666666667 8.51911111111111c3.6628444444444446 -0.7464888888888889 6.384266666666666 -0.472 7.071155555555555 0.9729777777777777 0.5567555555555554 1.1696444444444443 -0.3368 2.9042222222222223 -2.2460444444444443 4.785822222222222"></path>
    <path fill="none" stroke="#000000" stroke-linecap="round" stroke-linejoin="round" stroke-miterlimit="10" stroke-width="0.8889" d="M25.460755555555554 15.999955555555553c-1.3197777777777777 -1.0278666666666667 -2.888977777777778 -2.0618222222222222 -4.64671111111111 -3.0471555555555554"></path>
    <path fill="none" stroke="#000000" stroke-linejoin="round" stroke-miterlimit="10" stroke-width="0.8889" d="M20.814044444444445 12.952799999999998c1.7577333333333331 0.9852888888888888 3.326933333333333 2.0192888888888887 4.64671111111111 3.0471555555555554"></path>
    <path fill="none" stroke="#000000" stroke-linecap="round" stroke-linejoin="round" stroke-miterlimit="10" stroke-width="0.8889" d="M18.709777777777777 20.1592c-0.1474222222222222 0.07342222222222222 -0.2971111111111111 0.14586666666666664 -0.4489333333333333 0.21706666666666666"></path>
    <path fill="none" stroke="#000000" stroke-linejoin="round" stroke-miterlimit="10" stroke-width="0.8889" d="M16.00302222222222 10.617333333333333c0.6934666666666667 0.2919555555555556 1.3988888888888888 0.6021333333333333 2.110488888888889 0.9427555555555555 0.9427555555555555 0.44395555555555555 1.8428888888888886 0.9123111111111112 2.7004888888888887 1.3927999999999998"></path>
    <path fill="none" stroke="#000000" stroke-linecap="round" stroke-linejoin="round" stroke-miterlimit="10" stroke-width="0.8889" d="M11.081288888888889 16.37808888888889c-0.0031555555555555555 -0.29035555555555553 -0.0048 -0.5824444444444444 -0.0048 -0.8764 0 -1.3876888888888887 0.03648888888888889 -2.7509777777777775 0.10342222222222221 -4.0574666666666666"></path>
    <path fill="none" stroke="#000000" stroke-linejoin="round" stroke-miterlimit="10" stroke-width="0.8889" d="M16.00302222222222 21.38262222222222c-0.6993777777777778 -0.28586666666666666 -1.4049333333333331 -0.596 -2.1165777777777777 -0.9366222222222222 -0.9427111111111112 -0.4500444444444444 -1.8489777777777776 -0.9183999999999999 -2.7064888888888885 -1.3988888888888888"></path>
    <path fill="none" stroke="#000000" stroke-miterlimit="10" stroke-width="0.8889" d="M14.469288888888888 16.17102222222222c0 1.3143999999999998 1.4228888888888886 2.1359111111111106 2.5612444444444447 1.478711111111111 0.5283111111111112 -0.3050222222222222 0.8537333333333333 -0.868711111111111 0.8537333333333333 -1.478711111111111 0 -1.3144444444444443 -1.4228888888888886 -2.1359555555555554 -2.5612444444444447 -1.4787555555555554 -0.5282666666666667 0.3050222222222222 -0.8537333333333333 0.868711111111111 -0.8537333333333333 1.4787555555555554"></path>
    <path fill="none" stroke="#000000" stroke-linecap="round" stroke-linejoin="round" stroke-miterlimit="10" stroke-width="0.8889" d="M13.446799999999998 22.470666666666663s0.17666666666666667 -0.031466666666666664 0.508 -0.17173333333333332"></path>
    <path fill="none" stroke="#000000" stroke-linecap="round" stroke-linejoin="round" stroke-miterlimit="10" stroke-width="0.8889" d="M22.915422222222222 18.075999999999997s0.7348888888888888 -0.4695555555555555 0.8616 -0.5768888888888889"></path>
    <path fill="none" stroke="#000000" stroke-linecap="round" stroke-linejoin="round" stroke-miterlimit="10" stroke-width="0.8889" d="M13.497333333333332 11.444222222222223c-0.14804444444444445 0.07484444444444444 -0.29617777777777776 0.15213333333333331 -0.44408888888888887 0.23195555555555555"></path>
    <path fill="none" stroke="#000000" stroke-linecap="round" stroke-linejoin="round" stroke-miterlimit="10" stroke-width="0.8889" d="M8.533066666666667 14.308177777777775s0.11897777777777777 -0.12475555555555555 0.42608888888888885 -0.3083111111111111"></path>
    <path fill="none" stroke="#000000" stroke-linecap="round" stroke-linejoin="round" stroke-miterlimit="10" stroke-width="0.8889" d="M17.708311111111108 9.301866666666667s0.8449777777777777 -0.3090222222222222 1.017911111111111 -0.3459111111111111"></path>
  </g>
</svg>