<svg id="Avocado--Streamline-Openmoji" viewBox="0 0 32 32" xmlns="http://www.w3.org/2000/svg" height="32" width="32">
  <desc>
    Avocado Streamline Emoji: https://streamlinehq.com
  </desc>
  <g id="color">
    <path fill="#b1cc33" stroke="none" stroke-miterlimit="10" stroke-width="0.8889" d="M25.91337777777778 21.161244444444442c0 5.4776 -4.442177777777777 9.913377777777777 -9.913377777777777 9.913377777777777 -5.4776 0 -9.913377777777777 -4.435777777777777 -9.913377777777777 -9.913377777777777 0 -0.1534222222222222 0.0063999999999999994 -0.30039999999999994 0.012755555555555555 -0.4537777777777777 0.0575111111111111 -1.3870222222222222 0.40906666666666663 -2.703733333333333 0.9843111111111111 -3.8861333333333334 0.3835111111111111 -0.9523555555555554 0.8372888888888887 -1.917511111111111 1.2974666666666665 -2.889022222222222 1.2335555555555555 -2.614133333333333 2.5055555555555555 -5.260266666666666 2.5055555555555555 -7.893644444444444 0 -2.8251111111111107 2.288133333333333 -5.1132888888888886 5.1132888888888886 -5.1132888888888886 2.818666666666666 0 5.1132888888888886 2.2881777777777774 5.1132888888888886 5.1132888888888886 0 2.6333777777777776 1.271911111111111 5.279511111111111 2.5055111111111112 7.893644444444444 0.46013333333333334 0.9715111111111111 0.914 1.9366666666666665 1.297511111111111 2.889022222222222 0.5177333333333334 1.3102666666666667 0.9075555555555554 2.6077777777777773 0.9842666666666666 3.8861333333333334 0.006355555555555555 0.15337777777777778 0.012799999999999999 0.30035555555555554 0.012799999999999999 0.4537777777777777Z"></path>
    <path fill="#a57939" stroke="#a57939" stroke-linecap="round" stroke-linejoin="round" stroke-miterlimit="10" stroke-width="0.8889" d="M10.8852 21.11488888888889c0 3.9373777777777774 4.262311111111111 6.3982222222222225 7.672222222222222 4.429555555555555 1.5825333333333333 -0.9136888888888889 2.5573777777777775 -2.602222222222222 2.5573777777777775 -4.429555555555555 0 -3.9374222222222217 -4.262311111111111 -6.398266666666666 -7.672222222222222 -4.429555555555555 -1.5825333333333333 0.9136444444444444 -2.5573777777777775 2.6021777777777775 -2.5573777777777775 4.429555555555555"></path>
    <path fill="#6a462f" stroke="none" d="M21.112888888888886 21.112044444444443c0 2.8267555555555552 -2.2861777777777776 5.118533333333333 -5.112933333333332 5.118533333333333 0 0 5.861822222222222 -4.375244444444444 0 -10.231555555555556 2.8267555555555552 0.00008888888888888889 5.112933333333332 2.2918666666666665 5.112933333333332 5.113022222222222Z" stroke-width="0.4444"></path>
  </g>
  <g id="hair"></g>
  <g id="skin"></g>
  <g id="skin-shadow"></g>
  <g id="line">
    <path fill="none" stroke="#000000" stroke-miterlimit="10" stroke-width="0.8889" d="M25.91337777777778 21.161244444444442c0 5.4776 -4.442177777777777 9.913377777777777 -9.913377777777777 9.913377777777777 -5.4776 0 -9.913377777777777 -4.435777777777777 -9.913377777777777 -9.913377777777777 0 -0.1534222222222222 0.0063999999999999994 -0.30039999999999994 0.012755555555555555 -0.4537777777777777 0.0575111111111111 -1.3870222222222222 0.40906666666666663 -2.703733333333333 0.9843111111111111 -3.8861333333333334 0.3835111111111111 -0.9523555555555554 0.8372888888888887 -1.917511111111111 1.2974666666666665 -2.889022222222222 1.2335555555555555 -2.614133333333333 2.5055555555555555 -5.260266666666666 2.5055555555555555 -7.893644444444444 0 -2.8251111111111107 2.288133333333333 -5.1132888888888886 5.1132888888888886 -5.1132888888888886 2.818666666666666 0 5.1132888888888886 2.2881777777777774 5.1132888888888886 5.1132888888888886 0 2.6333777777777776 1.271911111111111 5.279511111111111 2.5055111111111112 7.893644444444444 0.46013333333333334 0.9715111111111111 0.914 1.9366666666666665 1.297511111111111 2.889022222222222 0.5177333333333334 1.3102666666666667 0.9075555555555554 2.6077777777777773 0.9842666666666666 3.8861333333333334 0.006355555555555555 0.15337777777777778 0.012799999999999999 0.30035555555555554 0.012799999999999999 0.4537777777777777Z"></path>
    <path fill="none" stroke="#000000" stroke-linecap="round" stroke-linejoin="round" stroke-miterlimit="10" stroke-width="0.8889" d="M10.8852 21.11488888888889c0 3.9373777777777774 4.262311111111111 6.3982222222222225 7.672222222222222 4.429555555555555 1.5825333333333333 -0.9136888888888889 2.5573777777777775 -2.602222222222222 2.5573777777777775 -4.429555555555555 0 -3.9374222222222217 -4.262311111111111 -6.398266666666666 -7.672222222222222 -4.429555555555555 -1.5825333333333333 0.9136444444444444 -2.5573777777777775 2.6021777777777775 -2.5573777777777775 4.429555555555555"></path>
  </g>
</svg>