<svg id="Baby-Chick--Streamline-Openmoji" viewBox="0 0 32 32" xmlns="http://www.w3.org/2000/svg" height="32" width="32">
  <desc>
    Baby Chick Streamline Emoji: https://streamlinehq.com
  </desc>
  <g id="color">
    <path fill="#fcea2b" stroke="#fcea2b" stroke-miterlimit="10" stroke-width="0.8889" d="M25.802088888888886 27.235377777777778C32.61297777777777 21.724088888888886 26.897777777777776 16.278355555555557 26.897777777777776 16.278355555555557c0 -8.095333333333333 -6.205288888888888 -10.807688888888888 -9.44662222222222 -11.67231111111111 -1.1936 -0.31835555555555556 -2.451511111111111 -0.3144 -3.6370666666666667 0.0328 -9.5668 2.801422222222222 -8.830266666666665 11.63951111111111 -8.830266666666665 11.63951111111111 -5.1540888888888885 6.0643111111111105 0.6848 10.683066666666665 0.6848 10.683066666666665s10.272177777777777 9.039599999999998 20.133466666666667 0.2739555555555555"></path>
    <path fill="#f1b31c" stroke="none" d="M16.348266666666667 19.130755555555552s6.47911111111111 -0.3184888888888889 0 5.733199999999999c0 -0.00008888888888888889 -6.479066666666666 -5.733199999999999 0 -5.733199999999999Z" stroke-width="0.4444"></path>
  </g>
  <g id="hair"></g>
  <g id="skin"></g>
  <g id="skin-shadow"></g>
  <g id="line">
    <path fill="none" stroke="#000000" stroke-linecap="round" stroke-linejoin="round" stroke-miterlimit="10" stroke-width="0.8889" d="M13.064577777777776 4.773511111111111 10.325333333333333 2.7190666666666665"></path>
    <path fill="none" stroke="#000000" stroke-linecap="round" stroke-linejoin="round" stroke-miterlimit="10" stroke-width="0.8889" d="M14.708133333333333 4.088711111111111 13.612444444444444 1.7603555555555555"></path>
    <path fill="none" stroke="#000000" stroke-linecap="round" stroke-linejoin="round" stroke-miterlimit="10" stroke-width="0.8889" d="m16.899555555555555 4.499555555555555 0.13693333333333332 -3.561022222222222"></path>
    <path fill="#000000" stroke="none" d="M9.702311111111111 15.182666666666666c0 1.428488888888889 1.5464 2.3212888888888887 2.7834666666666665 1.6070666666666664 0.5741777777777778 -0.3315111111111111 0.9278666666666666 -0.9440888888888889 0.9278666666666666 -1.6070666666666664 0 -1.428488888888889 -1.5464 -2.3212888888888887 -2.783511111111111 -1.6070222222222221 -0.5741333333333333 0.33146666666666663 -0.9278222222222222 0.9440888888888889 -0.9278222222222222 1.6070222222222221" stroke-width="0.4444"></path>
    <path fill="#000000" stroke="none" d="M19.004844444444444 14.920044444444443c0 1.428488888888889 1.5463555555555555 2.3212888888888887 2.7834666666666665 1.6070222222222221 0.5741333333333333 -0.33146666666666663 0.9278222222222222 -0.9440444444444444 0.9278222222222222 -1.6070222222222221 0 -1.428488888888889 -1.5463555555555555 -2.3212888888888887 -2.7834666666666665 -1.6070666666666664 -0.5741333333333333 0.3315111111111111 -0.9278222222222222 0.9440888888888889 -0.9278222222222222 1.6070666666666664" stroke-width="0.4444"></path>
    <path fill="none" stroke="#000000" stroke-linecap="round" stroke-linejoin="round" stroke-miterlimit="10" stroke-width="0.8889" d="M25.802088888888886 27.235377777777778C32.61297777777777 21.724088888888886 26.897777777777776 16.278355555555557 26.897777777777776 16.278355555555557c0 -8.095333333333333 -6.205288888888888 -10.807688888888888 -9.44662222222222 -11.67231111111111 -1.1936 -0.31835555555555556 -2.451511111111111 -0.3144 -3.6370666666666667 0.0328 -9.5668 2.801422222222222 -8.830266666666665 11.63951111111111 -8.830266666666665 11.63951111111111 -5.1540888888888885 6.0643111111111105 0.6848 10.683066666666665 0.6848 10.683066666666665s10.272177777777777 9.039599999999998 20.133466666666667 0.2739555555555555"></path>
    <path fill="none" stroke="#000000" stroke-linecap="round" stroke-linejoin="round" stroke-miterlimit="10" stroke-width="0.8889" d="M16.348266666666667 19.130755555555552s6.47911111111111 -0.3184888888888889 0 5.733199999999999c0 -0.00008888888888888889 -6.479066666666666 -5.733199999999999 0 -5.733199999999999Z"></path>
  </g>
</svg>