<svg id="Bacon--Streamline-Openmoji" viewBox="0 0 32 32" xmlns="http://www.w3.org/2000/svg" height="32" width="32">
  <desc>
    Bacon Streamline Emoji: https://streamlinehq.com
  </desc>
  <g id="color">
    <path fill="none" stroke="#ffffff" stroke-linecap="round" stroke-miterlimit="10" stroke-width="0.8889" d="M21.675155555555556 10.625511111111111s-1.4280888888888887 0.09777777777777777 -1.7013777777777777 2.2384888888888885 -2.0040888888888886 2.231822222222222 -2.596222222222222 2.2773777777777777 -2.0496 0.31884444444444443 -2.368444444444444 3.006133333333333 -1.8219555555555556 1.7308444444444444 -2.1407999999999996 1.7763555555555555"></path>
    <path fill="#ea5a47" d="M5.338044444444444 17.6748c-0.09808888888888889 0.3335111111111111 -0.020577777777777778 0.7077333333333333 0.2421777777777778 0.9699555555555555l1.8101777777777777 1.8135555555555554c0.3823555555555555 0.38284444444444443 1.0030222222222223 0.38284444444444443 1.3857777777777776 0l0.730711111111111 -0.7378666666666666c0.4436 -0.44311111111111107 1.0556 -0.7172888888888888 1.7331555555555553 -0.7172888888888888 1.3528 0.0004888888888888889 2.4499999999999997 -1.0967555555555555 2.4499999999999997 -2.4499999999999997 -0.0004444444444444444 -1.3537333333333332 1.0968 -2.4504888888888887 2.4499999999999997 -2.4499999999999997 1.353288888888889 0 2.4499999999999997 -1.0972444444444442 2.4499999999999997 -2.4504888888888887 -0.0004444444444444444 -1.3532444444444442 1.0968 -2.4499999999999997 2.4499999999999997 -2.4499999999999997s2.4499999999999997 -1.0968 2.4499999999999997 -2.449511111111111c0 -0.6771111111111111 0.2742222222222222 -1.2900888888888888 0.7178222222222221 -1.7332l0.7378222222222222 -0.7311555555555556c0.38284444444444443 -0.3823555555555555 0.38284444444444443 -1.0029777777777777 0 -1.3857777777777776l-1.813511111111111 -1.8097777777777777c-0.2641777777777778 -0.2636888888888889 -0.6393333333333332 -0.3412 -0.9733333333333333 -0.24115555555555554 -1.2096888888888888 0.14928888888888886 -2.15 1.1695111111111112 -2.15 2.4193777777777776 0.0004888888888888889 1.3536888888888887 -1.0962666666666667 2.4504888888888887 -2.4499999999999997 2.4499999999999997 -1.3532444444444442 0 -2.450444444444444 1.0972444444444442 -2.4499999999999997 2.4504888888888887 0.0004888888888888889 1.3532 -1.096711111111111 2.4499999999999997 -2.450444444444444 2.4499999999999997 -1.3528 0 -2.4499999999999997 1.0967555555555555 -2.4499999999999997 2.4499999999999997 0.0004444444444444444 1.3532 -1.0967555555555555 2.4504888888888887 -2.4499999999999997 2.4499999999999997 -1.2508444444444444 0 -2.272044444444444 0.9417333333333333 -2.4203555555555556 2.1528444444444443Z" stroke-width="0.4444"></path>
    <path fill="#ea5a47" d="M6.808044444444444 28.119377777777775c-0.09808888888888889 0.33302222222222216 -0.020577777777777778 0.7072444444444443 0.2421777777777778 0.9699555555555555l1.8101777777777777 1.8135555555555554c0.3823555555555555 0.3828 1.0030222222222223 0.3828 1.3857777777777776 0l0.730711111111111 -0.7378666666666666c0.4436 -0.4436 1.0556 -0.7173333333333334 1.7331555555555553 -0.7173333333333334 1.3528 0 2.4499999999999997 -1.096711111111111 2.4499999999999997 -2.4499999999999997 -0.0004444444444444444 -1.3536888888888887 1.0968 -2.450444444444444 2.4499999999999997 -2.4499999999999997 1.353288888888889 0 2.4499999999999997 -1.0972 2.4499999999999997 -2.450444444444444 -0.0004444444444444444 -1.353288888888889 1.0968 -2.4499999999999997 2.4499999999999997 -2.4499999999999997s2.4499999999999997 -1.0967555555555555 2.4499999999999997 -2.4499999999999997c0 -0.6766222222222221 0.2742222222222222 -1.2896 0.7178222222222221 -1.732711111111111l0.7378222222222222 -0.7312c0.38284444444444443 -0.38226666666666664 0.38284444444444443 -1.0029333333333335 0 -1.3857777777777776l-1.813511111111111 -1.8096888888888887c-0.2641777777777778 -0.2636888888888889 -0.6393333333333332 -0.3412 -0.9733333333333333 -0.24168888888888884 -1.2096888888888888 0.14982222222222222 -2.15 1.1695111111111112 -2.15 2.4198666666666666 0.0004888888888888889 1.3537333333333332 -1.0962666666666667 2.450444444444444 -2.4499999999999997 2.4499999999999997 -1.3532444444444442 0 -2.450444444444444 1.0972 -2.4499999999999997 2.4499999999999997 0.0004888888888888889 1.3537333333333332 -1.096711111111111 2.450444444444444 -2.450444444444444 2.450444444444444 -1.3528 -0.0004444444444444444 -2.4499999999999997 1.0968 -2.4499999999999997 2.4499999999999997 0.0004444444444444444 1.353288888888889 -1.0967555555555555 2.4504888888888887 -2.4499999999999997 2.4499999999999997 -1.2508444444444444 0 -2.272044444444444 0.9417333333333333 -2.4203555555555556 2.152888888888889Z" stroke-width="0.4444"></path>
  </g>
  <g id="line">
    <path fill="none" stroke="#000000" stroke-linecap="round" stroke-linejoin="round" stroke-width="0.8889" d="M21.749244444444443 5.012311111111111c0 1.3532444444444442 -1.0967555555555555 2.4499999999999997 -2.4499999999999997 2.4499999999999997 -1.3532444444444442 -0.0004888888888888889 -2.4499999999999997 1.0967555555555555 -2.4499999999999997 2.4499999999999997s-1.0967555555555555 2.450444444444444 -2.4499999999999997 2.450444444444444c-1.3532444444444442 -0.0009333333333333332 -2.4499999999999997 1.096311111111111 -2.4499999999999997 2.4499999999999997s-1.0967555555555555 2.4499999999999997 -2.4499999999999997 2.4499999999999997"></path>
    <path fill="none" stroke="#000000" stroke-linecap="round" stroke-linejoin="round" stroke-width="0.8889" d="M5.338044444444444 17.6748c-0.09808888888888889 0.3335111111111111 -0.020577777777777778 0.7077333333333333 0.2421777777777778 0.9699555555555555l1.8101777777777777 1.8135555555555554c0.3823555555555555 0.38284444444444443 1.0030222222222223 0.38284444444444443 1.3857777777777776 0l0.730711111111111 -0.7378666666666666c0.4436 -0.44311111111111107 1.0556 -0.7172888888888888 1.7331555555555553 -0.7172888888888888 1.3528 0.0004888888888888889 2.4499999999999997 -1.0967555555555555 2.4499999999999997 -2.4499999999999997 -0.0004444444444444444 -1.3537333333333332 1.0968 -2.4504888888888887 2.4499999999999997 -2.4499999999999997 1.353288888888889 0 2.4499999999999997 -1.0972444444444442 2.4499999999999997 -2.4504888888888887 -0.0004444444444444444 -1.3532444444444442 1.0968 -2.4499999999999997 2.4499999999999997 -2.4499999999999997s2.4499999999999997 -1.0968 2.4499999999999997 -2.449511111111111c0 -0.6771111111111111 0.2742222222222222 -1.2900888888888888 0.7178222222222221 -1.7332l0.7378222222222222 -0.7311555555555556c0.38284444444444443 -0.3823555555555555 0.38284444444444443 -1.0029777777777777 0 -1.3857777777777776l-1.813511111111111 -1.8097777777777777c-0.2641777777777778 -0.2636888888888889 -0.6393333333333332 -0.3412 -0.9733333333333333 -0.24115555555555554 -1.2096888888888888 0.14928888888888886 -2.15 1.1695111111111112 -2.15 2.4193777777777776 0.0004888888888888889 1.3536888888888887 -1.0962666666666667 2.4504888888888887 -2.4499999999999997 2.4499999999999997 -1.3532444444444442 0 -2.450444444444444 1.0972444444444442 -2.4499999999999997 2.4504888888888887 0.0004888888888888889 1.3532 -1.096711111111111 2.4499999999999997 -2.450444444444444 2.4499999999999997 -1.3528 0 -2.4499999999999997 1.0967555555555555 -2.4499999999999997 2.4499999999999997 0.0004444444444444444 1.3532 -1.0967555555555555 2.4504888888888887 -2.4499999999999997 2.4499999999999997 -1.2508444444444444 0 -2.272044444444444 0.9417333333333333 -2.4203555555555556 2.1528444444444443Z"></path>
    <path fill="none" stroke="#000000" stroke-linecap="round" stroke-linejoin="round" stroke-width="0.8889" d="M23.219244444444442 15.456888888888887c0 1.3532 -1.0967555555555555 2.4499999999999997 -2.4499999999999997 2.4499999999999997 -1.3532444444444442 -0.0004888888888888889 -2.4499999999999997 1.0967555555555555 -2.4499999999999997 2.4499999999999997s-1.0967555555555555 2.4499999999999997 -2.4499999999999997 2.4499999999999997c-1.3532444444444442 -0.0004888888888888889 -2.4499999999999997 1.0967555555555555 -2.4499999999999997 2.4499999999999997s-1.0967555555555555 2.4504888888888887 -2.4499999999999997 2.4499999999999997"></path>
    <path fill="none" stroke="#000000" stroke-linecap="round" stroke-linejoin="round" stroke-width="0.8889" d="M6.808044444444444 28.119377777777775c-0.09808888888888889 0.33302222222222216 -0.020577777777777778 0.7072444444444443 0.2421777777777778 0.9699555555555555l1.8101777777777777 1.8135555555555554c0.3823555555555555 0.3828 1.0030222222222223 0.3828 1.3857777777777776 0l0.730711111111111 -0.7378666666666666c0.4436 -0.4436 1.0556 -0.7173333333333334 1.7331555555555553 -0.7173333333333334 1.3528 0 2.4499999999999997 -1.096711111111111 2.4499999999999997 -2.4499999999999997 -0.0004444444444444444 -1.3536888888888887 1.0968 -2.450444444444444 2.4499999999999997 -2.4499999999999997 1.353288888888889 0 2.4499999999999997 -1.0972 2.4499999999999997 -2.450444444444444 -0.0004444444444444444 -1.353288888888889 1.0968 -2.4499999999999997 2.4499999999999997 -2.4499999999999997s2.4499999999999997 -1.0967555555555555 2.4499999999999997 -2.4499999999999997c0 -0.6766222222222221 0.2742222222222222 -1.2896 0.7178222222222221 -1.732711111111111l0.7378222222222222 -0.7312c0.38284444444444443 -0.38226666666666664 0.38284444444444443 -1.0029333333333335 0 -1.3857777777777776l-1.813511111111111 -1.8096888888888887c-0.2641777777777778 -0.2636888888888889 -0.6393333333333332 -0.3412 -0.9733333333333333 -0.24168888888888884 -1.2096888888888888 0.14982222222222222 -2.15 1.1695111111111112 -2.15 2.4198666666666666 0.0004888888888888889 1.3537333333333332 -1.0962666666666667 2.450444444444444 -2.4499999999999997 2.4499999999999997 -1.3532444444444442 0 -2.450444444444444 1.0972 -2.4499999999999997 2.4499999999999997 0.0004888888888888889 1.3537333333333332 -1.096711111111111 2.450444444444444 -2.450444444444444 2.450444444444444 -1.3528 -0.0004444444444444444 -2.4499999999999997 1.0968 -2.4499999999999997 2.4499999999999997 0.0004444444444444444 1.353288888888889 -1.0967555555555555 2.4504888888888887 -2.4499999999999997 2.4499999999999997 -1.2508444444444444 0 -2.272044444444444 0.9417333333333333 -2.4203555555555556 2.152888888888889Z"></path>
  </g>
</svg>