<svg id="Bagel--Streamline-Openmoji" viewBox="0 0 32 32" xmlns="http://www.w3.org/2000/svg" height="32" width="32">
  <desc>
    Bagel Streamline Emoji: https://streamlinehq.com
  </desc>
  <g id="color">
    <path fill="#6a462f" stroke-width="0.6431" d="M30.281911111111107 11.544577777777777q-0.032577777777777775 -0.11102222222222222 -0.0735111111111111 -0.2250222222222222c-1.1779111111111111 -3.298711111111111 -4.253644444444444 -5.360311111111111 -7.4235999999999995 -6.503155555555555 -2.4077333333333333 -0.8448 -4.943199999999999 -1.2677777777777777 -7.494799999999999 -1.2502666666666666 -0.4966666666666666 0 -0.9960444444444443 0.017555555555555553 -1.4962222222222221 0.047599999999999996 2.1388444444444445 0.08942222222222221 4.252755555555555 0.4946222222222222 6.273066666666666 1.2025777777777777 3.170488888888889 1.1411999999999998 6.245644444444444 3.203333333333333 7.423555555555555 6.503155555555555q0.04084444444444444 0.11422222222222222 0.07342222222222222 0.2250222222222222c0.3507111111111111 1.003288888888889 0.0044444444444444444 2.117911111111111 -0.8530222222222221 2.7458666666666667 -0.8924444444444444 0.7152444444444443 -1.9067555555555553 1.2633333333333332 -2.994088888888889 1.6178666666666666 -3.148444444444444 1.0685333333333333 -6.449111111111111 1.6204444444444444 -9.77391111111111 1.6342666666666665q0.6727555555555556 0.017555555555555553 1.3428 0.017555555555555553c3.7840444444444437 0.10066666666666667 7.556755555555555 -0.4582666666666666 11.149066666666666 -1.651822222222222 1.0873333333333333 -0.3545777777777777 2.101644444444444 -0.9026666666666667 2.994088888888889 -1.6178666666666666 0.8574666666666666 -0.6279555555555555 1.2037333333333333 -1.742622222222222 0.8530222222222221 -2.745911111111111Z"></path>
    <path fill="#a57939" stroke-width="0.6431" d="M1.2055555555555555 19.23111111111111q0.03266666666666666 0.12786666666666666 0.07364444444444443 0.25964444444444446c1.1812 3.8059999999999996 4.264577777777777 6.185422222222222 7.445511111111111 7.500266666666666 2.3865777777777777 0.9696888888888888 4.940711111111111 1.4598666666666666 7.516711111111111 1.4425333333333332 3.8062666666666662 0.0768 7.541466666666666 -1.0375999999999999 10.683377777777778 -3.1874666666666664 1.9233333333333331 -1.319022222222222 3.3807555555555555 -3.211955555555555 4.164311111111111 -5.408533333333333 0.2316 -0.6549777777777778 0.3191555555555555 -1.3521777777777777 0.2568 -2.0440888888888886 -0.11657777777777777 -0.7659555555555555 -0.5239555555555555 -1.4574666666666667 -1.1373777777777776 -1.9306666666666668 -1.0386666666666666 -0.8699111111111111 -2.2337333333333333 -1.5337333333333332 -3.521111111111111 -1.9559111111111112 -3.360444444444444 -1.1492 -6.897155555555555 -1.697022222222222 -10.447822222222221 -1.6183999999999998 -3.815022222222222 -0.1123111111111111 -7.6142666666666665 0.5356 -11.176444444444444 1.9060444444444442 -0.650711111111111 0.2650666666666667 -1.2768 0.5870222222222222 -1.8709777777777776 0.9620444444444445 -0.4073777777777777 0.26106666666666667 -0.7862222222222222 0.5642222222222222 -1.1302222222222222 0.9045333333333333 -0.8797777777777778 0.7982222222222222 -1.214 2.0357333333333334 -0.8557777777777777 3.168311111111111Z"></path>
    <path fill="#ffffff" stroke-width="0.6431" d="M0.73 13.401822222222222c-0.24222222222222223 0.7878666666666666 -0.05617777777777778 1.645022222222222 0.4908444444444444 2.2615999999999996 0.4427555555555555 0.5099555555555555 1.109422222222222 0.7674666666666666 1.780044444444444 0.6875555555555555 -0.3657333333333333 1.5771555555555554 0.2554222222222222 3.2192 1.5734666666666666 4.159422222222222 1.4041777777777777 0.9379555555555554 3.2820444444444443 0.7152444444444443 4.427822222222222 -0.5252 0.14533333333333334 0.7976888888888888 0.6941333333333334 1.4628444444444444 1.4496888888888888 1.757022222222222 0.6461333333333333 0.1688 1.3336444444444444 0.054711111111111106 1.8906666666666663 -0.3137333333333333 0.3720444444444444 1.5415555555555556 1.7065333333333332 2.6597777777777774 3.2893777777777773 2.7563111111111107 1.7102666666666666 0.04755555555555555 3.2122666666666664 -1.1288444444444443 3.575911111111111 -2.8006666666666664 0.48039999999999994 0.6356888888888889 1.3007555555555554 0.9127555555555555 2.0682222222222224 0.6985333333333333 0.6612 -0.17355555555555555 1.209511111111111 -0.6349777777777778 1.4934666666666667 -1.2568 1.0784444444444443 1.1444444444444444 2.7999111111111112 1.402488888888889 4.166533333333334 0.6245333333333333 1.47 -0.9097333333333333 2.203866666666667 -2.6497333333333333 1.829333333333333 -4.337422222222222 0.7122222222222222 0.2594222222222222 1.2074666666666667 -0.26555555555555554 1.8084888888888886 -0.8612444444444444 0.5259111111111111 -0.5210666666666667 -0.7472888888888889 -2.473644444444444 -0.7927555555555555 -3.1715999999999998"></path>
    <path fill="#a57939" stroke-width="0.6431" d="M31.191377777777774 11.544577777777777q-0.03275555555555555 -0.11102222222222222 -0.07355555555555555 -0.22515555555555555c-1.1779111111111111 -3.298666666666666 -4.2536000000000005 -5.360311111111111 -7.423555555555555 -6.503155555555555 -2.407777777777778 -0.8448 -4.943244444444444 -1.2677333333333332 -7.494799999999999 -1.2502222222222221 -3.738977777777777 -0.0812 -7.427377777777778 0.8749333333333332 -10.655999999999999 2.7623555555555552 -1.9363555555555554 1.1256 -3.4364888888888885 2.8712888888888886 -4.258 4.954888888888889 -0.5023111111111112 1.1564444444444444 -0.08502222222222222 2.5063999999999997 0.982311111111111 3.1776 1.0623111111111112 0.7666222222222222 2.251244444444444 1.3403999999999998 3.5123555555555552 1.695111111111111 3.3808444444444445 0.9999111111111111 6.895511111111111 1.4731555555555556 10.4204 1.4030666666666665 3.784088888888889 0.1007111111111111 7.556755555555555 -0.4582666666666666 11.149066666666666 -1.651822222222222 1.087288888888889 -0.3546222222222222 2.1016 -0.902711111111111 2.994088888888889 -1.617822222222222 0.8574666666666666 -0.6279555555555555 1.2037777777777776 -1.742622222222222 0.8530666666666666 -2.745911111111111Z"></path>
    <path fill="#6a462f" stroke-width="0.6431" d="M10.076622222222221 7.2766666666666655c0 0.9422222222222222 5.099688888888888 1.5310666666666666 9.179466666666666 1.0599999999999998 1.8934222222222221 -0.21866666666666665 3.0598666666666663 -0.6227111111111111 3.0598666666666663 -1.0599999999999998 0 -0.9421777777777777 -5.099733333333333 -1.531022222222222 -9.179511111111111 -1.0599555555555555 -1.8934222222222221 0.21866666666666665 -3.059822222222222 0.6227111111111111 -3.059822222222222 1.0599555555555555"></path>
  </g>
  <g id="line">
    <path fill="none" stroke="#000000" stroke-linecap="round" stroke-linejoin="round" stroke-miterlimit="7" stroke-width="0.8889" d="M2.0777777777777775 17.072533333333332q-0.11302222222222223 0.08875555555555555 -0.2215111111111111 0.18297777777777777c-0.8572888888888889 0.6275999999999999 -1.2035555555555555 1.7418666666666667 -0.8530222222222221 2.7447999999999997q0.032577777777777775 0.11093333333333333 0.07337777777777778 0.2250222222222222c1.1773333333333333 3.2970666666666664 4.251955555555556 5.3576 7.423555555555555 6.497688888888888 2.4077333333333333 0.8447111111111111 4.943244444444444 1.2674666666666665 7.494799999999999 1.2496888888888888 3.7370222222222225 0.08124444444444444 7.423511111111111 -0.874311111111111 10.650533333333332 -2.7607111111111107 1.935511111111111 -1.1248444444444443 3.435111111111111 -2.8695999999999997 4.2563555555555554 -4.952177777777778 0.4137777777777778 -0.9153333333333332 0.2259111111111111 -1.9905777777777776 -0.47373333333333334 -2.7113777777777774"></path>
    <path fill="none" stroke="#000000" stroke-miterlimit="7" stroke-width="0.8889" d="M9.868444444444444 7.731422222222222c0 0.9417777777777778 5.099688888888888 1.5303555555555555 9.179466666666666 1.0594666666666666 1.8934222222222221 -0.21853333333333333 3.059822222222222 -0.6224 3.059822222222222 -1.0594666666666666 0 -0.9417777777777778 -5.099688888888888 -1.5303555555555555 -9.179466666666666 -1.059511111111111 -1.8934222222222221 0.21857777777777776 -3.059822222222222 0.6224444444444445 -3.059822222222222 1.059511111111111"></path>
    <path fill="none" stroke="#000000" stroke-miterlimit="7" stroke-width="0.8889" d="M30.977688888888885 11.999288888888888c-1.1773777777777776 -3.2970666666666664 -4.325377777777778 -5.582755555555555 -7.494799999999999 -6.722311111111111 -2.4078666666666666 -0.8448 -4.943377777777777 -1.2671999999999999 -7.494799999999999 -1.2496888888888888 -3.7369777777777777 -0.08124444444444444 -7.4235999999999995 0.8744 -10.650533333333332 2.7607111111111107 -1.9356 1.1247555555555555 -3.435111111111111 2.869733333333333 -4.2563555555555554 4.952133333333333 -0.5021777777777777 1.156 -0.0848 2.5059555555555555 0.982311111111111 3.176533333333333 1.0617777777777777 0.7659111111111111 2.250088888888889 1.3395555555555554 3.5107555555555554 1.694 3.3792444444444443 0.9993333333333333 6.892133333333334 1.4721333333333333 10.414933333333332 1.402 3.7824444444444443 0.10053333333333334 7.555066666666666 -0.45817777777777774 11.143555555555555 -1.6512888888888888 1.0869777777777778 -0.3545777777777777 2.1005333333333334 -0.902311111111111 2.9924444444444442 -1.6172888888888888 0.9691999999999998 -0.9401333333333333 1.2025777777777777 -1.755911111111111 0.8547111111111111 -2.7442666666666664Z"></path>
    <path stroke-width="0.6427" d="M8.51711111111111 11.796577777777777c-0.0011111111111111111 0.34857777777777776 0.37555555555555553 0.5675999999999999 0.678 0.39426666666666665 0.14124444444444445 -0.08093333333333333 0.2281333333333333 -0.23146666666666668 0.22764444444444443 -0.39426666666666665 0.0010666666666666665 -0.34857777777777776 -0.3756 -0.5675999999999999 -0.678 -0.39426666666666665 -0.14124444444444445 0.08093333333333333 -0.2281333333333333 0.23146666666666668 -0.22764444444444443 0.39426666666666665"></path>
    <path stroke-width="0.6427" d="M13.047955555555555 11.796577777777777c-0.0010666666666666665 0.34857777777777776 0.37555555555555553 0.5675999999999999 0.678 0.39426666666666665 0.14124444444444445 -0.08093333333333333 0.2281333333333333 -0.23146666666666668 0.22764444444444443 -0.39426666666666665 0.0010666666666666665 -0.34857777777777776 -0.3756 -0.5675999999999999 -0.678 -0.39426666666666665 -0.14124444444444445 0.08093333333333333 -0.2281333333333333 0.23146666666666668 -0.22764444444444443 0.39426666666666665"></path>
    <path stroke-width="0.6427" d="M6.703688888888888 9.079155555555555c-0.0011111111111111111 0.34857777777777776 0.37555555555555553 0.5676444444444444 0.6779555555555555 0.39426666666666665 0.14124444444444445 -0.08093333333333333 0.22817777777777776 -0.23146666666666668 0.22764444444444443 -0.39426666666666665 0.0011111111111111111 -0.34857777777777776 -0.37555555555555553 -0.5675999999999999 -0.678 -0.39426666666666665 -0.1412 0.08097777777777777 -0.2281333333333333 0.2315111111111111 -0.2276 0.39426666666666665"></path>
    <path stroke-width="0.6427" d="M12.138488888888888 14.514c-0.0010666666666666665 0.34857777777777776 0.3756 0.5675999999999999 0.678 0.39426666666666665 0.14124444444444445 -0.08093333333333333 0.2281333333333333 -0.23146666666666668 0.22764444444444443 -0.39426666666666665 0.0010666666666666665 -0.34857777777777776 -0.37555555555555553 -0.5675999999999999 -0.678 -0.39426666666666665 -0.14124444444444445 0.08093333333333333 -0.2281333333333333 0.23146666666666668 -0.22764444444444443 0.39426666666666665"></path>
    <path stroke-width="0.6427" d="M3.986266666666666 11.796577777777777c-0.0011111111111111111 0.34857777777777776 0.37555555555555553 0.5675999999999999 0.678 0.39426666666666665 0.1412 -0.08093333333333333 0.2281333333333333 -0.23146666666666668 0.2276 -0.39426666666666665 0.0011111111111111111 -0.34857777777777776 -0.37555555555555553 -0.5675999999999999 -0.6779555555555555 -0.39426666666666665 -0.14124444444444445 0.08093333333333333 -0.22817777777777776 0.23146666666666668 -0.22764444444444443 0.39426666666666665"></path>
    <path stroke-width="0.6427" d="M17.57333333333333 13.604533333333332c-0.0011111111111111111 0.34857777777777776 0.37555555555555553 0.5675999999999999 0.678 0.39426666666666665 0.14124444444444445 -0.08093333333333333 0.2281333333333333 -0.23146666666666668 0.22764444444444443 -0.39426666666666665 0.0010666666666666665 -0.34857777777777776 -0.3756 -0.5675999999999999 -0.678 -0.39426666666666665 -0.14124444444444445 0.08093333333333333 -0.2281333333333333 0.23146666666666668 -0.22764444444444443 0.39426666666666665"></path>
    <path stroke-width="0.6427" d="M17.57333333333333 10.88711111111111c-0.0011111111111111111 0.34857777777777776 0.37555555555555553 0.5676444444444444 0.678 0.39426666666666665 0.14124444444444445 -0.08093333333333333 0.2281333333333333 -0.23146666666666668 0.22764444444444443 -0.39426666666666665 0.0010666666666666665 -0.34857777777777776 -0.3756 -0.5675999999999999 -0.678 -0.39426666666666665 -0.14124444444444445 0.08097777777777777 -0.2281333333333333 0.2315111111111111 -0.22764444444444443 0.39426666666666665"></path>
    <path stroke-width="0.6427" d="M20.290755555555556 15.417955555555553c-0.0011111111111111111 0.34857777777777776 0.37555555555555553 0.5676444444444444 0.678 0.39431111111111106 0.1412 -0.08097777777777777 0.2281333333333333 -0.2315111111111111 0.2276 -0.39431111111111106 0.0011111111111111111 -0.3485333333333333 -0.37555555555555553 -0.5675999999999999 -0.6779555555555555 -0.39426666666666665 -0.14124444444444445 0.08097777777777777 -0.22817777777777776 0.2315111111111111 -0.22764444444444443 0.39426666666666665"></path>
    <path stroke-width="0.6427" d="M22.104177777777778 10.88711111111111c-0.0010666666666666665 0.34857777777777776 0.37555555555555553 0.5676444444444444 0.678 0.39426666666666665 0.14124444444444445 -0.08093333333333333 0.2281333333333333 -0.23146666666666668 0.22764444444444443 -0.39426666666666665 0.0010666666666666665 -0.34857777777777776 -0.3756 -0.5675999999999999 -0.678 -0.39426666666666665 -0.14124444444444445 0.08097777777777777 -0.2281333333333333 0.2315111111111111 -0.22764444444444443 0.39426666666666665"></path>
    <path stroke-width="0.6427" d="M23.912133333333333 12.700577777777777c-0.0010666666666666665 0.3485333333333333 0.37555555555555553 0.5675999999999999 0.678 0.39426666666666665 0.14124444444444445 -0.08097777777777777 0.2281333333333333 -0.2315111111111111 0.22764444444444443 -0.39426666666666665 0.0010666666666666665 -0.34857777777777776 -0.3756 -0.5676444444444444 -0.678 -0.39431111111111106 -0.14124444444444445 0.08097777777777777 -0.2281333333333333 0.2315111111111111 -0.22764444444444443 0.39431111111111106"></path>
    <path stroke-width="0.6427" d="M24.821599999999997 8.169688888888889c-0.0011111111111111111 0.34857777777777776 0.37555555555555553 0.5676444444444444 0.678 0.39431111111111106 0.14124444444444445 -0.08097777777777777 0.2281333333333333 -0.2315111111111111 0.22764444444444443 -0.39431111111111106 0.0010666666666666665 -0.3485333333333333 -0.3756 -0.5675999999999999 -0.678 -0.39426666666666665 -0.14124444444444445 0.08097777777777777 -0.2281333333333333 0.2315111111111111 -0.22764444444444443 0.39426666666666665"></path>
    <path stroke-width="0.6427" d="M26.629555555555555 10.88711111111111c-0.0011111111111111111 0.34857777777777776 0.37555555555555553 0.5676444444444444 0.678 0.39426666666666665 0.14124444444444445 -0.08093333333333333 0.2281333333333333 -0.23146666666666668 0.22764444444444443 -0.39426666666666665 0.0010666666666666665 -0.34857777777777776 -0.3756 -0.5675999999999999 -0.678 -0.39426666666666665 -0.14124444444444445 0.08097777777777777 -0.2281333333333333 0.2315111111111111 -0.22764444444444443 0.39426666666666665"></path>
    <path fill="none" stroke="#000000" stroke-linecap="round" stroke-linejoin="round" stroke-miterlimit="7" stroke-width="0.8889" d="M5.041733333333333 20.61173333333333c1.3356444444444444 0.8338222222222222 3.0683555555555557 0.6461333333333333 4.194444444444445 -0.45439999999999997 0.15555555555555553 0.7246666666666667 0.6778666666666666 1.3157333333333332 1.3779111111111109 1.5592444444444444 0.609511111111111 0.1515111111111111 1.2543555555555554 0.05311111111111111 1.7909777777777778 -0.27328888888888886 0.40488888888888885 1.4041333333333332 1.663733333333333 2.3909777777777776 3.123911111111111 2.448977777777778 1.5708444444444445 0.0827111111111111 2.9835999999999996 -0.9496888888888888 3.3819999999999997 -2.471422222222222 0.47759999999999997 0.5708888888888889 1.2423555555555554 0.813911111111111 1.9618666666666666 0.6234666666666666 0.6124444444444443 -0.14124444444444445 1.1301333333333334 -0.547911111111111 1.4124 -1.109422222222222 1.056888888888889 1.0207111111111111 2.649555555555555 1.2478222222222222 3.9495999999999998 0.5632"></path>
    <path stroke-width="0.6427" d="M8.177422222222223 14.514c-0.0010666666666666665 0.34857777777777776 0.3756 0.5675999999999999 0.678 0.39426666666666665 0.14124444444444445 -0.08093333333333333 0.2281333333333333 -0.23146666666666668 0.22764444444444443 -0.39426666666666665 0.0010666666666666665 -0.34857777777777776 -0.37555555555555553 -0.5675999999999999 -0.678 -0.39426666666666665 -0.14124444444444445 0.08093333333333333 -0.2281333333333333 0.23146666666666668 -0.22764444444444443 0.39426666666666665"></path>
  </g>
</svg>