<svg id="Baguette-Bread--Streamline-Openmoji" viewBox="0 0 32 32" xmlns="http://www.w3.org/2000/svg" height="32" width="32">
  <desc>
    Baguette Bread Streamline Emoji: https://streamlinehq.com
  </desc>
  <g id="color">
    <path fill="#f4aa41" stroke="none" d="M2.520711111111111 21.560488888888887c-2.1864 2.1864 -2.187511111111111 5.732266666666667 0 7.919244444444445 2.186355555555555 2.186933333333333 5.733333333333333 2.186933333333333 7.919688888888888 0.0005333333333333333l19.039333333333335 -19.040355555555553c2.186355555555555 -2.187511111111111 2.186355555555555 -5.732844444444444 0 -7.9192C27.29222222222222 0.3332 23.74688888888889 0.3332 21.559955555555554 2.5201333333333333L2.520711111111111 21.560488888888887Z" stroke-width="0.4444"></path>
  </g>
  <g id="hair"></g>
  <g id="skin"></g>
  <g id="skin-shadow"></g>
  <g id="line">
    <path fill="none" stroke="#000000" stroke-linecap="round" stroke-linejoin="round" stroke-miterlimit="10" stroke-width="0.8889" d="M2.520711111111111 21.560488888888887c-2.1864 2.1864 -2.187511111111111 5.732266666666667 0 7.919244444444445 2.186355555555555 2.186933333333333 5.733333333333333 2.186933333333333 7.919688888888888 0.0005333333333333333l19.039333333333335 -19.040355555555553c2.186355555555555 -2.187511111111111 2.186355555555555 -5.732844444444444 0 -7.9192C27.29222222222222 0.3332 23.74688888888889 0.3332 21.559955555555554 2.5201333333333333L2.520711111111111 21.560488888888887Z"></path>
    <path fill="none" stroke="#000000" stroke-linecap="round" stroke-linejoin="round" stroke-miterlimit="10" stroke-width="0.8889" d="M21.559955555555554 2.5201333333333333c-2.1864 2.186933333333333 -2.1864 5.732844444444444 0 7.919777777777778"></path>
    <path fill="none" stroke="#000000" stroke-linecap="round" stroke-linejoin="round" stroke-miterlimit="10" stroke-width="0.8889" d="M16.799999999999997 7.280088888888888c-2.1864 2.186933333333333 -2.1864 5.732844444444444 0 7.919777777777778"></path>
    <path fill="none" stroke="#000000" stroke-linecap="round" stroke-linejoin="round" stroke-miterlimit="10" stroke-width="0.8889" d="M12.040044444444444 12.040044444444444c-2.185822222222222 2.187511111111111 -2.185822222222222 5.733377777777777 0 7.919777777777778"></path>
    <path fill="none" stroke="#000000" stroke-linecap="round" stroke-linejoin="round" stroke-miterlimit="10" stroke-width="0.8889" d="M7.280666666666666 16.800533333333334c-2.1864 2.186977777777778 -2.1864 5.732844444444444 0 7.919777777777778"></path>
  </g>
</svg>