<svg id="Balloon--Streamline-Openmoji" viewBox="0 0 32 32" version="1.1" xmlns="http://www.w3.org/2000/svg" height="32" width="32">
  <desc>
    Balloon Streamline Emoji: https://streamlinehq.com
  </desc>
  <g id="color">
    <path fill="#d22f27" d="m11.583866666666667 20.0444 0.0148 3.2098666666666666 0.0148 3.2098666666666666 -2.9415999999999998 -1.8918666666666668 -2.941644444444444 -1.8918666666666668 2.9268444444444444 -1.3179999999999998Z" stroke-width="0.4444"></path>
    <path fill="#ea5a47" d="M5.632088888888888 12.246933333333333c0 8.798844444444445 9.524977777777778 14.298088888888886 17.144977777777775 9.89871111111111 3.5364888888888886 -2.041777777777778 5.715022222222222 -5.815155555555555 5.715022222222222 -9.89871111111111 0 -8.7988 -9.525022222222221 -14.298044444444443 -17.145022222222224 -9.898666666666665 -3.5364444444444443 2.041777777777778 -5.7149777777777775 5.815155555555555 -5.7149777777777775 9.898666666666665" stroke-width="0.4444"></path>
    <path fill="#d22f27" d="M24.927066666666665 4.071644444444444c-0.6663555555555556 -0.6664 -1.3955555555555554 -1.2309777777777777 -2.167022222222222 -1.6983555555555554 2.6635555555555555 4.396577777777778 2.099022222222222 10.200088888888887 -1.698311111111111 13.997466666666666s-9.600888888888889 4.361911111111111 -13.997422222222221 1.698311111111111c0.4673777777777778 0.771511111111111 1.032 1.500622222222222 1.698311111111111 2.167022222222222 4.463688888888889 4.463688888888889 11.7008 4.463688888888889 16.16444444444444 0 4.463688888888889 -4.463688888888889 4.463688888888889 -11.700755555555554 0 -16.16444444444444Z" stroke-width="0.4444"></path>
  </g>
  <g id="hair"></g>
  <g id="skin"></g>
  <g id="skin-shadow"></g>
  <g id="line">
    <path fill="none" stroke="#000000" stroke-linecap="round" stroke-linejoin="round" stroke-miterlimit="10" stroke-width="0.9431" d="m11.595644444444444 22.29022222222222 0.004977777777777777 0.9640888888888889 0.014888888888888889 3.210266666666666 -2.9419555555555554 -1.8933777777777778 -2.941911111111111 -1.8883999999999999 2.927022222222222 -1.3218666666666667 0.9690666666666666 -0.4373333333333333"></path>
    <path fill="none" stroke="#000000" stroke-miterlimit="10" stroke-width="0.8889" d="M5.632088888888888 12.246933333333333c0 8.798844444444445 9.524977777777778 14.298088888888886 17.144977777777775 9.89871111111111 3.5364888888888886 -2.041777777777778 5.715022222222222 -5.815155555555555 5.715022222222222 -9.89871111111111 0 -8.7988 -9.525022222222221 -14.298044444444443 -17.145022222222224 -9.898666666666665 -3.5364444444444443 2.041777777777778 -5.7149777777777775 5.815155555555555 -5.7149777777777775 9.898666666666665"></path>
    <path fill="none" stroke="#000000" stroke-linecap="round" stroke-linejoin="round" stroke-miterlimit="10" stroke-width="0.8889" d="M3.507911111111111 31.175777777777775c0.2508888888888889 0.019644444444444444 0.5096 -0.00008888888888888889 0.7687999999999999 -0.06386666666666665 1.343511111111111 -0.3303555555555555 2.1915555555555555 -1.7184444444444442 1.8941777777777775 -3.1003555555555553"></path>
    <path fill="none" stroke="#000000" stroke-linecap="round" stroke-linejoin="round" stroke-miterlimit="10" stroke-width="0.8889" d="M6.199066666666667 28.103155555555556c-0.08106666666666666 -0.23826666666666665 -0.12599999999999997 -0.49377777777777776 -0.1283111111111111 -0.7607111111111111 -0.012222222222222221 -1.3834666666666666 1.1228888888888888 -2.5485333333333333 2.535422222222222 -2.602222222222222"></path>
  </g>
</svg>