<svg id="Banana--Streamline-Openmoji" viewBox="0 0 32 32" xmlns="http://www.w3.org/2000/svg" height="32" width="32">
  <desc>
    Banana Streamline Emoji: https://streamlinehq.com
  </desc>
  <g id="color">
    <path fill="#fcea2b" stroke="#fcea2b" stroke-linecap="round" stroke-linejoin="round" stroke-width="0.3333" d="M24.785333333333334 24.781466666666663C18.10728888888889 32.67582222222222 9.511288888888888 31.874444444444443 3.5741777777777775 28.966977777777778c-0.19053333333333333 -0.09333333333333332 -0.2780444444444444 -0.3190222222222222 -0.32315555555555553 -0.5263111111111111h0c-0.11711111111111111 -0.5386666666666666 0.2737777777777778 -1.0480888888888888 0.8235111111111111 -1.0890222222222221 3.1574666666666666 -0.23546666666666669 7.876533333333334 -1.3069777777777778 13.195999999999998 -5.840977777777778 0.6758222222222222 -0.5760888888888889 1.2926222222222221 -1.2213777777777777 1.8376444444444442 -1.9224444444444444 2.970222222222222 -3.8204 5.5344444444444445 -8.746488888888889 5.6829777777777775 -12.747688888888888 0.011600000000000001 -0.31355555555555553 0.2570222222222222 -0.5690666666666666 0.5705777777777777 -0.5788444444444444 1.8981333333333335 -0.05924444444444444 1.638711111111111 -0.14395555555555556 1.7928888888888888 0.2228444444444444 2.5308888888888887 6.022311111111111 1.5296444444444444 13.378 -2.365244444444444 18.295777777777776l-0.004133333333333333 0.0011555555555555555Z"></path>
    <path fill="#f1b31c" stroke="#f1b31c" stroke-linecap="round" stroke-linejoin="round" stroke-width="0.3333" d="M26.45702222222222 6.070622222222221c2.2589777777777775 -0.7512888888888888 3.6739555555555556 12.547688888888887 -1.2120888888888888 18.533333333333335 -7.173066666666665 6.692888888888888 -14.385155555555555 7.691022222222222 -22.038488888888885 3.595066666666667 15.7808 3.3367111111111107 23.99342222222222 -9.349333333333334 23.251777777777775 -22.127155555555554l-0.0012 -0.0012444444444444443Z"></path>
  </g>
  <g id="line">
    <path fill="none" stroke="#000000" stroke-linecap="round" stroke-linejoin="round" stroke-width="0.8889" d="m25.776177777777775 3.535733333333333 -0.34648888888888885 -2.607822222222222"></path>
    <path fill="none" stroke="#000000" stroke-linecap="round" stroke-linejoin="round" stroke-width="0.8889" d="M9.788666666666666 28.49568888888889c10.151777777777777 -1.7659555555555553 14.862933333333332 -6.771911111111111 16.212444444444444 -16.46773333333333"></path>
    <path fill="none" stroke="#000000" stroke-linecap="round" stroke-linejoin="round" stroke-width="0.8889" d="M23.010266666666666 26.96377777777778c-4.927555555555555 4.384133333333333 -14.011822222222222 5.744577777777778 -19.71382222222222 1.6759555555555554l-0.2512 -1.1556c11.197333333333333 -1.3409777777777776 19.92662222222222 -8.486133333333333 21.494977777777777 -21.610444444444443 0.6717333333333333 -0.0024888888888888886 2.823644444444444 -0.24053333333333332 2.823644444444444 -0.24053333333333332 3.4035555555555557 9.17911111111111 1.0662222222222222 16.504177777777777 -4.354933333333333 21.324755555555555l0.0013333333333333333 0.005866666666666667Z"></path>
  </g>
</svg>