<svg id="Basketball--Streamline-Openmoji" viewBox="0 0 32 32" version="1.1" xmlns="http://www.w3.org/2000/svg" height="32" width="32">
  <desc>
    Basketball Streamline Emoji: https://streamlinehq.com
  </desc>
  <g id="color">
    <path fill="#f4aa41" d="M0.8426666666666666 16c0 11.668133333333332 12.63111111111111 18.96071111111111 22.735999999999997 13.126622222222222C28.268355555555555 26.41902222222222 31.15733333333333 21.4152 31.15733333333333 16c0 -11.668133333333332 -12.63111111111111 -18.96071111111111 -22.735999999999997 -13.126622222222222C3.7316444444444445 5.580977777777777 0.8426666666666666 10.5848 0.8426666666666666 16" stroke-width="0.4444"></path>
    <path fill="#e27022" d="M23.6832 2.933333333333333C26.192 5.651199999999999 27.759999999999998 9.257599999999998 27.759999999999998 13.282133333333332c0 8.362666666666666 -6.794666666666666 15.157333333333332 -15.157333333333332 15.157333333333332 -2.8223999999999996 0 -5.435733333333332 -0.7839999999999999 -7.683199999999999 -2.0906666666666665C7.6895999999999995 29.275733333333335 11.661866666666667 31.15733333333333 16 31.15733333333333c8.362666666666666 0 15.157333333333332 -6.794666666666666 15.157333333333332 -15.157333333333332 0 -5.592533333333333 -2.9791999999999996 -10.453333333333333 -7.4741333333333335 -13.066666666666665Z" stroke-width="0.4444"></path>
  </g>
  <g id="hair"></g>
  <g id="skin"></g>
  <g id="skin-shadow"></g>
  <g id="line">
    <path fill="none" stroke="#000000" stroke-linecap="round" stroke-linejoin="round" stroke-miterlimit="10" stroke-width="0.8889" d="M0.8426666666666666 16h30.314666666666664"></path>
    <path fill="none" stroke="#000000" stroke-linecap="round" stroke-linejoin="round" stroke-miterlimit="10" stroke-width="0.8889" d="M16 0.8426666666666666v30.314666666666664"></path>
    <path fill="none" stroke="#000000" stroke-linecap="round" stroke-linejoin="round" stroke-miterlimit="10" stroke-width="0.8889" d="M26.0352 27.341866666666665c-2.9269333333333334 -2.9269333333333334 -4.704 -6.8991999999999996 -4.704 -11.394133333333333 0 -4.442666666666667 1.7770666666666666 -8.4672 4.704 -11.394133333333333"></path>
    <path fill="none" stroke="#000000" stroke-linecap="round" stroke-linejoin="round" stroke-miterlimit="10" stroke-width="0.8889" d="M6.017066666666666 4.6058666666666666C8.943999999999999 7.532799999999999 10.721066666666665 11.557333333333334 10.721066666666665 16s-1.7770666666666666 8.4672 -4.704 11.394133333333333"></path>
    <path fill="none" stroke="#000000" stroke-linecap="round" stroke-linejoin="round" stroke-miterlimit="10" stroke-width="0.8889" d="M0.8426666666666666 16c0 11.668133333333332 12.63111111111111 18.96071111111111 22.735999999999997 13.126622222222222C28.268355555555555 26.41902222222222 31.15733333333333 21.4152 31.15733333333333 16c0 -11.668133333333332 -12.63111111111111 -18.96071111111111 -22.735999999999997 -13.126622222222222C3.7316444444444445 5.580977777777777 0.8426666666666666 10.5848 0.8426666666666666 16"></path>
  </g>
</svg>