<svg id="Beaming-Face-With-Smiling-Eyes--Streamline-Openmoji" viewBox="0 0 32 32" xmlns="http://www.w3.org/2000/svg" height="32" width="32">
  <desc>
    Beaming Face With Smiling Eyes Streamline Emoji: https://streamlinehq.com
  </desc>
  <g id="color">
    <path fill="#fcea2b" d="M0.9733333333333333 16c0 11.567555555555556 12.522222222222222 18.79724444444444 22.54 13.013466666666666C28.162622222222222 26.329199999999997 31.026666666666667 21.368488888888887 31.026666666666667 16c0 -11.567555555555556 -12.522222222222222 -18.79724444444444 -22.54 -13.013466666666666C3.8373777777777778 5.6708 0.9733333333333333 10.631511111111111 0.9733333333333333 16" stroke-width="0.4444"></path>
    <path fill="#ffffff" d="M25.535422222222223 19.6848c0.007822222222222222 1.0059111111111112 -0.1854222222222222 2.0032888888888887 -0.5683999999999999 2.9334666666666664 -8.160133333333333 1.9796 -16.614266666666666 0.22213333333333332 -17.96013333333333 -0.08493333333333332 -0.36506666666666665 -0.9049777777777778 -0.5492888888888888 -1.8727111111111108 -0.5422666666666667 -2.848533333333333h0.07186666666666666s9.669333333333332 2.345466666666667 18.874799999999997 0.045733333333333334Z" stroke-width="0.4444"></path>
    <path fill="#ffffff" d="M24.967066666666664 22.618266666666667c-1.1694666666666667 2.7897333333333334 -4.148666666666666 4.723599999999999 -8.944133333333333 4.723599999999999 -4.8412 0 -7.8596 -1.9796 -9.016 -4.808533333333333 1.3458666666666665 0.30706666666666665 9.799911111111111 2.0645333333333333 17.96013333333333 0.08493333333333332Z" stroke-width="0.4444"></path>
  </g>
  <g id="hair"></g>
  <g id="skin"></g>
  <g id="skin-shadow"></g>
  <g id="line">
    <path fill="none" stroke="#000000" stroke-linecap="round" stroke-linejoin="round" stroke-width="0.8889" d="M0.9733333333333333 16c0 11.567555555555556 12.522222222222222 18.79724444444444 22.54 13.013466666666666C28.162622222222222 26.329199999999997 31.026666666666667 21.368488888888887 31.026666666666667 16c0 -11.567555555555556 -12.522222222222222 -18.79724444444444 -22.54 -13.013466666666666C3.8373777777777778 5.6708 0.9733333333333333 10.631511111111111 0.9733333333333333 16"></path>
    <path fill="none" stroke="#000000" stroke-linecap="round" stroke-linejoin="round" stroke-width="0.8889" d="M25.535422222222223 19.6848c0.007822222222222222 1.0059111111111112 -0.1854222222222222 2.0032888888888887 -0.5683999999999999 2.9334666666666664 -8.160133333333333 1.9796 -16.614266666666666 0.22213333333333332 -17.96013333333333 -0.08493333333333332 -0.36506666666666665 -0.9049777777777778 -0.5492888888888888 -1.8727111111111108 -0.5422666666666667 -2.848533333333333h0.07186666666666666s9.669333333333332 2.345466666666667 18.874799999999997 0.045733333333333334Z"></path>
    <path fill="none" stroke="#000000" stroke-linecap="round" stroke-linejoin="round" stroke-width="0.8889" d="M24.967066666666664 22.618266666666667c-1.1694666666666667 2.7897333333333334 -4.148666666666666 4.723599999999999 -8.944133333333333 4.723599999999999 -4.8412 0 -7.8596 -1.9796 -9.016 -4.808533333333333 1.3458666666666665 0.30706666666666665 9.799911111111111 2.0645333333333333 17.96013333333333 0.08493333333333332Z"></path>
    <path fill="none" stroke="#000000" stroke-linecap="round" stroke-miterlimit="10" stroke-width="0.8889" d="M13.1868 13.650355555555555c-0.965111111111111 -2.172222222222222 -3.9197777777777776 -2.485111111111111 -5.318444444444444 -0.5632 -0.12791111111111111 0.17577777777777778 -0.2368888888888889 0.3645333333333333 -0.32515555555555553 0.5632"></path>
    <path fill="none" stroke="#000000" stroke-linecap="round" stroke-miterlimit="10" stroke-width="0.8889" d="M24.456799999999998 13.650355555555555c-0.965111111111111 -2.172222222222222 -3.9197777777777776 -2.485111111111111 -5.318444444444444 -0.5632 -0.12791111111111111 0.17577777777777778 -0.2368888888888889 0.3645333333333333 -0.32515555555555553 0.5632"></path>
  </g>
</svg>