<svg id="Bear--Streamline-Openmoji" viewBox="0 0 32 32" xmlns="http://www.w3.org/2000/svg" height="32" width="32">
  <desc>
    Bear Streamline Emoji: https://streamlinehq.com
  </desc>
  <g id="color">
    <path fill="#6a462f" d="m10.052666666666667 6.382222222222222 -3.714844444444444 -2.9154222222222224 -3.7641333333333336 0.6968 -1.3932444444444443 2.0863111111111112 0.28688888888888886 3.0618222222222222 0.8984444444444444 1.9614666666666665c0.4343555555555555 0.9483111111111111 1.4808444444444444 2.135333333333333 2.374622222222222 2.6729333333333334l-1.329911111111111 4.128222222222222 -0.027688888888888888 2.8814666666666664 0.7480444444444444 2.632133333333333 1.1913777777777776 1.6623999999999999 3.103111111111111 2.308933333333333s7.368133333333333 4.764044444444444 15.238577777777778 0.12924444444444444l3.712711111111111 -3.1862666666666666 1.2744888888888888 -2.7991999999999995 0.1108 -2.7420888888888886 -0.8866222222222221 -3.7957777777777775 -0.19848888888888888 -1.4228444444444444 1.0574222222222223 -1.2092888888888889 1.7409333333333332 -2.4635555555555553 0.4200888888888889 -3.2176444444444443 -1.078711111111111 -2.5680444444444444 -2.1906666666666665 -1.2102666666666666 -2.6688 0.7202222222222222 -2.106133333333333 1.6076 -1.3205333333333333 0.87 -4.654711111111111 -1.1359555555555554 -4.299644444444445 0.1721777777777778 -2.5234666666666667 1.0745777777777779Z" stroke-width="0.4444"></path>
    <path fill="#a57939" d="m12.63551111111111 16.36573333333333 -1.0494222222222223 2.6235111111111107 -0.4372 3.4979555555555555 1.0493777777777777 1.6615555555555555 0.1748888888888889 2.2736888888888886 1.486622222222222 1.1368444444444443 4.547377777777777 -0.1748888888888889 1.2242666666666666 -0.5246666666666667 0.08746666666666666 -2.710977777777778 1.0493777777777777 -1.6615555555555555 -0.6121777777777777 -3.4979555555555555 -1.3117333333333332 -2.8858666666666664s-3.672844444444444 -2.536 -6.208844444444445 0.26235555555555556Z" stroke-width="0.4444"></path>
    <path fill="#3f3f3f" d="M13.247644444444445 21.61271111111111s2.2736888888888886 -2.4486222222222223 5.159511111111111 -0.1748888888888889L17.445244444444445 22.924444444444443l-3.1481777777777777 -0.08746666666666666 -1.0494222222222223 -1.2242666666666666Z" stroke-width="0.4444"></path>
    <path fill="#a57939" d="M22.167466666666666 6.221644444444444s6.7336 -2.0987555555555555 7.957911111111111 4.197555555555555l0.6517333333333333 -2.6892444444444443 -0.5276 -2.7869333333333333 -1.9845333333333333 -1.5878666666666668 -1.914888888888889 -0.13244444444444442 -2.870888888888889 1.4249777777777777 -1.3117333333333332 1.5739999999999998Z" stroke-width="0.4444"></path>
    <path fill="#a57939" d="M9.837155555555556 6.221644444444444S3.1035555555555554 4.122888888888889 1.8792444444444443 10.4192l-0.44951111111111114 -0.918711111111111c-0.28786666666666666 -0.5883555555555555 -0.4278666666666666 -1.237911111111111 -0.40804444444444443 -1.8925777777777777l0.011999999999999999 -0.3969333333333333c0.029155555555555556 -0.9628 0.40226666666666666 -1.8831999999999998 1.0517333333333334 -2.594488888888889 0.5409333333333334 -0.5924444444444444 1.2464444444444445 -1.0098666666666667 2.026088888888889 -1.1988444444444444l0.08102222222222222 -0.019644444444444444c1.0305777777777778 -0.24986666666666668 2.118177777777778 -0.08328888888888888 3.0267999999999997 0.46364444444444436l1.3059999999999998 0.7860888888888888 1.3117333333333332 1.5740444444444444Z" stroke-width="0.4444"></path>
  </g>
  <g id="line">
    <path d="M11.085644444444442 15.970577777777777c0 0.8078222222222222 0.8744888888888889 1.312711111111111 1.5740888888888889 0.9087999999999999 0.32466666666666666 -0.1874222222222222 0.5247111111111111 -0.5338666666666667 0.5247111111111111 -0.9087999999999999 0 -0.8078222222222222 -0.8744888888888889 -1.312711111111111 -1.5740888888888889 -0.9087999999999999 -0.3247111111111111 0.18746666666666667 -0.5247111111111111 0.5339111111111111 -0.5247111111111111 0.9087999999999999" stroke-width="0.4444"></path>
    <path fill="none" stroke="#000000" stroke-linecap="round" stroke-linejoin="round" stroke-width="0.8889" d="M10.757733333333332 6.996133333333333S6.7241333333333335 0.8965777777777778 2.9200888888888885 3.421644444444444c-3.4635999999999996 2.299111111111111 -2.0522666666666667 7.32391111111111 0.31639999999999996 8.875244444444444"></path>
    <path fill="none" stroke="#000000" stroke-linecap="round" stroke-linejoin="round" stroke-width="0.8889" d="M8.167022222222222 27.295333333333332C-0.19528888888888887 23.983155555555555 4.047866666666666 14.695644444444442 4.047866666666666 14.695644444444442s1.9124888888888887 -4.9104 4.901511111111111 -6.090977777777778"></path>
    <path fill="none" stroke="#000000" stroke-linecap="round" stroke-linejoin="round" stroke-width="0.8889" d="M23.921733333333332 27.295333333333332c8.362355555555556 -3.3121777777777774 4.1192 -12.599688888888888 4.1192 -12.599688888888888s-1.9125333333333334 -4.9104 -4.901511111111111 -6.090977777777778"></path>
    <path d="M18.815555555555555 15.970577777777777c0 0.8078222222222222 0.8744888888888889 1.312711111111111 1.5740888888888889 0.9087999999999999 0.3247111111111111 -0.1874222222222222 0.5247111111111111 -0.5338666666666667 0.5247111111111111 -0.9087999999999999 0 -0.8078222222222222 -0.8744888888888889 -1.312711111111111 -1.5740888888888889 -0.9087999999999999 -0.32466666666666666 0.18746666666666667 -0.5247111111111111 0.5339111111111111 -0.5247111111111111 0.9087999999999999" stroke-width="0.4444"></path>
    <path fill="none" stroke="#000000" stroke-linecap="round" stroke-linejoin="round" stroke-width="0.8889" d="m19.932577777777777 19.29311111111111 0.8188888888888889 2.5206222222222223c0.11524444444444443 0.4285777777777778 0.044755555555555555 0.882311111111111 -0.1928 1.2571999999999999 -0.6398222222222222 1.009511111111111 -2.127244444444444 2.6856444444444443 -4.333822222222222 1.1745777777777777h-0.4497777777777778c-2.2066222222222223 1.511022222222222 -3.6939555555555557 -0.1651111111111111 -4.333822222222222 -1.1745777777777777 -0.23759999999999998 -0.3748444444444444 -0.30804444444444445 -0.8286666666666667 -0.19284444444444443 -1.2571999999999999l0.8188888888888889 -2.5206222222222223"></path>
    <path fill="none" stroke="#000000" stroke-linecap="round" stroke-linejoin="round" stroke-width="0.8889" d="M18.18902222222222 21.703066666666665c-0.0532 1.5782666666666665 -1.4718666666666667 0.8689333333333333 -1.4718666666666667 0.8689333333333333L16 22.216977777777775l-0.717111111111111 0.3550222222222222s-1.418711111111111 0.7093333333333334 -1.4718666666666667 -0.8689333333333333"></path>
    <path fill="none" stroke="#000000" stroke-linecap="round" stroke-linejoin="round" stroke-width="0.8889" d="M21.242266666666666 6.996133333333333s4.0336 -6.099555555555555 7.837644444444443 -3.574488888888889c3.4635999999999996 2.299111111111111 2.0522666666666667 7.32391111111111 -0.31635555555555556 8.875244444444444"></path>
    <path fill="none" stroke="#000000" stroke-linecap="round" stroke-linejoin="round" stroke-width="0.8889" d="M12.823688888888888 26.542577777777776s2.7218666666666667 3.463688888888889 6.352622222222222 0.29515555555555556"></path>
    <path fill="none" stroke="#000000" stroke-linecap="round" stroke-linejoin="round" stroke-width="0.8889" d="M10.052666666666667 5.9763111111111105s4.57 -2.586977777777778 11.71431111111111 0"></path>
    <path fill="none" stroke="#000000" stroke-linecap="round" stroke-linejoin="round" stroke-width="0.8889" d="M16 24.24551111111111V22.572"></path>
  </g>
</svg>