<svg id="Beaver--Streamline-Openmoji" viewBox="0 0 32 32" xmlns="http://www.w3.org/2000/svg" height="32" width="32">
  <desc>
    Beaver Streamline Emoji: https://streamlinehq.com
  </desc>
  <g id="color">
    <path fill="#a57939" d="M12.2296 9.447999999999999c-0.3547111111111111 -0.033244444444444445 -0.678 -0.21733333333333332 -0.8875555555555555 -0.5054666666666666 -0.21528888888888886 -0.27995555555555557 -0.46386666666666665 -0.5326222222222221 -0.7402222222222222 -0.7525333333333333 0.3992 -0.7258222222222221 0.4598222222222222 -1.5902666666666665 0.1658222222222222 -2.3647111111111108 -0.20435555555555554 -0.47893333333333327 -0.6617333333333333 -0.8012888888888888 -1.1814666666666667 -0.8326222222222222 -0.5187999999999999 -0.02902222222222222 -1.0109777777777778 0.23168888888888886 -1.2784444444444445 0.6771555555555555l-0.7425333333333334 1.259511111111111c-0.5814222222222222 -0.09333333333333332 -1.1695111111111112 -0.13897777777777776 -1.7583555555555554 -0.13644444444444442 -1.7744 0.058622222222222214 -3.374311111111111 1.0841777777777777 -4.168444444444444 2.6720444444444444 -0.2962222222222222 0.604311111111111 -0.5066222222222222 0.7017333333333333 -0.6748444444444444 0.7806666666666666 -0.49755555555555553 0.1976 -0.7575555555555554 0.7462666666666666 -0.5954666666666667 1.256488888888889 0.17853333333333332 2.1133333333333333 1.915822222222222 3.755511111111111 4.035866666666666 3.814888888888889 0.19146666666666667 0.0608 1.0978666666666668 0.4254222222222222 1.0978666666666668 1.8787555555555553 0 2.6894666666666667 1.3995555555555554 7.711377777777777 6.6056 7.922577777777778 0.1272 0.17982222222222222 0.26915555555555554 0.3487111111111111 0.42439999999999994 0.5049333333333333 0.9213333333333332 0.8376444444444444 2.115911111111111 1.3115555555555556 3.360888888888889 1.3333777777777778h0.014666666666666666l1.9864444444444445 -0.030355555555555552c0.005999999999999999 0 0.011244444444444444 -0.0035555555555555553 0.017377777777777777 -0.0038666666666666663 0.04622222222222222 -0.0007555555555555554 0.09217777777777778 -0.007155555555555555 0.1368888888888889 -0.018933333333333333 5.0508 -1.4390222222222222 5.108977777777778 -8.493955555555555 5.108977777777778 -8.793111111111111 0.006711111111111111 -7.297688888888888 -8.362355555555556 -8.475377777777778 -10.927466666666666 -8.662355555555555Z" stroke-width="0.4444"></path>
    <path fill="#6a462f" d="M30.229333333333333 7.547822222222223c-0.5825333333333332 -0.7011555555555554 -1.452711111111111 -1.0988 -2.364133333333333 -1.0803555555555555 -4.868444444444444 0 -6.5629333333333335 7.981022222222222 -6.632444444444444 8.320533333333334 -0.023866666666666665 0.1288888888888889 -0.003777777777777778 0.2620444444444444 0.05702222222222222 0.3781333333333333 0.006355555555555555 0.015511111111111111 0.005333333333333333 0.032044444444444445 0.013066666666666666 0.04728888888888889 0.44999999999999996 0.9171999999999999 0.6756 1.9282666666666664 0.6581333333333332 2.9497777777777774 0 0.06431111111111111 -0.05902222222222222 6.452533333333333 -4.239155555555556 7.6428 -0.011999999999999999 0.0034666666666666665 -0.020577777777777778 0.012533333333333332 -0.0324 0.016666666666666666 -0.03897777777777778 0.015066666666666666 -0.07626666666666666 0.03431111111111111 -0.1111111111111111 0.05737777777777777 -0.13328888888888887 0.07097777777777778 -0.22835555555555556 0.19728888888888887 -0.25964444444444446 0.3450222222222222 -0.012444444444444444 0.03933333333333333 -0.02062222222222222 0.07986666666666666 -0.024444444444444442 0.12093333333333334 -0.0007111111111111111 0.012355555555555554 -0.007155555555555555 0.022888888888888886 -0.007155555555555555 0.03551111111111111 0.014222222222222221 0.05342222222222222 0.021866666666666666 0.10835555555555554 0.022799999999999997 0.1636 0.003955555555555555 0.013822222222222222 0.012977777777777777 0.02431111111111111 0.017955555555555554 0.03755555555555556 0.02711111111111111 0.06733333333333333 0.06435555555555555 0.13013333333333332 0.11044444444444444 0.1862222222222222 0.04711111111111111 0.056400000000000006 0.10542222222222221 0.10239999999999999 0.17128888888888888 0.13497777777777778 0.0204 0.012355555555555554 0.04151111111111111 0.02337777777777778 0.06328888888888888 0.033111111111111105 0.06737777777777779 0.027066666666666666 0.1391111111111111 0.041555555555555554 0.21168888888888887 0.04262222222222222h0.0005777777777777778c12.198577777777777 0 13.553644444444444 -10.127822222222223 13.563555555555554 -10.212533333333333 0.040355555555555554 -0.2711111111111111 0.9734222222222222 -6.6728 -1.2193333333333334 -9.219244444444444Z" stroke-width="0.4444"></path>
    <path fill="#6a462f" d="M14.316755555555554 26.979599999999998H8.169244444444445c-0.2959555555555556 -0.0001333333333333333 -0.5474222222222223 -0.21635555555555555 -0.5919111111111112 -0.5089333333333333 -0.10586666666666666 -0.7456888888888888 0.09342222222222221 -1.5025777777777776 0.5528 -2.099422222222222 0.5024888888888889 -0.5454666666666667 1.2242666666666666 -0.8350666666666666 1.9644444444444442 -0.7882666666666667 0.0971111111111111 -0.00008888888888888889 0.1928 0.023555555555555555 0.2787111111111111 0.06893333333333332 0.6263555555555556 0.25706666666666667 1.3007555555555554 0.37622222222222224 1.9772888888888889 0.3494222222222222 0.26551111111111114 -0.01271111111111111 0.5068 0.1535111111111111 0.5895555555555555 0.40608888888888883 0.23373333333333335 0.6895555555555556 1.2457777777777777 1.2624888888888888 1.6161777777777777 1.4257333333333333 0.42195555555555553 0.18466666666666665 0.48577777777777775 0.7568888888888888 0.11484444444444444 1.0299555555555555 -0.10262222222222221 0.07555555555555556 -0.22671111111111109 0.11635555555555555 -0.35417777777777776 0.11648888888888888Z" stroke-width="0.4444"></path>
  </g>
  <g id="line">
    <path fill="none" stroke="#000000" stroke-linecap="round" stroke-linejoin="round" stroke-width="0.8889" d="M6.3024 19.086533333333332c0.4966222222222222 2.393822222222222 2.049777777777778 5.5064 6.137066666666667 5.5064"></path>
    <path fill="none" stroke="#000000" stroke-linecap="round" stroke-linejoin="round" stroke-width="0.8889" d="M17.885022222222222 26.38128888888889c4.6741777777777775 -1.3309333333333333 4.6741777777777775 -8.21791111111111 4.6741777777777775 -8.21791111111111 0.005999999999999999 -6.714711111111111 -7.666711111111111 -7.8676 -10.373022222222222 -8.06551111111111 -0.5264444444444445 -0.04431111111111111 -1.0079555555555555 -0.3141333333333333 -1.3205777777777776 -0.7399555555555556 -0.5844888888888888 -0.7738222222222222 -1.9695555555555553 -1.9132888888888888 -5.057955555555555 -1.9132888888888888 -1.5445333333333333 0.06328888888888888 -2.933866666666667 0.9574222222222222 -3.6311999999999998 2.337022222222222 -0.7576888888888889 1.5446666666666664 -1.3462666666666667 0.6927555555555555 -1.214622222222222 1.6952888888888888 0.14422222222222222 1.8511555555555554 1.680711111111111 3.284222222222222 3.5373777777777775 3.2993333333333332s1.6016444444444442 0.3569777777777778 1.6016444444444442 2.4724444444444442q0 0.09902222222222222 0.003111111111111111 0.20684444444444441h-0.8598222222222223c-0.5278666666666666 0.0001333333333333333 -0.9557333333333332 0.42808888888888885 -0.9557777777777777 0.9559555555555556h0"></path>
    <path fill="none" stroke="#000000" stroke-linecap="round" stroke-linejoin="round" stroke-width="0.8889" d="M0.9620888888888888 11.029377777777777v3.6578666666666666"></path>
    <path fill="none" stroke="#000000" stroke-linecap="round" stroke-linejoin="round" stroke-width="0.8889" d="M16.42111111111111 17.760266666666666S11.873777777777777 18.159555555555556 11.873777777777777 22.3076s4.0248 4.1036 4.0248 4.1036H10.094755555555555"></path>
    <path fill="none" stroke="#000000" stroke-linecap="round" stroke-linejoin="round" stroke-width="0.8889" d="m7.917555555555555 7.564266666666667 0.9062222222222223 -1.537022222222222c0.30648888888888887 -0.5197333333333333 1.0607111111111112 -0.5127555555555555 1.3575555555555554 0.012533333333333332 0.013733333333333334 0.024355555555555554 0.026177777777777776 0.049422222222222215 0.037288888888888885 0.07511111111111111 0.2516888888888889 0.7400888888888889 0.13266666666666665 1.5560888888888886 -0.31999999999999995 2.193422222222222"></path>
    <path fill="none" stroke="#000000" stroke-linecap="round" stroke-linejoin="round" stroke-width="0.8889" d="M22.558711111111112 12.435599999999999c0.8606666666666667 -2.2985333333333333 2.530133333333333 -5.369688888888889 5.306444444444445 -5.369688888888889 4.436622222222222 0 2.9916444444444443 9.612088888888888 2.9916444444444443 9.612088888888888s-1.1629333333333334 9.703288888888888 -12.971777777777776 9.703288888888888"></path>
    <path fill="none" stroke="#000000" stroke-linecap="round" stroke-linejoin="round" stroke-width="0.8889" d="M8.169555555555554 26.38128888888889s-0.33302222222222216 -2.1999111111111107 1.925111111111111 -2.1999111111111107"></path>
  </g>
</svg>