<svg id="Beetle--Streamline-Openmoji" viewBox="0 0 32 32" xmlns="http://www.w3.org/2000/svg" height="32" width="32">
  <desc>
    Beetle Streamline Emoji: https://streamlinehq.com
  </desc>
  <g id="line-supplement">
    <path d="M12.772444444444444 21.605377777777775c0 0.45942222222222223 0.4973333333333333 0.7465777777777777 0.8952444444444444 0.5168444444444444 0.18462222222222222 -0.10657777777777777 0.2984 -0.3036 0.2984 -0.5168444444444444 0 -0.45942222222222223 -0.4973333333333333 -0.7465777777777777 -0.8952444444444444 -0.5168444444444444 -0.18462222222222222 0.10662222222222222 -0.2984 0.30364444444444444 -0.2984 0.5168444444444444" stroke-width="0.4444"></path>
    <path d="M11.917155555555555 19.2872c0 0.45942222222222223 0.4973333333333333 0.7465777777777777 0.8952444444444444 0.5168444444444444 0.18462222222222222 -0.10662222222222222 0.2984 -0.30364444444444444 0.2984 -0.5168444444444444 0 -0.45942222222222223 -0.4973333333333333 -0.7465777777777777 -0.8952444444444444 -0.5168444444444444 -0.18462222222222222 0.10657777777777777 -0.2984 0.3036 -0.2984 0.5168444444444444" stroke-width="0.4444"></path>
    <path d="M13.501733333333334 18.099644444444444c0 0.4594666666666667 0.49737777777777775 0.7465777777777777 0.8952444444444444 0.5168888888888888 0.18462222222222222 -0.10662222222222222 0.2984 -0.30364444444444444 0.2984 -0.5168888888888888 0 -0.45942222222222223 -0.4973333333333333 -0.7465333333333333 -0.8952 -0.5168444444444444 -0.18466666666666665 0.10662222222222222 -0.2984444444444444 0.30364444444444444 -0.2984444444444444 0.5168444444444444" stroke-width="0.4444"></path>
    <path d="M18.04573333333333 21.605377777777775c0 0.45942222222222223 0.4973333333333333 0.7465777777777777 0.8952 0.5168444444444444 0.18466666666666665 -0.10657777777777777 0.2984444444444444 -0.3036 0.2984444444444444 -0.5168444444444444 0 -0.45942222222222223 -0.49737777777777775 -0.7465777777777777 -0.8952444444444444 -0.5168444444444444 -0.18462222222222222 0.10662222222222222 -0.2984 0.30364444444444444 -0.2984 0.5168444444444444" stroke-width="0.4444"></path>
    <path d="M18.900977777777776 19.2872c0 0.45942222222222223 0.4973333333333333 0.7465777777777777 0.8952 0.5168444444444444 0.18466666666666665 -0.10662222222222222 0.2984 -0.30364444444444444 0.2984 -0.5168444444444444 0 -0.45942222222222223 -0.4973333333333333 -0.7465777777777777 -0.8952 -0.5168444444444444 -0.18466666666666665 0.10657777777777777 -0.2984 0.3036 -0.2984 0.5168444444444444" stroke-width="0.4444"></path>
    <path d="M17.316444444444446 18.099644444444444c0 0.4594666666666667 0.4973333333333333 0.7465777777777777 0.8952 0.5168888888888888 0.18466666666666665 -0.10662222222222222 0.2984 -0.30364444444444444 0.2984 -0.5168888888888888 0 -0.45942222222222223 -0.4973333333333333 -0.7465333333333333 -0.8952 -0.5168444444444444 -0.18466666666666665 0.10662222222222222 -0.2984 0.30364444444444444 -0.2984 0.5168444444444444" stroke-width="0.4444"></path>
  </g>
  <g id="color">
    <path fill="#ffffff" d="M23.287155555555554 16.113244444444444s0.7806666666666666 0 0.7806666666666666 0.7806666666666666v2.5444444444444443s0 0.780711111111111 -0.7806666666666666 0.780711111111111 -0.7806666666666666 0 -0.7806666666666666 -0.780711111111111v-2.5444444444444443s0 -0.7806666666666666 0.7806666666666666 -0.7806666666666666" stroke-width="0.4444"></path>
    <path fill="#ffffff" d="M8.777155555555556 15.925466666666665s0.780711111111111 0 0.780711111111111 0.780711111111111v2.5444444444444443s0 0.7806666666666666 -0.780711111111111 0.7806666666666666 -0.7806666666666666 0 -0.7806666666666666 -0.7806666666666666v-2.5444444444444443s0 -0.780711111111111 0.7806666666666666 -0.780711111111111" stroke-width="0.4444"></path>
    <path fill="#5c9e31" d="M20.249288888888888 14.989644444444444H11.751022222222222c-0.10635555555555555 -0.0001333333333333333 -0.21075555555555556 -0.02848888888888889 -0.30248888888888886 -0.08217777777777778 -1.3701777777777777 -0.8662666666666666 -2.125288888888889 -2.4390666666666663 -1.9442666666666666 -4.050044444444445 0.03217777777777778 -0.3517333333333333 0.16133333333333333 -0.6876444444444444 0.3730222222222222 -0.9703999999999998 0.35364444444444443 -0.3730222222222222 0.8291999999999999 -0.6070222222222221 1.3404888888888886 -0.6597777777777777 0.12235555555555555 -0.025644444444444442 0.24533333333333335 -0.05013333333333333 0.36191111111111113 -0.08511111111111111 0.4199555555555555 -0.16191111111111112 0.8089777777777778 -0.39488888888888884 1.1497777777777778 -0.6888888888888889 0.1288 -0.09675555555555555 0.2570222222222222 -0.19408888888888887 0.3876 -0.28617777777777775 0.6563555555555555 -0.5616888888888889 1.5329333333333333 -0.7936444444444444 2.3812444444444445 -0.63 0.02622222222222222 0.007022222222222222 0.05195555555555555 0.015733333333333332 0.07693333333333333 0.02622222222222222 0.27431111111111106 0.0984 0.5743111111111111 0.0984 0.8486222222222222 0 0.8939999999999999 -0.37533333333333335 1.7839555555555553 0.12533333333333332 2.4588444444444444 0.6037777777777777 0.12999999999999998 0.09208888888888889 0.2576 0.18831111111111112 0.38524444444444444 0.28506666666666663 0.34186666666666665 0.2945777777777777 0.7319111111111111 0.5279555555555555 1.1531555555555555 0.689911111111111 0.11595555555555556 0.03493333333333333 0.2387111111111111 0.059644444444444444 0.36191111111111113 0.08506666666666665 0.5111111111111111 0.0528 0.9863999999999998 0.2868444444444444 1.339911111111111 0.6597777777777777 0.21204444444444445 0.2827111111111111 0.34097777777777777 0.6189777777777777 0.37239999999999995 0.9709777777777777 0.18111111111111108 1.6106666666666667 -0.5737333333333333 3.1832 -1.943688888888889 4.049333333333333 -0.09173333333333333 0.05377777777777777 -0.19604444444444444 0.08226666666666665 -0.30235555555555554 0.08244444444444445Z" stroke-width="0.4444"></path>
    <path fill="#186648" d="M21.073244444444445 14.2244c-1.6634222222222221 -1.335822222222222 -4.450666666666666 -0.9011999999999999 -5.073422222222222 -0.7832444444444444 -0.6224888888888889 -0.11822222222222223 -3.4084 -0.5531999999999999 -5.072888888888889 0.7826666666666666 -0.8372444444444443 0.6989777777777777 -1.2943999999999998 1.7528888888888887 -1.232711111111111 2.841822222222222 0 2.0806666666666667 0 8.413022222222223 5.436 9.344933333333332 0.25457777777777774 0.044222222222222225 0.5085777777777778 -0.0808 0.6288444444444444 -0.3095111111111111L16 25.645066666666665l0.2407111111111111 0.45599999999999996c0.12022222222222223 0.2287111111111111 0.3742222222222222 0.35373333333333334 0.6288444444444444 0.3095111111111111 5.436577777777778 -0.931911111111111 5.436577777777778 -7.264266666666666 5.436577777777778 -9.344933333333332 0.06177777777777778 -1.0888444444444443 -0.3955111111111111 -2.142622222222222 -1.232888888888889 -2.8412444444444445Z" stroke-width="0.4444"></path>
    <path fill="#fcea2b" d="M12.772444444444444 21.605377777777775c0 0.45942222222222223 0.4973333333333333 0.7465777777777777 0.8952444444444444 0.5168444444444444 0.18462222222222222 -0.10657777777777777 0.2984 -0.3036 0.2984 -0.5168444444444444 0 -0.45942222222222223 -0.4973333333333333 -0.7465777777777777 -0.8952444444444444 -0.5168444444444444 -0.18462222222222222 0.10662222222222222 -0.2984 0.30364444444444444 -0.2984 0.5168444444444444" stroke-width="0.4444"></path>
    <path fill="#fcea2b" d="M11.917155555555555 19.2872c0 0.45942222222222223 0.4973333333333333 0.7465777777777777 0.8952444444444444 0.5168444444444444 0.18462222222222222 -0.10662222222222222 0.2984 -0.30364444444444444 0.2984 -0.5168444444444444 0 -0.45942222222222223 -0.4973333333333333 -0.7465777777777777 -0.8952444444444444 -0.5168444444444444 -0.18462222222222222 0.10657777777777777 -0.2984 0.3036 -0.2984 0.5168444444444444" stroke-width="0.4444"></path>
    <path fill="#fcea2b" d="M13.501733333333334 18.099644444444444c0 0.4594666666666667 0.49737777777777775 0.7465777777777777 0.8952444444444444 0.5168888888888888 0.18462222222222222 -0.10662222222222222 0.2984 -0.30364444444444444 0.2984 -0.5168888888888888 0 -0.45942222222222223 -0.4973333333333333 -0.7465333333333333 -0.8952 -0.5168444444444444 -0.18466666666666665 0.10662222222222222 -0.2984444444444444 0.30364444444444444 -0.2984444444444444 0.5168444444444444" stroke-width="0.4444"></path>
    <path fill="#fcea2b" d="M18.04573333333333 21.605377777777775c0 0.45942222222222223 0.4973333333333333 0.7465777777777777 0.8952 0.5168444444444444 0.18466666666666665 -0.10657777777777777 0.2984444444444444 -0.3036 0.2984444444444444 -0.5168444444444444 0 -0.45942222222222223 -0.49737777777777775 -0.7465777777777777 -0.8952444444444444 -0.5168444444444444 -0.18462222222222222 0.10662222222222222 -0.2984 0.30364444444444444 -0.2984 0.5168444444444444" stroke-width="0.4444"></path>
    <path fill="#fcea2b" d="M18.900977777777776 19.2872c0 0.45942222222222223 0.4973333333333333 0.7465777777777777 0.8952 0.5168444444444444 0.18466666666666665 -0.10662222222222222 0.2984 -0.30364444444444444 0.2984 -0.5168444444444444 0 -0.45942222222222223 -0.4973333333333333 -0.7465777777777777 -0.8952 -0.5168444444444444 -0.18466666666666665 0.10657777777777777 -0.2984 0.3036 -0.2984 0.5168444444444444" stroke-width="0.4444"></path>
    <path fill="#fcea2b" d="M17.316444444444446 18.099644444444444c0 0.4594666666666667 0.4973333333333333 0.7465777777777777 0.8952 0.5168888888888888 0.18466666666666665 -0.10662222222222222 0.2984 -0.30364444444444444 0.2984 -0.5168888888888888 0 -0.45942222222222223 -0.4973333333333333 -0.7465333333333333 -0.8952 -0.5168444444444444 -0.18466666666666665 0.10662222222222222 -0.2984 0.30364444444444444 -0.2984 0.5168444444444444" stroke-width="0.4444"></path>
  </g>
  <g id="line">
    <path fill="none" stroke="#000000" stroke-linecap="round" stroke-linejoin="round" stroke-width="0.8889" d="M13.461155555555555 25.220355555555557c-2.6525777777777777 -1.4637777777777776 -3.170133333333333 -4.949377777777777 -3.170133333333333 -8.15471111111111 0 -4.278488888888889 5.708977777777777 -3.0159999999999996 5.708977777777777 -3.0159999999999996v10.316266666666666l-0.7687555555555555 1.4569333333333332"></path>
    <path fill="none" stroke="#000000" stroke-linecap="round" stroke-linejoin="round" stroke-width="0.8889" d="m16 24.36591111111111 0.7686666666666666 1.4568444444444444"></path>
    <path fill="none" stroke="#000000" stroke-linecap="round" stroke-linejoin="round" stroke-width="0.8889" d="M18.538755555555557 25.220355555555557c2.6525777777777777 -1.4637777777777776 3.170133333333333 -4.949377777777777 3.170133333333333 -8.15471111111111 0 -4.278488888888889 -5.708888888888889 -3.0159999999999996 -5.708888888888889 -3.0159999999999996"></path>
    <path fill="none" stroke="#000000" stroke-linecap="round" stroke-linejoin="round" stroke-width="0.8889" d="m10.519511111111111 20.24448888888889 -2.2511555555555556 1.7653333333333332 1.8184444444444443 3.4877777777777776"></path>
    <path fill="none" stroke="#000000" stroke-linecap="round" stroke-linejoin="round" stroke-width="0.8889" d="M9.51111111111111 24.393599999999996s-1.7943555555555555 3.5832444444444445 -0.5264444444444445 6.6895999999999995"></path>
    <path fill="none" stroke="#000000" stroke-linecap="round" stroke-linejoin="round" stroke-width="0.8889" d="m10.70031111111111 15.385244444444442 -3.7246666666666663 -0.6469333333333332 0.14622222222222223 2.729822222222222"></path>
    <path fill="none" stroke="#000000" stroke-linecap="round" stroke-linejoin="round" stroke-width="0.8889" d="M5.466711111111111 21.97342222222222c-0.5853777777777777 -2.0711555555555554 0.02582222222222222 -4.296177777777777 1.5871111111111111 -5.777688888888889"></path>
    <path fill="none" stroke="#000000" stroke-linecap="round" stroke-linejoin="round" stroke-width="0.8889" d="M10.557466666666667 13.150488888888887c-0.3863111111111111 -0.6704888888888888 -0.5478666666666666 -1.4470666666666665 -0.46093333333333325 -2.2159999999999997 0.018044444444444443 -0.242 0.10235555555555555 -0.4743555555555555 0.2438222222222222 -0.6715111111111111 0.32399999999999995 -0.39946666666666664 0.9171555555555555 -0.4014222222222222 1.409822222222222 -0.5490666666666667 0.6242222222222222 -0.25857777777777774 1.2023555555555554 -0.6165777777777778 1.7119555555555555 -1.0601777777777779 0.5186666666666666 -0.44582222222222223 1.2060888888888888 -0.6432 1.8822666666666665 -0.5404888888888888 0.42248888888888886 0.15977777777777777 0.8887111111111111 0.15977777777777777 1.3112 0 0.6220444444444444 -0.26164444444444446 1.3317777777777777 0.15008888888888888 1.8822666666666665 0.5404888888888888 0.5096 0.4436 1.0877333333333332 0.8016 1.7119555555555555 1.0601777777777779 0.49266666666666664 0.14764444444444444 1.085822222222222 0.14959999999999998 1.409822222222222 0.5490666666666667 0.14146666666666666 0.19715555555555553 0.22577777777777777 0.4295111111111111 0.2438222222222222 0.6715111111111111 0.08693333333333332 0.7689333333333332 -0.07462222222222221 1.545511111111111 -0.46093333333333325 2.2159999999999997"></path>
    <path fill="none" stroke="#000000" stroke-linecap="round" stroke-linejoin="round" stroke-width="0.8889" d="m21.48048888888889 20.24448888888889 2.2511555555555556 1.7653333333333332 -1.8184444444444443 3.4877777777777776"></path>
    <path fill="none" stroke="#000000" stroke-linecap="round" stroke-linejoin="round" stroke-width="0.8889" d="M22.488888888888887 24.393599999999996s1.7943555555555555 3.5832444444444445 0.5264444444444445 6.6895999999999995"></path>
    <path fill="none" stroke="#000000" stroke-linecap="round" stroke-linejoin="round" stroke-width="0.8889" d="m21.299644444444443 15.385244444444442 3.7247111111111106 -0.6469333333333332 -0.14622222222222223 2.729822222222222"></path>
    <path fill="none" stroke="#000000" stroke-linecap="round" stroke-linejoin="round" stroke-width="0.8889" d="M26.533244444444446 21.97342222222222c0.5854222222222222 -2.0711555555555554 -0.025777777777777778 -4.296177777777777 -1.5870666666666666 -5.777688888888889"></path>
    <path fill="none" stroke="#000000" stroke-linecap="round" stroke-linejoin="round" stroke-width="0.8889" d="M13.356133333333332 0.9168000000000001 16 3.392355555555555l2.6438666666666664 -2.4755555555555557"></path>
    <path fill="none" stroke="#000000" stroke-linecap="round" stroke-linejoin="round" stroke-width="0.8889" d="M16 3.392622222222222v4.840933333333333"></path>
    <path fill="none" stroke="#000000" stroke-linecap="round" stroke-linejoin="round" stroke-width="0.8889" d="m10.096533333333332 10.934488888888888 -1.543822222222222 -2.329111111111111"></path>
    <path fill="none" stroke="#000000" stroke-linecap="round" stroke-linejoin="round" stroke-width="0.8889" d="M6.680177777777778 3.392622222222222s-1.8392 4.947555555555555 2.545688888888889 6.228222222222222"></path>
    <path fill="none" stroke="#000000" stroke-linecap="round" stroke-linejoin="round" stroke-width="0.8889" d="m21.904711111111112 10.934488888888888 1.543822222222222 -2.329111111111111"></path>
    <path fill="none" stroke="#000000" stroke-linecap="round" stroke-linejoin="round" stroke-width="0.8889" d="M25.321066666666667 3.392622222222222s1.8392 4.947555555555555 -2.5456 6.228222222222222"></path>
  </g>
</svg>