<svg id="Bell-Pepper--Streamline-Openmoji" viewBox="0 0 32 32" xmlns="http://www.w3.org/2000/svg" height="32" width="32">
  <desc>
    Bell Pepper Streamline Emoji: https://streamlinehq.com
  </desc>
  <g id="color">
    <path fill="#d22f27" d="M27.97382222222222 11.137644444444444c-0.23631111111111108 -1.3174666666666666 -1.396311111111111 -3.8089777777777774 -4.092666666666667 -3.8089777777777774 -1.4951999999999999 0.03515555555555556 -2.9186222222222225 0.6480888888888888 -3.971644444444444 1.7101777777777778 -1.0279111111111112 -1.1113777777777776 -2.4800888888888886 -1.7329777777777777 -3.9937333333333336 -1.709511111111111 -1.4197777777777778 0.09844444444444445 -2.717866666666666 0.8368 -3.5280444444444443 2.006844444444444 -1.0832444444444445 -1.2306666666666666 -2.628 -1.9574666666666667 -4.2667111111111105 -2.007511111111111 -2.6973333333333334 0 -3.8570666666666664 2.491511111111111 -4.0992444444444445 3.847955555555555 -0.05457777777777778 0.45586666666666664 -1.2837333333333332 11.247733333333333 3.075911111111111 17.464444444444446 1.3902222222222222 1.9831111111111108 2.757022222222222 2.9850222222222222 4.068044444444444 2.9850222222222222 0.12404444444444444 -0.0001333333333333333 0.2479555555555555 -0.009022222222222221 0.37075555555555556 -0.02662222222222222 0.7852444444444444 -0.14839999999999998 1.4860888888888888 -0.586488888888889 1.9634222222222222 -1.227422222222222 0.7266666666666667 0.7608444444444444 1.708888888888889 1.226222222222222 2.757911111111111 1.3066222222222221 0.026577777777777777 0.0006666666666666666 0.05257777777777778 0.0013333333333333333 0.07857777777777777 0.0013333333333333333 0.9073333333333333 -0.03 1.773511111111111 -0.3856 2.440222222222222 -1.0017777777777777 0.44573333333333326 0.4848444444444444 1.0392444444444444 0.8087555555555556 1.6881777777777778 0.9212444444444444 0.12279999999999999 0.0176 0.2467111111111111 0.026488888888888888 0.37075555555555556 0.02662222222222222 1.3110222222222223 0 2.678488888888889 -1.0019111111111112 4.068711111111111 -2.9850222222222222 4.359066666666666 -6.2164 3.13 -17.008577777777777 3.0695555555555556 -17.50342222222222Z" stroke-width="0.4444"></path>
    <path fill="none" stroke="#000000" stroke-linecap="round" stroke-linejoin="round" stroke-width="0.8889" d="M11.129644444444443 9.082266666666666c1.8860888888888887 -2.7855999999999996 4.126311111111111 -2.9189777777777777 4.126311111111111 -2.9189777777777777S14.655733333333332 0.37675555555555557 19.244622222222223 1.0608888888888888c0.997911111111111 0.16857777777777777 1.9517777777777776 0.5361333333333332 2.8048 1.0808444444444445 0.6851111111111111 0.4811111111111111 0.7572444444444444 1.4693777777777777 0.1492 2.044888888888889h0c-0.4350222222222222 0.40875555555555554 -1.0882222222222222 0.4797777777777777 -1.6008888888888888 0.17404444444444445 -1.1270666666666664 -0.6542666666666667 -3.0163555555555557 -1.3864 -3.063111111111111 1.9625777777777778 0 0 2.5255555555555556 0.9474666666666667 3.7496888888888886 2.4674666666666667"></path>
    <path fill="#b1cc33" d="M18.706 4.534622222222222c0.1604 -0.09155555555555554 0.5772888888888889 -0.16035555555555556 1.5532444444444444 0.4065333333333333 1.3184 0.7853777777777777 2.9925777777777776 -0.15097777777777777 3.0135555555555555 -1.685422222222222 0.0008444444444444444 -0.06355555555555555 -0.0012888888888888887 -0.12715555555555555 -0.006533333333333333 -0.19048888888888887 -0.04502222222222222 -0.5916888888888888 -0.3557333333333333 -1.1310666666666667 -0.8449333333333333 -1.466888888888889 -0.9363999999999999 -0.6015999999999999 -1.9853333333333332 -1.0065333333333333 -3.083022222222222 -1.190222222222222 -1.1945333333333332 -0.26195555555555555 -2.4420888888888888 0.06777777777777777 -3.3511999999999995 0.8856888888888887 -1.2832888888888887 1.2265777777777775 -1.436222222222222 3.3046222222222217 -1.4265777777777777 4.333022222222222 -1.6426666666666667 0.5092888888888888 -3.0475999999999996 1.5919555555555556 -3.9586666666666663 3.050622222222222l-0.0028888888888888888 0.002533333333333333 -0.002088888888888889 0.004133333333333333c-0.0074222222222222215 0.010888888888888889 -0.0152 0.01933333333333333 -0.022666666666666665 0.030311111111111108 -0.016933333333333335 0.032355555555555554 -0.031022222222222222 0.06608888888888889 -0.04217777777777777 0.10084444444444443 -0.02128888888888889 0.039377777777777775 -0.03857777777777777 0.08075555555555555 -0.051555555555555556 0.12355555555555556 -0.0067555555555555554 0.041155555555555556 -0.00951111111111111 0.08288888888888889 -0.008177777777777777 0.1246222222222222 -0.013999999999999999 0.0835111111111111 -0.0006666666666666666 0.16928888888888888 0.03808888888888889 0.2446222222222222 0.012133333333333333 0.04213333333333333 0.028533333333333327 0.08297777777777778 0.04897777777777778 0.12177777777777778 0.02462222222222222 0.03471111111111111 0.052488888888888884 0.06693333333333333 0.08324444444444444 0.09631111111111111 0.022355555555555552 0.0312 0.04751111111111111 0.06026666666666666 0.07515555555555554 0.08688888888888889 0.45017777777777773 0.3518666666666666 0.8509333333333333 0.762711111111111 1.1915555555555555 1.2214666666666665l0.0012444444444444443 0.0009777777777777777c0.05364444444444444 0.07293333333333332 0.12173333333333332 0.13404444444444444 0.19999999999999998 0.17955555555555555 0.008933333333333333 0.005155555555555555 0.01871111111111111 0.006622222222222222 0.027733333333333332 0.011466666666666667 0.012177777777777777 0.006355555555555555 0.024399999999999998 0.009777777777777776 0.03688888888888889 0.015333333333333334 0.0839111111111111 0.039466666666666664 0.17515555555555554 0.06088888888888889 0.26782222222222224 0.0628h0.0019555555555555554l0.008977777777777777 -0.0013777777777777777c0.05991111111111111 -0.0012888888888888887 0.11942222222222221 -0.010622222222222222 0.17684444444444442 -0.027777777777777776 0.020355555555555554 -0.005999999999999999 0.0391111111111111 -0.015999999999999997 0.05897777777777778 -0.02391111111111111 0.041555555555555554 -0.016266666666666665 0.08133333333333333 -0.03675555555555555 0.11875555555555554 -0.06106666666666666 0.009777777777777776 -0.006666666666666666 0.021111111111111112 -0.008666666666666666 0.03062222222222222 -0.015733333333333332s0.012533333333333332 -0.01622222222222222 0.0208 -0.022933333333333333c0.054711111111111106 -0.04364444444444444 0.10204444444444444 -0.09582222222222223 0.14017777777777776 -0.15453333333333333 0.005377777777777777 -0.008444444444444444 0.013288888888888888 -0.015066666666666666 0.018266666666666664 -0.023733333333333332l0.0005777777777777778 -0.0007111111111111111c0.5390222222222223 -0.9308888888888889 1.4876444444444443 -2.054622222222222 2.948 -2.1168444444444443 1.2908444444444442 0.01671111111111111 2.505333333333333 0.6147111111111111 3.3056444444444444 1.6276444444444442 0.037288888888888885 0.09413333333333332 0.09599999999999999 0.17826666666666666 0.17155555555555554 0.24568888888888885 0.27746666666666664 0.2404888888888889 0.6973777777777778 0.2102222222222222 0.9375111111111111 -0.06755555555555555 0.3469333333333333 -0.40328888888888886 0.7451111111111112 -0.7595555555555555 1.1844 -1.059688888888889 0.017377777777777777 -0.01168888888888889 0.02662222222222222 -0.029777777777777778 0.04217777777777777 -0.042666666666666665 0.03062222222222222 -0.012888888888888889 0.060177777777777774 -0.02813333333333333 0.08835555555555555 -0.04568888888888889 0.2860444444444444 -0.2303111111111111 0.33137777777777777 -0.6487999999999999 0.10128888888888887 -0.9349777777777777 -0.9996888888888887 -1.0796 -2.222711111111111 -1.928222222222222 -3.583911111111111 -2.4867999999999997 0.07906666666666666 -1.0086222222222223 0.36217777777777777 -1.2839555555555555 0.4920444444444444 -1.3573777777777778Z" stroke-width="0.4444"></path>
    <path fill="#781e32" d="M7.116266666666667 28.6344c1.4029777777777777 2.0006222222222223 2.7291555555555553 2.9772 4.054444444444444 2.9849777777777775h0.014888888888888889c1.045111111111111 -0.05333333333333333 1.9962666666666666 -0.6199555555555555 2.5408444444444442 -1.5135555555555555 0.009244444444444444 -0.012755555555555555 0.010533333333333332 -0.02808888888888889 0.01871111111111111 -0.04124444444444444 0.04102222222222222 -0.07595555555555555 0.07177777777777777 -0.15706666666666666 0.09146666666666667 -0.24115555555555554 0.023644444444444444 -0.12439999999999998 0.005999999999999999 -0.2531111111111111 -0.05026666666666667 -0.3665777777777777 -0.016666666666666666 -0.04204444444444445 -0.03777777777777778 -0.08213333333333332 -0.06302222222222223 -0.11968888888888887 -0.008666666666666666 -0.01271111111111111 -0.01591111111111111 -0.0264 -0.021555555555555553 -0.04075555555555555 -4.490355555555555 -10.696577777777778 -0.7318666666666667 -18.48502222222222 -0.6837777777777777 -18.604355555555554 0.005955555555555555 -0.015111111111111112 0.003511111111111111 -0.03066666666666667 0.008311111111111111 -0.04591111111111111 0.047155555555555555 -0.16728888888888888 0.03217777777777778 -0.346 -0.04208888888888889 -0.5031111111111111 -0.007466666666666666 -0.014399999999999998 -0.0076 -0.030488888888888885 -0.01622222222222222 -0.04448888888888888 -0.07533333333333334 -0.12342222222222221 -1.9978666666666665 -2.776844444444444 -4.828355555555555 -2.776844444444444 -2.6967111111111106 0 -3.8565333333333327 2.491511111111111 -4.0927999999999995 3.8090666666666664 -0.06035555555555555 0.49502222222222214 -1.2896 11.287288888888888 3.0694222222222223 17.503644444444443Z" stroke-width="0.4444"></path>
  </g>
  <g id="line">
    <path fill="none" stroke="#000000" stroke-linecap="round" stroke-linejoin="round" stroke-width="0.8889" d="M12.448799999999999 10.434844444444444c-0.5025777777777778 -0.6822222222222222 -2.0258666666666665 -2.447911111111111 -4.327999999999999 -2.447911111111111 -2.853333333333333 0 -3.4384888888888887 3.2615555555555553 -3.4384888888888887 3.2615555555555553s-1.3040444444444443 10.924577777777777 2.959288888888889 17.003911111111112c3.0311555555555554 4.322577777777777 4.931288888888888 2.4984888888888888 5.7764 1.083111111111111"></path>
    <path fill="none" stroke="#000000" stroke-linecap="round" stroke-linejoin="round" stroke-width="0.8889" d="M19.37062222222222 10.699422222222221s1.6567555555555555 -2.7124888888888887 4.510133333333333 -2.7124888888888887 3.4384888888888887 3.2615555555555553 3.4384888888888887 3.2615555555555553 1.304 10.924577777777777 -2.959288888888889 17.003911111111112c-2.7619555555555557 3.9386666666666663 -4.5847999999999995 2.7740444444444443 -5.526222222222222 1.4653777777777777"></path>
    <path fill="none" stroke="#000000" stroke-linecap="round" stroke-linejoin="round" stroke-width="0.8889" d="M19.78493333333333 9.847199999999999c-0.9448888888888888 -1.154311111111111 -2.3495999999999997 -1.8345777777777776 -3.841022222222222 -1.8602666666666665 -2.737333333333333 0.11604444444444444 -3.893644444444444 3.2615555555555553 -3.893644444444444 3.2615555555555553 -0.8525333333333333 2.6554666666666664 -1.258622222222222 5.433955555555555 -1.2016888888888888 8.222311111111111"></path>
    <path fill="none" stroke="#000000" stroke-linecap="round" stroke-linejoin="round" stroke-width="0.8889" d="M12.285733333333333 28.528622222222225c0.5442666666666666 0 1.132 0.8066666666666666 1.132 0.8066666666666666 2.417244444444444 2.730311111111111 4.260533333333333 1.566311111111111 5.417733333333333 0.3812 0 0 0.8460444444444444 -1.1878666666666666 1.5825333333333333 -1.1878666666666666"></path>
    <path fill="none" stroke="#000000" stroke-linecap="round" stroke-linejoin="round" stroke-width="0.8889" d="M12.3532 7.643599999999999c0.7832888888888888 -0.7926666666666666 1.8011999999999997 -1.3116888888888887 2.9027555555555553 -1.480133333333333S14.655733333333332 0.37675555555555557 19.244622222222223 1.0608888888888888c0.997911111111111 0.16857777777777777 1.9517777777777776 0.5361333333333332 2.8048 1.0808444444444445 0.6851111111111111 0.4811111111111111 0.7572444444444444 1.4693777777777777 0.1492 2.044888888888889h0c-0.4350222222222222 0.40875555555555554 -1.0882222222222222 0.4797777777777777 -1.6008888888888888 0.17404444444444445 -1.1270666666666664 -0.6542666666666667 -3.0163555555555557 -1.3864 -3.063111111111111 1.9625777777777778 0.8245333333333332 0.3264888888888889 1.6123999999999998 0.7389333333333333 2.3505777777777777 1.2304444444444445"></path>
  </g>
</svg>