<svg id="Billed-Cap--Streamline-Openmoji" viewBox="0 0 32 32" xmlns="http://www.w3.org/2000/svg" height="32" width="32">
  <desc>
    Billed Cap Streamline Emoji: https://streamlinehq.com
  </desc>
  <g id="color">
    <path fill="#186648" d="M25.10671111111111 21.943288888888887c-0.5205777777777778 0.7561777777777777 -1.1365777777777777 1.442 -1.8327555555555557 2.0404888888888886 -1.763422222222222 1.632711111111111 -3.9772 2.6970666666666663 -6.353688888888889 3.0546222222222217 -1.3007555555555554 0.2366222222222222 -2.6376444444444442 0.18444444444444444 -3.916044444444444 -0.1527111111111111 -0.6354666666666666 -0.19293333333333332 -1.2299111111111112 -0.5015111111111111 -1.7533333333333332 -0.9103111111111111 -2.0372 -1.463511111111111 -4.507422222222222 -2.199422222222222 -7.013466666666666 -2.0893333333333333 -0.9231555555555556 -0.049155555555555557 -1.8426666666666665 0.14915555555555554 -2.663644444444444 0.5742666666666666 -0.2565777777777778 0.14048888888888889 -0.4337333333333333 0.0672 -0.6781333333333334 -0.23217777777777776v-0.3543111111111111c0.6204 -0.5806222222222222 1.288711111111111 -1.107911111111111 1.9977333333333334 -1.5762222222222222 1.3929333333333334 -0.9713777777777777 2.7980444444444443 -1.9366222222222222 4.197066666666666 -2.901911111111111 0.17106666666666667 -0.19546666666666668 0.41546666666666665 -0.1527111111111111 0.6109333333333333 -0.18324444444444443 1.3419999999999999 -0.12564444444444445 2.694933333333333 -0.06391111111111111 4.019911111111111 0.18324444444444443 1.9122222222222223 0.32382222222222223 3.775555555555555 0.8492 5.6572 1.2952 1.6801777777777778 0.41591111111111106 3.380888888888889 0.7441333333333332 5.095155555555555 0.9835999999999999 0.6108888888888889 0.03662222222222222 1.2646222222222223 0.14048888888888889 1.906088888888889 0.14662222222222224 0.24919999999999998 -0.04515555555555555 0.5062666666666666 -0.0019555555555555554 0.7269777777777777 0.12217777777777776Z" stroke-width="0.4444"></path>
    <path fill="#186648" d="m25.10671111111111 21.943288888888887 -2.4925777777777776 -0.18942222222222221c-0.04546666666666666 -0.008044444444444444 -0.08902222222222222 -0.02462222222222222 -0.1283111111111111 -0.04884444444444444 0.6198666666666667 -1.9254666666666667 1.029511111111111 -3.9123999999999994 1.2218666666666667 -5.926 0.2099111111111111 -1.7838666666666665 0.09404444444444444 -3.590977777777778 -0.34213333333333334 -5.333422222222222 -0.3403111111111111 -1.5016 -1.246133333333333 -2.8143999999999996 -2.5292 -3.6655555555555557 -0.09777777777777777 -0.06106666666666666 -0.21995555555555554 -0.10995555555555556 -0.21386666666666665 -0.2565777777777778 0 0 0.0428 -0.048888888888888885 0.07333333333333333 -0.042755555555555554 0.4686222222222222 0.020933333333333335 0.9280444444444443 0.13733333333333334 1.3501333333333332 0.3420888888888889 0.787911111111111 0.2537333333333333 1.5609333333333333 0.5515111111111111 2.315422222222222 0.8919555555555555 1.936577777777778 0.8462222222222221 3.5992888888888888 2.214888888888889 4.801911111111111 3.9527111111111104 1.004 1.563911111111111 1.5849777777777776 3.361644444444444 1.6861333333333333 5.217333333333333 0.09457777777777777 1.2224444444444444 0.05564444444444444 2.451511111111111 -0.11604444444444444 3.6655555555555557 0.0034222222222222223 0.05902222222222222 0.0034222222222222223 0.11817777777777778 0 0.17715555555555554 -0.28106666666666663 1.2707555555555554 -0.7697777777777778 1.6189777777777776 -2.0771555555555556 1.5090222222222223 -1.1771999999999998 -0.15977777777777777 -2.3620444444444444 -0.25768888888888886 -3.549511111111111 -0.2932444444444445Z" stroke-width="0.4444"></path>
    <path fill="#b1cc33" d="M11.770177777777777 19.438488888888887c-0.6598222222222222 -0.061111111111111116 -1.3073777777777777 -0.15884444444444443 -1.9671999999999998 -0.2016 -0.9061333333333333 -0.06142222222222221 -1.8162666666666665 -0.0184 -2.7125333333333335 0.12826666666666667 0.04835555555555555 -0.7763999999999999 0.1648888888888889 -1.5471555555555556 0.3482666666666666 -2.3032 0.29888888888888887 -1.4345777777777775 0.7494666666666666 -2.8332888888888887 1.3439999999999999 -4.1726222222222225 1.0680444444444444 -2.4316 3.0794666666666664 -4.323955555555555 5.571688888888889 -5.241777777777778 1.4792444444444444 -0.5589333333333333 3.022622222222222 -0.9304444444444444 4.5941777777777775 -1.1057777777777777 0.2994222222222222 -0.13866666666666666 0.6331555555555556 -0.18546666666666667 0.9591555555555555 -0.1344 0.0672 0 0.1527111111111111 0 0.16493333333333332 0.09777777777777777s-0.08551111111111111 0.10382222222222222 -0.14662222222222224 0.12217777777777776c-0.3237777777777778 0.11604444444444444 -0.6597777777777777 0.2016 -0.9896888888888888 0.3237777777777778 -1.6090222222222221 0.6485777777777778 -2.9904888888888888 1.7579999999999998 -3.9710222222222216 3.189022222222222 -1.2884444444444443 1.8732888888888888 -2.1879999999999997 3.986 -2.6453333333333333 6.213155555555555 -0.22315555555555555 0.9541333333333332 -0.38639999999999997 1.9212888888888886 -0.4887555555555555 2.8957777777777776 0.005244444444444444 0.06866666666666667 -0.016666666666666666 0.13675555555555555 -0.06106666666666666 0.18942222222222221Z" stroke-width="0.4444"></path>
    <path fill="#3f3f3f" d="m19.968799999999998 6.480711111111111 -1.0079999999999998 0.06106666666666666c-0.04435555555555555 -0.8592444444444444 0.6162222222222222 -1.5917777777777777 1.475511111111111 -1.6360888888888887 0.32426666666666665 -0.016755555555555555 0.6457333333333334 0.06826666666666666 0.9192888888888888 0.2432 0.5197777777777778 0.22613333333333333 0.8157333333333332 0.7801333333333333 0.7148 1.337911111111111v0.2932444444444445c-0.4765333333333333 -0.07328888888888888 -0.934711111111111 -0.25048888888888887 -1.4173333333333333 -0.2871111111111111 -0.2444 0.10995555555555556 -0.48262222222222223 -0.061111111111111116 -0.6842666666666667 -0.012222222222222221Z" stroke-width="0.4444"></path>
    <path fill="#5c9e31" d="M19.968799999999998 6.480711111111111c0.21217777777777777 -0.08253333333333333 0.44764444444444446 -0.08253333333333333 0.6598222222222222 0 0.5558222222222221 0.09902222222222222 1.3208 0.36746666666666666 1.6657333333333333 0.6610666666666667 0.9313777777777777 0.9397777777777777 0.9900444444444443 2.2823555555555552 1.2544888888888888 3.578755555555555 0.19328888888888887 0.8356888888888889 0.2956888888888889 1.6898222222222221 0.30546666666666666 2.5475555555555554 0.028177777777777774 1.0199555555555555 -0.014711111111111109 2.0406222222222223 -0.1283111111111111 3.0546666666666664 -0.20506666666666665 1.6017777777777777 -0.5276888888888889 3.186355555555555 -0.9652444444444445 4.7408 -0.061111111111111116 0.2199111111111111 -0.042755555555555554 0.4948444444444444 -0.2810222222222222 0.6109333333333333 -1.0397333333333332 -0.10951111111111111 -2.0719555555555553 -0.28084444444444445 -3.0912888888888888 -0.5132 -2.0099555555555555 -0.4093333333333333 -3.989377777777778 -0.9530222222222221 -5.987111111111111 -1.4173333333333333 -0.5376 -0.12217777777777776 -1.0813333333333333 -0.22604444444444446 -1.6189333333333331 -0.33599999999999997 0.057777777777777775 -0.9412888888888888 0.19884444444444443 -1.8755555555555554 0.4215111111111111 -2.7919555555555555 0.3488 -1.7515999999999998 0.9453777777777778 -3.4445777777777775 1.7716888888888889 -5.027955555555556 0.8197777777777777 -1.641111111111111 2.0564444444444443 -3.0379555555555555 3.5861777777777775 -4.0504444444444445 0.7538666666666666 -0.4716888888888888 1.579111111111111 -0.818311111111111 2.443688888888889 -1.0263555555555555h0.048888888888888885l-0.08555555555555555 -0.03053333333333333Z" stroke-width="0.4444"></path>
  </g>
  <g id="line">
    <path fill="none" stroke="#000000" stroke-linecap="round" stroke-linejoin="round" stroke-width="0.8889" d="M6.937733333333333 18.864177777777776 0.9323111111111111 23.837155555555555"></path>
    <path fill="none" stroke="#000000" stroke-linecap="round" stroke-linejoin="round" stroke-width="0.8889" d="M30.556177777777776 20.367066666666663c0.8614222222222221 -3.0546222222222217 1.906088888888889 -10.782844444444443 -8.461333333333332 -14.051333333333332 0 0 0.16493333333333332 -1.6616888888888888 -1.3929333333333334 -1.7961333333333331s-1.7899999999999998 1.6250666666666667 -1.7899999999999998 1.6250666666666667c-12.108577777777777 0.6353777777777777 -11.876444444444445 12.682888888888888 -11.876444444444445 12.682888888888888 1.555911111111111 -0.2107111111111111 3.1363999999999996 -0.15493333333333334 4.6735999999999995 0.16493333333333332 1.4906666666666666 0.31159999999999993 4.545333333333333 1.063022222222222 7.563288888888888 1.6250666666666667 1.1668888888888889 0.21995555555555554 2.3398666666666665 0.3910222222222222 3.3906666666666663 0.5376444444444444 0 0 1.3618666666666666 0.1758222222222222 2.352044444444444 0.3237777777777778s2.8585333333333334 0.4337333333333333 3.6656 0.4337333333333333 1.6467999999999998 -0.6813333333333332 1.875511111111111 -1.5456444444444444Z"></path>
    <path fill="none" stroke="#000000" stroke-linecap="round" stroke-linejoin="round" stroke-width="0.8889" d="M0.9323111111111111 23.837155555555555c-0.03666666666666667 0.6109333333333333 0.6598222222222222 0.531511111111111 1.2218666666666667 0.3299111111111111s5.015688888888889 -1.2585333333333333 10.074177777777777 2.388711111111111c5.058488888888889 3.6472444444444445 14.032355555555554 -4.5582666666666665 12.82831111111111 -4.987111111111111"></path>
    <path fill="none" stroke="#000000" stroke-linecap="round" stroke-linejoin="round" stroke-width="0.8889" d="M11.709066666666667 18.99862222222222c0.9408444444444443 -6.066533333333333 3.158488888888889 -9.402177777777778 4.887422222222222 -11.143333333333333 1.1302222222222222 -1.1485333333333332 1.7411555555555556 -1.7600444444444445 4.667511111111111 -1.3751555555555555l0.03751111111111111 0.006133333333333333c0.8923111111111109 0.152 1.5834666666666666 0.8562666666666666 1.8439555555555556 1.7231111111111108 0.4761333333333333 1.584311111111111 1.6769333333333332 6.365244444444444 -0.41768888888888883 12.769244444444443"></path>
  </g>
</svg>