<svg id="Blossom--Streamline-Openmoji" viewBox="0 0 32 32" xmlns="http://www.w3.org/2000/svg" height="32" width="32">
  <desc>
    Blossom Streamline Emoji: https://streamlinehq.com
  </desc>
  <g id="color">
    <path fill="#fcea2b" stroke="none" d="M27.98613333333333 10.420177777777777c-0.14937777777777778 -0.2038222222222222 -0.14937777777777778 -0.4809777777777778 0 -0.6847555555555555l0.4524444444444444 -0.6175999999999999c0.9985333333333334 -1.3650222222222221 0.7014666666666667 -3.281111111111111 -0.6636444444444445 -4.279733333333334 -0.6164444444444445 -0.4509333333333333 -1.3792444444444443 -0.6552444444444444 -2.1385777777777775 -0.5727555555555555l-0.7606666666666666 0.08284444444444444c-0.2508 0.025866666666666666 -0.4898666666666667 -0.11217777777777778 -0.5926666666666666 -0.3424l-0.30879999999999996 -0.6998222222222222c-0.6828444444444444 -1.5472888888888887 -2.4908 -2.248133333333333 -4.038088888888888 -1.5652444444444442 -0.6986666666666667 0.3083111111111111 -1.2569333333333332 0.8665333333333333 -1.5652444444444442 1.5652444444444442l-0.30879999999999996 0.7004c-0.10342222222222221 0.22959999999999997 -0.34213333333333334 0.36724444444444443 -0.5926666666666666 0.3418222222222222l-0.7606666666666666 -0.08284444444444444c-1.6814666666666667 -0.18226666666666666 -3.192222222222222 1.033111111111111 -3.3744888888888886 2.7145777777777775 -0.08226666666666665 0.7591555555555555 0.122 1.5216444444444444 0.5728444444444444 2.137911111111111l0.4524444444444444 0.6175999999999999c0.14937777777777778 0.20377777777777778 0.14937777777777778 0.4809333333333333 0 0.6847555555555555l-0.45186666666666664 0.6175555555555555c-0.9988888888888888 1.3644 -0.7026222222222221 3.2802666666666664 0.6617777777777778 4.279155555555556 0.6167111111111111 0.45155555555555554 1.3800444444444444 0.6560444444444444 2.139866666666667 0.5733777777777778l0.7606666666666666 -0.08284444444444444c0.25093333333333334 -0.02733333333333333 0.4906666666666667 0.11093333333333333 0.5926666666666666 0.3418222222222222l0.30879999999999996 0.6998222222222222c0.07831111111111111 0.17306666666666667 0.1721777777777778 0.3386222222222222 0.2804 0.4947555555555555 0.02493333333333333 0.03648888888888889 0.050977777777777775 0.07066666666666667 0.07706666666666666 0.10542222222222221 0.09888888888888889 0.13435555555555556 0.20879999999999999 0.26035555555555556 0.3284888888888889 0.3765777777777778 0.010977777777777777 0.011022222222222221 0.02142222222222222 0.02262222222222222 0.03244444444444444 0.033022222222222224 0.2909333333333333 0.27142222222222223 0.6333333333333333 0.4817777777777778 1.0068888888888887 0.6187555555555556 0.34417777777777775 0.1295111111111111 0.7086666666666667 0.19662222222222223 1.0764 0.1981333333333333 1.2161777777777778 0.009777777777777776 2.3199555555555555 -0.7098666666666666 2.8016444444444444 -1.8266666666666667l0.30879999999999996 -0.6998222222222222c0.10177777777777777 -0.2311111111111111 0.3415555555555555 -0.36964444444444444 0.5926666666666666 -0.3424l0.7606666666666666 0.08284444444444444c1.6813777777777776 0.1826222222222222 3.1924888888888887 -1.0324444444444443 3.375066666666666 -2.713911111111111 0.08244444444444445 -0.7593777777777777 -0.12182222222222222 -1.5221333333333331 -0.5728444444444444 -2.1386222222222218l-0.4530222222222222 -0.6169777777777777Z" stroke-width="0.4444"></path>
    <path fill="#5c9e31" stroke="none" d="M3.005155555555555 11.735288888888888c-0.08746666666666666 1.2119555555555555 -0.10311111111111111 4.189155555555555 1.5567111111111112 6.220888888888888s4.580222222222222 2.6116444444444444 5.784666666666666 2.7657333333333334c0.08746666666666666 -1.2119555555555555 0.10311111111111111 -4.189733333333333 -1.5567111111111112 -6.220888888888888 -1.6655555555555555 -2.037511111111111 -4.581377777777777 -2.6116444444444444 -5.784666666666666 -2.7657333333333334Z" stroke-width="0.4444"></path>
    <path fill="#f1b31c" stroke="none" d="M21.17257777777778 7.760444444444444c-1.2798222222222222 0 -2.3173777777777778 1.0375555555555553 -2.3173777777777778 2.3173333333333335s1.0375555555555553 2.3173777777777778 2.3173777777777778 2.3173777777777778 2.3173333333333335 -1.0375555555555553 2.3173333333333335 -2.3173777777777778 -1.0374666666666665 -2.3173333333333335 -2.3173333333333335 -2.3173333333333335Z" stroke-width="0.4444"></path>
  </g>
  <g id="hair"></g>
  <g id="skin"></g>
  <g id="skin-shadow"></g>
  <g id="line">
    <path fill="none" stroke="#000000" stroke-linecap="round" stroke-linejoin="round" stroke-width="0.8889" d="M18.275866666666666 10.077777777777778c-0.0027555555555555554 2.2298666666666667 2.409422222222222 3.6265333333333336 4.341911111111111 2.514 0.8991111111111111 -0.5176000000000001 1.4527555555555554 -1.4765333333333333 1.4514666666666667 -2.514 0.0027555555555555554 -2.2298666666666667 -2.409422222222222 -3.6264888888888884 -4.341911111111111 -2.513955555555555 -0.8991111111111111 0.5176000000000001 -1.4527555555555554 1.4765333333333333 -1.4514666666666667 2.513955555555555"></path>
    <path fill="none" stroke="#000000" stroke-linecap="round" stroke-linejoin="round" stroke-width="0.8889" d="M9.237644444444443 14.13431111111111c2.3127111111111107 2.830622222222222 1.6250666666666667 7.219688888888888 1.6250666666666667 7.219688888888888s-4.437733333333333 -0.20106666666666667 -6.751022222222222 -3.0316888888888887S2.4866666666666664 11.102622222222221 2.4866666666666664 11.102622222222221s4.437733333333333 0.20106666666666667 6.750977777777777 3.0316888888888887Z"></path>
    <path fill="none" stroke="#000000" stroke-linecap="round" stroke-linejoin="round" stroke-width="0.8889" d="M15.711155555555553 19.088133333333335c-1.9917333333333331 2.055511111111111 -4.446977777777777 5.935866666666667 -3.376933333333333 12.012533333333332"></path>
    <path fill="none" stroke="#000000" stroke-linecap="round" stroke-linejoin="round" stroke-width="0.8889" d="m24.50431111111111 3.0712888888888887 0.30879999999999996 0.7004444444444444L25.573777777777774 3.688888888888889c1.999111111111111 -0.21755555555555553 3.796088888888889 1.2266666666666666 4.013688888888888 3.2258666666666667 0.09835555555555554 0.9036888888888889 -0.14488888888888887 1.8114666666666666 -0.6818666666666666 2.5448888888888885l-0.45191111111111104 0.6175555555555555 0.45191111111111104 0.6175999999999999c1.1879555555555554 1.6225333333333332 0.8356888888888889 3.9008888888888884 -0.7868888888888889 5.088888888888889 -0.7334222222222221 0.5369777777777778 -1.6412444444444443 0.7802222222222222 -2.5448888888888885 0.6818666666666666l-0.7606666666666666 -0.08284444444444444 -0.30879999999999996 0.7004c-0.8118666666666666 1.8397777777777777 -2.961422222222222 2.6730222222222224 -4.8012444444444435 1.8611555555555555 -0.8307555555555555 -0.3666222222222222 -1.4944888888888888 -1.0304444444444443 -1.861111111111111 -1.8611555555555555l-0.3087555555555555 -0.7004 -0.7606666666666666 0.08284444444444444c-1.999111111111111 0.21755555555555553 -3.796133333333333 -1.2266666666666666 -4.013644444444444 -3.2258666666666667 -0.09831111111111111 -0.9036888888888889 0.14488888888888887 -1.8114666666666666 0.6818666666666666 -2.5448888888888885l0.45186666666666664 -0.6175999999999999 -0.45186666666666664 -0.6175555555555555c-1.188 -1.6225333333333332 -0.8356888888888889 -3.9008888888888884 0.7868444444444443 -5.088888888888889C14.96111111111111 3.8337777777777773 15.868933333333333 3.590533333333333 16.772577777777776 3.688888888888889l0.7606666666666666 0.08284444444444444 0.3087555555555555 -0.7004444444444444C18.65391111111111 1.2315555555555555 20.803466666666665 0.39831111111111106 22.64324444444444 1.2101777777777778c0.8307111111111111 0.3665777777777777 1.4944888888888888 1.0303555555555555 1.8610666666666666 1.861111111111111Z"></path>
  </g>
</svg>