<svg id="Boule-Bread--Streamline-Openmoji" viewBox="0 0 32 32" xmlns="http://www.w3.org/2000/svg" height="32" width="32">
  <desc>
    Boule Bread Streamline Emoji: https://streamlinehq.com
  </desc>
  <g id="line-supplement">
    <path id="line-supplement_2" fill="none" stroke="#000000" stroke-linecap="round" stroke-linejoin="round" stroke-width="0.8889" d="M21.508266666666664 6.4659555555555555c-1.7392888888888889 2.6475555555555554 -2.8048 6.8347999999999995 -2.8048 8.452666666666666 0 -1.3019999999999998 1.6868888888888889 -4.129466666666667 3.9989777777777777 -6.488266666666666M15.026977777777775 5.747111111111111c-1.7434666666666665 2.5389777777777778 -2.8118222222222222 6.629866666666666 -2.8118222222222222 8.573866666666666 0 -1.632311111111111 1.8413777777777776 -4.627111111111111 4.3133333333333335 -6.962755555555555m-8.698266666666667 0.16591111111111112c-1.3198666666666665 2.490711111111111 -2.103333333333333 5.729777777777778 -2.103333333333333 7.394488888888888 0 -1.647822222222222 1.8763999999999998 -4.683999999999999 4.383688888888889 -7.0289777777777775"></path>
  </g>
  <g id="color">
    <path fill="#6a462f" d="M31.13928888888889 18.703466666666664c0 5.673644444444444 -6.778044444444444 7.569644444444444 -15.139288888888888 7.569644444444444S0.8606666666666667 24.37711111111111 0.8606666666666667 18.703466666666664 5.186222222222222 5.7268888888888885 16 5.7268888888888885 31.13928888888889 13.029777777777777 31.13928888888889 18.703466666666664Z" stroke-width="0.4444"></path>
    <g>
      <path fill="#a57939" d="M21.508266666666664 6.4659555555555555c0.8356888888888889 0.24511111111111109 1.6113777777777776 0.5454666666666667 2.3292444444444445 0.8922666666666667 -2.873822222222222 2.502177777777778 -5.134044444444444 6.053288888888888 -5.134044444444444 7.5604 0 -1.6178666666666666 1.065511111111111 -5.805111111111111 2.8048 -8.452666666666666Z" stroke-width="0.4444"></path>
      <path fill="#a57939" d="M18.356044444444443 5.849733333333333c-0.7484888888888889 -0.08057777777777776 -1.533511111111111 -0.12284444444444442 -2.356044444444444 -0.12284444444444442 -0.3303555555555555 0 -0.6547111111111111 0.0068 -0.9730222222222221 0.020177777777777777 -1.7434666666666665 2.539022222222222 -2.8118222222222222 6.62991111111111 -2.8118222222222222 8.57391111111111 0 -2.0151555555555554 2.8063555555555557 -6.106755555555555 6.140888888888889 -8.471244444444444Z" stroke-width="0.4444"></path>
      <path fill="#a57939" d="M12.537688888888889 6.000666666666667c-3.6197333333333326 2.2591555555555556 -6.8107999999999995 6.76911111111111 -6.8107999999999995 8.917955555555555 0 -1.664711111111111 0.7834666666666665 -4.903777777777777 2.103333333333333 -7.394488888888888 1.3500444444444444 -0.6966222222222221 2.9141777777777773 -1.2254222222222222 4.707466666666666 -1.5234666666666665Z" stroke-width="0.4444"></path>
      <path fill="none" stroke="#a57939" stroke-linejoin="round" stroke-width="0.8889" d="M21.508266666666664 6.4659555555555555c0.8356888888888889 0.24511111111111109 1.6113777777777776 0.5454666666666667 2.3292444444444445 0.8922666666666667 -2.873822222222222 2.502177777777778 -5.134044444444444 6.053288888888888 -5.134044444444444 7.5604 0 -1.6178666666666666 1.065511111111111 -5.805111111111111 2.8048 -8.452666666666666Z"></path>
      <path fill="none" stroke="#a57939" stroke-linejoin="round" stroke-width="0.8889" d="M18.356044444444443 5.849733333333333c-0.7484888888888889 -0.08057777777777776 -1.533511111111111 -0.12284444444444442 -2.356044444444444 -0.12284444444444442 -0.3303555555555555 0 -0.6547111111111111 0.0068 -0.9730222222222221 0.020177777777777777 -1.7434666666666665 2.539022222222222 -2.8118222222222222 6.62991111111111 -2.8118222222222222 8.57391111111111 0 -2.0151555555555554 2.8063555555555557 -6.106755555555555 6.140888888888889 -8.471244444444444Z"></path>
      <path fill="none" stroke="#a57939" stroke-linejoin="round" stroke-width="0.8889" d="M12.537688888888889 6.000666666666667c-3.6197333333333326 2.2591555555555556 -6.8107999999999995 6.76911111111111 -6.8107999999999995 8.917955555555555 0 -1.664711111111111 0.7834666666666665 -4.903777777777777 2.103333333333333 -7.394488888888888 1.3500444444444444 -0.6966222222222221 2.9141777777777773 -1.2254222222222222 4.707466666666666 -1.5234666666666665Z"></path>
    </g>
  </g>
  <g id="line">
    <path fill="none" stroke="#000000" stroke-width="0.8889" d="M31.13928888888889 18.703466666666664c0 5.673644444444444 -6.778044444444444 7.569644444444444 -15.139288888888888 7.569644444444444S0.8606666666666667 24.37711111111111 0.8606666666666667 18.703466666666664 5.186222222222222 5.7268888888888885 16 5.7268888888888885 31.13928888888889 13.029777777777777 31.13928888888889 18.703466666666664Z"></path>
  </g>
</svg>