<svg id="Bug--Streamline-Openmoji" viewBox="0 0 32 32" xmlns="http://www.w3.org/2000/svg" height="32" width="32">
  <desc>
    Bug Streamline Emoji: https://streamlinehq.com
  </desc>
  <g id="color">
    <path fill="#f4aa41" d="M6.202133333333333 20.669999999999998c0.005022222222222221 -0.012488888888888888 0.0057777777777777775 -0.025555555555555554 0.00951111111111111 -0.03844444444444444 0.08484444444444443 -0.23857777777777778 -0.023777777777777776 -0.5027555555555555 -0.2518666666666666 -0.6127111111111111 -0.6204444444444444 -0.3040888888888889 -1.1560888888888887 -0.7568888888888888 -1.5591111111111111 -1.3181333333333334 -0.5788888888888889 -0.814711111111111 -0.8925777777777778 -1.7880444444444445 -0.8983999999999999 -2.7874222222222222 0.0224 -0.27555555555555555 -0.18244444444444444 -0.5171111111111111 -0.4579555555555555 -0.5400888888888888 -0.016577777777777778 -0.0009777777777777777 -0.03088888888888889 0.0056 -0.04711111111111111 0.0060888888888888885l-0.003733333333333333 -0.0007111111111111111h-0.004977777777777777c-0.8294222222222222 -0.041155555555555556 -1.6318666666666666 0.30039999999999994 -2.1771555555555553 0.9266666666666666C0.28786666666666666 16.982222222222223 0.18226666666666666 17.966088888888887 0.5004888888888889 19.2388c0.2723111111111111 0.8858222222222222 0.8959111111111111 1.6212888888888888 1.7252888888888886 2.0347555555555554 0.42395555555555553 0.19244444444444445 0.8849333333333333 0.2896888888888889 1.3504888888888888 0.2849333333333333 0.8263555555555555 -0.027644444444444444 1.6365333333333332 -0.2368888888888889 2.372933333333333 -0.6129333333333333 0.1023111111111111 -0.0659111111111111 0.1875111111111111 -0.15506666666666666 0.24879999999999997 -0.26022222222222224 0.0028888888888888888 -0.004844444444444444 0.0019999999999999996 -0.010266666666666665 0.004133333333333333 -0.015333333333333334Z" stroke-width="0.4444"></path>
    <path fill="#b1cc33" d="M21.7092 10.234444444444444c-0.1144 -0.0836 -2.813333333333333 -2.031733333333333 -4.7938222222222215 -0.9696888888888888 -0.053511111111111107 0.028666666666666667 -0.09844444444444445 0.07079999999999999 -0.14964444444444444 0.10315555555555556 -1.1605333333333334 -0.31906666666666667 -3.1246666666666663 -0.6044444444444445 -4.515555555555555 0.5327111111111111 -0.041688888888888886 0.03408888888888889 -0.07582222222222222 0.07635555555555555 -0.11573333333333334 0.11235555555555556 -0.8525333333333333 -0.09808888888888889 -3.6785777777777775 -0.27657777777777776 -5.275155555555555 1.3963555555555554 -0.32306666666666667 0.3435111111111111 -0.5771999999999999 0.7459111111111111 -0.7484888888888889 1.1852444444444443 -0.3784444444444444 0.06168888888888889 -2.5200444444444443 0.4802222222222222 -3.3223555555555553 2.1676444444444445 -0.5705777777777777 1.1989333333333332 -0.3153333333333333 2.6994666666666665 0.7634222222222222 4.468266666666666 0.017555555555555553 0.02737777777777778 1.3866222222222222 2.115377777777778 3.845066666666667 2.115377777777778 0.8151555555555555 -0.01742222222222222 1.6151999999999997 -0.22355555555555554 2.3373333333333335 -0.6022222222222222 0.2159111111111111 0.03422222222222222 0.4341333333333333 0.051555555555555556 0.652711111111111 0.051866666666666665 0.24648888888888887 -0.0004444444444444444 0.4925777777777778 -0.01991111111111111 0.7360888888888888 -0.05813333333333333 0.5977777777777777 -0.09831111111111111 1.1772888888888888 -0.28528888888888887 1.719511111111111 -0.554711111111111 0.060222222222222226 -0.02991111111111111 0.12937777777777779 -0.026977777777777774 0.18831111111111112 0.005511111111111111 0.3427111111111111 0.18888888888888888 0.7290222222222222 0.2860888888888889 1.1215111111111111 0.2813333333333333 0.7838666666666666 -0.0416 1.5360888888888888 -0.3218222222222222 2.1559555555555554 -0.8028444444444444 0.008933333333333333 -0.006888888888888889 0.021866666666666666 -0.0040888888888888884 0.026977777777777774 0.005955555555555555 0.17933333333333334 0.3542222222222222 0.3387111111111111 0.7181777777777777 0.4774222222222222 1.0901777777777777l0.041999999999999996 0.14808888888888888c0.12613333333333332 0.45648888888888883 0.4350222222222222 1.5777333333333332 1.7121333333333333 1.5772 0.19795555555555555 -0.0016444444444444445 0.3950666666666667 -0.024755555555555555 0.588 -0.06888888888888889 0.9951111111111111 -0.2202222222222222 1.4564444444444444 -1.3504444444444443 1.2662666666666667 -3.1011999999999995 -0.0014222222222222223 -0.012933333333333333 -0.009022222222222221 -0.023155555555555554 -0.011377777777777778 -0.03568888888888889 -0.006622222222222222 -0.030755555555555553 -0.01622222222222222 -0.06075555555555555 -0.028577777777777775 -0.08964444444444443 -0.011999999999999999 -0.03328888888888888 -0.0276 -0.06515555555555555 -0.04653333333333333 -0.0951111111111111 -0.006355555555555555 -0.009466666666666667 -0.0076 -0.020666666666666667 -0.014666666666666666 -0.03 -0.8763555555555556 -1.140311111111111 -0.9604444444444444 -2.896888888888889 -0.25075555555555556 -5.220133333333333 0.42817777777777777 -1.4008444444444443 0.9682666666666666 -2.3373333333333335 1.6056 -2.7835555555555556 0.0029777777777777775 -0.002088888888888889 0.004355555555555555 -0.0054666666666666665 0.007244444444444443 -0.0076 0.23204444444444444 -0.14279999999999998 0.3043111111111111 -0.4466666666666666 0.1615111111111111 -0.6786666666666666 -0.03471111111111111 -0.05644444444444444 -0.08048888888888889 -0.10533333333333332 -0.13453333333333334 -0.14364444444444444l0.00008888888888888889 0.0004888888888888889Z" stroke-width="0.4444"></path>
    <path fill="#b1cc33" d="M25.830177777777777 12.107288888888888c-0.027466666666666667 -0.12999999999999998 -0.10555555555555554 -0.24368888888888887 -0.21702222222222223 -0.31595555555555555 -0.025688888888888886 -0.09284444444444444 -0.07844444444444444 -0.176 -0.15155555555555555 -0.23879999999999998 -0.10653333333333333 -0.08648888888888888 -2.625111111111111 -2.120711111111111 -4.609955555555556 -1.2086666666666666 -1.2966666666666666 0.5955555555555555 -1.9869777777777777 2.26 -2.051333333333333 4.946222222222222 -0.04448888888888888 1.8468444444444445 0.18377777777777776 3.270844444444444 0.6774222222222221 4.2288 0.21733333333333332 0.4739555555555555 0.4066666666666667 0.9602666666666666 0.5669777777777778 1.4564l0.030755555555555553 0.1383111111111111c0.09631111111111111 0.4560444444444444 0.3403555555555556 1.6065777777777777 1.7282666666666664 1.6060444444444444 0.13226666666666664 -0.0004444444444444444 0.26435555555555557 -0.009733333333333332 0.3953777777777777 -0.02782222222222222 0.5358222222222222 -0.07657777777777777 0.986311111111111 -0.4411111111111111 1.1730222222222222 -0.9491555555555555 0.009644444444444443 -0.02151111111111111 0.017644444444444442 -0.04373333333333333 0.023955555555555556 -0.06648888888888889 0.1144 -0.41088888888888886 0.18039999999999998 -0.8338222222222222 0.19648888888888888 -1.2600444444444445 0 -0.014977777777777777 -0.007333333333333333 -0.027999999999999997 -0.00871111111111111 -0.04293333333333333 -0.008533333333333332 -0.06697777777777777 -0.028177777777777774 -0.1320888888888889 -0.057955555555555545 -0.19262222222222222 -0.005288888888888889 -0.009999999999999998 -0.005555555555555556 -0.0208 -0.011555555555555555 -0.030355555555555552 -0.28786666666666666 -0.4574222222222222 -0.5371111111111111 -1.5038666666666667 -0.08648888888888888 -3.8924444444444437 0.4017777777777778 -2.132133333333333 1.0992 -3.362222222222222 2.016622222222222 -3.5567555555555557 0.27026666666666666 -0.057777777777777775 0.44279999999999997 -0.3233333333333333 0.38568888888888886 -0.5937333333333333Z" stroke-width="0.4444"></path>
    <path fill="#b1cc33" d="M25.30968888888889 23.042399999999997c-0.9305333333333333 0.09519999999999999 -1.762 -0.582 -1.8572 -1.5124444444444445 -0.0035555555555555553 -0.034888888888888886 -0.006044444444444443 -0.06986666666666666 -0.007466666666666666 -0.10488888888888888l-0.02151111111111111 -0.12319999999999999c-0.12639999999999998 -0.4548888888888889 -0.2813333333333333 -0.9013333333333333 -0.4637777777777778 -1.3367555555555555 -0.42964444444444444 -0.9041777777777779 -0.5689333333333333 -2.2062666666666666 -0.41155555555555556 -3.862711111111111 0.21946666666666667 -2.3147555555555552 0.9535555555555556 -3.7350666666666665 2.181822222222222 -4.2224 1.9208444444444446 -0.7619555555555555 4.246355555555555 1.1368888888888888 4.552844444444444 1.3973777777777776 0.6313333333333333 0.4515111111111111 1.0399999999999998 1.1510222222222222 1.1231555555555555 1.9227999999999998 0.26439999999999997 1.973644444444444 -1.1408 4.513733333333334 -4.176977777777777 7.549911111111111 -0.023955555555555556 0.023999999999999997 -0.05035555555555555 0.04546666666666666 -0.07866666666666666 0.06404444444444445 -0.21755555555555553 0.14235555555555554 -0.4707555555555555 0.2208 -0.730711111111111 0.22626666666666664 -0.036933333333333325 0.0016444444444444445 -0.07408888888888888 0.0019999999999999996 -0.10995555555555556 0.0019999999999999996Zm0.5655555555555555 -0.646Z" stroke-width="0.4444"></path>
    <path fill="#5c9e31" d="M30.802666666666664 16.49391111111111c-0.15488888888888888 -0.10906666666666666 -0.3174666666666667 -0.2068888888888889 -0.4864 -0.2926222222222222 -0.058444444444444445 -0.05853333333333333 -0.13075555555555557 -0.10133333333333333 -0.2102222222222222 -0.12431111111111111 -0.2673333333333333 -0.07026666666666666 -0.5410666666666667 0.08902222222222222 -0.6120444444444444 0.3562222222222222 -0.4391555555555555 1.4078666666666666 -1.1122222222222222 2.7317777777777774 -1.9909777777777777 3.916177777777778 -0.15746666666666667 0.22719999999999999 -0.10093333333333332 0.5389777777777777 0.1262222222222222 0.6964444444444444l0.00008888888888888889 0.00008888888888888889 0.006933333333333333 0.003111111111111111c0.19142222222222222 0.2530222222222222 0.46551111111111115 0.4308888888888889 0.7744888888888888 0.5027999999999999 0.17577777777777778 0.03755555555555556 0.3567111111111111 0.044711111111111104 0.5349333333333333 0.021155555555555556 0.35435555555555553 -0.05177777777777778 0.6932888888888888 -0.17986666666666665 0.9933333333333332 -0.37537777777777775 0.013999999999999999 -0.00951111111111111 0.0276 -0.019688888888888888 0.04053333333333333 -0.03062222222222222 1.1540888888888887 -0.9759555555555555 1.7256888888888888 -1.9596444444444445 1.6992888888888888 -2.9240444444444447 -0.030088888888888887 -0.6811111111111111 -0.3487111111111111 -1.317111111111111 -0.8761777777777777 -1.749022222222222Z" stroke-width="0.4444"></path>
  </g>
  <g id="line">
    <path fill="none" stroke="#000000" stroke-linecap="round" stroke-linejoin="round" stroke-width="0.8889" d="M6.234622222222222 13.08222222222222S0.8364444444444443 13.817244444444443 3.9733777777777775 18.96142222222222c0.8080444444444445 1.1801777777777778 2.1477777777777773 1.8839555555555556 3.578044444444444 1.8796"></path>
    <path fill="none" stroke="#000000" stroke-linecap="round" stroke-linejoin="round" stroke-width="0.8889" d="M2.9935111111111112 15.879199999999999c-0.9315555555555556 0.009066666666666667 -2.7215555555555553 0.38035555555555556 -2.009688888888889 3.2281777777777774 0 0 0.8752 3.2171999999999996 4.7520444444444445 1.3856444444444445"></path>
    <path fill="none" stroke="#000000" stroke-linecap="round" stroke-linejoin="round" stroke-width="0.8889" d="M12.3036 10.54s-7.2684 -1.2025777777777777 -5.838 5.493733333333333c0.8508444444444444 3.983422222222222 3.0104888888888888 4.455377777777778 4.579777777777778 4.209155555555555"></path>
    <path fill="none" stroke="#000000" stroke-linecap="round" stroke-linejoin="round" stroke-width="0.8889" d="M16.809733333333334 9.900711111111109c-1.658711111111111 -0.49515555555555557 -6.045733333333333 -1.2344444444444442 -5.4803999999999995 5.039022222222222 0.4304 4.777466666666666 2.1566222222222224 5.270177777777778 3.4086666666666665 4.952533333333333"></path>
    <path fill="none" stroke="#000000" stroke-linecap="round" stroke-linejoin="round" stroke-width="0.8889" d="M21.41342222222222 10.638222222222222s-6.192488888888889 -4.531777777777777 -5.804444444444444 4.0896888888888885c0.09386666666666667 2.084488888888889 0.4524888888888889 3.4203111111111113 0.9380888888888889 4.251422222222222l0.01368888888888889 0.022888888888888886c0.27315555555555554 0.5236 0.5167555555555555 1.0621333333333334 0.7298222222222222 1.6129333333333333 0.15977777777777777 0.5173333333333333 0.30635555555555555 1.635422222222222 1.7561777777777776 1.3150666666666666 0.0948 -0.02048888888888889 0.18573333333333333 -0.05582222222222222 0.26951111111111115 -0.10462222222222221"></path>
    <path fill="none" stroke="#000000" stroke-linecap="round" stroke-linejoin="round" stroke-width="0.8889" d="M25.144488888888887 11.940355555555556S19.4916 7.315822222222222 19.300266666666666 15.302222222222222c-0.046266666666666664 1.9310222222222222 0.21088888888888888 3.1896888888888886 0.6230666666666665 3.991511111111111l0.011644444444444445 0.022088888888888887c0.22773333333333332 0.5019111111111111 0.4265777777777777 1.0164 0.5956 1.541022222222222 0.11964444444444444 0.4889777777777778 0.18733333333333332 1.531511111111111 1.6012444444444442 1.3390666666666666 0.17293333333333333 -0.021866666666666666 0.33555555555555555 -0.09448888888888889 0.46724444444444435 -0.20875555555555556"></path>
    <path fill="none" stroke="#000000" stroke-linecap="round" stroke-linejoin="round" stroke-width="0.8889" d="M25.87524444444444 22.3964c-0.1404 0.09128888888888888 -0.30364444444444444 0.1412 -0.4710666666666667 0.14404444444444445 -1.3984888888888887 0.04502222222222222 -1.4013777777777776 -0.8893333333333332 -1.4890666666666665 -1.3353333333333333 -0.1347111111111111 -0.48444444444444446 -0.29848888888888886 -0.960311111111111 -0.4904888888888888 -1.4250666666666665l-0.009999999999999998 -0.02071111111111111c-0.35537777777777774 -0.7507111111111111 -0.5311555555555556 -1.894222222222222 -0.3683111111111111 -3.609111111111111 0.6735555555555556 -7.092933333333333 5.936977777777778 -2.4703555555555554 5.936977777777778 -2.4703555555555554s3.137511111111111 1.791777777777778 -1.9719555555555552 7.517422222222223"></path>
    <path fill="none" stroke="#000000" stroke-linecap="round" stroke-linejoin="round" stroke-width="0.8889" d="M7.551422222222222 20.841199999999997s0.6817777777777777 0.20022222222222222 0 1.345511111111111"></path>
    <path fill="none" stroke="#000000" stroke-linecap="round" stroke-linejoin="round" stroke-width="0.8889" d="M11.045066666666667 20.24062222222222s0.6816888888888889 0.20022222222222222 0 1.3454666666666666"></path>
    <path fill="none" stroke="#000000" stroke-linecap="round" stroke-linejoin="round" stroke-width="0.8889" d="M14.738044444444444 19.893155555555555s0.6817333333333333 0.2001777777777778 0 1.345511111111111"></path>
    <path fill="none" stroke="#000000" stroke-linecap="round" stroke-linejoin="round" stroke-width="0.836" d="M27.914266666666663 20.634355555555555c0.5798666666666666 0.9703999999999998 1.7617333333333334 0.17324444444444442 1.7617333333333334 0.17324444444444442 2.8567111111111108 -2.4166222222222222 0.8458666666666667 -3.936133333333333 0.8458666666666667 -3.936133333333333 -0.16591111111111112 -0.11782222222222222 -0.3422222222222222 -0.22026666666666664 -0.5267555555555555 -0.3060444444444444"></path>
  </g>
</svg>