<svg id="Butterfly--Streamline-Openmoji" viewBox="0 0 32 32" xmlns="http://www.w3.org/2000/svg" height="32" width="32">
  <desc>
    Butterfly Streamline Emoji: https://streamlinehq.com
  </desc>
  <g id="color">
    <path fill="#92d3f5" stroke="none" d="M15.947777777777777 10.966399999999998c-0.5645333333333333 -0.36315555555555556 -1.1367999999999998 -0.7312888888888889 -2.0576 -1.226 -0.9208 -0.4947111111111111 -2.205822222222222 -1.1261777777777777 -3.5638666666666667 -1.468 -1.3579999999999999 -0.34186666666666665 -2.7886666666666664 -0.39417777777777774 -4.350666666666666 -0.44848888888888894 -1.5620444444444443 -0.054266666666666664 -3.2553777777777775 -0.11048888888888887 -4.2538222222222215 0.3433333333333333s-1.3023555555555555 1.4174666666666664 -0.3073333333333333 3.2680444444444445 3.2904444444444443 4.5906666666666665 5.3796888888888885 5.351644444444444 3.9758666666666667 -0.4536444444444444 5.336666666666667 -1.2122666666666666c1.3609777777777776 -0.7585777777777778 2.1959999999999997 -1.0608 3.0316888888888887 -1.3632" stroke-width="0.4444"></path>
    <path fill="#92d3f5" stroke="#92d3f5" stroke-linecap="round" stroke-linejoin="round" stroke-miterlimit="10" stroke-width="0.8889" d="M14.116044444444443 21.22542222222222c-0.3665333333333333 1.8150666666666666 -0.7328888888888888 3.6296 -1.7712444444444444 4.571466666666667 -1.038311111111111 0.9418666666666667 -2.748133333333333 1.0116888888888889 -3.8208888888888883 -0.45373333333333327 -1.0727555555555555 -1.4653777777777777 -1.5088888888888887 -4.466222222222222 -1.1938222222222221 -6.1517333333333335 0.3150222222222222 -1.6856444444444443 1.3829333333333333 -2.0560888888888886 2.708177777777778 -2.6489777777777777 1.3252444444444442 -0.5928888888888889 2.910488888888889 -1.4092888888888888 4.496533333333333 -2.2260444444444443Z"></path>
    <path fill="#92d3f5" stroke="none" d="M16.05217777777778 10.966399999999998c0.5645333333333333 -0.36315555555555556 1.1367999999999998 -0.7312888888888889 2.057644444444444 -1.226 0.9208 -0.4947111111111111 2.205822222222222 -1.1261777777777777 3.5638222222222216 -1.468 1.3580444444444444 -0.34186666666666665 2.7886666666666664 -0.39417777777777774 4.350711111111111 -0.44848888888888894 1.5619999999999998 -0.054266666666666664 3.2553333333333327 -0.11048888888888887 4.2538222222222215 0.34346666666666664 0.9984888888888888 0.45391111111111115 1.3023555555555555 1.4173777777777776 0.30724444444444443 3.2680444444444445 -0.9951111111111111 1.8506222222222222 -3.288844444444444 4.588755555555555 -5.3787111111111106 5.350666666666666 -2.0900444444444446 0.7619111111111111 -3.976755555555555 -0.4528444444444444 -5.337644444444444 -1.2113777777777777 -1.3608444444444443 -0.7585777777777778 -2.195911111111111 -1.0607111111111112 -3.031511111111111 -1.3631111111111112" stroke-width="0.4444"></path>
    <path fill="#92d3f5" stroke="#92d3f5" stroke-linecap="round" stroke-linejoin="round" stroke-miterlimit="10" stroke-width="0.8889" d="M17.883955555555556 21.22542222222222c0.36648888888888886 1.8150666666666666 0.7328888888888888 3.6296 1.7711999999999999 4.571466666666667 1.038311111111111 0.9418666666666667 2.748133333333333 1.0116888888888889 3.8208888888888883 -0.45373333333333327 1.0727555555555555 -1.4653777777777777 1.5088888888888887 -4.466222222222222 1.1939555555555554 -6.1517333333333335 -0.31497777777777775 -1.6856 -1.3816 -2.0556444444444444 -2.7076444444444445 -2.6488 -1.3259999999999998 -0.5932 -2.9112444444444443 -1.4095555555555555 -4.497111111111111 -2.2262222222222223Z"></path>
    <path fill="#9b9b9a" stroke="none" d="M14.185599999999999 8.586444444444444c0 0.9936888888888887 1.434222222222222 1.6147111111111112 2.581644444444444 1.1178666666666666 0.5324888888888888 -0.23057777777777777 0.8605333333333333 -0.6567111111111111 0.8605333333333333 -1.1178666666666666 0 -0.9936888888888887 -1.434222222222222 -1.6147111111111112 -2.581644444444444 -1.117911111111111 -0.5324888888888888 0.23062222222222223 -0.8605333333333333 0.6567555555555555 -0.8605333333333333 1.117911111111111" stroke-width="0.4444"></path>
    <path fill="#3f3f3f" stroke="none" d="M14.291511111111111 11.313511111111112c0 1.0176888888888889 1.3507999999999998 1.6537333333333333 2.431466666666666 1.1448888888888888 0.5015111111111111 -0.2361333333333333 0.8104888888888889 -0.6725777777777778 0.8104888888888889 -1.1448888888888888 0 -1.0176888888888889 -1.3507999999999998 -1.6537333333333333 -2.431466666666666 -1.1448888888888888 -0.5015111111111111 0.2361333333333333 -0.8104888888888889 0.6725777777777778 -0.8104888888888889 1.1448888888888888" stroke-width="0.4444"></path>
    <path fill="#9b9b9a" stroke="none" d="M15.707022222222221 12.884177777777778c-3.055911111111111 0.32697777777777776 0.2930222222222222 9.901288888888887 0.2930222222222222 9.901288888888887s3.8015555555555554 -10.339244444444445 -0.2930222222222222 -9.901288888888887Z" stroke-width="0.4444"></path>
  </g>
  <g id="hair"></g>
  <g id="skin"></g>
  <g id="skin-shadow"></g>
  <g id="line">
    <path fill="none" stroke="#000000" stroke-linecap="round" stroke-linejoin="round" stroke-miterlimit="10" stroke-width="0.8889" d="M14.116044444444443 21.22542222222222c-0.3665333333333333 1.8150666666666666 -0.7328888888888888 3.6296 -1.7712444444444444 4.571466666666667 -1.038311111111111 0.9418666666666667 -2.748133333333333 1.0116888888888889 -3.8208888888888883 -0.45373333333333327 -1.0727555555555555 -1.4653777777777777 -1.5088888888888887 -4.466222222222222 -1.1938222222222221 -6.1517333333333335 0.3150222222222222 -1.6856444444444443 1.3816888888888887 -2.0556888888888887 2.448844444444444 -2.425822222222222"></path>
    <path fill="none" stroke="#000000" stroke-linecap="round" stroke-linejoin="round" stroke-miterlimit="10" stroke-width="0.8889" d="M14.254800000000001 9.8772c-1.285288888888889 -0.6315111111111111 -2.5703111111111108 -1.2629777777777778 -3.9283111111111104 -1.6047999999999998 -1.3580444444444444 -0.34186666666666665 -2.7886666666666664 -0.39417777777777774 -4.350711111111111 -0.44848888888888894 -1.5620444444444443 -0.054266666666666664 -3.2553777777777775 -0.11048888888888887 -4.2538222222222215 0.3433333333333333s-1.3023555555555555 1.4174666666666664 -0.3073333333333333 3.2680444444444445 3.2904444444444443 4.5906666666666665 5.3796888888888885 5.351644444444444 3.975911111111111 -0.4536444444444444 5.863599999999999 -1.6688888888888886"></path>
    <path fill="none" stroke="#000000" stroke-linecap="round" stroke-linejoin="round" stroke-miterlimit="10" stroke-width="0.8889" d="M17.745199999999997 9.8772c1.2852444444444444 -0.6315111111111111 2.5702666666666665 -1.2629777777777778 3.9283111111111104 -1.6047999999999998 1.3579999999999999 -0.34186666666666665 2.7886666666666664 -0.39417777777777774 4.350666666666666 -0.44848888888888894 1.5620444444444443 -0.054266666666666664 3.2553777777777775 -0.11048888888888887 4.253866666666666 0.34346666666666664 0.9984888888888888 0.45391111111111115 1.3023555555555555 1.4173777777777776 0.30724444444444443 3.2680444444444445 -0.9951111111111111 1.8506222222222222 -3.2888888888888888 4.588755555555555 -5.3787111111111106 5.350666666666666 -2.0900444444444446 0.7619111111111111 -3.976755555555555 -0.4528444444444444 -5.8640888888888885 -1.6679555555555554"></path>
    <path fill="none" stroke="#000000" stroke-linecap="round" stroke-linejoin="round" stroke-miterlimit="10" stroke-width="0.8889" d="M17.883955555555556 21.22542222222222c0.36648888888888886 1.8150666666666666 0.7328888888888888 3.6296 1.7711999999999999 4.571466666666667 1.038311111111111 0.9418666666666667 2.748133333333333 1.0116888888888889 3.8208888888888883 -0.45373333333333327 1.0727555555555555 -1.4653777777777777 1.5088888888888887 -4.466222222222222 1.1939555555555554 -6.1517333333333335 -0.31497777777777775 -1.6856 -1.3816888888888887 -2.0556444444444444 -2.448933333333333 -2.4258666666666664"></path>
    <path fill="none" stroke="#000000" stroke-linecap="round" stroke-linejoin="round" stroke-miterlimit="10" stroke-width="0.8889" d="M14.278888888888886 8.586444444444444c0 0.9936888888888887 1.4342666666666666 1.6147111111111112 2.581644444444444 1.1178666666666666 0.5324888888888888 -0.23057777777777777 0.8605333333333333 -0.6567111111111111 0.8605333333333333 -1.1178666666666666 0 -0.9936888888888887 -1.434222222222222 -1.6147111111111112 -2.5816 -1.117911111111111 -0.5325333333333333 0.23062222222222223 -0.8605777777777777 0.6567555555555555 -0.8605777777777777 1.117911111111111"></path>
    <path fill="none" stroke="#000000" stroke-linecap="round" stroke-linejoin="round" stroke-miterlimit="10" stroke-width="0.8889" d="M14.379022222222222 11.313511111111112c0 1.0176888888888889 1.3507999999999998 1.6537333333333333 2.431466666666666 1.1448888888888888 0.5015111111111111 -0.2361333333333333 0.8104444444444443 -0.6725777777777778 0.8104444444444443 -1.1448888888888888 0 -1.0176888888888889 -1.3507999999999998 -1.6537333333333333 -2.431422222222222 -1.1448888888888888 -0.5015111111111111 0.2361333333333333 -0.8104888888888889 0.6725777777777778 -0.8104888888888889 1.1448888888888888"></path>
    <path fill="none" stroke="#000000" stroke-linecap="round" stroke-linejoin="round" stroke-miterlimit="10" stroke-width="0.8889" d="M15.706044444444444 12.884177777777778c-3.0558666666666667 0.32697777777777776 0.29413333333333336 9.901288888888887 0.29413333333333336 9.901288888888887s3.800488888888889 -10.339244444444445 -0.29413333333333336 -9.901288888888887Z"></path>
    <path fill="none" stroke="#000000" stroke-linecap="round" stroke-linejoin="round" stroke-miterlimit="10" stroke-width="0.8889" d="m16.951377777777775 7.098888888888888 0.7174222222222222 -1.577422222222222"></path>
    <path fill="none" stroke="#000000" stroke-linecap="round" stroke-linejoin="round" stroke-miterlimit="10" stroke-width="0.8889" d="m15.048577777777776 7.098888888888888 -0.7174222222222222 -1.577422222222222"></path>
  </g>
</svg>