<svg id="Cactus--Streamline-Openmoji" viewBox="0 0 32 32" xmlns="http://www.w3.org/2000/svg" height="32" width="32">
  <desc>
    Cactus Streamline Emoji: https://streamlinehq.com
  </desc>
  <g id="color">
    <path fill="#b1cc33" d="M15.796311111111109 0.8881777777777777c-1.9549333333333332 0 -3.5396888888888887 1.7598666666666667 -3.5396888888888887 3.9308V15.164888888888889h-1.6049333333333333c-2.135511111111111 0 -2.046088888888889 -0.5557333333333333 -2.046088888888889 -2.570844444444444l-0.8682222222222222 -1.7533333333333332c0 -1.5051555555555556 -0.20515555555555554 -1.984888888888889 -1.832222222222222 -1.838177777777778 -1.4184444444444444 0.12764444444444445 -2.7904444444444443 0.8386222222222222 -2.7904444444444443 2.1832000000000003l-0.1108 6.082311111111111c0 1.4216888888888888 2.3610666666666664 4.086044444444444 3.867377777777777 4.086044444444444l3.7804 0.03711111111111111h1.6049333333333333V31.68H19.336V4.818977777777778c0 -2.170933333333333 -1.5846666666666667 -3.9308 -3.5396888888888887 -3.9308Z" stroke-width="0.4444"></path>
    <path fill="#b1cc33" d="M26.05822222222222 11.092711111111111c-1.5143555555555557 -0.1491111111111111 -2.8270666666666666 1.0405333333333333 -2.8272444444444442 2.5622222222222217v3.4307555555555553c0 2.0151555555555554 0.08435555555555554 2.5707999999999998 -1.930711111111111 2.5707999999999998h-1.8280888888888889l0.042755555555555554 6.226533333333333h6.290444444444444c1.4216888888888888 -0.0001333333333333333 2.574133333333333 -1.152711111111111 2.574133333333333 -2.5744V13.7656c0.022533333333333332 -1.3530666666666666 -0.9783999999999999 -2.5056 -2.3212888888888887 -2.6728888888888886Z" stroke-width="0.4444"></path>
  </g>
  <g id="line">
    <path fill="none" stroke="#000000" stroke-linecap="round" stroke-linejoin="round" stroke-width="0.8889" d="M19.336 31.126V4.739199999999999c0 -2.132622222222222 -1.5848444444444443 -3.8615111111111107 -3.5396888888888887 -3.8615111111111107s-3.5396888888888887 1.728888888888889 -3.5396888888888887 3.8615111111111107v26.386977777777776"></path>
    <path fill="none" stroke="#000000" stroke-linecap="round" stroke-linejoin="round" stroke-width="0.8889" d="M10.17631111111111 20.82871111111111h-3.4307555555555553c-2.0151555555555554 0.00008888888888888889 -3.6486666666666667 -1.633511111111111 -3.6486222222222224 -3.6486666666666667V11.175022222222221c0.0001333333333333333 -1.5216888888888889 1.3128444444444443 -2.711333333333333 2.8272 -2.5621777777777774 1.3429777777777778 0.16715555555555553 2.344044444444444 1.319688888888889 2.321511111111111 2.672844444444444v2.570088888888889c0.00004444444444444445 1.007511111111111 0.8168 1.824222222222222 1.8243111111111112 1.8242666666666665h0.10644444444444444"></path>
    <path fill="none" stroke="#000000" stroke-linecap="round" stroke-linejoin="round" stroke-width="0.8889" d="M21.369377777777775 25.33382222222222h4.505066666666666c1.4217333333333333 -0.00008888888888888889 2.574311111111111 -1.1526222222222222 2.5743555555555555 -2.5743555555555555V13.216399999999998c0.022488888888888888 -1.3531111111111112 -0.9784888888888889 -2.505688888888889 -2.3214666666666663 -2.6728888888888886 -1.5143555555555557 -0.14915555555555554 -2.8270666666666666 1.0405333333333333 -2.8272 2.5622222222222217v3.4307555555555553c0 2.015111111111111 0.08435555555555554 3.6486222222222224 -1.9307555555555553 3.6486222222222224"></path>
    <path fill="none" stroke="#000000" stroke-linecap="round" stroke-linejoin="round" stroke-width="0.8889" d="m18.281022222222223 6.9768 2.193111111111111 -2.193111111111111"></path>
    <path fill="none" stroke="#000000" stroke-linecap="round" stroke-linejoin="round" stroke-width="0.8889" d="m24.231066666666667 23.005244444444443 2.193111111111111 -2.193111111111111"></path>
    <path fill="none" stroke="#000000" stroke-linecap="round" stroke-linejoin="round" stroke-width="0.8889" d="m7.530222222222222 13.456533333333333 2.193111111111111 -2.193111111111111"></path>
    <path fill="none" stroke="#000000" stroke-linecap="round" stroke-linejoin="round" stroke-width="0.8889" d="m14.534311111111109 3.394311111111111 -1.8748444444444443 -2.5352444444444444"></path>
    <path fill="none" stroke="#000000" stroke-linecap="round" stroke-linejoin="round" stroke-width="0.8889" d="m13.494577777777778 26.859288888888887 -2.475911111111111 -1.9525777777777777"></path>
    <path fill="none" stroke="#000000" stroke-linecap="round" stroke-linejoin="round" stroke-width="0.8889" d="m26.802977777777777 12.177200000000001 2.193111111111111 -2.193111111111111"></path>
    <path fill="none" stroke="#000000" stroke-linecap="round" stroke-linejoin="round" stroke-width="0.8889" d="m24.175955555555554 16.26128888888889 -2.3748444444444443 -2.0742666666666665"></path>
    <path fill="none" stroke="#000000" stroke-linecap="round" stroke-linejoin="round" stroke-width="0.8889" d="m16.166755555555554 10.873822222222222 -1.5834666666666666 -2.2731111111111106"></path>
    <path fill="none" stroke="#000000" stroke-linecap="round" stroke-linejoin="round" stroke-width="0.8889" d="m4.587377777777777 11.080666666666666 -1.5834666666666666 -2.8300444444444444"></path>
  </g>
</svg>