<svg id="Call-Me-Hand--Streamline-Openmoji" viewBox="0 0 32 32" xmlns="http://www.w3.org/2000/svg" height="32" width="32">
  <desc>
    Call Me Hand Streamline Emoji: https://streamlinehq.com
  </desc>
  <g id="color"></g>
  <g id="hair"></g>
  <g id="skin">
    <path fill="#fcea2b" stroke="none" d="m20.059377777777776 24.90853333333333 1.7122666666666664 0.8672888888888889c1.8387111111111112 0.6077333333333332 2.731733333333333 -3.3415555555555554 -0.22417777777777775 -4.660933333333333l-0.9348 -0.6272 1.5620444444444443 0.6272c1.759288888888889 0.8266222222222223 3.8103999999999996 -3.1100444444444446 0.24404444444444445 -4.834577777777778L20.99973333333333 16l2.4888 0.2803111111111111c1.5485777777777778 0.9150666666666666 1.8254666666666668 -3.0330222222222223 -0.6029333333333333 -4.184888888888889l-7.921644444444444 -1.5849333333333333c0.5609777777777777 -5.422666666666666 0.9972888888888889 -8.91311111111111 -3.0229777777777778 -9.629866666666667 -1.2277333333333333 -0.18697777777777777 -2.742488888888889 0 -2.4308444444444444 1.2465777777777778 1.6205777777777777 7.292533333333333 -1.558222222222222 11.271199999999999 -2.4415999999999998 12.193999999999999 -3.589422222222222 3.5893777777777776 -3.589422222222222 9.408933333333334 0 12.998355555555555 1.5585777777777778 1.4637333333333333 3.0713777777777773 1.359911111111111 6.866977777777777 1.359911111111111 0.7168 0 9.7736 2.2342222222222223 9.7736 2.2342222222222223 3.4280888888888885 0.9037777777777778 5.309422222222222 -2.778622222222222 3.0032444444444444 -3.5577333333333327l-0.7628888888888888 -0.5230222222222223" stroke-width="0.4444"></path>
  </g>
  <g id="skin-shadow"></g>
  <g id="line">
    <path fill="none" stroke="#000000" stroke-linecap="round" stroke-linejoin="round" stroke-width="0.8889" d="M21.958355555555556 16.61017777777778c2.9202222222222223 0.7354222222222222 4.626933333333334 -3.777822222222222 0.40626666666666666 -4.652577777777777l-7.400666666666666 -1.447111111111111c0.5609777777777777 -5.422666666666666 0.9972888888888889 -8.91311111111111 -3.0229777777777778 -9.629866666666667 -1.2277333333333333 -0.18697777777777777 -2.742488888888889 0 -2.4308444444444444 1.2465777777777778 1.6205777777777777 7.292533333333333 -1.558222222222222 11.271199999999999 -2.4415999999999998 12.193999999999999 -3.589422222222222 3.5893777777777776 -3.589422222222222 9.408933333333334 0 12.998355555555555 1.5585777777777778 1.4637333333333333 3.0713777777777773 1.359911111111111 6.866977777777777 1.359911111111111 0.7168 0 10.288177777777777 2.3592 10.288177777777777 2.3592 3.4280888888888885 0.9037777777777778 4.4729777777777775 -2.7508 2.1668 -3.529911111111111l-2.1668 -0.7813333333333333"></path>
    <path fill="none" stroke="#000000" stroke-linecap="round" stroke-linejoin="round" stroke-width="0.8889" d="M21.54742222222222 21.114933333333333c2.9048 0.7640444444444444 4.020266666666666 -3.691111111111111 0.4109333333333333 -4.504755555555556"></path>
    <path fill="none" stroke="#000000" stroke-linecap="round" stroke-linejoin="round" stroke-width="0.8889" d="M20.903644444444442 25.701911111111112c2.905777777777778 0.7833777777777777 3.5842666666666667 -3.7872888888888885 0.6437777777777777 -4.587022222222222"></path>
    <path fill="none" stroke="#000000" stroke-linecap="round" stroke-linejoin="round" stroke-miterlimit="10" stroke-width="0.8889" d="m20.903644444444442 25.701911111111112 -2.8386666666666662 -0.7893777777777777"></path>
    <path fill="none" stroke="#000000" stroke-linecap="round" stroke-linejoin="round" stroke-miterlimit="10" stroke-width="0.8889" d="m21.54742222222222 21.114933333333333 -2.506933333333333 -0.7141333333333333"></path>
    <path fill="none" stroke="#000000" stroke-linecap="round" stroke-linejoin="round" stroke-miterlimit="10" stroke-width="0.8889" d="m21.958355555555556 16.61017777777778 -2.0611555555555556 -0.42075555555555555"></path>
  </g>
</svg>