<svg id="Candy--Streamline-Openmoji" viewBox="0 0 32 32" xmlns="http://www.w3.org/2000/svg" height="32" width="32">
  <desc>
    Candy Streamline Emoji: https://streamlinehq.com
  </desc>
  <g id="color">
    <path fill="#b1cc33" d="m22.31093333333333 11.124844444444443 2.112622222222222 -0.5184888888888889 5.319688888888889 -1.3591999999999997c0.12444444444444445 -0.025066666666666664 0.4481333333333333 -0.18777777777777777 0.5378666666666666 -0.27755555555555556l0.5328 -0.4082222222222222c0.3232888888888889 -0.3232444444444444 0.44697777777777775 -0.8251555555555555 0.23711111111111108 -1.2313333333333334 -0.344 -0.6657777777777777 -1.176311111111111 -0.7647555555555555 -1.6655555555555555 -0.2969333333333333 -0.3772 0.36075555555555555 -0.9769333333333333 0.42764444444444444 -1.3902666666666665 0.10888888888888888 -0.5017333333333334 -0.38697777777777775 -0.5438666666666666 -1.1055555555555554 -0.1264888888888889 -1.5482222222222222 0.3627111111111111 -0.38457777777777774 0.4318222222222222 -0.9967555555555556 0.10239999999999999 -1.4101777777777775 -0.3942222222222222 -0.4948444444444444 -1.1166666666666667 -0.5267555555555555 -1.5537777777777777 -0.0956 -0.37035555555555555 0.36528888888888883 -0.9872888888888889 0.4102222222222222 -1.3936444444444442 0.08546666666666666 -0.4885777777777777 -0.39057777777777775 -0.5251111111111111 -1.1001777777777777 -0.10951111111111111 -1.5381777777777776 0.3574222222222222 -0.37662222222222225 0.43093333333333333 -0.9749333333333333 0.11644444444444445 -1.388088888888889 -0.3927555555555555 -0.5160444444444444 -1.1324444444444444 -0.5529777777777778 -1.5749333333333333 -0.11057777777777777 -0.48297777777777773 0.4830222222222222 -0.8206222222222221 1.0919555555555556 -0.9744444444444443 1.757511111111111l-1.1042222222222222 4.7766222222222225 -0.4719111111111111 2.1914666666666665" stroke-width="0.4444"></path>
    <path fill="#b1cc33" d="m10.099155555555555 20.55088888888889 -2.3846666666666665 0.7456444444444444L2.3386666666666662 22.629955555555554c-0.29413333333333336 0.058844444444444435 -0.5641777777777778 0.20337777777777777 -0.7762666666666665 0.41546666666666665l-0.37177777777777776 0.37177777777777776c-0.3728888888888889 0.3728444444444444 -0.4615111111111111 0.9755555555555554 -0.14759999999999998 1.399333333333333 0.3854666666666666 0.5203111111111112 1.1200444444444442 0.5664444444444444 1.567422222222222 0.13835555555555556 0.3767111111111111 -0.3604888888888889 0.9767999999999999 -0.4263111111111111 1.3900888888888887 -0.10835555555555554 0.5016444444444444 0.3859111111111111 0.5437777777777778 1.1050666666666666 0.12626666666666667 1.5480444444444443 -0.3625333333333333 0.38466666666666666 -0.4312888888888889 0.9969777777777776 -0.10168888888888888 1.4101777777777775 0.38888888888888884 0.4876444444444444 1.0965333333333334 0.5252444444444444 1.535111111111111 0.11266666666666666 0.3857777777777778 -0.36297777777777773 0.998311111111111 -0.43364444444444444 1.4119111111111111 -0.10275555555555554 0.48839999999999995 0.3906222222222222 0.5248888888888888 1.0996888888888887 0.10946666666666666 1.5378222222222222 -0.3572888888888888 0.3768888888888889 -0.4308888888888889 0.9752 -0.11617777777777778 1.388311111111111 0.3929333333333333 0.5158222222222222 1.1321777777777777 0.5525777777777778 1.5744888888888888 0.11035555555555554l0.2469333333333333 -0.24697777777777774c0.3209333333333333 -0.3209333333333333 0.5396444444444444 -0.7295999999999999 0.6287111111111111 -1.1745777777777777l1.2899999999999998 -5.142088888888888 0.6462222222222221 -1.8235555555555554" stroke-width="0.4444"></path>
    <path fill="#b1cc33" d="M8.156088888888888 16.000044444444445c0 6.035022222222222 6.533111111111111 9.806888888888889 11.759555555555554 6.789422222222221 2.4256444444444445 -1.4004444444444444 3.919866666666666 -3.988533333333333 3.919866666666666 -6.789422222222221 0 -6.034977777777777 -6.533066666666667 -9.806888888888889 -11.759555555555554 -6.789377777777777 -2.4255999999999998 1.4004444444444444 -3.919866666666666 3.988533333333333 -3.919866666666666 6.789377777777777" stroke-width="0.4444"></path>
    <path fill="#5c9e31" d="M23.840177777777775 15.99488888888889c0.0004888888888888889 -2.8756888888888885 -1.5537333333333332 -5.383866666666666 -3.863377777777778 -6.747688888888888 0.6890222222222222 1.1668 1.0917777777777777 2.522488888888889 1.0917777777777777 3.9761333333333333 0.0004888888888888889 4.330399999999999 -3.509644444444444 7.8410666666666655 -7.840044444444445 7.84 -1.4526222222222223 0.0010666666666666665 -2.809333333333333 -0.40217777777777775 -3.9761333333333333 -1.0912444444444442 1.3643555555555553 2.3101333333333334 3.872044444444444 3.8628 6.748266666666666 3.8638666666666666 4.329822222222222 0 7.840488888888889 -3.5106666666666664 7.83951111111111 -7.8410666666666655Z" stroke-width="0.4444"></path>
  </g>
  <g id="line">
    <path fill="none" stroke="#000000" stroke-linecap="round" stroke-linejoin="round" stroke-width="0.8889" d="M10.455466666666666 21.54311111111111c4.2652 4.269911111111111 11.553288888888888 2.321422222222222 13.118533333333332 -3.507333333333333 0.7272444444444445 -2.7080888888888888 -0.0472 -5.598444444444445 -2.0310666666666664 -7.5801333333333325 -4.2652 -4.269911111111111 -11.553288888888888 -2.3213777777777773 -13.118577777777777 3.507333333333333 -0.7272444444444445 2.708133333333333 0.04724444444444444 5.598444444444445 2.031111111111111 7.5801333333333325"></path>
    <path fill="none" stroke="#000000" stroke-linecap="round" stroke-linejoin="round" stroke-width="0.8889" d="m24.32502222222222 10.436933333333332 4.9901333333333335 -0.9980444444444444c0.5193333333333333 -0.10382222222222222 0.9963111111111109 -0.3591111111111111 1.3707999999999998 -0.7336l0.1226222222222222 -0.1226222222222222c0.36822222222222223 -0.36822222222222223 0.4613777777777778 -0.9611999999999999 0.15795555555555554 -1.3843999999999999 -0.3824888888888889 -0.533511111111111 -1.1261333333333332 -0.5844888888888888 -1.5775111111111109 -0.15275555555555556 -0.3771555555555555 0.36066666666666664 -0.9768888888888888 0.42751111111111106 -1.3901333333333332 0.10893333333333333 -0.5018222222222222 -0.38693333333333335 -0.5439999999999999 -1.105688888888889 -0.12644444444444441 -1.5484444444444443 0.3626222222222222 -0.3844888888888889 0.4316 -0.996711111111111 0.10226666666666666 -1.4100888888888887 -0.39417777777777774 -0.4947555555555555 -1.116577777777778 -0.5267555555555555 -1.5537777777777777 -0.09555555555555555 -0.3704 0.3653777777777778 -0.9873333333333332 0.41031111111111107 -1.393688888888889 0.08542222222222222 -0.4885777777777777 -0.39057777777777775 -0.5250666666666667 -1.1001777777777777 -0.10951111111111111 -1.5380888888888888 0.3574222222222222 -0.37666666666666665 0.43106666666666665 -0.9750222222222221 0.11657777777777777 -1.3881777777777777 -0.3928 -0.5160444444444444 -1.1325333333333332 -0.5530222222222222 -1.5749777777777776 -0.11057777777777777l-0.2542666666666667 0.2542666666666667c-0.3160888888888889 0.3160888888888889 -0.5316 0.7187111111111111 -0.6192888888888889 1.1570666666666667l-1.0231555555555554 5.114044444444445"></path>
    <path fill="none" stroke="#000000" stroke-linecap="round" stroke-linejoin="round" stroke-width="0.8889" d="M7.674222222222221 21.562533333333334 2.1622222222222223 22.665244444444443c-0.17906666666666665 0.035777777777777776 -0.3435111111111111 0.12382222222222222 -0.47266666666666657 0.2528444444444444l-0.4988 0.4984888888888888c-0.37355555555555553 0.37328888888888884 -0.46159999999999995 0.9771111111111112 -0.1463111111111111 1.400711111111111 0.38568888888888886 0.5183555555555555 1.1178666666666666 0.5640444444444443 1.5648 0.13773333333333332 0.3783555555555555 -0.36088888888888887 0.9781777777777777 -0.4288888888888889 1.3917333333333333 -0.10902222222222221 0.5008 0.3872444444444444 0.5429777777777778 1.103511111111111 0.12662222222222222 1.5461777777777777 -0.36293333333333333 0.3858222222222222 -0.43368888888888885 0.998311111111111 -0.1028 1.4120444444444442 0.39013333333333333 0.48782222222222216 1.0982666666666665 0.5246222222222221 1.5365777777777778 0.11155555555555555 0.3848 -0.36266666666666664 0.9969333333333333 -0.43239999999999995 1.4100444444444444 -0.1023111111111111 0.4888 0.39053333333333334 0.5252 1.1013333333333333 0.10915555555555556 1.5395555555555556 -0.3572444444444444 0.3763111111111111 -0.4301333333333333 0.9746222222222221 -0.11582222222222222 1.3875111111111111 0.3927555555555555 0.5160444444444444 1.1328444444444445 0.5528888888888889 1.5746666666666667 0.11057777777777777l0.7395999999999999 -0.739111111111111 1.158088888888889 -5.787155555555556"></path>
    <path fill="none" stroke="#000000" stroke-linecap="round" stroke-linejoin="round" stroke-width="0.8889" d="M10.456311111111111 21.521733333333334c4.263911111111111 4.271066666666666 11.552399999999999 2.3246666666666664 13.119333333333332 -3.503511111111111 0.7283999999999999 -2.7093777777777777 -0.04653333333333333 -5.601555555555556 -2.0320888888888886 -7.583733333333334 -4.263866666666667 -4.271066666666666 -11.552399999999999 -2.3247111111111107 -13.119288888888889 3.5034666666666663 -0.7284444444444444 2.709422222222222 0.046488888888888885 5.601555555555556 2.0320444444444443 7.583777777777778"></path>
  </g>
</svg>