<svg id="Chicken--Streamline-Openmoji" viewBox="0 0 32 32" version="1.1" xmlns="http://www.w3.org/2000/svg" height="32" width="32">
  <desc>
    Chicken Streamline Emoji: https://streamlinehq.com
  </desc>
  <g id="color">
    <path fill="#ea5a47" d="M20.7928 10.134533333333334s2.4325777777777775 -4.031066666666667 1.3205333333333333 -4.587066666666666 -2.780044444444444 0.5559999999999999 -2.780044444444444 0.5559999999999999 1.1120444444444444 -3.8920888888888885 -1.1119999999999999 -3.8920888888888885 -2.780088888888889 2.2240444444444445 -2.780088888888889 2.2240444444444445S14.63111111111111 -0.17724444444444443 11.54911111111111 1.0993333333333333c-1.926 0.797911111111111 -2.780044444444444 2.780088888888889 0 8.340177777777777" stroke-width="0.4444"></path>
    <path fill="#ffffff" d="M7.659822222222222 14.999644444444444S9.883866666666666 8.88351111111111 16 8.88351111111111s8.340177777777777 6.116133333333333 8.340177777777777 6.116133333333333C32.68035555555555 30.567955555555557 16 31.123999999999995 16 31.123999999999995s-16.680355555555554 -0.5560444444444445 -8.340177777777777 -16.124355555555557Z" stroke-width="0.4444"></path>
    <path fill="#f1b31c" d="M16 19.447733333333332s10.008222222222221 -0.5559999999999999 0 10.008222222222221c0 0 -10.008222222222221 -10.008222222222221 0 -10.008222222222221Z" stroke-width="0.4444"></path>
  </g>
  <g id="line">
    <path fill="none" stroke="#000000" stroke-linecap="round" stroke-linejoin="round" stroke-miterlimit="10" stroke-width="0.8889" d="M20.703866666666666 10.134533333333334s2.432533333333333 -4.031066666666667 1.3205333333333333 -4.587066666666666 -2.780088888888889 0.5559999999999999 -2.780088888888889 0.5559999999999999 1.1120444444444444 -3.8920888888888885 -1.1119999999999999 -3.8920888888888885 -2.780044444444444 2.2240444444444445 -2.780044444444444 2.2240444444444445 -0.8101333333333333 -4.612666666666667 -3.8920888888888885 -3.3360888888888884c-1.9260444444444442 0.797911111111111 -2.780088888888889 2.780088888888889 0 8.340177777777777"></path>
    <path d="M9.883866666666666 17.22368888888889c0 0.8560444444444444 0.9267111111111112 1.3910666666666667 1.6680444444444442 0.9630666666666666 0.34404444444444443 -0.19866666666666666 0.5559999999999999 -0.5657777777777777 0.5559999999999999 -0.9630666666666666 0 -0.8560444444444444 -0.9266666666666666 -1.3910666666666667 -1.6680444444444442 -0.9630222222222221 -0.34404444444444443 0.19862222222222223 -0.5559999999999999 0.5657333333333333 -0.5559999999999999 0.9630222222222221" stroke-width="0.4444"></path>
    <path d="M19.892088888888885 17.22368888888889c0 0.8560444444444444 0.9266666666666666 1.3910666666666667 1.6680444444444442 0.9630666666666666 0.34404444444444443 -0.19866666666666666 0.5559999999999999 -0.5657777777777777 0.5559999999999999 -0.9630666666666666 0 -0.8560444444444444 -0.9266666666666666 -1.3910666666666667 -1.6680444444444442 -0.9630222222222221 -0.34404444444444443 0.19862222222222223 -0.5559999999999999 0.5657333333333333 -0.5559999999999999 0.9630222222222221" stroke-width="0.4444"></path>
    <path fill="none" stroke="#000000" stroke-linecap="round" stroke-linejoin="round" stroke-miterlimit="10" stroke-width="0.8889" d="M16.01111111111111 19.447733333333332s10.008222222222221 -0.5559999999999999 0 10.008222222222221c0 0 -10.008222222222221 -10.008222222222221 0 -10.008222222222221Z"></path>
    <path fill="none" stroke="#000000" stroke-linecap="round" stroke-linejoin="round" stroke-miterlimit="10" stroke-width="0.8889" d="M7.659822222222222 14.999644444444444S9.883866666666666 8.88351111111111 16 8.88351111111111s8.340177777777777 6.116133333333333 8.340177777777777 6.116133333333333C32.68035555555555 30.567955555555557 16 31.123999999999995 16 31.123999999999995s-16.680355555555554 -0.5560444444444445 -8.340177777777777 -16.124355555555557Z"></path>
  </g>
</svg>