<svg id="Clown-Face--Streamline-Openmoji" viewBox="0 0 32 32" xmlns="http://www.w3.org/2000/svg" height="32" width="32">
  <desc>
    Clown Face Streamline Emoji: https://streamlinehq.com
  </desc>
  <g id="color">
    <path fill="#d22f27" d="M2.053911111111111 11.152888888888889s-1.2885333333333333 -0.9242222222222222 -0.3788888888888889 -1.9662666666666666c0 0 -1.4344444444444444 -1.2670666666666668 -0.26946666666666663 -2.457422222222222 0 0 -0.7794222222222222 -2.564 1.3459555555555556 -2.7123999999999997 0 0 -0.2454222222222222 -2.563333333333333 2.567644444444444 -2.2652 0 0 1.5748444444444445 -1.134 2.7420888888888886 0.15666666666666665 0 0 1.5940888888888889 -1.0121333333333333 2.4188888888888886 0.2534222222222222" stroke-width="0.4444"></path>
    <path fill="#d22f27" d="M29.946088888888884 11.152888888888889s1.2885333333333333 -0.9242222222222222 0.3788888888888889 -1.9662666666666666c0 0 1.4344444444444444 -1.2670666666666668 0.26946666666666663 -2.457422222222222 0 0 0.7794222222222222 -2.564 -1.3459555555555556 -2.7123999999999997 0 0 0.2454222222222222 -2.563333333333333 -2.567644444444444 -2.2652 0 0 -1.5748444444444445 -1.134 -2.7420888888888886 0.15666666666666665 0 0 -1.5940888888888889 -1.0121333333333333 -2.4188888888888886 0.2534222222222222" stroke-width="0.4444"></path>
    <path fill="#ffffff" d="M1.5219555555555555 16.230977777777778c0 11.145199999999999 12.065022222222222 18.11093333333333 21.717066666666664 12.538355555555555 4.479511111111111 -2.5862666666666665 7.239022222222222 -7.365866666666666 7.239022222222222 -12.538355555555555 0 -11.145244444444444 -12.065022222222222 -18.110977777777777 -21.717066666666664 -12.538355555555555C4.281466666666667 6.278844444444444 1.5219555555555555 11.058444444444444 1.5219555555555555 16.230977777777778" stroke-width="0.4444"></path>
    <path fill="#d22f27" d="M24.691155555555557 22.869644444444443s-0.9945777777777778 5.306533333333333 -8.693111111111111 5.514266666666666c-7.667066666666667 -0.27697777777777777 -8.693111111111111 -5.514266666666666 -8.693111111111111 -5.514266666666666 -0.2895555555555555 -1.0889777777777778 -0.7806222222222221 -3.6257777777777775 1.4352 -2.398311111111111 1.6996 0.9442222222222221 3.386622222222222 2.750844444444444 7.257911111111111 2.864133333333333 3.8776 -0.11328888888888888 5.55831111111111 -1.919911111111111 7.257911111111111 -2.864133333333333 2.215777777777778 -1.2274666666666667 1.7310666666666665 1.3093333333333332 1.4352 2.398311111111111Z" stroke-width="0.4444"></path>
    <path fill="#ffffff" d="M15.998800000000001 26.76493333333333c-3.8157777777777775 0 -6.250622222222222 -2.083511111111111 -6.868444444444444 -3.0936888888888885s0.3465333333333333 -0.7272 0.5451111111111111 -0.6313777777777778c1.4564444444444444 0.7027555555555555 2.5438666666666667 1.6982666666666666 6.323333333333332 1.8277777777777775m0 1.897288888888889c3.8157777777777775 0 6.250622222222222 -2.083511111111111 6.868444444444444 -3.0936888888888885s-0.3465333333333333 -0.7272 -0.5451111111111111 -0.6313777777777778c-1.4564888888888887 0.7027555555555555 -2.5438666666666667 1.6982666666666666 -6.323333333333332 1.8277777777777775" stroke-width="0.4444"></path>
  </g>
  <g id="hair"></g>
  <g id="skin"></g>
  <g id="skin-shadow"></g>
  <g id="line">
    <path fill="none" stroke="#000000" stroke-linecap="round" stroke-linejoin="round" stroke-miterlimit="10" stroke-width="0.8889" d="M8.095733333333332 6.898666666666666c1.8248 -0.9783999999999999 3.898711111111111 -1.015288888888889 5.448666666666666 0"></path>
    <path fill="none" stroke="#000000" stroke-linecap="round" stroke-linejoin="round" stroke-miterlimit="10" stroke-width="0.8889" d="M18.4556 6.898666666666666c1.8248 -0.9783999999999999 3.8986666666666667 -1.015288888888889 5.448666666666666 0"></path>
    <path fill="none" stroke="#000000" stroke-linecap="round" stroke-linejoin="round" stroke-miterlimit="10" stroke-width="0.8889" d="M24.69173333333333 22.869644444444443s-0.9945777777777778 5.306533333333333 -8.693111111111111 5.514266666666666c-7.667066666666667 -0.27697777777777777 -8.693155555555554 -5.514266666666666 -8.693155555555554 -5.514266666666666 -0.2895555555555555 -1.0889777777777778 -0.7805777777777777 -3.6257777777777775 1.4352444444444443 -2.398311111111111 1.6996 0.9442222222222221 3.3865777777777772 2.750844444444444 7.257911111111111 2.864133333333333 3.8776 -0.11328888888888888 5.55831111111111 -1.919911111111111 7.257911111111111 -2.864133333333333 2.2157333333333336 -1.2274666666666667 1.7310666666666665 1.3093333333333332 1.4352 2.398311111111111Z"></path>
    <path fill="none" stroke="#000000" stroke-linecap="round" stroke-linejoin="round" stroke-miterlimit="10" stroke-width="0.8889" d="M2.053911111111111 11.152888888888889s-1.2885333333333333 -0.9242222222222222 -0.3788888888888889 -1.9662666666666666c0 0 -1.4344444444444444 -1.2670666666666668 -0.26946666666666663 -2.457422222222222 0 0 -0.7794222222222222 -2.564 1.3459555555555556 -2.7123999999999997 0 0 -0.2454222222222222 -2.563333333333333 2.567644444444444 -2.2652 0 0 1.5748444444444445 -1.134 2.7420888888888886 0.15666666666666665 0 0 1.5940888888888889 -1.0121333333333333 2.4188888888888886 0.2534222222222222"></path>
    <path fill="none" stroke="#000000" stroke-linecap="round" stroke-linejoin="round" stroke-miterlimit="10" stroke-width="0.8889" d="M1.5219555555555555 16.230977777777778c0 11.145199999999999 12.065022222222222 18.11093333333333 21.717066666666664 12.538355555555555 4.479511111111111 -2.5862666666666665 7.239022222222222 -7.365866666666666 7.239022222222222 -12.538355555555555 0 -11.145244444444444 -12.065022222222222 -18.110977777777777 -21.717066666666664 -12.538355555555555C4.281466666666667 6.278844444444444 1.5219555555555555 11.058444444444444 1.5219555555555555 16.230977777777778"></path>
    <path fill="none" stroke="#000000" stroke-linecap="round" stroke-linejoin="round" stroke-miterlimit="10" stroke-width="0.8889" d="M29.946088888888884 11.152888888888889s1.2885333333333333 -0.9242222222222222 0.3788888888888889 -1.9662666666666666c0 0 1.4344444444444444 -1.2670666666666668 0.26946666666666663 -2.457422222222222 0 0 0.7794222222222222 -2.564 -1.3459555555555556 -2.7123999999999997 0 0 0.2454222222222222 -2.563333333333333 -2.567644444444444 -2.2652 0 0 -1.5748444444444445 -1.134 -2.7420888888888886 0.15666666666666665 0 0 -1.5940888888888889 -1.0121333333333333 -2.4188888888888886 0.2534222222222222"></path>
    <path fill="none" stroke="#000000" stroke-miterlimit="10" stroke-width="0.8889" d="M8.616888888888889 12.968977777777777c-0.0024 3.055022222222222 1.8320888888888889 4.9690666666666665 3.3020444444444443 3.445333333333333 0.6841777777777778 -0.7091555555555554 1.1054222222222223 -2.0234666666666667 1.104311111111111 -3.445333333333333 0.0024 -3.054977777777778 -1.8320444444444441 -4.9690666666666665 -3.3020444444444443 -3.445288888888889 -0.6841777777777778 0.7091555555555554 -1.1054222222222223 2.0234666666666667 -1.104311111111111 3.445288888888889"></path>
    <path fill="none" stroke="#000000" stroke-miterlimit="10" stroke-width="0.8889" d="M18.976755555555552 12.971244444444444c-0.0024 3.055022222222222 1.8320444444444441 4.9690666666666665 3.3020444444444443 3.445333333333333 0.6841777777777778 -0.7091555555555554 1.1054222222222223 -2.0234666666666667 1.104311111111111 -3.445333333333333 0.0024 -3.054977777777778 -1.8320888888888889 -4.9690666666666665 -3.3020444444444443 -3.445288888888889 -0.6841777777777778 0.7091555555555554 -1.1054222222222223 2.0234666666666667 -1.104311111111111 3.445288888888889"></path>
    <path d="M14.278311111111108 18.10551111111111c-0.002133333333333333 1.3253333333333333 1.4312888888888888 2.1559999999999997 2.580133333333333 1.4951555555555556 0.5348888888888889 -0.3076888888888889 0.8642222222222221 -0.8780888888888888 0.8632444444444444 -1.4951555555555556 0.002133333333333333 -1.3253777777777778 -1.4312888888888888 -2.1560444444444444 -2.580133333333333 -1.4951999999999999 -0.5348888888888889 0.3076888888888889 -0.8642222222222221 0.8780888888888888 -0.8632444444444444 1.4951999999999999" stroke-width="0.4444"></path>
  </g>
  <g id="color-foreground">
    <path fill="none" stroke="#92d3f5" stroke-miterlimit="10" stroke-width="0.9333" d="M8.616888888888889 12.968977777777777c-0.0024 3.055022222222222 1.8320888888888889 4.9690666666666665 3.3020444444444443 3.445333333333333 0.6841777777777778 -0.7091555555555554 1.1054222222222223 -2.0234666666666667 1.104311111111111 -3.445333333333333 0.0024 -3.054977777777778 -1.8320444444444441 -4.9690666666666665 -3.3020444444444443 -3.445288888888889 -0.6841777777777778 0.7091555555555554 -1.1054222222222223 2.0234666666666667 -1.104311111111111 3.445288888888889"></path>
    <path fill="none" stroke="#92d3f5" stroke-miterlimit="10" stroke-width="0.9333" d="M18.976755555555552 12.971244444444444c-0.0024 3.055022222222222 1.8320444444444441 4.9690666666666665 3.3020444444444443 3.445333333333333 0.6841777777777778 -0.7091555555555554 1.1054222222222223 -2.0234666666666667 1.104311111111111 -3.445333333333333 0.0024 -3.054977777777778 -1.8320888888888889 -4.9690666666666665 -3.3020444444444443 -3.445288888888889 -0.6841777777777778 0.7091555555555554 -1.1054222222222223 2.0234666666666667 -1.104311111111111 3.445288888888889"></path>
    <path d="M12.391555555555556 12.967733333333332c0 1.9136444444444443 -0.8308888888888888 3.342533333333333 -1.5736888888888887 3.342533333333333s-1.5736888888888887 -1.4288888888888887 -1.5736888888888887 -3.342533333333333c0 -1.9073333333333333 0.8308888888888888 -3.336222222222222 1.5736888888888887 -3.336222222222222s1.5736888888888887 1.4289777777777777 1.5736888888888887 3.336222222222222Z" stroke-width="0.4444"></path>
    <path d="M22.7528 12.974088888888888c0 1.9073333333333333 -0.8308888888888888 3.3362666666666665 -1.5736888888888887 3.3362666666666665s-1.5736888888888887 -1.4289333333333334 -1.5736888888888887 -3.3362666666666665c0 -1.9136 0.8308888888888888 -3.342533333333333 1.5736888888888887 -3.342533333333333s1.5736888888888887 1.4289333333333334 1.5736888888888887 3.342533333333333Z" stroke-width="0.4444"></path>
    <path fill="#d22f27" d="M14.313733333333332 18.10551111111111c-0.002133333333333333 1.3253333333333333 1.4312888888888888 2.1559999999999997 2.5801777777777777 1.4951555555555556 0.5348888888888889 -0.3076888888888889 0.8642222222222221 -0.8780888888888888 0.8632 -1.4951555555555556 0.002133333333333333 -1.3253777777777778 -1.4312444444444443 -2.1560444444444444 -2.580133333333333 -1.4951999999999999 -0.5348888888888889 0.3076888888888889 -0.8642222222222221 0.8780888888888888 -0.8632444444444444 1.4951999999999999" stroke-width="0.4444"></path>
  </g>
</svg>