<svg id="Cowboy-Hat-Face--Streamline-Openmoji" viewBox="0 0 32 32" xmlns="http://www.w3.org/2000/svg" height="32" width="32">
  <desc>
    Cowboy Hat Face Streamline Emoji: https://streamlinehq.com
  </desc>
  <g id="color">
    <path fill="#fcea2b" d="M3.0104888888888888 18.69048888888889c-0.0058222222222222226 9.999333333333333 10.81511111111111 16.255244444444443 19.47768888888889 11.260666666666667 4.025022222222222 -2.3207111111111107 6.504044444444444 -6.614533333333333 6.501333333333333 -11.260666666666667 0.0058222222222222226 -9.999288888888888 -10.81511111111111 -16.2552 -19.47768888888889 -11.260622222222223 -4.025022222222222 2.3207111111111107 -6.504044444444444 6.614488888888888 -6.501333333333333 11.260622222222223" stroke-width="0.4444"></path>
    <path fill="#6a462f" d="M16 10.74271111111111c5.015555555555555 -0.06973333333333333 8.299466666666666 -1.3301777777777777 8.299466666666666 -1.3301777777777777 1.3997333333333333 1.2529333333333332 2.514177777777778 2.8179555555555553 3.234133333333333 4.585688888888889 0 0 5.734222222222222 -4.525688888888888 1.2423555555555554 -8.175377777777777 0 0 -2.1686666666666667 -2.0888 -5.431955555555555 0.8909777777777778 0 0 -2.1032888888888888 1.983644444444444 -7.344 2.0057777777777774 -5.2407111111111115 -0.02213333333333333 -7.344 -2.0057777777777774 -7.344 -2.0057777777777774 -3.2632888888888885 -2.9797777777777776 -5.431911111111111 -0.8909777777777778 -5.431911111111111 -0.8909777777777778 -4.4919111111111105 3.649688888888889 1.242311111111111 8.175377777777777 1.242311111111111 8.175377777777777 0.7199111111111111 -1.7677333333333332 1.8343999999999998 -3.3327555555555555 3.234133333333333 -4.585688888888889 0 0 3.283911111111111 1.2605333333333333 8.299466666666666 1.3301777777777777Z" stroke-width="0.4444"></path>
    <path fill="#6a462f" d="M16 8.7196c3.2754666666666665 -0.013866666666666666 5.286177777777778 -0.7728444444444443 6.363022222222222 -1.3559555555555554 0 0 -0.8844444444444444 -0.3086222222222222 -0.7525333333333333 -1.5054666666666667 0.03924444444444444 -0.35591111111111107 0.19164444444444445 -0.8809777777777777 0.38466666666666666 -1.3796 0.34586666666666666 -0.8935555555555554 0.10488888888888888 -1.6068444444444445 -2.226533333333333 -2.779111111111111 0 0 -1.127111111111111 -0.5632444444444444 -1.5263555555555555 -0.6894666666666666 -0.5861333333333333 -0.18524444444444443 -1.587911111111111 -0.3357333333333333 -2.242266666666666 0.44279999999999997 -0.6543555555555555 -0.7785333333333333 -1.6560888888888887 -0.6280444444444444 -2.2421777777777776 -0.44279999999999997 -0.39928888888888886 0.1262222222222222 -1.5264 0.6894666666666666 -1.5264 0.6894666666666666 -2.3313777777777775 1.1722666666666666 -2.5723999999999996 1.8855555555555554 -2.2264888888888885 2.779111111111111 0.19297777777777775 0.49862222222222213 0.3454222222222222 1.0236888888888889 0.3846222222222222 1.3796 0.13191111111111112 1.1968444444444444 -0.7524888888888889 1.5054666666666667 -0.7524888888888889 1.5054666666666667 1.0767555555555555 0.5831111111111111 3.0874666666666664 1.3420888888888887 6.362933333333332 1.3559555555555554Z" stroke-width="0.4444"></path>
    <path fill="#ffffff" d="M23.89924444444444 21.74302222222222c0.006488888888888889 0.8333333333333333 -0.1536 1.6595111111111112 -0.4708888888888889 2.4301333333333335 -6.759955555555555 1.639911111111111 -13.763422222222221 0.18399999999999997 -14.878355555555556 -0.07035555555555555 -0.3024444444444444 -0.7497333333333334 -0.4550222222222222 -1.5513777777777777 -0.4492444444444444 -2.3597777777777775h0.059555555555555556s8.010177777777777 1.9430222222222222 15.636088888888887 0.03791111111111111l0.10284444444444443 -0.03791111111111111Z" stroke-width="0.4444"></path>
    <path fill="#ea5a47" d="M23.42844444444444 24.173155555555557c-0.9688 2.311022222222222 -3.436844444444444 3.913066666666666 -7.409466666666666 3.913066666666666 -4.010488888888888 0 -6.510977777777777 -1.639911111111111 -7.468933333333332 -3.983422222222222 1.1149333333333333 0.25435555555555556 8.118355555555556 1.7102666666666666 14.8784 0.07035555555555555Z" stroke-width="0.4444"></path>
  </g>
  <g id="hair"></g>
  <g id="skin"></g>
  <g id="skin-shadow"></g>
  <g id="line">
    <path d="M10.08351111111111 15.885866666666667c-0.002088888888888889 2.2514222222222218 1.3496888888888887 3.6625777777777775 2.4332 2.540088888888889 0.5044888888888889 -0.5226666666666666 0.8151111111111111 -1.4917333333333331 0.8141777777777778 -2.540088888888889 0.0020444444444444442 -2.2514222222222218 -1.3497333333333332 -3.662622222222222 -2.4332 -2.5401333333333334 -0.5045333333333333 0.5226666666666666 -0.8151555555555555 1.4917777777777776 -0.8141777777777778 2.5401333333333334" stroke-width="0.4444"></path>
    <path d="M18.66911111111111 15.887777777777778c-0.0020444444444444442 2.2514666666666665 1.3497333333333332 3.662622222222222 2.4332 2.5401333333333334 0.5045333333333333 -0.5226666666666666 0.8151555555555555 -1.4917777777777776 0.8141777777777778 -2.5401333333333334 0.002088888888888889 -2.2514222222222218 -1.3496888888888887 -3.6625777777777775 -2.4332 -2.540088888888889 -0.5044888888888889 0.5226666666666666 -0.8151111111111111 1.4917777777777776 -0.8141777777777778 2.540088888888889" stroke-width="0.4444"></path>
    <path fill="none" stroke="#000000" stroke-linecap="round" stroke-linejoin="round" stroke-miterlimit="10" stroke-width="0.8889" d="M28.144222222222222 15.943777777777777c0.19897777777777775 0.8836444444444443 0.30404444444444445 1.8029333333333335 0.30404444444444445 2.7467111111111113 0 6.874977777777778 -5.5732888888888885 12.448266666666667 -12.448266666666667 12.448266666666667S3.551733333333333 25.565466666666666 3.551733333333333 18.69048888888889c0 -0.9437777777777777 0.10506666666666666 -1.8630666666666666 0.30404444444444445 -2.7467111111111113"></path>
    <path fill="none" stroke="#000000" stroke-linecap="round" stroke-linejoin="round" stroke-miterlimit="10" stroke-width="0.8889" d="M16 10.74271111111111c5.015555555555555 -0.06973333333333333 8.299466666666666 -1.3301777777777777 8.299466666666666 -1.3301777777777777 1.3997333333333333 1.2529333333333332 2.514177777777778 2.8179555555555553 3.234133333333333 4.585688888888889 0 0 5.734222222222222 -4.525688888888888 1.2423555555555554 -8.175377777777777 0 0 -2.1686666666666667 -2.0888 -5.431955555555555 0.8909777777777778 0 0 -2.1032888888888888 1.983644444444444 -7.344 2.0057777777777774 -5.2407111111111115 -0.02213333333333333 -7.344 -2.0057777777777774 -7.344 -2.0057777777777774 -3.2632888888888885 -2.9797777777777776 -5.431911111111111 -0.8909777777777778 -5.431911111111111 -0.8909777777777778 -4.4919111111111105 3.649688888888889 1.242311111111111 8.175377777777777 1.242311111111111 8.175377777777777 0.7199111111111111 -1.7677333333333332 1.8343999999999998 -3.3327555555555555 3.234133333333333 -4.585688888888889 0 0 3.283911111111111 1.2605333333333333 8.299466666666666 1.3301777777777777Z"></path>
    <path fill="none" stroke="#000000" stroke-linecap="round" stroke-linejoin="round" stroke-miterlimit="10" stroke-width="0.8889" d="M16 8.7196c3.2754666666666665 -0.013866666666666666 5.286177777777778 -0.7728444444444443 6.363022222222222 -1.3559555555555554 0 0 -0.8844444444444444 -0.3086222222222222 -0.7525333333333333 -1.5054666666666667 0.03924444444444444 -0.35591111111111107 0.19164444444444445 -0.8809777777777777 0.38466666666666666 -1.3796 0.34586666666666666 -0.8935555555555554 0.10488888888888888 -1.6068444444444445 -2.226533333333333 -2.779111111111111 0 0 -1.127111111111111 -0.5632444444444444 -1.5263555555555555 -0.6894666666666666 -0.5861333333333333 -0.18524444444444443 -1.587911111111111 -0.3357333333333333 -2.242266666666666 0.44279999999999997 -0.6543555555555555 -0.7785333333333333 -1.6560888888888887 -0.6280444444444444 -2.2421777777777776 -0.44279999999999997 -0.39928888888888886 0.1262222222222222 -1.5264 0.6894666666666666 -1.5264 0.6894666666666666 -2.3313777777777775 1.1722666666666666 -2.5723999999999996 1.8855555555555554 -2.2264888888888885 2.779111111111111 0.19297777777777775 0.49862222222222213 0.3454222222222222 1.0236888888888889 0.3846222222222222 1.3796 0.13191111111111112 1.1968444444444444 -0.7524888888888889 1.5054666666666667 -0.7524888888888889 1.5054666666666667 1.0767555555555555 0.5831111111111111 3.0874666666666664 1.3420888888888887 6.362933333333332 1.3559555555555554h0Z"></path>
    <path fill="none" stroke="#000000" stroke-linecap="round" stroke-linejoin="round" stroke-width="0.8889" d="M23.89924444444444 21.74302222222222c0.006488888888888889 0.8333333333333333 -0.1536 1.6595111111111112 -0.4708888888888889 2.4301333333333335 -6.759955555555555 1.639911111111111 -13.763422222222221 0.18399999999999997 -14.878355555555556 -0.07035555555555555 -0.3024444444444444 -0.7497333333333334 -0.4550222222222222 -1.5513777777777777 -0.4492444444444444 -2.3597777777777775h0.059555555555555556s8.010177777777777 1.9430222222222222 15.636088888888887 0.03791111111111111l0.10284444444444443 -0.03791111111111111Z"></path>
    <path fill="none" stroke="#000000" stroke-linecap="round" stroke-linejoin="round" stroke-width="0.8889" d="M23.42844444444444 24.173155555555557c-0.9688 2.311022222222222 -3.436844444444444 3.913066666666666 -7.409466666666666 3.913066666666666 -4.010488888888888 0 -6.510977777777777 -1.639911111111111 -7.468933333333332 -3.983422222222222 1.1149333333333333 0.25435555555555556 8.118355555555556 1.7102666666666666 14.8784 0.07035555555555555Z"></path>
  </g>
</svg>