<svg id="Crab--Streamline-Openmoji" viewBox="0 0 32 32" xmlns="http://www.w3.org/2000/svg" height="32" width="32">
  <desc>
    Crab Streamline Emoji: https://streamlinehq.com
  </desc>
  <g id="color">
    <path fill="#d22f27" d="M16.2628 13.382177777777777s3.1760888888888887 -0.7131111111111111 5.716888888888889 2.852488888888889c1.0780888888888889 1.5129333333333332 1.8414666666666666 1.5189777777777778 2.3304444444444443 2.0203555555555552 0.13497777777777778 0.13844444444444443 0.828 1.1136 0.9275111111111111 1.2014222222222222 0.7444 0.6569333333333333 0.6451555555555555 1.5566666666666666 0.7055555555555555 2.538488888888889 0.02924444444444444 0.4754666666666667 -0.0788 1.9117777777777776 -0.5985333333333333 2.1601777777777778 -0.9330666666666667 0.446 -1.1752444444444443 1.3257333333333332 -3.364977777777778 2.0631999999999997 0 0 -3.8113333333333332 0.7131111111111111 -5.716888888888889 -1.4262222222222223 0 0 -1.9056 2.852488888888889 -6.987333333333333 0.7130666666666666 -1.0051999999999999 -0.3459555555555555 -1.8531111111111112 -1.0408 -2.389822222222222 -1.9583999999999997 -0.43679999999999997 -0.8823555555555556 -0.9051111111111112 -1.9750666666666667 -0.2999111111111111 -3.1652444444444443 0.12302222222222221 -0.4320444444444444 0.3285333333333333 -0.8361777777777777 0.6051555555555554 -1.1901777777777778 0.8390666666666666 -0.9422222222222222 2.7219555555555552 -2.634488888888889 3.025644444444444 -2.975422222222222 1.2702666666666664 -1.4261777777777775 3.505422222222222 -3.546711111111111 6.046266666666667 -2.833733333333333Z" stroke-width="0.4444"></path>
    <path fill="#ea5a47" d="M4.816933333333333 15.530933333333333c-0.10168888888888888 0 -0.20337777777777777 -0.0029333333333333334 -0.30448888888888886 -0.007555555555555556 -0.4132888888888888 -0.0020444444444444442 -0.8191555555555555 -0.11031111111111111 -1.1785777777777777 -0.3144 -0.2604444444444444 -0.16444444444444442 -0.35266666666666663 -0.500311111111111 -0.21266666666666664 -0.7746666666666667l2.2123555555555554 -4.327733333333333c0.06631111111111111 -0.1290222222222222 0.17724444444444443 -0.22959999999999997 0.3121333333333333 -0.28302222222222223 1.3609777777777776 -0.5503111111111111 2.3888 -1.7020444444444445 2.7812888888888887 -3.1166666666666667 0.11822222222222223 -0.4423555555555555 0.6709333333333333 -0.5908444444444444 0.9949333333333332 -0.2673333333333333 0.0009333333333333332 0.0009777777777777777 0.001911111111111111 0.001911111111111111 0.0028444444444444446 0.0028888888888888888 1.5624444444444443 1.7004 1.8297333333333334 4.222266666666666 0.6584888888888889 6.2124 -1.1434222222222223 1.8012444444444444 -3.1328444444444443 2.8877333333333333 -5.2663111111111105 2.8760888888888885Z" stroke-width="0.4444"></path>
    <path fill="#ea5a47" d="M7.508666666666667 21.20928888888889C3.920755555555555 24.44413333333333 0.009777777777777776 15.842311111111112 3.343022222222222 15.258133333333333c0 0.00031111111111111107 2.3803555555555556 0.00031111111111111107 2.3803555555555556 1.1904444444444444s-0.991822222222222 2.9754666666666663 1.5869333333333333 3.868088888888889Z" stroke-width="0.4444"></path>
    <path fill="#d22f27" d="M2.6058222222222223 14.551466666666666S-2.3401777777777775 9.647066666666666 4.6866666666666665 5.015688888888889c0 0 2.690977777777778 -1.2696444444444444 3.9909777777777773 0.09102222222222223 0 0 -3.7673777777777775 1.7774666666666665 -3.543733333333333 3.646s1.7774666666666665 3.7672888888888885 0.4165333333333333 5.067288888888889c-0.9255555555555555 0.43026666666666663 -1.9252444444444445 0.6786222222222221 -2.9446222222222223 0.7314666666666666Z" stroke-width="0.4444"></path>
    <path fill="#ea5a47" d="M21.916755555555554 12.654844444444445c-1.1712444444444443 -1.9901333333333333 -0.9039555555555555 -4.512 0.6584888888888889 -6.2124 0.3217777777777778 -0.3257333333333333 0.875511111111111 -0.18097777777777777 0.996711111111111 0.26053333333333334 0.00035555555555555557 0.0013333333333333333 0.0007111111111111111 0.002622222222222222 0.0010666666666666665 0.003911111111111111 0.3925333333333333 1.4146666666666665 1.4203999999999999 2.5664 2.7814666666666668 3.1166666666666667 0.1348888888888889 0.05342222222222222 0.24582222222222222 0.15399999999999997 0.3121333333333333 0.28302222222222223l2.2123555555555554 4.327688888888888c0.13999999999999999 0.2744 0.04777777777777777 0.6102666666666666 -0.21266666666666664 0.7747111111111111 -0.35933333333333334 0.20404444444444444 -0.7650666666666667 0.31226666666666664 -1.1782666666666666 0.31435555555555555 -0.10115555555555555 0.004666666666666667 -0.20279999999999998 0.007555555555555556 -0.3045333333333333 0.007555555555555556 -2.1336 0.011822222222222222 -4.1232444444444445 -1.0746666666666667 -5.266755555555555 -2.876044444444444Z" stroke-width="0.4444"></path>
    <path fill="#ea5a47" d="M24.689688888888888 20.316666666666666c2.5787555555555555 -0.8926222222222222 1.5869333333333333 -2.677911111111111 1.5869333333333333 -3.868088888888889s2.3803555555555556 -1.1901333333333333 2.3803555555555556 -1.1904444444444444c3.3330666666666664 0.5841777777777778 -0.577911111111111 9.186 -4.165644444444444 5.951155555555555Z" stroke-width="0.4444"></path>
    <path fill="#d22f27" d="M26.449288888888887 13.819999999999999c-1.3606666666666667 -1.2999999999999998 0.19324444444444444 -3.1988 0.41657777777777777 -5.067288888888889s-3.543733333333333 -3.646 -3.543733333333333 -3.646c1.2999555555555555 -1.3606666666666667 3.990933333333333 -0.09102222222222223 3.990933333333333 -0.09102222222222223 7.026844444444444 4.631377777777778 2.0808444444444443 9.535777777777778 2.0808444444444443 9.535777777777778 -1.0193333333333332 -0.052844444444444444 -2.019022222222222 -0.30119999999999997 -2.9446222222222223 -0.7314666666666666Z" stroke-width="0.4444"></path>
  </g>
  <g id="line">
    <path fill="none" stroke="#000000" stroke-linecap="round" stroke-linejoin="round" stroke-width="0.8889" d="M25.152444444444445 23.473999999999997c-0.41746666666666665 0.8203555555555555 -1.408088888888889 1.647911111111111 -3.4595555555555553 2.2633777777777775 0 0 -3.570533333333333 0.5950666666666666 -5.355777777777777 -1.1901777777777778 0 0 -1.7852444444444444 2.3803555555555556 -6.5459555555555555 0.5950666666666666 -0.9116888888888888 -0.2717777777777778 -1.7021777777777776 -0.8487999999999999 -2.2388888888888885 -1.6342666666666665"></path>
    <path fill="none" stroke="#000000" stroke-linecap="round" stroke-linejoin="round" stroke-width="0.8889" d="m8.650311111111112 18.546755555555556 2.3308 -2.3308444444444443c1.1901777777777778 -1.1901777777777778 2.975422222222222 -2.975422222222222 5.355777777777777 -2.3803555555555556 0 0 2.975422222222222 -0.5950666666666666 5.355777777777777 2.3803555555555556 0.6579999999999999 0.8550666666666666 1.3788444444444443 1.659911111111111 2.156533333333333 2.4078666666666666"></path>
    <path fill="none" stroke="#000000" stroke-linecap="round" stroke-linejoin="round" stroke-width="0.8889" d="M9.790933333333331 25.14222222222222c-0.6795555555555555 0.3483555555555556 -1.1299555555555556 1.0239999999999998 -1.1901777777777778 1.7852444444444444"></path>
    <path fill="none" stroke="#000000" stroke-linecap="round" stroke-linejoin="round" stroke-width="0.8889" d="M12.220844444444444 25.786933333333334c-0.4474666666666666 0.4633777777777777 -0.6811111111111111 1.0925333333333334 -0.6446666666666666 1.7356444444444443"></path>
    <path fill="none" stroke="#000000" stroke-linecap="round" stroke-linejoin="round" stroke-width="0.8889" d="M21.09755555555555 25.786933333333334c0.4474666666666666 0.4633777777777777 0.6811555555555555 1.0925333333333334 0.6446666666666666 1.7356444444444443"></path>
    <path d="M13.36142222222222 11.157733333333333c-0.0012444444444444443 1.1452444444444443 0.4939111111111111 1.8643999999999998 0.8912444444444444 1.2944888888888888 0.1854222222222222 -0.2659111111111111 0.2995555555555556 -0.7600888888888888 0.29893333333333333 -1.2944888888888888 0.0012888888888888887 -1.1452444444444443 -0.4938666666666666 -1.8643999999999998 -0.8911999999999999 -1.2944888888888888 -0.1854222222222222 0.26595555555555556 -0.2995555555555556 0.7600888888888888 -0.29897777777777773 1.2944888888888888" stroke-width="0.4444"></path>
    <path d="M18.12213333333333 11.157733333333333c-0.0012444444444444443 1.1452444444444443 0.4938666666666666 1.8643999999999998 0.8912444444444444 1.2944888888888888 0.1854222222222222 -0.2659111111111111 0.2995111111111111 -0.7600888888888888 0.29893333333333333 -1.2944888888888888 0.0012444444444444443 -1.1452444444444443 -0.4938666666666666 -1.8643999999999998 -0.8912444444444444 -1.2944888888888888 -0.18537777777777778 0.26595555555555556 -0.2995111111111111 0.7600888888888888 -0.29893333333333333 1.2944888888888888" stroke-width="0.4444"></path>
    <path fill="none" stroke="#000000" stroke-linecap="round" stroke-linejoin="round" stroke-width="0.8889" d="M23.677466666666664 24.99453333333333s1.0225777777777778 0.7267555555555555 0.7910222222222222 1.4856888888888888"></path>
    <path fill="none" stroke="#000000" stroke-linecap="round" stroke-linejoin="round" stroke-width="0.8889" d="M7.508666666666667 21.20928888888889s-2.9754666666666663 2.3803555555555556 -4.760711111111111 -1.7852444444444444 0.5950666666666666 -4.165644444444444 0.5950666666666666 -4.165644444444444 2.3803555555555556 0 2.3803555555555556 1.1901777777777778 -0.991822222222222 2.9754666666666663 1.5869333333333333 3.868088888888889Z"></path>
    <path fill="none" stroke="#000000" stroke-linecap="round" stroke-linejoin="round" stroke-width="0.8889" d="M2.6058222222222223 14.551466666666666S-2.3401777777777775 9.647066666666666 4.6866666666666665 5.015688888888889c0 0 2.690977777777778 -1.2696444444444444 3.9909777777777773 0.09102222222222223 -8.344088888888889 3.382222222222222 2.377733333333333 8.698266666666667 -6.071822222222222 9.444755555555554Z"></path>
    <path fill="none" stroke="#000000" stroke-linecap="round" stroke-linejoin="round" stroke-width="0.8889" d="M5.863466666666667 10.377466666666665c1.5363111111111112 -0.6198666666666667 2.6964 -1.9196888888888888 3.1383111111111113 -3.516311111111111 1.3726666666666665 1.5076 1.6036444444444444 3.7333777777777777 0.5697333333333333 5.490666666666666 -1.0860444444444444 1.7063555555555556 -3.0098666666666665 2.692133333333333 -5.029244444444444 2.5770222222222223 -0.3111555555555555 0.0024888888888888886 -0.6178222222222222 -0.0744 -0.8910222222222222 -0.2233777777777778"></path>
    <path fill="none" stroke="#000000" stroke-linecap="round" stroke-linejoin="round" stroke-width="0.8889" d="M24.689688888888888 20.316666666666666c2.5787555555555555 -0.8926222222222222 1.5869333333333333 -2.677911111111111 1.5869333333333333 -3.868088888888889s2.3803555555555556 -1.1901333333333333 2.3803555555555556 -1.1901333333333333 2.380311111111111 0 0.5950666666666666 4.1655999999999995 -4.760666666666666 1.7852444444444444 -4.760666666666666 1.7852444444444444Z"></path>
    <path fill="none" stroke="#000000" stroke-linecap="round" stroke-linejoin="round" stroke-width="0.8889" d="M23.322355555555554 5.106711111111111c1.2999555555555555 -1.3606666666666667 3.9909777777777773 -0.09102222222222223 3.9909777777777773 -0.09102222222222223 7.026844444444444 4.631377777777778 2.0808 9.535777777777778 2.0808 9.535777777777778 -8.44951111111111 -0.7464888888888889 2.272311111111111 -6.0625333333333336 -6.071777777777777 -9.444755555555554Z"></path>
    <path fill="none" stroke="#000000" stroke-linecap="round" stroke-linejoin="round" stroke-width="0.8889" d="M26.136533333333333 10.377466666666665c-1.5363111111111112 -0.6198666666666667 -2.6964 -1.9196888888888888 -3.1383111111111113 -3.516311111111111 -1.3726666666666665 1.5076 -1.6036444444444444 3.7333777777777777 -0.5697333333333333 5.490666666666666 1.0860444444444444 1.7063555555555556 3.0098666666666665 2.692133333333333 5.029244444444444 2.5770222222222223 0.3111555555555555 0.0024888888888888886 0.6178222222222222 -0.0744 0.8910222222222222 -0.2233777777777778"></path>
  </g>
</svg>