<svg id="Crying-Cat--Streamline-Openmoji" viewBox="0 0 32 32" xmlns="http://www.w3.org/2000/svg" height="32" width="32">
  <desc>
    Crying Cat Streamline Emoji: https://streamlinehq.com
  </desc>
  <g id="color">
    <path fill="#f4aa41" d="M28.06435555555555 23.60648888888889c-1.9149333333333334 4.852755555555555 -6.7233777777777775 8.066488888888887 -12.35271111111111 8.066488888888887 -4.8529333333333335 0 -10.249555555555554 -3.1125777777777777 -12.164444444444444 -7.965288888888889l-0.0672 -0.16644444444444442c-0.6075999999999999 -1.5221777777777776 -0.5095555555555555 -3.385244444444444 -0.5095555555555555 -5.127111111111111l1.9518222222222223 -17.23048888888889 5.444222222222222 5.365288888888888c1.5556 -0.6641333333333332 3.2665777777777776 -1.0319555555555555 5.062088888888888 -1.0319555555555555h0.5660888888888889c1.7955555555555556 0 3.5064888888888888 0.3678222222222222 5.062133333333333 1.0319555555555555L27.03333333333333 0.6513333333333333l1.9812888888888889 18.031377777777777c0 1.7418666666666667 -0.3344 3.404933333333333 -0.9424888888888888 4.927066666666667" stroke-width="0.4444"></path>
    <path fill="#e27022" d="M15.711644444444444 31.672977777777778c5.646844444444444 0.18231111111111112 10.834088888888887 -3.195822222222222 12.748977777777776 -8.048488888888889l0.059066666666666656 -0.12297777777777777c0.6075999999999999 -1.5221333333333331 0.5098666666666667 -3.670844444444444 0.5098666666666667 -5.41271111111111L27.03333333333333 0.6513333333333333" stroke-width="0.4444"></path>
    <path fill="#ffffff" d="M26.169644444444444 15.459866666666667s-4.9372444444444445 -4.937777777777777 -7.053688888888888 3.5263111111111107c5.643288888888889 4.232266666666667 7.053688888888888 -3.5263111111111107 7.053688888888888 -3.5263111111111107Z" stroke-width="0.4444"></path>
    <path fill="#ffffff" d="M5.830355555555555 15.459866666666667s4.9372444444444445 -4.937777777777777 7.053688888888888 3.5263111111111107c-5.643288888888889 4.232266666666667 -7.053688888888888 -3.5263111111111107 -7.053688888888888 -3.5263111111111107Z" stroke-width="0.4444"></path>
    <path fill="#92d3f5" d="M7.973244444444445 23.266755555555555c-0.6383555555555555 0.7560888888888889 -1.833288888888889 2.3807111111111112 -1.833288888888889 3.9464444444444444 -0.0007555555555555554 0.49004444444444445 0.19035555555555556 0.9502666666666667 0.5359111111111111 1.2958222222222222 0.3463555555555555 0.3463555555555555 0.8065333333333333 0.5374666666666666 1.2974222222222223 0.537511111111111 0.9800888888888889 -0.00004444444444444445 1.8340888888888887 -0.854 1.8333333333333333 -1.8333333333333333 -0.00004444444444444445 -1.5657333333333332 -1.1950222222222222 -3.190311111111111 -1.8333777777777776 -3.9464444444444444Z" stroke-width="0.4444"></path>
  </g>
  <g id="hair"></g>
  <g id="skin"></g>
  <g id="skin-shadow"></g>
  <g id="line">
    <path fill="none" stroke="#000000" stroke-linecap="round" stroke-linejoin="round" stroke-miterlimit="10" stroke-width="0.8889" d="M26.169644444444444 15.437555555555553s-4.9372444444444445 -4.937777777777777 -7.053688888888888 3.5263111111111107c5.643288888888889 4.232311111111111 7.053688888888888 -3.5263111111111107 7.053688888888888 -3.5263111111111107Z"></path>
    <path fill="none" stroke="#000000" stroke-linecap="round" stroke-linejoin="round" stroke-miterlimit="10" stroke-width="0.8889" d="m29.839244444444443 26.316488888888887 -4.982133333333333 -2.7678666666666665"></path>
    <path fill="none" stroke="#000000" stroke-linecap="round" stroke-linejoin="round" stroke-miterlimit="10" stroke-width="0.8889" d="m27.624977777777776 29.084355555555558 -4.982133333333333 -2.7678666666666665"></path>
    <path fill="none" stroke="#000000" stroke-linecap="round" stroke-linejoin="round" stroke-miterlimit="10" stroke-width="0.8889" d="M3.9128000000000003 23.05453333333333C3.318133333333333 21.58248888888889 2.991111111111111 19.97422222222222 2.991111111111111 18.28973333333333l1.937511111111111 -17.437466666666666 5.8443555555555555 5.703333333333333c1.5212444444444444 -0.6422666666666667 3.194355555555555 -0.9979999999999999 4.950222222222222 -0.9979999999999999h0.5536c1.7558666666666665 0 3.428977777777778 0.3557333333333333 4.950222222222222 0.9979999999999999L27.071377777777776 0.8522666666666666 29.008888888888887 18.28973333333333c0 1.6844888888888887 -0.3270222222222222 3.292755555555555 -0.9216888888888888 4.7648"></path>
    <path fill="none" stroke="#000000" stroke-linecap="round" stroke-linejoin="round" stroke-miterlimit="10" stroke-width="0.8889" d="M11.211599999999999 30.325288888888885c1.402488888888889 0.531511111111111 2.9230666666666667 0.8224444444444444 4.511733333333333 0.8224444444444444h0.5535555555555556c2.473244444444444 0 4.782622222222222 -0.7049333333333333 6.735822222222222 -1.9256"></path>
    <path fill="none" stroke="#000000" stroke-linecap="round" stroke-linejoin="round" stroke-miterlimit="10" stroke-width="0.8889" d="M5.830355555555555 15.437555555555553s4.9372444444444445 -4.937777777777777 7.053688888888888 3.5263111111111107c-5.643288888888889 4.232311111111111 -7.053688888888888 -3.5263111111111107 -7.053688888888888 -3.5263111111111107Z"></path>
    <path fill="none" stroke="#000000" stroke-linecap="round" stroke-linejoin="round" stroke-miterlimit="10" stroke-width="0.8889" d="m2.1607555555555553 26.316488888888887 4.6411999999999995 -2.578444444444444"></path>
    <path fill="none" stroke="#000000" stroke-linecap="round" stroke-linejoin="round" stroke-miterlimit="10" stroke-width="0.8889" d="m5.359733333333333 28.53471111111111 -0.984711111111111 0.5482222222222222"></path>
    <path d="M8.250044444444445 16.90582222222222c0 0.8522666666666666 0.9225777777777777 1.3849333333333331 1.660711111111111 0.9588000000000001 0.34253333333333336 -0.19777777777777777 0.5535555555555556 -0.5632888888888888 0.5535555555555556 -0.9588000000000001 0 -0.852311111111111 -0.9226222222222221 -1.3849777777777776 -1.660711111111111 -0.9588444444444444 -0.34253333333333336 0.19777777777777777 -0.5535555555555556 0.5632888888888888 -0.5535555555555556 0.9588444444444444" stroke-width="0.4444"></path>
    <path d="M21.535688888888888 16.90582222222222c0 0.8522666666666666 0.9226222222222221 1.3849333333333331 1.660711111111111 0.9588000000000001 0.34257777777777776 -0.19777777777777777 0.5535555555555556 -0.5632888888888888 0.5535555555555556 -0.9588000000000001 0 -0.852311111111111 -0.9225777777777777 -1.3849777777777776 -1.660711111111111 -0.9588444444444444 -0.34253333333333336 0.19777777777777777 -0.5535555555555556 0.5632888888888888 -0.5535555555555556 0.9588444444444444" stroke-width="0.4444"></path>
    <path d="M10.052755555555555 29.270355555555554c-0.5550666666666666 0.5550666666666666 -1.2935555555555553 0.8608 -2.0795111111111106 0.8608444444444444 -0.785911111111111 0 -1.5244444444444445 -0.3058222222222222 -2.0802666666666667 -0.8616 -0.5550666666666666 -0.5550222222222222 -0.8608444444444444 -1.293511111111111 -0.8600888888888889 -2.0786666666666664 0 -2.5871555555555554 2.444888888888889 -5.061155555555556 2.5489333333333333 -5.165155555555556 0.21635555555555555 -0.21631111111111112 0.5664888888888888 -0.21631111111111112 0.7828444444444445 0 0.10395555555555555 0.10395555555555555 2.5489333333333333 2.577955555555555 2.548888888888889 5.165066666666666 0.0007999999999999999 0.7851999999999999 -0.3050222222222222 1.5237777777777777 -0.8608 2.0795111111111106ZM7.973244444444445 23.244444444444444c-0.6383555555555555 0.7560888888888889 -1.833288888888889 2.3807111111111112 -1.833288888888889 3.9464444444444444 -0.0007555555555555554 0.49004444444444445 0.19035555555555556 0.950311111111111 0.5359111111111111 1.2958666666666667 0.3463555555555555 0.3463555555555555 0.8065333333333333 0.5374222222222222 1.2974222222222223 0.5374666666666666 0.9800888888888889 -0.00004444444444444445 1.8340888888888887 -0.8539555555555555 1.8333333333333333 -1.8333333333333333 -0.00004444444444444445 -1.5657333333333332 -1.1950222222222222 -3.190311111111111 -1.8333777777777776 -3.9464444444444444Z" stroke-width="0.4444"></path>
    <path fill="none" stroke="#000000" stroke-linecap="round" stroke-linejoin="round" stroke-miterlimit="10" stroke-width="0.8889" d="M18.214266666666667 25.33524444444444 16 22.56737777777778"></path>
    <path fill="none" stroke="#000000" stroke-linecap="round" stroke-linejoin="round" stroke-miterlimit="10" stroke-width="0.8889" d="M13.785733333333333 25.33524444444444 16 22.56737777777778"></path>
    <path fill="none" stroke="#000000" stroke-linecap="round" stroke-linejoin="round" stroke-miterlimit="10" stroke-width="0.8889" d="M13.785733333333333 22.56737777777778h4.428533333333333"></path>
  </g>
</svg>