<svg id="Cupcake--Streamline-Openmoji" viewBox="0 0 32 32" xmlns="http://www.w3.org/2000/svg" height="32" width="32">
  <desc>
    Cupcake Streamline Emoji: https://streamlinehq.com
  </desc>
  <g id="line-supplement">
    <path fill="none" stroke="#000000" stroke-linecap="round" stroke-linejoin="round" stroke-width="0.8889" d="m15.068222222222222 6.445022222222222 0.8487111111111111 -0.49"></path>
    <path fill="none" stroke="#000000" stroke-linecap="round" stroke-linejoin="round" stroke-width="0.8889" d="m11.996933333333333 10.855022222222221 -0.8487111111111111 -0.49"></path>
    <path fill="none" stroke="#000000" stroke-linecap="round" stroke-linejoin="round" stroke-width="0.8889" d="m16.40693333333333 15.755022222222221 -0.8487111111111111 -0.49"></path>
    <path fill="none" stroke="#000000" stroke-linecap="round" stroke-linejoin="round" stroke-width="0.8889" d="m20.6376 11.524355555555555 -0.49 -0.8487111111111111"></path>
    <path fill="none" stroke="#000000" stroke-linecap="round" stroke-linejoin="round" stroke-width="0.8889" d="m15.247599999999998 12.014355555555555 0.49 -0.8487111111111111"></path>
    <path fill="none" stroke="#000000" stroke-linecap="round" stroke-linejoin="round" stroke-width="0.8889" d="m18.677599999999998 7.604355555555555 -0.49 -0.8487111111111111"></path>
    <path fill="none" stroke="#000000" stroke-linecap="round" stroke-linejoin="round" stroke-width="0.8889" d="m9.8576 15.934355555555555 -0.49 -0.8487111111111111"></path>
    <path fill="none" stroke="#000000" stroke-linecap="round" stroke-linejoin="round" stroke-width="0.8889" d="M12.552577777777778 17.959999999999997h0.98"></path>
    <path fill="none" stroke="#000000" stroke-linecap="round" stroke-linejoin="round" stroke-width="0.8889" d="m21.6176 16.424355555555554 0.49 -0.8487111111111111"></path>
    <path fill="none" stroke="#000000" stroke-linecap="round" stroke-linejoin="round" stroke-width="0.8889" d="m18.49822222222222 17.715022222222224 0.8487111111111111 -0.49"></path>
  </g>
  <g id="color">
    <path fill="#a57939" stroke="#a57939" stroke-miterlimit="10" stroke-width="0.8889" d="M27.267955555555552 19.738044444444444c0.6536888888888889 -0.37662222222222225 0.6545333333333333 -1.3195999999999999 0.0015111111111111109 -1.6973777777777777 -0.3036 -0.17564444444444444 -0.6779111111111111 -0.17564444444444444 -0.9815111111111111 0L15.982577777777777 17.959999999999997l-10.294888888888888 0.08066666666666666c-0.47315555555555555 -0.23195555555555555 -1.0448888888888888 -0.07875555555555555 -1.3387111111111112 0.3586666666666667 -0.23191111111111112 0.47315555555555555 -0.0787111111111111 1.0448888888888888 0.3587111111111111 1.3387111111111112l11.274888888888889 6.551955555555555Z"></path>
    <path fill="#92d3f5" d="M25.782577777777778 20.9c-1.96 0 -3.92 6.369999999999999 -3.92 10.29h-11.76c0 -3.92 -1.96 -10.29 -3.92 -10.29h2.4499999999999997l1.47 0.98 1.47 -0.98 1.47 0.98 1.47 -0.98 1.47 0.98 1.47 -0.98 1.47 0.98 1.47 -0.98 1.47 0.98 1.47 -0.98Z" stroke-width="0.4444"></path>
    <path fill="#ffa7c0" stroke="#ffa7c0" stroke-miterlimit="10" stroke-width="0.8889" d="M22.842577777777777 18.94c1.884577777777778 -0.5384444444444444 2.94 -1.47 2.94 -3.4299999999999997 0 -0.98 -1.47 -1.96 -1.47 -1.96s-0.9380888888888889 -0.9594222222222222 -0.6647111111111111 -1.5698666666666665c0.1747111111111111 -0.39013333333333333 -15.505288888888886 -0.3112888888888889 -15.505288888888886 0.09986666666666666 0 0.49 -0.98 0.98 -0.98 0.98s-1.47 0 -1.47 1.96c0 3.4299999999999997 3.363511111111111 3.6584000000000003 6.369999999999999 4.409999999999999 1.96 0.49 2.4499999999999997 -0.49 4.8999999999999995 -0.49 1.96 0 2.4499999999999997 0.98 5.88 0Z"></path>
    <path fill="#ffa7c0" stroke="#ffa7c0" stroke-linecap="round" stroke-linejoin="round" stroke-width="0.8889" d="M10.12791111111111 8.482977777777778c-1.1151555555555555 0 -2.230311111111111 1.2053777777777777 -2.230311111111111 2.1118666666666663 0 1.0813777777777778 0.5575555555555555 2.6527555555555553 5.018266666666666 2.6527555555555553l5.018266666666666 0.050666666666666665c5.018266666666666 0 6.133422222222222 -1.0306666666666666 6.133422222222222 -2.1118666666666663s-1.6727555555555556 -1.5711111111111111 -1.6727555555555556 -1.5711111111111111c-0.601111111111111 -0.4752888888888888 -1.1064444444444443 -0.9652888888888889 -0.5575555555555555 -2.2643555555555555 -0.04208888888888889 -1.1117333333333332 -3.124311111111111 -2.093688888888889 -3.334311111111111 -3.6211111111111114 -0.010799999999999999 -0.1064 -0.04604444444444444 -0.20884444444444442 -0.10288888888888889 -0.2994222222222222l-0.9474666666666667 -2.6204c-0.062 3.2648444444444444 -6.209466666666666 3.837422222222222 -6.209466666666666 6.000177777777778 0 0 0 1.6727999999999998 -1.1152 1.6727999999999998Z"></path>
    <path fill="#61b2e4" stroke="#61b2e4" stroke-linecap="round" stroke-linejoin="round" stroke-width="0.8889" d="m15.068222222222222 6.445022222222222 0.8487111111111111 -0.49"></path>
    <path fill="#61b2e4" stroke="#d22f27" stroke-linecap="round" stroke-linejoin="round" stroke-width="0.8889" d="m11.996933333333333 10.855022222222221 -0.8487111111111111 -0.49"></path>
    <path fill="#61b2e4" stroke="#5c9e31" stroke-linecap="round" stroke-linejoin="round" stroke-width="0.8889" d="m16.40693333333333 15.755022222222221 -0.8487111111111111 -0.49"></path>
    <path fill="#61b2e4" stroke="#5c9e31" stroke-linecap="round" stroke-linejoin="round" stroke-width="0.8889" d="m20.6376 11.524355555555555 -0.49 -0.8487111111111111"></path>
    <path fill="#61b2e4" stroke="#fcea2b" stroke-linecap="round" stroke-linejoin="round" stroke-width="0.8889" d="m15.247599999999998 12.014355555555555 0.49 -0.8487111111111111"></path>
    <path fill="#61b2e4" stroke="#8967aa" stroke-linecap="round" stroke-linejoin="round" stroke-width="0.8889" d="m18.677599999999998 7.604355555555555 -0.49 -0.8487111111111111"></path>
    <path fill="#5c9e31" stroke="#61b2e4" stroke-linecap="round" stroke-linejoin="round" stroke-width="0.8889" d="m9.8576 15.934355555555555 -0.49 -0.8487111111111111"></path>
    <path fill="#61b2e4" stroke="#e27022" stroke-linecap="round" stroke-linejoin="round" stroke-width="0.8889" d="M12.552577777777778 17.959999999999997h0.98"></path>
    <path fill="#61b2e4" stroke="#d22f27" stroke-linecap="round" stroke-linejoin="round" stroke-width="0.8889" d="m21.6176 16.424355555555554 0.49 -0.8487111111111111"></path>
    <path fill="#61b2e4" stroke="#fcea2b" stroke-linecap="round" stroke-linejoin="round" stroke-width="0.8889" d="m18.49822222222222 17.715022222222224 0.8487111111111111 -0.49"></path>
  </g>
  <g id="line">
    <path fill="none" stroke="#000000" stroke-linecap="round" stroke-linejoin="round" stroke-width="0.8889" d="M17.45257777777778 0.8099999999999999c-0.062 3.2648444444444444 -6.209466666666666 3.837422222222222 -6.209466666666666 6.000177777777778 0 1.081422222222222 1.6727555555555556 1.081422222222222 2.788088888888889 1.081422222222222"></path>
    <path fill="none" stroke="#000000" stroke-linecap="round" stroke-linejoin="round" stroke-width="0.8889" d="M18.491733333333332 3.566044444444444c0 1.621911111111111 3.345511111111111 2.7034666666666665 3.345511111111111 3.7848888888888887s-2.2000888888888888 2.2705777777777776 -5.575866666666666 2.1118666666666663"></path>
    <path fill="none" stroke="#000000" stroke-linecap="round" stroke-linejoin="round" stroke-width="0.8889" d="M10.12791111111111 8.482977777777778c-1.1151555555555555 0 -2.230311111111111 1.2053777777777777 -2.230311111111111 2.1118666666666663 0 1.0813777777777778 0.5575555555555555 2.6527555555555553 5.018266666666666 2.6527555555555553"></path>
    <path fill="none" stroke="#000000" stroke-linecap="round" stroke-linejoin="round" stroke-width="0.8889" d="M17.93413333333333 13.298488888888889c5.018266666666666 0 6.133466666666666 -1.0306666666666666 6.133466666666666 -2.111911111111111s-1.6727999999999998 -1.5712888888888887 -1.6727999999999998 -1.5712888888888887"></path>
    <path fill="none" stroke="#000000" stroke-linecap="round" stroke-linejoin="round" stroke-width="0.8889" d="M25.782577777777778 20.9c-1.96 0 -3.92 6.369999999999999 -3.92 10.29h-11.76c0 -3.92 -1.96 -10.29 -3.92 -10.29"></path>
    <path fill="none" stroke="#000000" stroke-linecap="round" stroke-linejoin="round" stroke-width="0.8889" d="m8.632577777777778 20.9 1.0622666666666665 0.7081777777777777c0.2512888888888889 0.1495111111111111 0.5642222222222222 0.1495111111111111 0.8154666666666666 0l0.6545333333333333 -0.43635555555555555c0.2512888888888889 -0.1495111111111111 0.5642222222222222 -0.1495111111111111 0.8154666666666666 0l0.6545333333333333 0.43635555555555555c0.2512888888888889 0.1495111111111111 0.5642222222222222 0.1495111111111111 0.8154666666666666 0l0.6545333333333333 -0.43635555555555555c0.2512888888888889 -0.1495111111111111 0.5642222222222222 -0.1495111111111111 0.8154666666666666 0l0.6545333333333333 0.43635555555555555c0.2512888888888889 0.1495111111111111 0.5642222222222222 0.1495111111111111 0.8154666666666666 0l0.6545333333333333 -0.43635555555555555c0.2512888888888889 -0.1495111111111111 0.5642222222222222 -0.1495111111111111 0.8154666666666666 0l0.6545333333333333 0.43635555555555555c0.2512888888888889 0.1495111111111111 0.5642222222222222 0.1495111111111111 0.8154666666666666 0l0.6545333333333333 -0.43635555555555555c0.2512888888888889 -0.1495111111111111 0.5642222222222222 -0.1495111111111111 0.8154666666666666 0l0.6545333333333333 0.43635555555555555c0.2512888888888889 0.1495111111111111 0.5642222222222222 0.1495111111111111 0.8154666666666666 0l1.0622666666666665 -0.7081777777777777"></path>
    <path fill="none" stroke="#000000" stroke-linecap="round" stroke-linejoin="round" stroke-width="0.8889" d="M7.162577777777777 13.06s-1.47 0 -1.47 1.96c0 1.47 1.47 3.92 4.409999999999999 3.92"></path>
    <path fill="none" stroke="#000000" stroke-linecap="round" stroke-linejoin="round" stroke-width="0.8889" d="M26.287955555555556 18.040666666666667c0.6530222222222222 -0.37777777777777777 1.4700888888888888 0.09297777777777777 1.4707555555555556 0.8473777777777778 0.00031111111111111107 0.35075555555555554 -0.18684444444444442 0.6749333333333333 -0.49075555555555556 0.85"></path>
    <path fill="none" stroke="#000000" stroke-linecap="round" stroke-linejoin="round" stroke-width="0.8889" d="M5.687688888888888 18.040666666666667c-0.47315555555555555 -0.23195555555555555 -1.0448888888888888 -0.07875555555555555 -1.3386666666666667 0.3586666666666667 -0.23191111111111112 0.47315555555555555 -0.07875555555555555 1.0448888888888888 0.3586666666666667 1.3387111111111112"></path>
    <path fill="none" stroke="#000000" stroke-linecap="round" stroke-linejoin="round" stroke-width="0.8889" d="M24.312577777777776 13.549999999999999s1.47 0.49 1.47 1.96 -0.98 3.4299999999999997 -2.94 3.4299999999999997"></path>
  </g>
</svg>