<svg id="Delete--Streamline-Openmoji" viewBox="0 0 32 32" xmlns="http://www.w3.org/2000/svg" height="32" width="32">
  <desc>
    Delete Streamline Emoji: https://streamlinehq.com
  </desc>
  <g id="color">
    <path fill="#ffffff" stroke="none" d="M25.884533333333334 4.0832H6.060444444444443v23.61408888888889c0 2.546 2.063911111111111 3.525422222222222 4.609911111111111 3.525422222222222h10.604266666666666c2.546 0 4.609911111111111 -0.9794222222222222 4.609911111111111 -3.525422222222222V4.0832Z" stroke-width="0.4444"></path>
    <path fill="#ffffff" stroke="none" stroke-linecap="round" stroke-linejoin="round" stroke-miterlimit="10" stroke-width="0.8889" d="M12.863999999999999 3.4559999999999995V0.9472h6.271999999999999V3.4559999999999995"></path>
    <path fill="#9b9b9a" stroke="none" d="M25.407999999999998 16.6272v12.933288888888889l-1.6934222222222222 1.492311111111111H14.1184Z" stroke-width="0.4444"></path>
    <path fill="#ffffff" stroke="none" stroke-linecap="round" stroke-linejoin="round" stroke-miterlimit="10" stroke-width="0.8889" d="M4.0832 3.4559999999999995h23.833599999999997v2.5088H4.0832Z"></path>
  </g>
  <g id="hair"></g>
  <g id="skin"></g>
  <g id="skin-shadow"></g>
  <g id="line">
    <path fill="none" stroke="#000000" stroke-linecap="round" stroke-linejoin="round" stroke-miterlimit="10" stroke-width="0.8889" d="M12.863999999999999 3.4559999999999995V0.9472h6.271999999999999V3.4559999999999995"></path>
    <path fill="none" stroke="#000000" stroke-linecap="round" stroke-linejoin="round" stroke-miterlimit="10" stroke-width="0.8889" d="M25.407999999999998 9.1008V28.544c0 1.3855555555555557 -1.1232444444444443 2.5088 -2.5088 2.5088H9.1008c-1.3855555555555557 0 -2.5088 -1.1232444444444443 -2.5088 -2.5088V9.1008"></path>
    <path fill="none" stroke="#000000" stroke-linecap="round" stroke-linejoin="round" stroke-miterlimit="10" stroke-width="0.8889" d="M4.0832 3.4559999999999995h23.833599999999997v2.5088H4.0832Z"></path>
    <path fill="none" stroke="#000000" stroke-linecap="round" stroke-linejoin="round" stroke-miterlimit="10" stroke-width="0.8889" d="M19.136 11.139199999999999v16.7776"></path>
    <path fill="none" stroke="#000000" stroke-linecap="round" stroke-linejoin="round" stroke-miterlimit="10" stroke-width="0.8889" d="M12.863999999999999 11.139199999999999v16.7776"></path>
  </g>
</svg>