<svg id="Disguised-Face--Streamline-Openmoji" viewBox="0 0 32 32" xmlns="http://www.w3.org/2000/svg" height="32" width="32">
  <desc>
    Disguised Face Streamline Emoji: https://streamlinehq.com
  </desc>
  <g id="line-supplement">
    <path d="M18.39382222222222 17.0388c0.39875555555555553 0.09506666666666666 0.7909333333333333 0.21595555555555554 1.1740444444444444 0.36195555555555553l0.02808888888888889 0.010844444444444445c2.142622222222222 2.1248444444444443 5.782044444444445 1.133422222222222 6.550888888888888 -1.7846222222222219 0.7688888888888888 -2.9179999999999997 -1.9094222222222221 -5.574088888888888 -4.820933333333333 -4.780933333333333 -0.7234666666666666 0.19706666666666667 -1.3752444444444445 0.5975555555555555 -1.8780000000000001 1.1538666666666666 -2.932933333333333 1.3283555555555555 -6.271999999999999 0.22075555555555554 -6.908488888888889 -0.014044444444444444 -2.033822222222222 -2.229244444444444 -5.718222222222222 -1.4208 -6.631866666666666 1.4551555555555553 -0.9136444444444444 2.876 1.6286666666666665 5.662533333333333 4.576133333333333 5.015777777777778 0.7261333333333333 -0.15933333333333333 1.3919555555555554 -0.5218222222222222 1.9198666666666666 -1.0452 0.01955555555555555 -0.0068 0.038711111111111106 -0.014666666666666666 0.05742222222222222 -0.0236 0.3018222222222222 -0.142 0.6137777777777778 -0.2613333333333333 0.9333333333333333 -0.3569777777777778s0.2786666666666667 -3.7507999999999995 2.5586666666666664 -3.7507999999999995 2.4408444444444446 3.758577777777777 2.4408444444444446 3.758577777777777Zm-8.729911111111111 0.20253333333333332c-2.011733333333333 0 -3.269111111111111 -2.177777777777778 -2.2632 -3.92 1.0058666666666665 -1.7422222222222221 3.520533333333333 -1.7422222222222221 4.5264 0 0.22937777777777776 0.39728888888888886 0.3501333333333333 0.8479111111111111 0.3501333333333333 1.3066666666666666 0 1.4432888888888888 -1.1700444444444444 2.6133333333333333 -2.6133333333333333 2.6133333333333333Zm12.67231111111111 0c-2.011733333333333 0 -3.269066666666667 -2.177777777777778 -2.2632 -3.92 1.0058666666666665 -1.7422222222222221 3.520533333333333 -1.7422222222222221 4.5264 0 0.22937777777777776 0.39728888888888886 0.3501333333333333 0.8479111111111111 0.3501333333333333 1.3066666666666666 0 1.4432888888888888 -1.1700444444444444 2.6133333333333333 -2.6133333333333333 2.6133333333333333Z" stroke-width="0.4444"></path>
  </g>
  <g id="color">
    <g id="color-2">
      <path fill="#fcea2b" d="M0.9734666666666667 16c0 11.567466666666666 12.522177777777777 18.797155555555552 22.53991111111111 13.013422222222221C28.162622222222222 26.329155555555555 31.026666666666667 21.368488888888887 31.026666666666667 16c0 -11.567466666666666 -12.522177777777777 -18.797155555555552 -22.53991111111111 -13.013422222222221C3.8375111111111107 5.670844444444444 0.9734666666666667 10.631511111111111 0.9734666666666667 16" stroke-width="0.4444"></path>
    </g>
    <path fill="#92d3f5" d="M6.42111111111111 14.627822222222221c-0.00004444444444444445 2.514666666666667 2.7221777777777776 4.0863555555555555 4.899955555555556 2.8289777777777774 1.010711111111111 -0.5835111111111111 1.6333777777777776 -1.6619111111111111 1.6333777777777776 -2.8289777777777774 0 -2.514711111111111 -2.722222222222222 -4.0863555555555555 -4.8999999999999995 -2.829022222222222 -1.010711111111111 0.5835111111111111 -1.6333777777777776 1.6619555555555554 -1.633333333333333 2.829022222222222" stroke-width="0.4444"></path>
    <path fill="#92d3f5" d="M19.09293333333333 14.627822222222221c0 2.514666666666667 2.722222222222222 4.0863555555555555 4.8999999999999995 2.8289777777777774 1.010711111111111 -0.5835111111111111 1.633333333333333 -1.6619111111111111 1.633333333333333 -2.8289777777777774 0 -2.514711111111111 -2.722222222222222 -4.0863555555555555 -4.8999999999999995 -2.829022222222222 -1.010711111111111 0.5835111111111111 -1.633333333333333 1.6619555555555554 -1.633333333333333 2.829022222222222" stroke-width="0.4444"></path>
    <path fill="#3f3f3f" d="M13.304355555555555 12.858977777777778s0 -4.853866666666667 -5.351866666666667 -4.853866666666667c0.062266666666666665 0.2415111111111111 0.1712 0.4685333333333333 0.3207555555555555 0.6681333333333334s-2.8331555555555554 -0.3207111111111111 -3.3409777777777774 0.8552888888888889l0.5078222222222222 0.6682222222222222c-0.6631999999999999 0.1775111111111111 -1.095688888888889 0.8148444444444444 -1.0156444444444443 1.4967555555555556 -0.036933333333333325 0.6520888888888888 0.46977777777777774 1.2069777777777777 1.1225333333333334 1.2292888888888887h1.3556s2.836 -3.6296 6.401777777777777 -0.06382222222222222Z" stroke-width="0.4444"></path>
    <path fill="#3f3f3f" d="M19.09293333333333 12.858977777777778s0 -4.853866666666667 5.351911111111111 -4.853866666666667c-0.06222222222222223 0.2415111111111111 -0.1712 0.4685333333333333 -0.3207111111111111 0.6681333333333334s2.8330666666666664 -0.3207111111111111 3.340888888888889 0.8552888888888889l-0.5078222222222222 0.6682222222222222c0.6631999999999999 0.1775111111111111 1.0957333333333332 0.8148444444444444 1.0156444444444443 1.4967555555555556 0.036933333333333325 0.6520888888888888 -0.46977777777777774 1.2069777777777777 -1.1225333333333334 1.2292888888888887h-1.3556s-2.8442222222222218 -3.3211999999999997 -6.401777777777777 -0.06382222222222222Z" stroke-width="0.4444"></path>
    <path d="M18.39382222222222 17.0388c0.39875555555555553 0.09506666666666666 0.7909333333333333 0.21595555555555554 1.1740444444444444 0.36195555555555553l0.02808888888888889 0.010844444444444445c2.142622222222222 2.1248444444444443 5.782044444444445 1.133422222222222 6.550888888888888 -1.7846222222222219 0.7688888888888888 -2.9179999999999997 -1.9094222222222221 -5.574088888888888 -4.820933333333333 -4.780933333333333 -0.7234666666666666 0.19706666666666667 -1.3752444444444445 0.5975555555555555 -1.8780000000000001 1.1538666666666666 -2.932933333333333 1.3283555555555555 -6.271999999999999 0.22075555555555554 -6.908488888888889 -0.014044444444444444 -2.033822222222222 -2.229244444444444 -5.718222222222222 -1.4208 -6.631866666666666 1.4551555555555553 -0.9136444444444444 2.876 1.6286666666666665 5.662533333333333 4.576133333333333 5.015777777777778 0.7261333333333333 -0.15933333333333333 1.3919555555555554 -0.5218222222222222 1.9198666666666666 -1.0452 0.01955555555555555 -0.0068 0.038711111111111106 -0.014666666666666666 0.05742222222222222 -0.0236 0.3018222222222222 -0.142 0.6137777777777778 -0.2613333333333333 0.9333333333333333 -0.3569777777777778s0.2786666666666667 -3.7507999999999995 2.5586666666666664 -3.7507999999999995 2.4408444444444446 3.758577777777777 2.4408444444444446 3.758577777777777Zm-8.729911111111111 0.20253333333333332c-2.011733333333333 0 -3.269111111111111 -2.177777777777778 -2.2632 -3.92 1.0058666666666665 -1.7422222222222221 3.520533333333333 -1.7422222222222221 4.5264 0 0.22937777777777776 0.39728888888888886 0.3501333333333333 0.8479111111111111 0.3501333333333333 1.3066666666666666 0 1.4432888888888888 -1.1700444444444444 2.6133333333333333 -2.6133333333333333 2.6133333333333333Zm12.67231111111111 0c-2.011733333333333 0 -3.269066666666667 -2.177777777777778 -2.2632 -3.92 1.0058666666666665 -1.7422222222222221 3.520533333333333 -1.7422222222222221 4.5264 0 0.22937777777777776 0.39728888888888886 0.3501333333333333 0.8479111111111111 0.3501333333333333 1.3066666666666666 0 1.4432888888888888 -1.1700444444444444 2.6133333333333333 -2.6133333333333333 2.6133333333333333Z" stroke-width="0.4444"></path>
    <path fill="#f1b31c" d="M18.570933333333333 22.311999999999998c0.3022666666666667 -0.35133333333333333 0.7365777777777778 -0.5616888888888889 1.1996 -0.5810222222222221 0.6130222222222221 0.020088888888888885 1.096311111111111 -0.5169777777777778 1.0118666666666667 -1.1245333333333332 -0.046177777777777776 -0.7905777777777777 -0.4814666666666666 -1.5067555555555556 -1.162 -1.9117777777777776 -0.7767111111111111 -0.6413777777777777 -1.2905777777777776 -1.545911111111111 -1.4438666666666666 -2.5414666666666665 -0.2708888888888889 -2.8984888888888887 -2.034711111111111 -3.0685777777777776 -2.2096444444444443 -3.0783111111111108h-0.025555555555555554c-0.16026666666666664 0.008311111111111111 -1.9398666666666666 0.16595555555555555 -2.2120444444444445 3.078444444444444 -0.15333333333333332 0.9955555555555556 -0.6672 1.9000888888888887 -1.4438666666666666 2.5414666666666665 -0.6805333333333332 0.4050222222222222 -1.1158666666666666 1.1212 -1.1620444444444442 1.9117777777777776 -0.08444444444444445 0.6076444444444444 0.39897777777777776 1.1447555555555555 1.0120888888888888 1.1245333333333332 0.4630222222222222 0.01933333333333333 0.8973333333333333 0.2296888888888889 1.1996 0.5809777777777777s2.319733333333333 3.763244444444444 5.159511111111111 0.23879999999999998Z" stroke-width="0.4444"></path>
    <path fill="#3f3f3f" d="M20.453777777777777 21.488977777777777s3.3207111111111107 0.045733333333333334 1.6552 2.8401777777777775c-0.3496888888888889 -0.2652 -0.7544 -0.4485777777777778 -1.1843555555555556 -0.5366666666666666s0.14804444444444445 1.9060444444444442 -2.294622222222222 2.109644444444444v-0.9253333333333332s-0.39466666666666667 1.3693777777777778 -2.677022222222222 1.3693777777777778h-0.010977777777777777c-2.282311111111111 0 -2.6770666666666663 -1.3693777777777778 -2.6770666666666663 -1.3693777777777778v0.9252444444444443c-2.4426666666666668 -0.20355555555555555 -2.294622222222222 -2.1096 -2.294622222222222 -2.1096 -0.42991111111111113 0.08808888888888888 -0.8346222222222222 0.27146666666666663 -1.1843111111111109 0.5366222222222222 -1.6654666666666667 -2.794222222222222 1.6552444444444443 -2.840133333333333 1.6552444444444443 -2.840133333333333l1.6979555555555554 0.6083555555555555c0.39684444444444444 1.227911111111111 1.5724888888888888 2.0332 2.8608 1.9595999999999998 1.312888888888889 0.044444444444444446 2.4935111111111112 -0.7941777777777776 2.8838666666666666 -2.0484444444444443Z" stroke-width="0.4444"></path>
  </g>
  <g id="line">
    <path fill="none" stroke="#000000" stroke-linecap="round" stroke-linejoin="round" stroke-width="0.8889" d="M0.9733333333333333 16c0 11.567555555555556 12.522222222222222 18.79724444444444 22.54 13.013466666666666C28.162622222222222 26.329199999999997 31.026666666666667 21.368488888888887 31.026666666666667 16c0 -11.567555555555556 -12.522222222222222 -18.79724444444444 -22.54 -13.013466666666666C3.8373777777777778 5.6708 0.9733333333333333 10.631511111111111 0.9733333333333333 16"></path>
    <path fill="none" stroke="#000000" stroke-linecap="round" stroke-linejoin="round" stroke-width="0.8889" d="M13.304355555555555 12.858977777777778s0 -4.853866666666667 -5.351866666666667 -4.853866666666667c0.062266666666666665 0.2415111111111111 0.1712 0.4685333333333333 0.3207555555555555 0.6681333333333334s-2.8331555555555554 -0.3207111111111111 -3.3409777777777774 0.8552888888888889l0.5078222222222222 0.6682222222222222c-0.6631999999999999 0.1775111111111111 -1.095688888888889 0.8148444444444444 -1.0156444444444443 1.4967555555555556 -0.036933333333333325 0.6520888888888888 0.46977777777777774 1.2069777777777777 1.1225333333333334 1.2292888888888887h1.3556"></path>
    <path fill="none" stroke="#000000" stroke-linecap="round" stroke-linejoin="round" stroke-width="0.8889" d="M19.09293333333333 12.858977777777778s0 -4.853866666666667 5.351911111111111 -4.853866666666667c-0.06222222222222223 0.2415111111111111 -0.1712 0.4685333333333333 -0.3207111111111111 0.6681333333333334s2.8330666666666664 -0.3207111111111111 3.340888888888889 0.8552888888888889l-0.5078222222222222 0.6682222222222222c0.6631999999999999 0.1775111111111111 1.0957333333333332 0.8148444444444444 1.0156444444444443 1.4967555555555556 0.036933333333333325 0.6520888888888888 -0.46977777777777774 1.2069777777777777 -1.1225333333333334 1.2292888888888887h-1.3556"></path>
    <path fill="none" stroke="#000000" stroke-linecap="round" stroke-linejoin="round" stroke-width="0.8889" d="M13.334977777777777 22.311999999999998c-0.3022222222222222 -0.35133333333333333 -0.7365333333333333 -0.5616888888888889 -1.1995555555555555 -0.5810222222222221 -0.6131555555555555 0.02022222222222222 -1.0965777777777777 -0.5168888888888888 -1.0120888888888888 -1.1245333333333332 0.046177777777777776 -0.7905777777777777 0.4814666666666666 -1.5067555555555556 1.162 -1.9117777777777776 0.7767111111111111 -0.6413777777777777 1.2905777777777776 -1.545911111111111 1.4438666666666666 -2.5414666666666665 0.2721777777777778 -2.9124888888888885 2.0514666666666668 -3.070133333333333 2.2120444444444445 -3.078444444444444h0.025555555555555554c0.17497777777777776 0.009733333333333332 1.9387555555555553 0.17982222222222222 2.2096444444444443 3.0783111111111108 0.15328888888888886 0.9955999999999999 0.6671555555555556 1.9000888888888887 1.4438666666666666 2.5414666666666665 0.6805777777777778 0.4050222222222222 1.1159555555555554 1.1212888888888888 1.1620888888888887 1.9119111111111111 0.08448888888888888 0.6076444444444444 -0.3989333333333333 1.1447555555555555 -1.0120888888888888 1.1245333333333332 -0.4630222222222222 0.01933333333333333 -0.8973333333333333 0.2296888888888889 -1.1995555555555555 0.5810222222222221"></path>
    <path fill="none" stroke="#000000" stroke-linecap="round" stroke-linejoin="round" stroke-width="0.8889" d="M13.16631111111111 20.812577777777776s-0.49928888888888884 3.1112888888888888 2.786666666666666 3.1112888888888888 2.7611555555555554 -3.1112888888888888 2.7611555555555554 -3.1112888888888888"></path>
    <path fill="none" stroke="#000000" stroke-linecap="round" stroke-linejoin="round" stroke-width="0.8889" d="M20.453777777777777 21.488977777777777s3.3207111111111107 0.045733333333333334 1.6552 2.8401777777777775c-0.3496888888888889 -0.2652 -0.7544 -0.4485777777777778 -1.1843555555555556 -0.5366666666666666s0.14804444444444445 1.9060444444444442 -2.294622222222222 2.109644444444444v-0.9253333333333332s-0.39466666666666667 1.3693777777777778 -2.677022222222222 1.3693777777777778h-0.010977777777777777c-2.282311111111111 0 -2.6770666666666663 -1.3693777777777778 -2.6770666666666663 -1.3693777777777778v0.9252444444444443c-2.4426666666666668 -0.20355555555555555 -2.294622222222222 -2.1096 -2.294622222222222 -2.1096 -0.42991111111111113 0.08808888888888888 -0.8346222222222222 0.27146666666666663 -1.1843111111111109 0.5366222222222222 -1.6654666666666667 -2.794222222222222 1.6552444444444443 -2.840133333333333 1.6552444444444443 -2.840133333333333"></path>
  </g>
</svg>