<svg id="Doughnut--Streamline-Openmoji" viewBox="0 0 32 32" xmlns="http://www.w3.org/2000/svg" height="32" width="32">
  <desc>
    Doughnut Streamline Emoji: https://streamlinehq.com
  </desc>
  <g id="color">
    <path fill="#fcea2b" stroke="none" d="M16 0.8426666666666666C7.628666666666667 0.8426666666666666 0.8426666666666666 7.6289333333333325 0.8426666666666666 16c0 8.370844444444444 6.786 15.157333333333332 15.157333333333332 15.157333333333332S31.15733333333333 24.370844444444444 31.15733333333333 16C31.15733333333333 7.6289333333333325 24.371333333333332 0.8426666666666666 16 0.8426666666666666Zm0 20.383999999999997c-2.8864444444444444 0 -5.226666666666667 -2.340222222222222 -5.226666666666667 -5.226666666666667S13.113555555555555 10.773333333333332 16 10.773333333333332 21.226666666666663 13.113555555555555 21.226666666666663 16 18.886444444444443 21.226666666666663 16 21.226666666666663Z" stroke-width="0.4444"></path>
    <path fill="none" stroke="none" d="M16 21.226666666666663c2.8864444444444444 0 5.226666666666667 -2.340222222222222 5.226666666666667 -5.226666666666667S18.886444444444443 10.773333333333332 16 10.773333333333332 10.773333333333332 13.113555555555555 10.773333333333332 16c0 1.425111111111111 0.5721777777777778 2.7159555555555555 1.4975555555555555 3.658666666666666h0.2501333333333333c0.9484 0.9667111111111111 2.267822222222222 1.5679999999999998 3.7291111111111106 1.5679999999999998Z" stroke-width="0.4444"></path>
    <path fill="none" stroke="none" d="M21.226666666666663 16c0 -2.8864444444444444 -2.340222222222222 -5.226666666666667 -5.226666666666667 -5.226666666666667S10.773333333333332 13.113555555555555 10.773333333333332 16c0 1.425111111111111 0.5721777777777778 2.7159555555555555 1.4975555555555555 3.658666666666666C13.219244444444444 20.625377777777775 14.538666666666668 21.226666666666663 16 21.226666666666663c2.8864444444444444 0 5.226666666666667 -2.340222222222222 5.226666666666667 -5.226666666666667Z" stroke-width="0.4444"></path>
    <path fill="#f1b31c" stroke="none" d="M16 0.8426666666666666C7.628666666666667 0.8426666666666666 0.8426666666666666 7.6289333333333325 0.8426666666666666 16c0 0.8917333333333334 0.08168888888888888 1.7639999999999998 0.22920000000000001 2.6133333333333333H2.4106666666666667c1.4429333333333332 0 2.6133333333333333 1.1698666666666666 2.6133333333333333 2.6133333333333333s1.1703999999999999 2.6133333333333333 2.6133333333333333 2.6133333333333333 2.6133333333333333 -1.1698666666666666 2.6133333333333333 -2.6133333333333333c0 -0.8656444444444444 0.7018222222222221 -1.5679999999999998 1.5679999999999998 -1.5679999999999998h0.45222222222222225C11.34551111111111 18.715955555555556 10.773333333333332 17.42511111111111 10.773333333333332 16c0 -2.8864444444444444 2.340222222222222 -5.226666666666667 5.226666666666667 -5.226666666666667S21.226666666666663 13.113555555555555 21.226666666666663 16 18.886444444444443 21.226666666666663 16 21.226666666666663c1.4429333333333332 0 2.6133333333333333 1.1698666666666666 2.6133333333333333 2.6133333333333333s1.1703999999999999 2.6133333333333333 2.6133333333333333 2.6133333333333333 2.6133333333333333 -1.1698666666666666 2.6133333333333333 -2.6133333333333333c0 -0.8656444444444444 0.7018222222222221 -1.5679999999999998 1.5679999999999998 -1.5679999999999998s1.5679999999999998 0.7023555555555555 1.5679999999999998 1.5679999999999998c0 0.6385333333333333 0.43999999999999995 1.2132444444444443 0.9901777777777777 1.4577777777777776C29.964 22.7304 31.15733333333333 19.505511111111108 31.15733333333333 16 31.15733333333333 7.6289333333333325 24.371333333333332 0.8426666666666666 16 0.8426666666666666Z" stroke-width="0.4444"></path>
    <path fill="#ffffff" stroke="none" stroke-linecap="round" stroke-linejoin="round" stroke-miterlimit="10" stroke-width="0.8889" d="M3.4559999999999995 13.386666666666667c0 0.804711111111111 0.8711111111111111 1.3076444444444444 1.5679999999999998 0.9052888888888889 0.3234222222222222 -0.18675555555555556 0.5226666666666666 -0.5318222222222222 0.5226666666666666 -0.9052888888888889 0 -0.804711111111111 -0.8711111111111111 -1.3076444444444444 -1.5679999999999998 -0.9052888888888889 -0.3234222222222222 0.18675555555555556 -0.5226666666666666 0.5318222222222222 -0.5226666666666666 0.9052888888888889"></path>
    <path fill="#ffffff" stroke="none" stroke-linecap="round" stroke-linejoin="round" stroke-miterlimit="10" stroke-width="0.8889" d="M6.592 17.567999999999998c0 0.804711111111111 0.8711111111111111 1.3076444444444444 1.5679999999999998 0.9052888888888889 0.3234222222222222 -0.18675555555555556 0.5226666666666666 -0.5318222222222222 0.5226666666666666 -0.9052888888888889 0 -0.804711111111111 -0.8711111111111111 -1.3076444444444444 -1.5679999999999998 -0.9052888888888889 -0.3234222222222222 0.18675555555555556 -0.5226666666666666 0.5318222222222222 -0.5226666666666666 0.9052888888888889"></path>
    <path fill="#ffffff" stroke="none" stroke-linecap="round" stroke-linejoin="round" stroke-miterlimit="10" stroke-width="0.8889" d="M23.31733333333333 18.090666666666667c0 0.804711111111111 0.8711111111111111 1.3076444444444444 1.5679999999999998 0.9052888888888889 0.3234222222222222 -0.18675555555555556 0.5226666666666666 -0.5318222222222222 0.5226666666666666 -0.9052888888888889 0 -0.804711111111111 -0.8711111111111111 -1.3076444444444444 -1.5679999999999998 -0.9052888888888889 -0.3234222222222222 0.18675555555555556 -0.5226666666666666 0.5318222222222222 -0.5226666666666666 0.9052888888888889"></path>
    <path fill="#ffffff" stroke="none" stroke-linecap="round" stroke-linejoin="round" stroke-miterlimit="10" stroke-width="0.8889" d="M26.453333333333333 13.909333333333333c0 0.804711111111111 0.8711111111111111 1.3076444444444444 1.5679999999999998 0.9052888888888889 0.3234222222222222 -0.18675555555555556 0.5226666666666666 -0.5318222222222222 0.5226666666666666 -0.9052888888888889 0 -0.804711111111111 -0.8711111111111111 -1.3076444444444444 -1.5679999999999998 -0.9052888888888889 -0.3234222222222222 0.18675555555555556 -0.5226666666666666 0.5318222222222222 -0.5226666666666666 0.9052888888888889"></path>
    <path fill="#ffffff" stroke="none" stroke-linecap="round" stroke-linejoin="round" stroke-miterlimit="10" stroke-width="0.8889" d="M22.272 10.250666666666666c0 0.804711111111111 0.8711111111111111 1.3076444444444444 1.5679999999999998 0.9052888888888889 0.3234222222222222 -0.18675555555555556 0.5226666666666666 -0.5318222222222222 0.5226666666666666 -0.9052888888888889 0 -0.804711111111111 -0.8711111111111111 -1.3076444444444444 -1.5679999999999998 -0.9052888888888889 -0.3234222222222222 0.18675555555555556 -0.5226666666666666 0.5318222222222222 -0.5226666666666666 0.9052888888888889"></path>
    <path fill="#ffffff" stroke="none" stroke-linecap="round" stroke-linejoin="round" stroke-miterlimit="10" stroke-width="0.8889" d="M18.090666666666667 4.501333333333333c0 0.804711111111111 0.8711111111111111 1.3076444444444444 1.5679999999999998 0.9052888888888889 0.3234222222222222 -0.18675555555555556 0.5226666666666666 -0.5318222222222222 0.5226666666666666 -0.9052888888888889 0 -0.804711111111111 -0.8711111111111111 -1.3076444444444444 -1.5679999999999998 -0.9052888888888889 -0.3234222222222222 0.18675555555555556 -0.5226666666666666 0.5318222222222222 -0.5226666666666666 0.9052888888888889"></path>
    <path fill="#ffffff" stroke="none" stroke-linecap="round" stroke-linejoin="round" stroke-miterlimit="10" stroke-width="0.8889" d="M13.386666666666667 7.637333333333333c0 0.804711111111111 0.8711111111111111 1.3076444444444444 1.5679999999999998 0.9052888888888889 0.3234222222222222 -0.18675555555555556 0.5226666666666666 -0.5318222222222222 0.5226666666666666 -0.9052888888888889 0 -0.804711111111111 -0.8711111111111111 -1.3076444444444444 -1.5679999999999998 -0.9052888888888889 -0.3234222222222222 0.18675555555555556 -0.5226666666666666 0.5318222222222222 -0.5226666666666666 0.9052888888888889"></path>
    <path fill="#ffffff" stroke="none" stroke-linecap="round" stroke-linejoin="round" stroke-miterlimit="10" stroke-width="0.8889" d="M7.114666666666666 7.637333333333333c0 0.804711111111111 0.8711111111111111 1.3076444444444444 1.5679999999999998 0.9052888888888889 0.3234222222222222 -0.18675555555555556 0.5226666666666666 -0.5318222222222222 0.5226666666666666 -0.9052888888888889 0 -0.804711111111111 -0.8711111111111111 -1.3076444444444444 -1.5679999999999998 -0.9052888888888889 -0.3234222222222222 0.18675555555555556 -0.5226666666666666 0.5318222222222222 -0.5226666666666666 0.9052888888888889"></path>
  </g>
  <g id="hair"></g>
  <g id="skin"></g>
  <g id="skin-shadow"></g>
  <g id="line">
    <path fill="none" stroke="#000000" stroke-linecap="round" stroke-linejoin="round" stroke-miterlimit="10" stroke-width="0.8889" d="M3.4559999999999995 13.386666666666667c0 0.804711111111111 0.8711111111111111 1.3076444444444444 1.5679999999999998 0.9052888888888889 0.3234222222222222 -0.18675555555555556 0.5226666666666666 -0.5318222222222222 0.5226666666666666 -0.9052888888888889 0 -0.804711111111111 -0.8711111111111111 -1.3076444444444444 -1.5679999999999998 -0.9052888888888889 -0.3234222222222222 0.18675555555555556 -0.5226666666666666 0.5318222222222222 -0.5226666666666666 0.9052888888888889"></path>
    <path fill="none" stroke="#000000" stroke-linecap="round" stroke-linejoin="round" stroke-miterlimit="10" stroke-width="0.8889" d="M6.592 17.567999999999998c0 0.804711111111111 0.8711111111111111 1.3076444444444444 1.5679999999999998 0.9052888888888889 0.3234222222222222 -0.18675555555555556 0.5226666666666666 -0.5318222222222222 0.5226666666666666 -0.9052888888888889 0 -0.804711111111111 -0.8711111111111111 -1.3076444444444444 -1.5679999999999998 -0.9052888888888889 -0.3234222222222222 0.18675555555555556 -0.5226666666666666 0.5318222222222222 -0.5226666666666666 0.9052888888888889"></path>
    <path fill="none" stroke="#000000" stroke-linecap="round" stroke-linejoin="round" stroke-miterlimit="10" stroke-width="0.8889" d="M23.31733333333333 18.090666666666667c0 0.804711111111111 0.8711111111111111 1.3076444444444444 1.5679999999999998 0.9052888888888889 0.3234222222222222 -0.18675555555555556 0.5226666666666666 -0.5318222222222222 0.5226666666666666 -0.9052888888888889 0 -0.804711111111111 -0.8711111111111111 -1.3076444444444444 -1.5679999999999998 -0.9052888888888889 -0.3234222222222222 0.18675555555555556 -0.5226666666666666 0.5318222222222222 -0.5226666666666666 0.9052888888888889"></path>
    <path fill="none" stroke="#000000" stroke-linecap="round" stroke-linejoin="round" stroke-miterlimit="10" stroke-width="0.8889" d="M26.453333333333333 13.909333333333333c0 0.804711111111111 0.8711111111111111 1.3076444444444444 1.5679999999999998 0.9052888888888889 0.3234222222222222 -0.18675555555555556 0.5226666666666666 -0.5318222222222222 0.5226666666666666 -0.9052888888888889 0 -0.804711111111111 -0.8711111111111111 -1.3076444444444444 -1.5679999999999998 -0.9052888888888889 -0.3234222222222222 0.18675555555555556 -0.5226666666666666 0.5318222222222222 -0.5226666666666666 0.9052888888888889"></path>
    <path fill="none" stroke="#000000" stroke-linecap="round" stroke-linejoin="round" stroke-miterlimit="10" stroke-width="0.8889" d="M22.272 10.250666666666666c0 0.804711111111111 0.8711111111111111 1.3076444444444444 1.5679999999999998 0.9052888888888889 0.3234222222222222 -0.18675555555555556 0.5226666666666666 -0.5318222222222222 0.5226666666666666 -0.9052888888888889 0 -0.804711111111111 -0.8711111111111111 -1.3076444444444444 -1.5679999999999998 -0.9052888888888889 -0.3234222222222222 0.18675555555555556 -0.5226666666666666 0.5318222222222222 -0.5226666666666666 0.9052888888888889"></path>
    <path fill="none" stroke="#000000" stroke-linecap="round" stroke-linejoin="round" stroke-miterlimit="10" stroke-width="0.8889" d="M18.090666666666667 4.501333333333333c0 0.804711111111111 0.8711111111111111 1.3076444444444444 1.5679999999999998 0.9052888888888889 0.3234222222222222 -0.18675555555555556 0.5226666666666666 -0.5318222222222222 0.5226666666666666 -0.9052888888888889 0 -0.804711111111111 -0.8711111111111111 -1.3076444444444444 -1.5679999999999998 -0.9052888888888889 -0.3234222222222222 0.18675555555555556 -0.5226666666666666 0.5318222222222222 -0.5226666666666666 0.9052888888888889"></path>
    <path fill="none" stroke="#000000" stroke-linecap="round" stroke-linejoin="round" stroke-miterlimit="10" stroke-width="0.8889" d="M13.386666666666667 7.637333333333333c0 0.804711111111111 0.8711111111111111 1.3076444444444444 1.5679999999999998 0.9052888888888889 0.3234222222222222 -0.18675555555555556 0.5226666666666666 -0.5318222222222222 0.5226666666666666 -0.9052888888888889 0 -0.804711111111111 -0.8711111111111111 -1.3076444444444444 -1.5679999999999998 -0.9052888888888889 -0.3234222222222222 0.18675555555555556 -0.5226666666666666 0.5318222222222222 -0.5226666666666666 0.9052888888888889"></path>
    <path fill="none" stroke="#000000" stroke-linecap="round" stroke-linejoin="round" stroke-miterlimit="10" stroke-width="0.8889" d="M7.114666666666666 7.637333333333333c0 0.804711111111111 0.8711111111111111 1.3076444444444444 1.5679999999999998 0.9052888888888889 0.3234222222222222 -0.18675555555555556 0.5226666666666666 -0.5318222222222222 0.5226666666666666 -0.9052888888888889 0 -0.804711111111111 -0.8711111111111111 -1.3076444444444444 -1.5679999999999998 -0.9052888888888889 -0.3234222222222222 0.18675555555555556 -0.5226666666666666 0.5318222222222222 -0.5226666666666666 0.9052888888888889"></path>
    <path fill="none" stroke="#000000" stroke-linecap="round" stroke-linejoin="round" stroke-miterlimit="10" stroke-width="0.8889" d="M0.8426666666666666 16c0 11.668133333333332 12.63111111111111 18.96071111111111 22.735999999999997 13.126622222222222C28.268355555555555 26.41902222222222 31.15733333333333 21.4152 31.15733333333333 16c0 -11.668133333333332 -12.63111111111111 -18.96071111111111 -22.735999999999997 -13.126622222222222C3.7316444444444445 5.580977777777777 0.8426666666666666 10.5848 0.8426666666666666 16"></path>
    <path fill="none" stroke="#000000" stroke-linecap="round" stroke-linejoin="round" stroke-miterlimit="10" stroke-width="0.8889" d="M10.773333333333332 16c0 4.023511111111111 4.355555555555556 6.538177777777777 7.84 4.5264444444444445 1.6171555555555555 -0.9336888888888888 2.6133333333333333 -2.6591555555555555 2.6133333333333333 -4.5264444444444445 0 -4.023511111111111 -4.355555555555556 -6.538177777777777 -7.84 -4.5264444444444445 -1.6171555555555555 0.9336888888888888 -2.6133333333333333 2.6591555555555555 -2.6133333333333333 4.5264444444444445"></path>
    <path fill="none" stroke="#000000" stroke-linecap="round" stroke-linejoin="round" stroke-miterlimit="10" stroke-width="0.8889" d="M1.3653333333333333 18.613333333333333h1.0453333333333332c1.4429333333333332 0 2.6133333333333333 1.1698666666666666 2.6133333333333333 2.6133333333333333s1.1703999999999999 2.6133333333333333 2.6133333333333333 2.6133333333333333 2.6133333333333333 -1.1698666666666666 2.6133333333333333 -2.6133333333333333c0 -0.8656444444444444 0.7018222222222221 -1.5679999999999998 1.5679999999999998 -1.5679999999999998h0.3486222222222222"></path>
    <path fill="none" stroke="#000000" stroke-linecap="round" stroke-linejoin="round" stroke-miterlimit="10" stroke-width="0.8889" d="M27.92995555555555 25.282933333333332c-0.5608888888888889 -0.23835555555555554 -0.9539555555555554 -0.7951999999999999 -0.9539555555555554 -1.4429333333333332 0 -0.8656444444444444 -0.7018222222222221 -1.5679999999999998 -1.5679999999999998 -1.5679999999999998s-1.5679999999999998 0.7023555555555555 -1.5679999999999998 1.5679999999999998c0 1.4434666666666665 -1.1703999999999999 2.6133333333333333 -2.6133333333333333 2.6133333333333333s-2.6133333333333333 -1.1698666666666666 -2.6133333333333333 -2.6133333333333333 -1.1703999999999999 -2.6133333333333333 -2.6133333333333333 -2.6133333333333333"></path>
  </g>
</svg>