<svg id="Dragon-Face--Streamline-Openmoji" viewBox="0 0 32 32" xmlns="http://www.w3.org/2000/svg" height="32" width="32">
  <desc>
    Dragon Face Streamline Emoji: https://streamlinehq.com
  </desc>
  <g id="color">
    <path fill="#5c9e31" stroke="#5c9e31" stroke-linecap="round" stroke-linejoin="round" stroke-miterlimit="10" stroke-width="0.8" d="M25.223511111111108 14.462755555555557c4.919244444444445 -2.4595999999999996 4.919244444444445 -5.534133333333333 4.919244444444445 -5.534133333333333L25.83844444444444 10.773333333333332c2.4595999999999996 -3.074488888888889 1.2297777777777776 -6.763911111111111 1.2297777777777776 -6.763911111111111 -1.2297777777777776 2.4595999999999996 -3.074488888888889 3.074488888888889 -3.074488888888889 3.074488888888889 -2.4595999999999996 -3.6893777777777776 -6.149022222222222 -3.6893777777777776 -6.149022222222222 -3.6893777777777776L16 0.9348888888888888l-1.844711111111111 2.4596444444444443c-3.689422222222222 0 -6.149022222222222 3.6893777777777776 -6.149022222222222 3.6893777777777776 -2.4595999999999996 -0.6148888888888888 -3.074488888888889 -3.074488888888889 -3.074488888888889 -3.074488888888889C4.316844444444444 9.54351111111111 6.776488888888888 10.773333333333332 6.776488888888888 10.773333333333332l-4.304311111111111 -1.2298222222222222c1.2297777777777776 2.4596444444444443 4.304311111111111 4.304355555555555 4.304311111111111 4.304355555555555 -1.844711111111111 1.2297777777777776 -3.689422222222222 0.6148888888888888 -3.689422222222222 0.6148888888888888 1.844711111111111 3.074488888888889 4.304311111111111 3.074488888888889 4.304311111111111 3.074488888888889h17.217244444444443c4.304311111111111 0 4.919244444444445 -3.074488888888889 4.919244444444445 -3.074488888888889 -3.074533333333333 0.6148888888888888 -4.304355555555555 0 -4.304355555555555 0Z"></path>
    <path fill="#b1cc33" stroke="#b1cc33" stroke-linecap="round" stroke-linejoin="round" stroke-miterlimit="10" stroke-width="0.8889" d="M9.850977777777777 17.537244444444443s0 -0.6148888888888888 2.492622222222222 -0.5709777777777777c0 0 3.656711111111111 -2.4378666666666664 7.313466666666667 0 0 0 2.492 0.5818666666666666 2.492 1.8008 0 0 2.4595999999999996 1.844711111111111 1.1647555555555553 3.684222222222222 0 0 0 2.4378666666666664 -3.656711111111111 4.875644444444444 0 0 -2.437822222222222 1.218888888888889 -7.313422222222222 0 0 0 -4.468133333333333 -3.7324888888888883 -3.7224444444444447 -6.715155555555555 0.6148444444444444 -2.4595999999999996 1.2297333333333333 -3.074533333333333 1.2297333333333333 -3.074533333333333Z"></path>
    <path fill="#ea5a47" stroke="#ea5a47" stroke-linecap="round" stroke-linejoin="round" stroke-miterlimit="10" stroke-width="0.8889" d="M14.770177777777777 24.301155555555553s0 6.149022222222222 -1.2297777777777776 6.763955555555555c0 0 2.4595999999999996 -0.6149333333333332 2.4595999999999996 -3.074533333333333 0 0 0.6148888888888888 2.4595999999999996 2.4595999999999996 3.074533333333333 0 0 -1.844711111111111 -4.304311111111111 -1.2297777777777776 -6.763955555555555h-2.4596444444444443Z"></path>
    <path fill="#ffffff" stroke="none" d="M12.92551111111111 22.456488888888888v2.4595999999999996c-1.844711111111111 -1.844711111111111 -1.844711111111111 -4.304311111111111 -1.844711111111111 -4.304311111111111s4.919199999999999 4.304311111111111 9.838399999999998 0c0 0 0.6149333333333332 3.074488888888889 -1.844711111111111 4.304311111111111v-2.4595999999999996" stroke-width="0.4444"></path>
  </g>
  <g id="hair"></g>
  <g id="skin"></g>
  <g id="skin-shadow"></g>
  <g id="line">
    <path fill="none" stroke="#000000" stroke-linecap="round" stroke-linejoin="round" stroke-miterlimit="10" stroke-width="0.8889" d="M12.92551111111111 22.456488888888888v2.4595999999999996c-1.844711111111111 -1.844711111111111 -1.844711111111111 -4.304311111111111 -1.844711111111111 -4.304311111111111s4.919199999999999 4.304311111111111 9.838399999999998 0c0 0 0.6149333333333332 3.074488888888889 -1.844711111111111 4.304311111111111v-2.4595999999999996"></path>
    <path fill="none" stroke="#000000" stroke-linecap="round" stroke-linejoin="round" stroke-miterlimit="10" stroke-width="0.8889" d="M10.465866666666667 8.313733333333333S14.770177777777777 9.54351111111111 16 13.232933333333333c0 0 1.2298222222222222 -4.304311111111111 6.149022222222222 -4.919199999999999"></path>
    <path fill="#000000" stroke="none" d="M10.465866666666667 12.618044444444443c0 0.9467111111111111 1.0248444444444442 1.5383999999999998 1.844711111111111 1.0650222222222223 0.3805333333333333 -0.21968888888888888 0.6149333333333332 -0.6256444444444443 0.6149333333333332 -1.0650222222222223 0 -0.9467111111111111 -1.0248444444444442 -1.5383999999999998 -1.844711111111111 -1.0650666666666666 -0.3805333333333333 0.21968888888888888 -0.6149333333333332 0.6256888888888889 -0.6149333333333332 1.0650666666666666" stroke-width="0.4444"></path>
    <path fill="#000000" stroke="none" d="M19.074533333333335 12.618044444444443c0 0.9467111111111111 1.0248 1.5383999999999998 1.8446666666666667 1.0650222222222223 0.3805333333333333 -0.21968888888888888 0.6149333333333332 -0.6256444444444443 0.6149333333333332 -1.0650222222222223 0 -0.9467111111111111 -1.0248444444444442 -1.5383999999999998 -1.844711111111111 -1.0650666666666666 -0.3805333333333333 0.21968888888888888 -0.6148888888888888 0.6256888888888889 -0.6148888888888888 1.0650666666666666" stroke-width="0.4444"></path>
    <path fill="#000000" stroke="none" d="M14.155288888888888 18.152177777777776c0 0.4733333333333333 0.5124444444444445 0.7691555555555555 0.9223555555555555 0.5324888888888888 0.19026666666666664 -0.10982222222222221 0.3074666666666666 -0.3128444444444444 0.3074666666666666 -0.5324888888888888 0 -0.47337777777777773 -0.5124444444444445 -0.7691999999999999 -0.9223555555555555 -0.5325333333333333 -0.19026666666666664 0.10982222222222221 -0.3074666666666666 0.3128444444444444 -0.3074666666666666 0.5325333333333333" stroke-width="0.4444"></path>
    <path fill="#000000" stroke="none" d="M16.61488888888889 18.152177777777776c0 0.4733333333333333 0.5124444444444445 0.7691555555555555 0.9223555555555555 0.5324888888888888 0.19026666666666664 -0.10982222222222221 0.3074666666666666 -0.3128444444444444 0.3074666666666666 -0.5324888888888888 0 -0.47337777777777773 -0.5124444444444445 -0.7691999999999999 -0.9223555555555555 -0.5325333333333333 -0.19026666666666664 0.10982222222222221 -0.3074666666666666 0.3128444444444444 -0.3074666666666666 0.5325333333333333" stroke-width="0.4444"></path>
    <path fill="none" stroke="#000000" stroke-linecap="round" stroke-linejoin="round" stroke-miterlimit="10" stroke-width="0.8889" d="M14.770177777777777 24.301155555555553s0 6.149022222222222 -1.2297777777777776 6.763955555555555c0 0 2.4595999999999996 -0.6149333333333332 2.4595999999999996 -3.074533333333333 0 0 0.6148888888888888 2.4595999999999996 2.4595999999999996 3.074533333333333 0 0 -1.844711111111111 -4.304311111111111 -1.2297777777777776 -6.763955555555555"></path>
    <path fill="none" stroke="#000000" stroke-linecap="round" stroke-linejoin="round" stroke-miterlimit="10" stroke-width="0.8889" d="M7.391377777777778 17.537244444444443s-2.4595999999999996 0 -4.304311111111111 -3.074488888888889c0 0 1.844711111111111 0.6148888888888888 3.689422222222222 -0.6149333333333332 0 0 -3.074533333333333 -1.8446666666666667 -4.304311111111111 -4.304311111111111l4.304311111111111 1.2298222222222222s-2.4596444444444443 -1.2298222222222222 -1.844711111111111 -6.763911111111111c0 0 0.6148888888888888 2.4595999999999996 3.074488888888889 3.074488888888889 0 0 2.4595999999999996 -3.689422222222222 6.149022222222222 -3.689422222222222L16 0.9348888888888888l1.844711111111111 2.4595999999999996s3.689422222222222 0 6.149022222222222 3.689422222222222c0 0 1.844711111111111 -0.6148888888888888 3.074488888888889 -3.074488888888889 0 0 1.2298222222222222 3.689422222222222 -1.2297777777777776 6.763911111111111l4.304311111111111 -1.844711111111111s0 3.074533333333333 -4.919244444444445 5.534133333333333c0 0 1.2298222222222222 0.6148888888888888 4.304355555555555 0 0 0 -0.6149333333333332 3.074488888888889 -4.919244444444445 3.074488888888889"></path>
    <path fill="none" stroke="#000000" stroke-linecap="round" stroke-linejoin="round" stroke-miterlimit="10" stroke-width="0.8889" d="M9.236088888888888 18.152177777777776s-0.6148888888888888 -1.844711111111111 3.074488888888889 -1.2298222222222222c0 0 3.689422222222222 -3.074533333333333 7.378844444444444 0 0 0 3.074488888888889 -0.6148888888888888 3.074488888888889 1.2298222222222222"></path>
    <path fill="none" stroke="#000000" stroke-linecap="round" stroke-linejoin="round" stroke-miterlimit="10" stroke-width="0.8889" d="M11.695688888888888 18.76706666666667s-3.689422222222222 -0.6148888888888888 -5.534133333333333 1.844711111111111 -3.6893777777777776 2.4595999999999996 -4.919199999999999 1.2297777777777776"></path>
    <path fill="none" stroke="#000000" stroke-linecap="round" stroke-linejoin="round" stroke-miterlimit="10" stroke-width="0.8889" d="M20.304311111111108 18.76706666666667s3.689422222222222 -0.6148888888888888 5.534133333333333 1.844711111111111 3.6893777777777776 2.4595999999999996 4.919199999999999 1.2297777777777776"></path>
    <path fill="none" stroke="#000000" stroke-linecap="round" stroke-linejoin="round" stroke-miterlimit="10" stroke-width="0.8889" d="M8.19991111111111 19.118355555555556s-0.8085333333333332 6.412622222222222 4.110666666666667 8.257333333333333"></path>
    <path fill="none" stroke="#000000" stroke-linecap="round" stroke-linejoin="round" stroke-miterlimit="10" stroke-width="0.8889" d="M24.109822222222224 19.2484s-0.11608888888888888 6.282577777777777 -4.4204 8.127288888888888"></path>
    <path fill="none" stroke="#000000" stroke-linecap="round" stroke-linejoin="round" stroke-miterlimit="10" stroke-width="0.8889" d="M12.92551111111111 22.456488888888888v2.4595999999999996c-1.844711111111111 -1.844711111111111 -1.844711111111111 -4.304311111111111 -1.844711111111111 -4.304311111111111s4.919199999999999 4.304311111111111 9.838399999999998 0c0 0 0.6149333333333332 3.074488888888889 -1.844711111111111 4.304311111111111v-2.4595999999999996"></path>
  </g>
</svg>