<svg id="Duck--Streamline-Openmoji" viewBox="0 0 32 32" xmlns="http://www.w3.org/2000/svg" height="32" width="32">
  <desc>
    Duck Streamline Emoji: https://streamlinehq.com
  </desc>
  <g id="color">
    <path fill="#6a462f" stroke="none" d="M15.431733333333334 31.10062222222222h4.649066666666666s1.6408444444444443 0.27346666666666664 -0.2735111111111111 -1.6408444444444443c0 0 0.2735111111111111 -0.5469777777777777 0.2735111111111111 -0.8204s0.5925333333333332 -0.5469777777777777 0.43297777777777774 -1.093911111111111" stroke-width="0.4444"></path>
    <path fill="#6a462f" stroke="#6a462f" stroke-miterlimit="10" stroke-width="0.8889" d="M17.16444444444444 29.74706666666666c0.6116444444444444 -0.08257777777777776 1.0543999999999998 -0.22915555555555553 1.275422222222222 -0.560711111111111 0.5469777777777777 -0.8204 0.5469777777777777 -0.5469777777777777 0.2735111111111111 -1.093911111111111 -0.2735111111111111 -0.5469777777777777 0 -1.0938666666666665 0 -1.0938666666666665l2.3514222222222223 0.3473333333333333"></path>
    <path fill="#a57939" stroke="none" d="M14.991644444444445 25.704266666666665c5.101822222222222 2.566622222222222 15.991599999999998 2.0575555555555556 13.854088888888889 -0.07999999999999999 -2.4049777777777774 -2.4049777777777774 -2.7484888888888888 -3.4356888888888886 -3.0920888888888887 -5.497066666666666s-3.0920888888888887 -6.184177777777777 -7.901999999999999 -7.214888888888888c-4.809955555555555 -1.0307111111111111 0 -7.558444444444444 -3.4356888888888886 -10.650533333333332s-7.558444444444444 -0.34355555555555556 -7.558444444444444 1.3742666666666665 -1.7178222222222221 2.7484888888888888 -1.7178222222222221 2.7484888888888888c-0.6871111111111111 0.34359999999999996 -5.153466666666667 2.0613777777777775 0.6871111111111111 2.0613777777777775s5.497066666666666 1.3742666666666665 3.7791999999999994 2.4049777777777774c0 0 -5.8552888888888885 2.4840444444444443 -4.252488888888888 7.826666666666666 1.6253333333333333 5.417688888888889 9.749555555555554 7.290222222222221 9.749555555555554 7.290222222222221s-0.34359999999999996 0.6871555555555555 0 1.3742666666666665 -0.19817777777777779 0.8853777777777777 -0.8853333333333333 1.916c-0.6871555555555555 1.0307555555555554 -2.2067555555555556 0.14537777777777777 -3.581066666666666 0.4889777777777778 -1.054 0.2635111111111111 -1.7178222222222221 1.3742222222222222 0.34359999999999996 1.3742222222222222h5.840577777777777s2.0613777777777775 0.34359999999999996 -0.34355555555555556 -2.0613777777777775c0 0 0.34355555555555556 -0.6871111111111111 0.34355555555555556 -1.0307111111111111s0.7444 -0.6871111111111111 0.5439999999999999 -1.3742222222222222" stroke-width="0.4444"></path>
    <path fill="#5c9e31" stroke="none" d="M17.851644444444446 12.91231111111111c-4.809955555555555 -1.0307111111111111 0 -7.558444444444444 -3.4356888888888886 -10.650533333333332s-7.558444444444444 -0.34355555555555556 -7.558444444444444 1.3742666666666665 -1.7178222222222221 2.7484888888888888 -1.7178222222222221 2.7484888888888888c-0.6871555555555555 0.34359999999999996 -5.153466666666667 2.0613777777777775 0.6871111111111111 2.0613777777777775s5.497066666666666 1.3742666666666665 3.7791999999999994 2.4049777777777774" stroke-width="0.4444"></path>
    <path fill="#fcea2b" stroke="none" d="M5.139688888888888 6.3845777777777775c-0.6871111111111111 0.34359999999999996 -5.153466666666667 2.0613777777777775 0.6871111111111111 2.0613777777777775" stroke-width="0.4444"></path>
  </g>
  <g id="hair"></g>
  <g id="skin"></g>
  <g id="skin-shadow"></g>
  <g id="line">
    <path fill="none" stroke="#000000" stroke-linecap="round" stroke-linejoin="round" stroke-miterlimit="10" stroke-width="0.8889" d="M22.66151111111111 21.501466666666666c3.7791999999999994 3.0920888888888887 0 3.4356888888888886 0 3.4356888888888886C13.385244444444444 25.967866666666666 10.980266666666667 16.00444444444444 10.980266666666667 16.00444444444444"></path>
    <path fill="none" stroke="#000000" stroke-linecap="round" stroke-linejoin="round" stroke-miterlimit="10" stroke-width="0.8889" d="M15.114444444444445 25.9696c5.848755555555556 1.5758666666666665 15.86871111111111 1.7921333333333334 13.731244444444442 -0.3453333333333333 -2.4049777777777774 -2.4049777777777774 -2.7484888888888888 -3.4356888888888886 -3.0920888888888887 -5.497066666666666S22.66151111111111 13.943022222222222 17.851555555555553 12.91231111111111c-4.809911111111111 -1.0307111111111111 0 -7.558444444444444 -3.4356444444444443 -10.650533333333332s-7.558444444444444 -0.34355555555555556 -7.558444444444444 1.3742666666666665 -1.7178222222222221 2.7484888888888888 -1.7178222222222221 2.7484888888888888c-0.6871555555555555 0.34359999999999996 -5.153466666666667 2.0613777777777775 0.6871111111111111 2.0613777777777775s5.497066666666666 1.3742666666666665 3.7791999999999994 2.4049777777777774c0 0 -5.855333333333333 2.4840444444444443 -4.252488888888888 7.826666666666666 1.6252888888888888 5.417688888888889 9.749555555555554 7.290222222222221 9.749555555555554 7.290222222222221s-0.34359999999999996 0.6871555555555555 0 1.3742666666666665 -0.19817777777777779 0.8853777777777777 -0.8853777777777777 1.916c-0.6871111111111111 1.0307111111111111 -2.206711111111111 0.14537777777777777 -3.581022222222222 0.4889777777777778 -1.054 0.2635111111111111 -1.7178222222222221 1.3742222222222222 0.34359999999999996 1.3742222222222222h5.840577777777777s2.0613777777777775 0.34359999999999996 -0.34359999999999996 -2.0613777777777775c0 0 0.34359999999999996 -0.6871111111111111 0.34359999999999996 -1.0307111111111111s0.7444 -0.6871111111111111 0.5439999999999999 -1.3742222222222222"></path>
    <path fill="none" stroke="#000000" stroke-linecap="round" stroke-linejoin="round" stroke-miterlimit="10" stroke-width="0.8889" d="M15.431733333333334 31.10062222222222h4.649066666666666s1.6408444444444443 0.27346666666666664 -0.2735111111111111 -1.6408444444444443c0 0 0.2735111111111111 -0.5469777777777777 0.2735111111111111 -0.8204s0.5925333333333332 -0.5469777777777777 0.43297777777777774 -1.093911111111111"></path>
    <path fill="none" stroke="#000000" stroke-linecap="round" stroke-linejoin="round" stroke-miterlimit="10" stroke-width="0.8889" d="M18.713377777777776 26.99853333333333s-0.2735111111111111 0.5469333333333333 0 1.0938666666666665c0.27346666666666664 0.5469777777777777 0.27346666666666664 0.27346666666666664 -0.2735111111111111 1.0938666666666665 -0.22102222222222223 0.33159999999999995 -0.6637777777777778 0.4781777777777778 -1.275422222222222 0.5607555555555556"></path>
  </g>
</svg>