<svg id="Dvd--Streamline-Openmoji" viewBox="0 0 32 32" xmlns="http://www.w3.org/2000/svg" height="32" width="32">
  <desc>
    Dvd Streamline Emoji: https://streamlinehq.com
  </desc>
  <g id="color">
    <path fill="#ffffff" stroke="none" d="M30.681688888888885 12.210666666666667c-0.1255111111111111 -0.4808888888888889 -0.2717777777777778 -0.9564888888888888 -0.44426666666666664 -1.4164444444444444 -0.16724444444444445 -0.46515555555555554 -0.36066666666666664 -0.9251111111111111 -0.5749333333333333 -1.3641333333333334 -1.4895999999999998 -3.0942222222222218 -3.9983999999999997 -5.602977777777777 -7.092577777777777 -7.092577777777777 -0.4390222222222222 -0.21431111111111112 -0.8989777777777777 -0.4076888888888889 -1.3641777777777777 -0.5749333333333333 -0.45991111111111105 -0.17248888888888889 -0.9355555555555555 -0.31884444444444443 -1.4163999999999999 -0.44426666666666664C18.576755555555554 1.009911111111111 17.306666666666665 0.8426666666666666 16 0.8426666666666666c-0.22995555555555552 0 -0.4599555555555555 0.005244444444444444 -0.689911111111111 0.020888888888888887 -0.0575111111111111 -0.0052 -0.11497777777777776 0 -0.16724444444444445 0.005244444444444444 -0.16728888888888888 0.005244444444444444 -0.33453333333333335 0.020888888888888887 -0.49653333333333327 0.03657777777777777 -0.0732 0.005244444444444444 -0.14635555555555554 0.010444444444444444 -0.21955555555555553 0.020933333333333335 -0.17244444444444443 0.015644444444444443 -0.3397333333333333 0.03657777777777777 -0.5121777777777778 0.0627111111111111 -0.17248888888888889 0.020888888888888887 -0.3397333333333333 0.04702222222222222 -0.5122222222222222 0.0784 -0.33453333333333335 0.057466666666666666 -0.6690222222222222 0.1254222222222222 -0.998311111111111 0.20906666666666665 -0.1568 0.03657777777777777 -0.3136 0.0784 -0.4704 0.12022222222222223 -0.015688888888888888 0 -0.03653333333333333 0.0052 -0.05226666666666666 0.015644444444444443 -0.3136 0.08364444444444444 -0.6272 0.18293333333333334 -0.9303555555555556 0.29795555555555553 -0.1411111111111111 0.04702222222222222 -0.2822222222222222 0.09928888888888887 -0.42333333333333334 0.1568 -0.03657777777777777 0.0052 -0.06795555555555556 0.020888888888888887 -0.10453333333333333 0.041777777777777775 -0.2927111111111111 0.10453333333333333 -0.5801777777777777 0.22999999999999998 -0.8623999999999999 0.37111111111111106 -0.15159999999999998 0.07315555555555554 -0.29791111111111107 0.14635555555555554 -0.44426666666666664 0.2195111111111111 -0.29791111111111107 0.15159999999999998 -0.5906222222222222 0.3136 -0.8728444444444444 0.48084444444444446l0.008888888888888889 0.007866666666666666c-2.7875555555555556 1.6564444444444444 -4.997333333333333 4.1735999999999995 -6.249555555555555 7.1997333333333335 -0.09404444444444444 0.2247111111111111 -0.18293333333333334 0.4494666666666667 -0.2664888888888889 0.6794666666666666 -0.16724444444444445 0.45471111111111107 -0.3136 0.9251111111111111 -0.4285777777777778 1.400711111111111 -0.0784 0.2927111111111111 -0.1411111111111111 0.5853777777777777 -0.19337777777777776 0.8833333333333333 -0.08888888888888889 0.43377777777777776 -0.15159999999999998 0.8780444444444444 -0.1934222222222222 1.322311111111111 -0.05226666666666666 0.5017777777777778 -0.0784 1.0139999999999998 -0.0784 1.5261777777777776 0 1.3066666666666666 0.16724444444444445 2.5767999999999995 0.4756 3.784177777777778 0.1255111111111111 0.4860888888888888 0.2717777777777778 0.9564888888888888 0.44426666666666664 1.4216444444444445 0.2508888888888889 0.6951555555555555 0.5592444444444444 1.3693777777777778 0.9094666666666666 2.0174666666666665 0.7003555555555555 1.291022222222222 1.5836444444444444 2.467022222222222 2.6133333333333333 3.491422222222222 0.5174222222222221 0.5226666666666666 1.0662222222222222 0.998311111111111 1.6516 1.4268888888888889 0.3868444444444444 0.29791111111111107 0.7892444444444444 0.5696888888888889 1.2021333333333333 0.8205777777777777h0.005244444444444444c0.41288888888888886 0.2560888888888889 0.8414666666666666 0.4860888888888888 1.2857333333333332 0.7003555555555555C11.41622222222222 30.61897777777778 13.6428 31.15733333333333 16 31.15733333333333c0.2195111111111111 0 0.43906666666666666 -0.005155555555555555 0.6585777777777777 -0.015688888888888888 0.0784 0 0.16199999999999998 -0.0052 0.24564444444444442 -0.015688888888888888 0.16724444444444445 -0.005155555555555555 0.32928888888888885 -0.015644444444444443 0.49128888888888883 -0.03657777777777777 0.24568888888888885 -0.015688888888888888 0.4860888888888888 -0.04702222222222222 0.7265333333333334 -0.0836 0.13586666666666666 -0.015688888888888888 0.27702222222222217 -0.03662222222222222 0.41288888888888886 -0.06275555555555555 0.32928888888888885 -0.05226666666666666 0.6533333333333333 -0.12017777777777776 0.9773777777777778 -0.19857777777777774 0.14635555555555554 -0.031377777777777775 0.2927555555555555 -0.06795555555555556 0.43906666666666666 -0.10977777777777777 0.3449333333333333 -0.08884444444444443 0.6846666666666666 -0.19337777777777776 1.0192 -0.31884444444444443 0.14635555555555554 -0.04702222222222222 0.28746666666666665 -0.09928888888888887 0.42333333333333334 -0.15155555555555555 0.30839999999999995 -0.10977777777777777 0.6063111111111111 -0.24044444444444446 0.9042222222222221 -0.38155555555555554 0.14635555555555554 -0.06786666666666666 0.2927111111111111 -0.1358222222222222 0.43906666666666666 -0.20906666666666665 0.28746666666666665 -0.14635555555555554 0.5696888888888889 -0.29791111111111107 0.8519111111111111 -0.4599555555555555l-0.006666666666666666 -0.0058222222222222226c2.806222222222222 -1.6198666666666666 5.0527999999999995 -4.112977777777778 6.341377777777778 -7.118088888888888 0.005244444444444444 -0.005244444444444444 0.005244444444444444 -0.005244444444444444 0.005244444444444444 -0.010444444444444444 0.19862222222222223 -0.4547555555555556 0.37111111111111106 -0.9251555555555555 0.5226666666666666 -1.4007555555555555 0.07315555555555554 -0.24044444444444446 0.14635555555555554 -0.4860888888888888 0.20906666666666665 -0.7317333333333333 0.05226666666666666 -0.19862222222222223 0.09928888888888887 -0.4024444444444444 0.14635555555555554 -0.6063111111111111 0.06795555555555556 -0.29266666666666663 0.12022222222222223 -0.5905777777777778 0.16724444444444445 -0.8937333333333333 0.04182222222222222 -0.2561777777777778 0.07315555555555554 -0.5122222222222222 0.09928888888888887 -0.7735555555555554 0.020933333333333335 -0.18817777777777778 0.03653333333333333 -0.38155555555555554 0.04706666666666666 -0.5749333333333333 0.02613333333333333 -0.32928888888888885 0.03657777777777777 -0.6637777777777778 0.03657777777777777 -0.998311111111111 0 -1.3067111111111112 -0.16724444444444445 -2.5767999999999995 -0.4756444444444444 -3.7893777777777773ZM18.613333333333333 15.999955555555553c0 1.4425777777777777 -1.1707555555555553 2.6133333333333333 -2.6133333333333333 2.6133333333333333s-2.6133333333333333 -1.1707555555555553 -2.6133333333333333 -2.6133333333333333c0 -1.442488888888889 1.1708 -2.613288888888889 2.6133333333333333 -2.613288888888889s2.6133333333333333 1.1707555555555553 2.6133333333333333 2.613288888888889Z" stroke-width="0.4444"></path>
    <path fill="#fcea2b" stroke="none" d="M2.0030666666666663 10.186844444444445c-0.7465333333333333 1.7909777777777778 -1.1606222222222222 3.753822222222222 -1.1606222222222222 5.812088888888888C0.8424444444444443 24.356888888888886 7.642044444444444 31.156755555555552 16 31.156755555555552c2.7638666666666665 0 5.354933333333333 -0.7472 7.588399999999999 -2.0447999999999995L2.0030666666666663 10.186844444444445Z" stroke-width="0.4444"></path>
    <path fill="#fcea2b" stroke="none" d="M29.92182222222222 21.98711111111111c0.7936444444444444 -1.8380444444444444 1.2354666666666665 -3.8621777777777773 1.2354666666666665 -5.988177777777778C31.157288888888885 7.641244444444443 24.357955555555552 0.8416444444444444 16 0.8416444444444444c-2.8322666666666665 0 -5.484266666666667 0.7827555555555555 -7.754666666666666 2.1404444444444444L29.92182222222222 21.98711111111111Z" stroke-width="0.4444"></path>
  </g>
  <g id="hair"></g>
  <g id="skin"></g>
  <g id="skin-shadow"></g>
  <g id="line">
    <path fill="none" stroke="#000000" stroke-linecap="round" stroke-linejoin="round" stroke-miterlimit="10" stroke-width="0.8889" d="M30.681688888888885 12.210666666666667c-0.1255111111111111 -0.4808888888888889 -0.2717777777777778 -0.9564888888888888 -0.44426666666666664 -1.4164444444444444 -0.16724444444444445 -0.46515555555555554 -0.36066666666666664 -0.9251111111111111 -0.5749333333333333 -1.3641333333333334 -1.4895999999999998 -3.0942222222222218 -3.9983999999999997 -5.602977777777777 -7.092577777777777 -7.092577777777777 -0.4390222222222222 -0.21431111111111112 -0.8989777777777777 -0.4076888888888889 -1.3641777777777777 -0.5749333333333333 -0.45991111111111105 -0.17248888888888889 -0.9355555555555555 -0.31884444444444443 -1.4163999999999999 -0.44426666666666664C18.576755555555554 1.009911111111111 17.306666666666665 0.8426666666666666 16 0.8426666666666666c-0.22995555555555552 0 -0.4599555555555555 0.005244444444444444 -0.689911111111111 0.020888888888888887 -0.0575111111111111 -0.0052 -0.11497777777777776 0 -0.16724444444444445 0.005244444444444444 -0.16728888888888888 0.005244444444444444 -0.33453333333333335 0.020888888888888887 -0.49653333333333327 0.03657777777777777 -0.0732 0.005244444444444444 -0.14635555555555554 0.010444444444444444 -0.21955555555555553 0.020933333333333335 -0.17244444444444443 0.015644444444444443 -0.3397333333333333 0.03657777777777777 -0.5121777777777778 0.0627111111111111 -0.17248888888888889 0.020888888888888887 -0.3397333333333333 0.04702222222222222 -0.5122222222222222 0.0784 -0.33453333333333335 0.057466666666666666 -0.6690222222222222 0.1254222222222222 -0.998311111111111 0.20906666666666665 -0.1568 0.03657777777777777 -0.3136 0.0784 -0.4704 0.12022222222222223 -0.015688888888888888 0 -0.03653333333333333 0.0052 -0.05226666666666666 0.015644444444444443 -0.3136 0.08364444444444444 -0.6272 0.18293333333333334 -0.9303555555555556 0.29795555555555553 -0.1411111111111111 0.04702222222222222 -0.2822222222222222 0.09928888888888887 -0.42333333333333334 0.1568 -0.03657777777777777 0.0052 -0.06795555555555556 0.020888888888888887 -0.10453333333333333 0.041777777777777775 -0.2927111111111111 0.10453333333333333 -0.5801777777777777 0.22999999999999998 -0.8623999999999999 0.37111111111111106 -0.15159999999999998 0.07315555555555554 -0.29791111111111107 0.14635555555555554 -0.44426666666666664 0.2195111111111111 -0.29791111111111107 0.15159999999999998 -0.5906222222222222 0.3136 -0.8728444444444444 0.48084444444444446l0.008888888888888889 0.007866666666666666c-2.7875555555555556 1.6564444444444444 -4.997333333333333 4.1735999999999995 -6.249555555555555 7.1997333333333335 -0.09404444444444444 0.2247111111111111 -0.18293333333333334 0.4494666666666667 -0.2664888888888889 0.6794666666666666 -0.16724444444444445 0.45471111111111107 -0.3136 0.9251111111111111 -0.4285777777777778 1.400711111111111 -0.0784 0.2927111111111111 -0.1411111111111111 0.5853777777777777 -0.19337777777777776 0.8833333333333333 -0.08888888888888889 0.43377777777777776 -0.15159999999999998 0.8780444444444444 -0.1934222222222222 1.322311111111111 -0.05226666666666666 0.5017777777777778 -0.0784 1.0139999999999998 -0.0784 1.5261777777777776 0 1.3066666666666666 0.16724444444444445 2.5767999999999995 0.4756 3.784177777777778 0.1255111111111111 0.4860888888888888 0.2717777777777778 0.9564888888888888 0.44426666666666664 1.4216444444444445 0.2508888888888889 0.6951555555555555 0.5592444444444444 1.3693777777777778 0.9094666666666666 2.0174666666666665 0.7003555555555555 1.291022222222222 1.5836444444444444 2.467022222222222 2.6133333333333333 3.491422222222222 0.5174222222222221 0.5226666666666666 1.0662222222222222 0.998311111111111 1.6516 1.4268888888888889 0.3868444444444444 0.29791111111111107 0.7892444444444444 0.5696888888888889 1.2021333333333333 0.8205777777777777h0.005244444444444444c0.41288888888888886 0.2560888888888889 0.8414666666666666 0.4860888888888888 1.2857333333333332 0.7003555555555555C11.41622222222222 30.61897777777778 13.6428 31.15733333333333 16 31.15733333333333c0.2195111111111111 0 0.43906666666666666 -0.005155555555555555 0.6585777777777777 -0.015688888888888888 0.0784 0 0.16199999999999998 -0.0052 0.24564444444444442 -0.015688888888888888 0.16724444444444445 -0.005155555555555555 0.32928888888888885 -0.015644444444444443 0.49128888888888883 -0.03657777777777777 0.24568888888888885 -0.015688888888888888 0.4860888888888888 -0.04702222222222222 0.7265333333333334 -0.0836 0.13586666666666666 -0.015688888888888888 0.27702222222222217 -0.03662222222222222 0.41288888888888886 -0.06275555555555555 0.32928888888888885 -0.05226666666666666 0.6533333333333333 -0.12017777777777776 0.9773777777777778 -0.19857777777777774 0.14635555555555554 -0.031377777777777775 0.2927555555555555 -0.06795555555555556 0.43906666666666666 -0.10977777777777777 0.3449333333333333 -0.08884444444444443 0.6846666666666666 -0.19337777777777776 1.0192 -0.31884444444444443 0.14635555555555554 -0.04702222222222222 0.28746666666666665 -0.09928888888888887 0.42333333333333334 -0.15155555555555555 0.30839999999999995 -0.10977777777777777 0.6063111111111111 -0.24044444444444446 0.9042222222222221 -0.38155555555555554 0.14635555555555554 -0.06786666666666666 0.2927111111111111 -0.1358222222222222 0.43906666666666666 -0.20906666666666665 0.28746666666666665 -0.14635555555555554 0.5696888888888889 -0.29791111111111107 0.8519111111111111 -0.4599555555555555l-0.006666666666666666 -0.0058222222222222226c2.806222222222222 -1.6198666666666666 5.0527999999999995 -4.112977777777778 6.341377777777778 -7.118088888888888 0.005244444444444444 -0.005244444444444444 0.005244444444444444 -0.005244444444444444 0.005244444444444444 -0.010444444444444444 0.19862222222222223 -0.4547555555555556 0.37111111111111106 -0.9251555555555555 0.5226666666666666 -1.4007555555555555 0.07315555555555554 -0.24044444444444446 0.14635555555555554 -0.4860888888888888 0.20906666666666665 -0.7317333333333333 0.05226666666666666 -0.19862222222222223 0.09928888888888887 -0.4024444444444444 0.14635555555555554 -0.6063111111111111 0.06795555555555556 -0.29266666666666663 0.12022222222222223 -0.5905777777777778 0.16724444444444445 -0.8937333333333333 0.04182222222222222 -0.2561777777777778 0.07315555555555554 -0.5122222222222222 0.09928888888888887 -0.7735555555555554 0.020933333333333335 -0.18817777777777778 0.03653333333333333 -0.38155555555555554 0.04706666666666666 -0.5749333333333333 0.02613333333333333 -0.32928888888888885 0.03657777777777777 -0.6637777777777778 0.03657777777777777 -0.998311111111111 0 -1.3067111111111112 -0.16724444444444445 -2.5767999999999995 -0.4756444444444444 -3.7893777777777773ZM18.613333333333333 15.999955555555553c0 1.4425777777777777 -1.1707555555555553 2.6133333333333333 -2.6133333333333333 2.6133333333333333s-2.6133333333333333 -1.1707555555555553 -2.6133333333333333 -2.6133333333333333c0 -1.442488888888889 1.1708 -2.613288888888889 2.6133333333333333 -2.613288888888889s2.6133333333333333 1.1707555555555553 2.6133333333333333 2.613288888888889Z"></path>
  </g>
</svg>