<svg id="Ear--Streamline-Openmoji" viewBox="0 0 32 32" xmlns="http://www.w3.org/2000/svg" height="32" width="32">
  <desc>
    Ear Streamline Emoji: https://streamlinehq.com
  </desc>
  <g id="color"></g>
  <g id="hair"></g>
  <g id="skin">
    <path fill="#fcea2b" stroke="none" d="M9.422577777777777 6.900533333333333C12.171911111111111 -3.5269777777777773 30.758977777777776 -0.6776444444444444 24.048444444444446 16.362133333333333 15.374355555555555 37.638355555555556 4.555555555555555 31.03133333333333 6.376044444444444 24.08991111111111" stroke-width="0.4444"></path>
  </g>
  <g id="skin-shadow">
    <path fill="#f1b31c" stroke="none" d="M21.656533333333332 16.332044444444445c2.1778666666666666 -13.004977777777777 -8.656622222222222 -10.247866666666667 -9.514488888888888 -6.941244444444444C14.504577777777778 -0.04604444444444444 26.463155555555552 3.688622222222222 21.656533333333332 16.332044444444445Z" stroke-width="0.4444"></path>
    <path fill="#f1b31c" stroke="none" d="M14.805777777777777 11.587955555555554c2.638444444444444 4.161155555555555 4.955955555555556 8.26751111111111 1.3892888888888888 9.87751111111111 -0.8304 0.34088888888888885 -1.7099555555555555 0.24559999999999998 -2.605111111111111 0.6975555555555555 -0.9120444444444443 0.42937777777777775 -1.081422222222222 0.7885333333333333 -2.162888888888889 1.9526666666666668 -1.523288888888889 1.2260444444444443 -3.430444444444444 -0.9193333333333332 -2.353022222222222 -2.1920444444444445 1.826711111111111 -2.018622222222222 3.832933333333333 -2.3344444444444443 2.774133333333333 -4.284933333333333 -0.7244444444444443 -1.3105777777777776 0.2946666666666667 -2.988711111111111 2.6167555555555553 -2.3199555555555555" stroke-width="0.4444"></path>
  </g>
  <g id="line">
    <path fill="none" stroke="#000000" stroke-linecap="round" stroke-linejoin="round" stroke-miterlimit="10" stroke-width="0.8889" d="M10.027688888888889 6.827244444444444C12.776977777777777 -3.6003555555555553 30.758977777777776 -0.1575111111111111 24.03431111111111 16.536488888888886 15.36022222222222 37.812711111111106 5.0863555555555555 31.397644444444442 6.906844444444444 24.45622222222222"></path>
    <path fill="none" stroke="#000000" stroke-linecap="round" stroke-linejoin="round" stroke-miterlimit="10" stroke-width="0.8889" d="M15.364666666666666 11.805733333333333c2.638488888888889 4.161111111111111 4.3970666666666665 8.049777777777777 0.8304 9.659733333333334 -0.8304 0.34088888888888885 -1.7099555555555555 0.24559999999999998 -2.605111111111111 0.6975555555555555 -0.9120444444444443 0.42937777777777775 -1.081422222222222 0.7885333333333333 -2.162888888888889 1.9526666666666668 -1.523288888888889 1.2260444444444443 -3.430444444444444 -0.9193333333333332 -2.353022222222222 -2.1920444444444445 1.826711111111111 -2.018622222222222 3.832933333333333 -2.3344444444444443 2.774133333333333 -4.284933333333333 -0.7244444444444443 -1.3105777777777776 -0.24146666666666666 -3.139377777777778 2.080533333333333 -2.470622222222222"></path>
    <path fill="none" stroke="#000000" stroke-linecap="round" stroke-linejoin="round" stroke-miterlimit="10" stroke-width="0.8889" d="M12.142044444444444 9.3908C14.50462222222222 -0.04604444444444444 26.903688888888887 3.2928444444444445 21.201333333333334 16"></path>
  </g>
</svg>