<svg id="Electric-Plug-Red--Streamline-Openmoji" viewBox="0 0 32 32" xmlns="http://www.w3.org/2000/svg" height="32" width="32">
  <desc>
    Electric Plug Red Streamline Emoji: https://streamlinehq.com
  </desc>
  <g id="color">
    <path fill="#f4aa41" d="M21.02422222222222 10.568444444444443h-13.665777777777777v5.275422222222222c-0.006133333333333333 4.755555555555555 3.835822222222222 8.619955555555554 8.591333333333333 8.6416 1.7769333333333333 -0.006844444444444445 3.5104444444444445 -0.5496444444444444 4.973911111111111 -1.557511111111111 0.33488888888888885 -4.111866666666666 0.36848888888888887 -8.242755555555554 0.10053333333333334 -12.359511111111111Z" stroke-width="0.4444"></path>
    <path fill="#e27022" d="M21.02422222222222 10.568444444444443c0.25964444444444446 4.099555555555556 0.24284444444444442 8.211955555555555 -0.05026666666666667 12.309244444444444 2.3065777777777776 -1.620311111111111 3.676 -4.2653333333333325 3.6676888888888888 -7.084088888888888V10.568399999999999Z" stroke-width="0.4444"></path>
    <path fill="#e27022" d="m12.684044444444444 24.435333333333332 0.8541333333333333 3.1147111111111108h4.9741333333333335l0.803911111111111 -3.1147111111111108H12.684044444444444Z" stroke-width="0.4444"></path>
    <path fill="#e27022" d="M13.990355555555555 27.550177777777776h4.069555555555555v3.5779999999999994h-4.069555555555555Z" stroke-width="0.4444"></path>
    <path fill="#3f3f3f" d="M11.703155555555556 0.8717777777777778c0.8727111111111111 -0.0016888888888888889 1.5974666666666666 0.6731555555555555 1.658 1.5437777777777777v7.600266666666666h-1.658Z" stroke-width="0.4444"></path>
    <path fill="#3f3f3f" d="M20.648755555555553 0.8717777777777778c0.8727111111111111 -0.0016888888888888889 1.5974666666666666 0.6731555555555555 1.6579555555555554 1.5437777777777777v7.600266666666666h-1.6579555555555554Z" stroke-width="0.4444"></path>
  </g>
  <g id="line">
    <path fill="none" stroke="#000000" stroke-linecap="round" stroke-miterlimit="10" stroke-width="0.8889" d="M13.361155555555555 10.015822222222221V2.529777777777778c-0.007999999999999998 -0.9123555555555555 -0.7456444444444444 -1.65 -1.658 -1.658h0c-0.9123111111111112 0.007999999999999998 -1.6499555555555556 0.7456444444444444 -1.6579111111111111 1.658h0v7.486044444444444"></path>
    <path fill="none" stroke="#000000" stroke-linecap="round" stroke-miterlimit="10" stroke-width="0.8889" d="M22.306444444444445 10.015822222222221V2.529777777777778c-0.007955555555555554 -0.9122666666666666 -0.7454666666666666 -1.6499111111111109 -1.6576888888888888 -1.658h0c-0.9123555555555555 0.007999999999999998 -1.65 0.7456444444444444 -1.658 1.658h0v7.486044444444444"></path>
    <path fill="none" stroke="#000000" stroke-linecap="round" stroke-linejoin="round" stroke-width="0.8889" d="M6.856 10.065999999999999v5.777866666666666c0.016977777777777776 7.039022222222222 7.6476 11.420044444444445 13.73511111111111 7.885822222222221 2.8116 -1.6323555555555556 4.545022222222222 -4.6347555555555555 4.552888888888888 -7.885822222222221V10.065999999999999Z"></path>
    <path fill="none" stroke="#000000" stroke-linecap="round" stroke-linejoin="round" stroke-width="0.8889" d="m12.684044444444444 24.435333333333332 0.8541333333333333 3.1147111111111108h4.9741333333333335l0.803911111111111 -3.1147111111111108"></path>
    <path fill="none" stroke="#000000" stroke-linecap="round" stroke-linejoin="round" stroke-width="0.8889" d="M13.990044444444443 31.12822222222222v-3.578177777777778h4.069822222222222v3.578177777777778"></path>
  </g>
</svg>