<svg id="Face-Holding-Back-Tears--Streamline-Openmoji" viewBox="0 0 32 32" xmlns="http://www.w3.org/2000/svg" height="32" width="32">
  <desc>
    Face Holding Back Tears Streamline Emoji: https://streamlinehq.com
  </desc>
  <g id="line-supplement">
    <path d="M15.052622222222222 13.667599999999998c0.0092 -3.772 -4.0684 -6.139466666666666 -7.339644444444444 -4.261466666666666 -2.4147111111111106 1.386311111111111 -3.190444444444444 4.503555555555555 -1.7071555555555555 6.85991111111111 -0.0631111111111111 -0.2434222222222222 0.04542222222222222 -0.4988444444444444 0.2644888888888889 -0.6223555555555556 0.23915555555555557 -0.12884444444444443 0.5097333333333334 -0.1878222222222222 0.7808444444444443 -0.17026666666666665 -1.2960888888888888 -2.2108444444444446 0.08093333333333333 -5.027866666666666 2.621644444444444 -5.363155555555555 -2.6209333333333333 0.6723555555555555 -3.5311555555555554 3.929822222222222 -1.6383999999999999 5.863422222222222 1.5573777777777777 1.5910222222222221 4.182755555555555 1.351688888888889 5.4268 -0.49466666666666664 0.1610222222222222 -0.0018666666666666664 0.32164444444444446 0.015288888888888888 0.47862222222222217 0.05111111111111111h0.0006666666666666666c0.17715555555555554 0.04995555555555555 0.31955555555555554 0.18186666666666665 0.38284444444444443 0.3546666666666667 0.03551111111111111 0.1087111111111111 0.036933333333333325 0.22564444444444445 0.004133333333333333 0.33515555555555554 0.4736 -0.7671111111111111 0.7246666666666667 -1.6508 0.725111111111111 -2.5523555555555553Zm-4.007422222222222 0.6624888888888888c-1.5088444444444442 0 -2.4518222222222223 -1.633333333333333 -1.6974222222222222 -2.94 0.7544 -1.3066666666666666 2.6404 -1.3066666666666666 3.3948 0 0.17204444444444444 0.29795555555555553 0.2626222222222222 0.6359555555555555 0.2626222222222222 0.98 -0.00039999999999999996 1.082311111111111 -0.8776888888888889 1.9595999999999998 -1.96 1.96Z" stroke-width="0.4444"></path>
    <path d="M26.185422222222222 13.667599999999998c0.009644444444444443 -3.772 -4.067644444444444 -6.14 -7.339111111111111 -4.262355555555555 -2.4052 1.3804444444444444 -3.1864888888888885 4.480044444444444 -1.723022222222222 6.835644444444444 -0.014044444444444444 -0.07613333333333333 -0.012622222222222222 -0.15426666666666666 0.0040888888888888884 -0.22986666666666666 0.03493333333333333 -0.15453333333333333 0.13275555555555557 -0.2875111111111111 0.2699111111111111 -0.3668444444444444 0.24115555555555554 -0.12999999999999998 0.5143555555555556 -0.18866666666666665 0.7876444444444444 -0.1691111111111111 -1.284311111111111 -2.1878666666666664 0.05035555555555555 -4.980622222222222 2.559422222222222 -5.3556 -2.613511111111111 0.7039555555555556 -3.484933333333333 3.9731111111111113 -1.5685333333333331 5.884533333333333 1.5645777777777778 1.5604888888888888 4.163777777777777 1.3079555555555553 5.398711111111111 -0.5244888888888888 0.1656 -0.0025777777777777774 0.3308888888888889 0.014577777777777778 0.49244444444444446 0.05106666666666666 0.17737777777777777 0.04973333333333333 0.3200444444444444 0.18173333333333333 0.3834222222222222 0.35475555555555555 0.03764444444444444 0.11791111111111109 0.035333333333333335 0.24497777777777777 -0.006533333333333333 0.3614222222222222 0.4841333333333333 -0.7731555555555555 0.741111111111111 -1.6668888888888889 0.7415111111111111 -2.5791555555555554Zm-4.026577777777777 0.6624888888888888c-1.5088 0 -2.4518222222222223 -1.633333333333333 -1.6974222222222222 -2.94 0.7544 -1.3066666666666666 2.6404444444444444 -1.3066666666666666 3.3948444444444443 0 0.172 0.29795555555555553 0.26257777777777774 0.6359555555555555 0.26257777777777774 0.98 -0.00039999999999999996 1.082311111111111 -0.8776888888888889 1.9595999999999998 -1.96 1.96Z" stroke-width="0.4444"></path>
  </g>
  <g id="color">
    <path fill="#fcea2b" d="M0.9733333333333333 16c0 11.567555555555556 12.522222222222222 18.79724444444444 22.54 13.013466666666666C28.162577777777777 26.329199999999997 31.026666666666667 21.368488888888887 31.026666666666667 16c0 -11.567555555555556 -12.522222222222222 -18.79724444444444 -22.54 -13.013466666666666C3.8373777777777778 5.6708 0.9733333333333333 10.631511111111111 0.9733333333333333 16" stroke-width="0.4444"></path>
    <path fill="#ffffff" d="M5.873333333333333 13.667599999999998c0 3.269066666666667 3.5388888888888888 5.312266666666667 6.369999999999999 3.6777333333333333 1.313911111111111 -0.7586222222222222 2.123333333333333 -2.1605333333333334 2.123333333333333 -3.6777333333333333 0 -3.269066666666667 -3.5388888888888888 -5.312266666666667 -6.369999999999999 -3.6777333333333333 -1.313911111111111 0.7586222222222222 -2.123333333333333 2.1605333333333334 -2.123333333333333 3.6777333333333333" stroke-width="0.4444"></path>
    <path fill="#ffffff" d="M17.0388 13.667599999999998c0 3.269066666666667 3.5388888888888888 5.312266666666667 6.369999999999999 3.6777333333333333 1.313911111111111 -0.7586222222222222 2.123333333333333 -2.1605333333333334 2.123333333333333 -3.6777333333333333 0 -3.269066666666667 -3.5388888888888888 -5.312266666666667 -6.369999999999999 -3.6777333333333333 -1.313911111111111 0.7586222222222222 -2.123333333333333 2.1605333333333334 -2.123333333333333 3.6777333333333333" stroke-width="0.4444"></path>
    <g>
      <path fill="#92d3f5" d="M13.936444444444444 15.542666666666664c-0.39995555555555556 -0.08813333333333333 -0.8153777777777778 -0.0776 -1.2103555555555554 0.03062222222222222 -0.23479999999999998 0.0876 -0.45942222222222223 0.2003111111111111 -0.6699555555555555 0.3362222222222222 -0.21497777777777777 0.13013333333333332 -0.4823555555555555 0.29159999999999997 -0.7527999999999999 0.42622222222222217 -0.7846222222222222 0.3209333333333333 -1.6721333333333332 0.2707555555555555 -2.4156 -0.1365333333333333 -0.09373333333333334 -0.049777777777777775 -0.18626666666666664 -0.10533333333333332 -0.27622222222222226 -0.15888888888888889l-0.02875555555555555 -0.017244444444444444c-0.22177777777777777 -0.14128888888888888 -0.4557333333333333 -0.26253333333333334 -0.6990666666666666 -0.36235555555555554 -0.5110666666666666 -0.22777777777777775 -1.0944444444444443 -0.22986666666666666 -1.6072 -0.005733333333333333 -0.27915555555555555 0.16217777777777778 -0.36266666666666664 0.5268444444444444 -0.18182222222222222 0.794311111111111 0.9007111111111111 1.3490222222222221 2.4209777777777775 2.1529333333333334 4.042977777777778 2.137911111111111 1.6510222222222222 0.005022222222222221 3.1945777777777775 -0.8182666666666666 4.110133333333333 -2.192177777777778 0.2152 -0.3158222222222222 0.05675555555555556 -0.7496 -0.3113333333333333 -0.8523555555555555Z" stroke-width="0.4444"></path>
      <path fill="#92d3f5" d="M25.438 15.88991111111111c-0.06195555555555555 -0.1688888888888889 -0.20128888888888888 -0.29768888888888884 -0.37448888888888887 -0.34626666666666667 -0.39995555555555556 -0.08813333333333333 -0.8153333333333332 -0.07764444444444443 -1.210311111111111 0.030577777777777777 -0.23479999999999998 0.08755555555555555 -0.45942222222222223 0.2003111111111111 -0.6699111111111111 0.33626666666666666 -0.21502222222222223 0.13013333333333332 -0.4823555555555555 0.29159999999999997 -0.7529333333333332 0.42617777777777777 -0.7845333333333333 0.32097777777777775 -1.6720444444444444 0.2708 -2.4154666666666667 -0.13648888888888888 -0.09382222222222222 -0.049777777777777775 -0.18635555555555555 -0.10528888888888888 -0.2763111111111111 -0.15888888888888889l-0.028666666666666667 -0.017244444444444444c-0.2218222222222222 -0.14128888888888888 -0.4557777777777778 -0.26257777777777774 -0.6990666666666666 -0.3624 -0.5111999999999999 -0.22742222222222222 -1.0944 -0.22951111111111108 -1.6072 -0.005733333333333333 -0.27919999999999995 0.16217777777777778 -0.36266666666666664 0.5268888888888889 -0.18182222222222222 0.7943555555555556 0.9007111111111111 1.3491555555555554 2.421022222222222 2.1530666666666667 4.043155555555555 2.138 1.6517333333333333 0.007822222222222222 3.1964888888888887 -0.8161333333333333 4.110088888888889 -2.192222222222222 0.0999111111111111 -0.14924444444444443 0.12324444444444443 -0.33697777777777776 0.06293333333333333 -0.5061333333333333Z" stroke-width="0.4444"></path>
    </g>
    <path d="M15.052622222222222 13.667599999999998c0.0092 -3.772 -4.0684 -6.139466666666666 -7.339644444444444 -4.261466666666666 -2.4147111111111106 1.386311111111111 -3.190444444444444 4.503555555555555 -1.7071555555555555 6.85991111111111 -0.0631111111111111 -0.2434222222222222 0.04542222222222222 -0.4988444444444444 0.2644888888888889 -0.6223555555555556 0.23915555555555557 -0.12884444444444443 0.5097333333333334 -0.1878222222222222 0.7808444444444443 -0.17026666666666665 -1.2960888888888888 -2.2108444444444446 0.08093333333333333 -5.027866666666666 2.621644444444444 -5.363155555555555 -2.6209333333333333 0.6723555555555555 -3.5311555555555554 3.929822222222222 -1.6383999999999999 5.863422222222222 1.5573777777777777 1.5910222222222221 4.182755555555555 1.351688888888889 5.4268 -0.49466666666666664 0.1610222222222222 -0.0018666666666666664 0.32164444444444446 0.015288888888888888 0.47862222222222217 0.05111111111111111h0.0006666666666666666c0.17715555555555554 0.04995555555555555 0.31955555555555554 0.18186666666666665 0.38284444444444443 0.3546666666666667 0.03551111111111111 0.1087111111111111 0.036933333333333325 0.22564444444444445 0.004133333333333333 0.33515555555555554 0.4736 -0.7671111111111111 0.7246666666666667 -1.6508 0.725111111111111 -2.5523555555555553Zm-4.007422222222222 0.6624888888888888c-1.5088444444444442 0 -2.4518222222222223 -1.633333333333333 -1.6974222222222222 -2.94 0.7544 -1.3066666666666666 2.6404 -1.3066666666666666 3.3948 0 0.17204444444444444 0.29795555555555553 0.2626222222222222 0.6359555555555555 0.2626222222222222 0.98 -0.00039999999999999996 1.082311111111111 -0.8776888888888889 1.9595999999999998 -1.96 1.96Z" stroke-width="0.4444"></path>
    <path d="M26.185422222222222 13.667599999999998c0.009644444444444443 -3.772 -4.067644444444444 -6.14 -7.339111111111111 -4.262355555555555 -2.4052 1.3804444444444444 -3.1864888888888885 4.480044444444444 -1.723022222222222 6.835644444444444 -0.014044444444444444 -0.07613333333333333 -0.012622222222222222 -0.15426666666666666 0.0040888888888888884 -0.22986666666666666 0.03493333333333333 -0.15453333333333333 0.13275555555555557 -0.2875111111111111 0.2699111111111111 -0.3668444444444444 0.24115555555555554 -0.12999999999999998 0.5143555555555556 -0.18866666666666665 0.7876444444444444 -0.1691111111111111 -1.284311111111111 -2.1878666666666664 0.05035555555555555 -4.980622222222222 2.559422222222222 -5.3556 -2.613511111111111 0.7039555555555556 -3.484933333333333 3.9731111111111113 -1.5685333333333331 5.884533333333333 1.5645777777777778 1.5604888888888888 4.163777777777777 1.3079555555555553 5.398711111111111 -0.5244888888888888 0.1656 -0.0025777777777777774 0.3308888888888889 0.014577777777777778 0.49244444444444446 0.05106666666666666 0.17737777777777777 0.04973333333333333 0.3200444444444444 0.18173333333333333 0.3834222222222222 0.35475555555555555 0.03764444444444444 0.11791111111111109 0.035333333333333335 0.24497777777777777 -0.006533333333333333 0.3614222222222222 0.4841333333333333 -0.7731555555555555 0.741111111111111 -1.6668888888888889 0.7415111111111111 -2.5791555555555554Zm-4.026577777777777 0.6624888888888888c-1.5088 0 -2.4518222222222223 -1.633333333333333 -1.6974222222222222 -2.94 0.7544 -1.3066666666666666 2.6404444444444444 -1.3066666666666666 3.3948444444444443 0 0.172 0.29795555555555553 0.26257777777777774 0.6359555555555555 0.26257777777777774 0.98 -0.00039999999999999996 1.082311111111111 -0.8776888888888889 1.9595999999999998 -1.96 1.96Z" stroke-width="0.4444"></path>
  </g>
  <g id="line">
    <path fill="none" stroke="#000000" stroke-miterlimit="10" stroke-width="0.8889" d="M0.9733333333333333 16c0 11.567555555555556 12.522222222222222 18.79724444444444 22.54 13.013466666666666C28.162577777777777 26.329199999999997 31.026666666666667 21.368488888888887 31.026666666666667 16c0 -11.567555555555556 -12.522222222222222 -18.79724444444444 -22.54 -13.013466666666666C3.8373777777777778 5.6708 0.9733333333333333 10.631511111111111 0.9733333333333333 16"></path>
    <path fill="none" stroke="#000000" stroke-linecap="round" stroke-linejoin="round" stroke-width="0.8889" d="M12.205955555555555 4.923066666666666c-0.5543111111111111 1.0260444444444445 -1.471111111111111 1.8087111111111112 -2.5714666666666663 2.1952 -0.9338222222222222 0.3101777777777777 -1.9422666666666666 0.3144444444444444 -2.878711111111111 0.012222222222222221"></path>
    <path fill="none" stroke="#000000" stroke-linecap="round" stroke-linejoin="round" stroke-width="0.8889" d="M25.336133333333333 6.655688888888889c-1.0377333333333334 0.5322222222222222 -2.236622222222222 0.6583111111111111 -3.3624 0.35364444444444443 -0.9453333333333331 -0.27311111111111114 -1.7790666666666668 -0.8403999999999999 -2.380133333333333 -1.6194666666666666"></path>
    <path fill="none" stroke="#000000" stroke-linecap="round" stroke-linejoin="round" stroke-width="0.8889" d="M20.246666666666666 22.86c-2.260222222222222 2.5426666666666664 -6.233111111111111 2.5426666666666664 -8.493333333333332 0"></path>
  </g>
</svg>