<svg id="Face-With-Peeking-Eye--Streamline-Openmoji" viewBox="0 0 32 32" xmlns="http://www.w3.org/2000/svg" height="32" width="32">
  <desc>
    Face With Peeking Eye Streamline Emoji: https://streamlinehq.com
  </desc>
  <g id="color">
    <path fill="#ffffff" d="M19.671733333333332 24.199333333333332v0.006533333333333333c-0.3658666666666667 1.6986666666666665 -1.8685333333333334 2.9595999999999996 -3.671733333333333 2.9595999999999996s-3.3058666666666667 -1.2609333333333332 -3.671733333333333 -2.9595999999999996v-0.006533333333333333l1.7509333333333332 -3.985333333333333c0.006533333333333333 -0.006533333333333333 0.006533333333333333 -0.013066666666666666 0.013066666666666666 -0.02613333333333333 0.5618666666666666 -0.3397333333333333 1.2151999999999998 -0.5292 1.907733333333333 -0.5292s1.3458666666666665 0.18946666666666667 1.907733333333333 0.5292h0.006533333333333333l1.7574666666666665 4.011466666666666Z" stroke-width="0.4444"></path>
    <path fill="#ffffff" d="M23.212799999999998 17.561466666666668c-0.3658666666666667 0.16333333333333333 -0.7774666666666666 0.2548 -1.2021333333333333 0.26786666666666664 -0.7644 -1.2870666666666666 -1.2348000000000001 -2.2344 -1.6463999999999999 -3.1163999999999996 -0.5683999999999999 -1.2217777777777779 -1.1498666666666666 -1.6072 -1.5941333333333334 -1.6006666666666667 0.2809333333333333 -0.6337333333333333 0.7382666666666666 -1.1694666666666667 1.3197333333333332 -1.5288 0.5226666666666666 -0.32666666666666666 1.1367999999999998 -0.5161333333333333 1.7901333333333334 -0.5161333333333333 0.5749333333333333 0 1.1106666666666667 0.14373333333333332 1.5876 0.39853333333333335 -0.3201333333333333 1.176 -0.006533333333333333 3.5084 -0.2548 6.095599999999999Z" stroke-width="0.4444"></path>
  </g>
  <g id="skin">
    <path fill="none" stroke="#fcea2b" stroke-linecap="round" stroke-linejoin="round" stroke-width="0.8889" d="M0.9733333333333333 16c0 11.567555555555556 12.522222222222222 18.79724444444444 22.54 13.013466666666666C28.162622222222222 26.329199999999997 31.026666666666667 21.368488888888887 31.026666666666667 16c0 -11.567555555555556 -12.522222222222222 -18.79724444444444 -22.54 -13.013466666666666C3.8373777777777778 5.6708 0.9733333333333333 10.631511111111111 0.9733333333333333 16"></path>
    <path id="skin-2" fill="#fcea2b" d="M16 0.9733333333333333C7.700977777777778 0.9733333333333333 0.9733333333333333 7.700977777777778 0.9733333333333333 16S7.700977777777778 31.026666666666667 16 31.026666666666667 31.026666666666667 24.299022222222224 31.026666666666667 16 24.299022222222224 0.9733333333333333 16 0.9733333333333333Zm3.671733333333333 23.232533333333333c-0.3658666666666667 1.6986666666666665 -1.8685333333333334 2.9595999999999996 -3.671733333333333 2.9595999999999996s-3.3058666666666667 -1.2609777777777778 -3.671733333333333 -2.9595999999999996v-0.006533333333333333l1.7509333333333332 -3.985333333333333c0.006533333333333333 -0.006533333333333333 0.006533333333333333 -0.013066666666666666 0.013066666666666666 -0.02613333333333333 0.5618666666666666 -0.3397333333333333 1.2151999999999998 -0.5292 1.907733333333333 -0.5292s1.3458666666666665 0.18946666666666667 1.907733333333333 0.5292h0.006533333333333333l1.7574666666666665 4.011466666666666v0.006533333333333333Zm3.541066666666666 -6.644399999999999c-0.3658666666666667 0.16333333333333333 -0.7774666666666666 0.2548 -1.2021333333333333 0.26786666666666664 -0.7644 -1.2870666666666666 -1.2348000000000001 -2.2344 -1.6463999999999999 -3.1163999999999996 -0.5683999999999999 -1.2217777777777779 -1.1498666666666666 -1.6072 -1.5941333333333334 -1.6006666666666667 0.2809333333333333 -0.6337333333333333 0.7382666666666666 -1.1694666666666667 1.3197333333333332 -1.5288 0.5226666666666666 -0.32666666666666666 1.1367999999999998 -0.5161333333333333 1.7901333333333334 -0.5161333333333333 0.5749333333333333 0 1.1106666666666667 0.14373333333333332 1.5876 0.39853333333333335 -0.3201333333333333 1.176 -0.006533333333333333 3.5084 -0.2548 6.095599999999999Z" stroke-width="0.4444"></path>
    <path fill="#fcea2b" d="M2.9568 30.292444444444442c0.39199999999999996 -1.96 0.7637333333333333 -4.048577777777777 0.8944 -4.636577777777777 -0.2613333333333333 -0.5226666666666666 -0.5226666666666666 -1.1106666666666667 -0.7839999999999999 -1.633333333333333 -0.13066666666666665 -0.2613333333333333 -0.39199999999999996 -1.0453333333333332 -0.7839999999999999 -5.422666666666666 -0.13066666666666665 -1.3066666666666666 -0.06533333333333333 -2.025333333333333 0.32666666666666666 -2.482666666666667 0.18906666666666666 -0.2419111111111111 0.4770222222222222 -0.38586666666666664 0.7839999999999999 -0.39199999999999996 0.8493333333333333 0 1.3803555555555553 0.7680444444444444 1.5612 2.224222222222222 1.803422222222222 -4.810311111111111 2.675555555555555 -7.513599999999999 4.1924 -6.711555555555556 0.7281333333333333 0.38497777777777775 0.5866666666666667 1.2001777777777778 0.5866666666666667 1.2001777777777778 1.1590222222222222 -2.6408444444444443 3.2998666666666665 -0.9776 2.215333333333333 0.9435111111111111 0 0 1.0647555555555557 -0.8851111111111111 1.7365777777777778 -0.018933333333333333 0.42706666666666665 0.5506222222222221 0.1695111111111111 1.171822222222222 -0.6768888888888888 2.9528 1.0462666666666665 -1.2098222222222221 2.1802666666666664 -0.04893333333333333 1.8985333333333332 1.1145333333333332 -1.595822222222222 6.591555555555555 -5.124666666666666 10.681288888888888 -5.124666666666666 10.681288888888888s-0.4034222222222222 1.6747999999999998 -0.4842666666666666 2.6391999999999998L2.9568 30.29248888888889Z" stroke-width="0.4444"></path>
    <path fill="#fcea2b" d="M22.784 30.740977777777772c-0.08493333333333332 -0.9669333333333334 -0.5642666666666667 -2.6281777777777777 -0.5642666666666667 -2.6281777777777777s-3.534533333333333 -4.0898666666666665 -5.128666666666667 -10.682c-0.2809333333333333 -1.1629333333333334 0.7447999999999999 -2.0776 1.6529333333333334 -1.1694666666666667 -1.0126666666666666 -1.907733333333333 -1.1629333333333334 -2.7766666666666664 -0.21559999999999999 -3.1098666666666666 0.0784 -0.02613333333333333 0.15026666666666666 -0.0392 0.24173333333333336 -0.0392 0.44426666666666664 -0.006533333333333333 1.0257333333333334 0.37893333333333334 1.5941333333333334 1.6006666666666667 0.41159999999999997 0.8819999999999999 0.8819999999999999 1.829333333333333 1.6463999999999999 3.1163999999999996 0.26786666666666664 0.45733333333333326 0.5814666666666667 0.9603999999999999 0.9342666666666667 1.5222666666666667 0.13066666666666665 -0.6010666666666666 0.21559999999999999 -1.2021333333333333 0.26786666666666664 -1.7901333333333334 0.24826666666666664 -2.5871999999999997 -0.06533333333333333 -4.9196 0.2548 -6.095599999999999 0.14373333333333332 -0.5422666666666667 0.42466666666666664 -0.8428 0.9538666666666665 -0.8101333333333333 0.5814666666666667 0.0392 1.0192 0.5945333333333332 0.9146666666666665 1.4242666666666666 0 0 0.49 -0.9734666666666667 1.4438666666666666 -0.4704 0.7970666666666667 0.42466666666666664 0.4834666666666667 1.2348000000000001 0.26786666666666664 6.3373333333333335 0.17639999999999997 -1.4504 0.7121333333333333 -2.2213333333333334 1.5614666666666666 -2.2213333333333334 0.3005333333333333 0.006533333333333333 0.5945333333333332 0.15026666666666666 0.7839999999999999 0.39199999999999996 0.39199999999999996 0.45733333333333326 0.45733333333333326 1.176 0.32666666666666666 2.482666666666667 -0.39199999999999996 4.3773333333333335 -0.6533333333333333 5.161333333333332 -0.7839999999999999 5.422666666666666 -0.2613333333333333 0.5226666666666666 -0.5226666666666666 1.1106666666666667 -0.7839999999999999 1.633333333333333 0.13066666666666665 0.588 0.4931999999999999 2.679333333333333 0.8852 4.639333333333333L22.783955555555554 30.74088888888889Z" stroke-width="0.4444"></path>
  </g>
  <g id="line">
    <path fill="none" stroke="#000000" stroke-linecap="round" stroke-linejoin="round" stroke-width="0.8889" d="M20.07622222222222 30.467199999999995C18.78 30.83173333333333 17.412755555555556 31.026666666666667 16 31.026666666666667c-1.4627555555555554 0 -2.8767111111111108 -0.20897777777777776 -4.2136000000000005 -0.5987555555555555"></path>
    <path fill="none" stroke="#000000" stroke-linecap="round" stroke-linejoin="round" stroke-width="0.8889" d="M2.8513333333333333 23.27991111111111C1.6547555555555553 21.123244444444442 0.9733333333333333 18.641244444444443 0.9733333333333333 16 0.9733333333333333 7.701022222222222 7.701022222222222 0.9733333333333333 16 0.9733333333333333S31.026666666666667 7.701022222222222 31.026666666666667 16c0 2.6412444444444443 -0.6814222222222222 5.123333333333333 -1.878133333333333 7.280044444444443"></path>
    <path fill="none" stroke="#000000" stroke-linecap="round" stroke-linejoin="round" stroke-width="0.8889" d="M14.092266666666665 20.187866666666665c0.5618666666666666 -0.3397333333333333 1.2151999999999998 -0.5292 1.907733333333333 -0.5292s1.3458666666666665 0.18946666666666667 1.907733333333333 0.5292h0.006533333333333333"></path>
    <path fill="none" stroke="#000000" stroke-linecap="round" stroke-linejoin="round" stroke-width="0.8889" d="M19.671733333333332 24.199333333333332v0.006533333333333333c-0.3658666666666667 1.6986666666666665 -1.8685333333333334 2.9595999999999996 -3.671733333333333 2.9595999999999996s-3.3058666666666667 -1.2609333333333332 -3.671733333333333 -2.9595999999999996v-0.006533333333333333"></path>
    <path fill="none" stroke="#000000" stroke-linecap="round" stroke-linejoin="round" stroke-width="0.8889" d="M11.189644444444443 7.077244444444444c-2.0096444444444446 -0.5751999999999999 -4.229377777777778 0.25466666666666665 -5.333155555555555 2.1422222222222222"></path>
    <path fill="none" stroke="#000000" stroke-linecap="round" stroke-linejoin="round" stroke-width="0.8889" d="M20.810355555555557 7.077244444444444c2.0096444444444446 -0.5751999999999999 4.229377777777778 0.25466666666666665 5.333155555555555 2.1422222222222222"></path>
    <path fill="none" stroke="#000000" stroke-linecap="round" stroke-linejoin="round" stroke-width="0.8889" d="M3.0018666666666665 29.641199999999998c0.39199999999999996 -1.96 0.7186666666666667 -3.397333333333333 0.8493333333333333 -3.985333333333333 -0.2613333333333333 -0.5226666666666666 -0.5226666666666666 -1.1106666666666667 -0.7839999999999999 -1.633333333333333 -0.13066666666666665 -0.2613333333333333 -0.39199999999999996 -1.0453333333333332 -0.7839999999999999 -5.422666666666666 -0.13066666666666665 -1.3066666666666666 -0.06533333333333333 -2.025333333333333 0.32666666666666666 -2.482666666666667 0.18906666666666666 -0.2419111111111111 0.4770222222222222 -0.38586666666666664 0.7839999999999999 -0.39199999999999996 0.8493333333333333 0 1.3803555555555553 0.7680888888888888 1.5612 2.224222222222222 1.803422222222222 -4.810311111111111 2.675555555555555 -7.513599999999999 4.1924 -6.711555555555556 0.7281333333333333 0.38497777777777775 0.5866666666666667 1.2001777777777778 0.5866666666666667 1.2001777777777778 1.1590222222222222 -2.6408444444444443 3.2998666666666665 -0.9776 2.215333333333333 0.9435111111111111 0 0 1.0647555555555557 -0.8851111111111111 1.7365777777777778 -0.018933333333333333 0.42706666666666665 0.5506222222222221 0.1695111111111111 1.171822222222222 -0.6768888888888888 2.9528 1.0462666666666665 -1.2098222222222221 2.1802666666666664 -0.04893333333333333 1.8985333333333332 1.1145333333333332 -1.595822222222222 6.591555555555555 -5.124666666666666 10.681288888888888 -5.124666666666666 10.681288888888888s-0.3630222222222222 1.0229777777777778 -0.44382222222222223 1.9873777777777775"></path>
    <path d="M23.14928888888889 14.454266666666667c0 0.6992888888888888 -0.5679111111111111 1.266711111111111 -1.2666666666666666 1.266711111111111s-1.266711111111111 -0.5669777777777778 -1.266711111111111 -1.266711111111111c0 -0.6987111111111111 0.5679555555555555 -1.2666666666666666 1.266711111111111 -1.2666666666666666s1.2666666666666666 0.5679555555555555 1.2666666666666666 1.2666666666666666" stroke-width="0.4444"></path>
    <path fill="none" stroke="#000000" stroke-linecap="round" stroke-linejoin="round" stroke-width="0.8889" d="M22.663999999999998 30.09893333333333c-0.08493333333333332 -0.9669333333333334 -0.44426666666666664 -1.986133333333333 -0.44426666666666664 -1.986133333333333s-3.534533333333333 -4.0898666666666665 -5.128666666666667 -10.682c-0.2809333333333333 -1.1629333333333334 0.7447999999999999 -2.0776 1.6529333333333334 -1.1694666666666667 -1.0126666666666666 -1.907733333333333 -1.1629333333333334 -2.7766666666666664 -0.21559999999999999 -3.1098666666666666 0.0784 -0.02613333333333333 0.15026666666666666 -0.0392 0.24173333333333336 -0.0392 0.44426666666666664 -0.006533333333333333 1.0257333333333334 0.37893333333333334 1.5941333333333334 1.6006666666666667 0.41159999999999997 0.8819999999999999 0.8819999999999999 1.829333333333333 1.6463999999999999 3.1163999999999996 0.26786666666666664 0.45733333333333326 0.5814666666666667 0.9603999999999999 0.9342666666666667 1.5222666666666667 0.13066666666666665 -0.6010666666666666 0.21559999999999999 -1.2021333333333333 0.26786666666666664 -1.7901333333333334 0.24826666666666664 -2.5871999999999997 -0.06533333333333333 -4.9196 0.2548 -6.095599999999999 0.14373333333333332 -0.5422666666666667 0.42466666666666664 -0.8428 0.9538666666666665 -0.8101333333333333 0.5814666666666667 0.0392 1.0192 0.5945333333333332 0.9146666666666665 1.4242666666666666 0 0 0.49 -0.9734666666666667 1.4438666666666666 -0.4704 0.7970666666666667 0.42466666666666664 0.4834666666666667 1.2348000000000001 0.26786666666666664 6.3373333333333335 0.17639999999999997 -1.4504 0.7121333333333333 -2.2213333333333334 1.5614666666666666 -2.2213333333333334 0.3005333333333333 0.006533333333333333 0.5945333333333332 0.15026666666666666 0.7839999999999999 0.39199999999999996 0.39199999999999996 0.45733333333333326 0.45733333333333326 1.176 0.32666666666666666 2.482666666666667 -0.39199999999999996 4.3773333333333335 -0.6533333333333333 5.161333333333332 -0.7839999999999999 5.422666666666666 -0.2613333333333333 0.5226666666666666 -0.5226666666666666 1.1106666666666667 -0.7839999999999999 1.633333333333333 0.13066666666666665 0.588 0.45733333333333326 2.025333333333333 0.8493333333333333 3.985333333333333"></path>
    <path fill="none" stroke="#000000" stroke-miterlimit="10" stroke-width="0.8889" d="M18.77013333333333 13.112266666666667c0.2809333333333333 -0.6337333333333333 0.7382666666666666 -1.1694666666666667 1.3197333333333332 -1.5288 0.5226666666666666 -0.32666666666666666 1.1367999999999998 -0.5161333333333333 1.7901333333333334 -0.5161333333333333 0.5749333333333333 0 1.1106666666666667 0.14373333333333332 1.5876 0.39853333333333335"></path>
  </g>
</svg>