<svg id="Ferris-Wheel--Streamline-Openmoji" viewBox="0 0 32 32" xmlns="http://www.w3.org/2000/svg" height="32" width="32">
  <desc>
    Ferris Wheel Streamline Emoji: https://streamlinehq.com
  </desc>
  <g id="color">
    <path fill="#61b2e4" d="M14.949333333333334 16.58888888888889 7.6933333333333325 29.709333333333333l5.6835555555555555 0 1.5724444444444443 -13.120444444444445z" stroke-width="0.4444"></path>
    <path fill="#61b2e4" d="m16.171555555555557 16.71377777777778 7.22711111111111 12.995555555555555 -5.6835555555555555 0 -1.5435555555555553 -12.995555555555555z" stroke-width="0.4444"></path>
    <path fill="#92d3f5" d="m20.68 24.650666666666666 -3.361333333333333 -6.253777777777778 -0.5368888888888889 0.31066666666666665 3.648444444444444 11.001777777777777 2.968444444444444 0 -2.4186666666666667 -4.5008888888888885" stroke-width="0.4444"></path>
    <path fill="#92d3f5" d="M14.090222222222222 18.926222222222222 10.667111111111112 29.439999999999998l2.7475555555555555 0 1.4684444444444442 -10.410666666666666 -0.7928888888888889 -0.10311111111111111z" stroke-width="0.4444"></path>
    <path fill="none" stroke="#9b9b9a" stroke-linecap="round" stroke-linejoin="round" stroke-width="0.8889" d="m17.034355555555557 13.31591111111111 5.453911111111111 -5.453911111111111"></path>
    <path fill="none" stroke="#9b9b9a" stroke-linecap="round" stroke-linejoin="round" stroke-width="0.8889" d="m8.563199999999998 21.799377777777778 5.818933333333333 -5.818977777777778"></path>
    <path fill="none" stroke="#9b9b9a" stroke-linecap="round" stroke-linejoin="round" stroke-width="0.8889" d="m25.296844444444446 14.634044444444443 -8.007466666666666 0"></path>
    <path fill="none" stroke="#9b9b9a" stroke-linecap="round" stroke-linejoin="round" stroke-width="0.8889" d="M22.4944 21.633955555555556 16.724355555555555 15.863866666666667"></path>
    <path fill="none" stroke="#9b9b9a" stroke-linecap="round" stroke-linejoin="round" stroke-width="0.8889" d="m13.843955555555555 14.642755555555553 -8.248844444444444 0"></path>
    <path fill="none" stroke="#9b9b9a" stroke-linecap="round" stroke-linejoin="round" stroke-width="0.8889" d="m14.3144 13.466222222222221 -5.757333333333333 -5.757333333333333"></path>
    <path fill="none" stroke="#9b9b9a" stroke-linecap="round" stroke-linejoin="round" stroke-width="0.8889" d="m15.791999999999998 12.911377777777776 0 -8.248355555555555"></path>
    <path fill="none" stroke="#9b9b9a" stroke-miterlimit="10" d="M4.390711111111111 14.696133333333332a11.04671111111111 11.04671111111111 0 1 0 22.09342222222222 0 11.04671111111111 11.04671111111111 0 1 0 -22.09342222222222 0" stroke-width="0.4444"></path>
    <path fill="#f4aa41" d="M3.152711111111111 9.237866666666665a2.039333333333333 2.039333333333333 0 1 0 4.078666666666666 0 2.039333333333333 2.039333333333333 0 1 0 -4.078666666666666 0" stroke-width="0.4444"></path>
    <path fill="#f4aa41" d="M16.681155555555556 4.186a2.039333333333333 2.039333333333333 0 1 0 4.078666666666666 0 2.039333333333333 2.039333333333333 0 1 0 -4.078666666666666 0" stroke-width="0.4444"></path>
    <path fill="#f4aa41" d="M25.011644444444443 14.31368888888889a2.062088888888889 2.062088888888889 0 1 0 4.124177777777778 0 2.062088888888889 2.062088888888889 0 1 0 -4.124177777777778 0" stroke-width="0.4444"></path>
    <path fill="#f4aa41" d="M19.23102222222222 24.650444444444446a2.062088888888889 2.062088888888889 0 1 0 4.124177777777778 0 2.062088888888889 2.062088888888889 0 1 0 -4.124177777777778 0" stroke-width="0.4444"></path>
    <path fill="#f4aa41" d="M3.801111111111111 20.947511111111112a2.039333333333333 2.039333333333333 0 1 0 4.078666666666666 0 2.039333333333333 2.039333333333333 0 1 0 -4.078666666666666 0" stroke-width="0.4444"></path>
  </g>
  <g id="line">
    <path fill="none" stroke="#000000" stroke-linecap="round" stroke-linejoin="round" stroke-width="0.8889" d="m14.201244444444443 24.650444444444446 0.5437333333333333 -8.061733333333333"></path>
    <path fill="none" stroke="#000000" stroke-linecap="round" stroke-linejoin="round" stroke-width="0.8889" d="m13.640888888888888 27.837333333333333 -0.26399999999999996 1.8719999999999999 -5.6835555555555555 0 2.341333333333333 -4.356444444444444"></path>
    <path fill="none" stroke="#000000" stroke-linecap="round" stroke-linejoin="round" stroke-width="0.8889" d="m14.522755555555555 16.58871111111111 -3.968666666666667 6.9550222222222216"></path>
    <path fill="none" stroke="#000000" stroke-linecap="round" stroke-linejoin="round" stroke-width="0.8889" d="m16.890577777777775 24.650444444444446 -0.8496444444444444 -8.1648"></path>
    <path fill="none" stroke="#000000" stroke-linecap="round" stroke-linejoin="round" stroke-width="0.8889" d="m17.461777777777776 27.912888888888887 0.2533333333333333 1.7964444444444443 5.6835555555555555 0L21.746222222222222 26.666666666666664"></path>
    <path fill="none" stroke="#000000" stroke-linecap="round" stroke-linejoin="round" stroke-width="0.8889" d="m16.040933333333335 16.485644444444443 3.637511111111111 6.352888888888889"></path>
    <path fill="none" stroke="#000000" stroke-linecap="round" stroke-linejoin="round" stroke-width="0.8889" d="M26.953866666666666 16.3724c-0.39026666666666665 2.6917777777777774 -1.7128444444444444 5.1612 -3.7371999999999996 6.977777777777777"></path>
    <path fill="none" stroke="#000000" stroke-linecap="round" stroke-linejoin="round" stroke-width="0.8889" d="M21.01382222222222 4.480533333333334c2.949333333333333 1.6123999999999998 5.058977777777778 4.419555555555556 5.787511111111111 7.700933333333333"></path>
    <path fill="none" stroke="#000000" stroke-linecap="round" stroke-linejoin="round" stroke-width="0.8889" d="M6.417422222222221 7.344088888888889c2.207822222222222 -2.7138666666666666 5.521466666666666 -4.287822222222222 9.02 -4.2844444444444445 0.3973333333333333 -0.00004444444444444445 0.7944444444444444 0.019999999999999997 1.189733333333333 0.06008888888888888"></path>
    <path fill="none" stroke="#000000" stroke-linecap="round" stroke-linejoin="round" stroke-width="0.8889" d="M4.647466666666666 19.061022222222224c-0.9987111111111111 -2.479911111111111 -1.1172888888888888 -5.2272 -0.33595555555555556 -7.783955555555555"></path>
    <path fill="none" stroke="#000000" stroke-linecap="round" stroke-linejoin="round" stroke-width="0.8889" d="M19.45017777777778 25.62222222222222c-4.384 1.6052888888888888 -9.302933333333332 0.4386222222222222 -12.499066666666666 -2.964444444444444"></path>
    <path fill="none" stroke="#000000" stroke-linecap="round" stroke-miterlimit="10" stroke-width="0.8889" d="M16.51697777777778 16.071111111111108c-0.7936444444444444 0.5248888888888888 -1.8624888888888886 0.30697777777777774 -2.3873777777777776 -0.48666666666666664 -0.5248888888888888 -0.7936444444444444 -0.30697777777777774 -1.8624888888888886 0.48666666666666664 -2.3873777777777776 0.7936444444444444 -0.5248888888888888 1.8624888888888886 -0.30697777777777774 2.3873777777777776 0.48666666666666664 0.18639999999999998 0.28186666666666665 0.2858222222222222 0.612311111111111 0.2858222222222222 0.9502222222222221"></path>
    <path fill="none" stroke="#000000" stroke-linecap="round" stroke-linejoin="round" stroke-width="0.8889" d="m16.875066666666665 13.156666666666666 5.453955555555555 -5.453911111111111"></path>
    <path fill="none" stroke="#000000" stroke-linecap="round" stroke-linejoin="round" stroke-width="0.8889" d="m8.403955555555555 21.640088888888886 5.818933333333333 -5.818933333333333"></path>
    <path fill="none" stroke="#000000" stroke-linecap="round" stroke-linejoin="round" stroke-width="0.8889" d="M14.155155555555554 13.62551111111111 8.397777777777778 7.868133333333333"></path>
    <path fill="none" stroke="#000000" stroke-linecap="round" stroke-linejoin="round" stroke-width="0.8889" d="M22.335155555555556 21.7932 16.565066666666667 16.023155555555554"></path>
    <path fill="none" stroke="#000000" stroke-linecap="round" stroke-linejoin="round" stroke-width="0.8889" d="m13.843955555555555 14.868 -8.248844444444444 0"></path>
    <path fill="none" stroke="#000000" stroke-linecap="round" stroke-linejoin="round" stroke-width="0.8889" d="m25.011644444444443 14.859288888888887 -7.7223999999999995 0"></path>
    <path fill="none" stroke="#000000" stroke-linecap="round" stroke-linejoin="round" stroke-width="0.8889" d="m15.5668 12.911377777777776 0 -8.248355555555555"></path>
    <path fill="none" stroke="#000000" stroke-miterlimit="10" stroke-width="0.8889" d="M3.152711111111111 9.237822222222222a2.039333333333333 2.039333333333333 0 1 0 4.078666666666666 0 2.039333333333333 2.039333333333333 0 1 0 -4.078666666666666 0"></path>
    <path fill="none" stroke="#000000" stroke-miterlimit="10" stroke-width="0.8889" d="M16.681155555555556 4.186a2.039333333333333 2.039333333333333 0 1 0 4.078666666666666 0 2.039333333333333 2.039333333333333 0 1 0 -4.078666666666666 0"></path>
    <path fill="none" stroke="#000000" stroke-miterlimit="10" stroke-width="0.8889" d="M29.13582222222222 14.31368888888889c0 1.1389333333333334 -0.9232888888888888 2.062222222222222 -2.062222222222222 2.062222222222222 -0.040355555555555554 0 -0.08035555555555554 -0.0011555555555555555 -0.12 -0.0034222222222222223 -1.1370222222222222 -0.06626666666666667 -2.0050222222222223 -1.0417333333333334 -1.938711111111111 -2.178711111111111s1.0417333333333334 -2.0050222222222223 2.178711111111111 -1.938711111111111c1.0904888888888888 0.06355555555555555 1.9422666666666666 0.9664444444444444 1.942222222222222 2.0587999999999997v-0.0001333333333333333Z"></path>
    <path fill="none" stroke="#000000" stroke-miterlimit="10" stroke-width="0.8889" d="M23.3552 24.650444444444446c0 1.1389333333333334 -0.9232888888888888 2.062222222222222 -2.062222222222222 2.062222222222222s-2.062222222222222 -0.9232888888888888 -2.062222222222222 -2.062222222222222 0.9232888888888888 -2.062222222222222 2.062222222222222 -2.062222222222222c1.1388 0.00035555555555555557 2.0618666666666665 0.9234222222222223 2.062222222222222 2.062222222222222Z"></path>
    <path fill="none" stroke="#000000" stroke-miterlimit="10" stroke-width="0.8889" d="M3.801111111111111 20.947511111111112a2.039333333333333 2.039333333333333 0 1 0 4.078666666666666 0 2.039333333333333 2.039333333333333 0 1 0 -4.078666666666666 0"></path>
  </g>
</svg>