<svg id="Fire--Streamline-Openmoji" viewBox="0 0 32 32" xmlns="http://www.w3.org/2000/svg" height="32" width="32">
  <desc>
    Fire Streamline Emoji: https://streamlinehq.com
  </desc>
  <g id="color">
    <path fill="#fcea2b" stroke="none" d="M22.81528888888889 25.91191111111111c3.361333333333333 -4.350844444444444 1.7919111111111108 -9.720933333333333 1.0871555555555554 -11.36391111111111 -0.07995555555555556 -0.18635555555555555 -0.4134222222222222 -0.24737777777777775 -0.4364444444444444 -0.044711111111111104 -0.05444444444444444 0.47986666666666666 -0.1804888888888889 1.0493777777777777 -0.8907111111111111 0.8771555555555555 -0.3645777777777778 -0.08839999999999999 -0.5990666666666666 -0.24711111111111111 -0.5990666666666666 -0.8356444444444444 0.2271111111111111 -6.688622222222222 -4.67151111111111 -11.243022222222223 -6.376133333333333 -12.682488888888887 -0.22679999999999997 -0.1915111111111111 -0.5630222222222222 0.013022222222222221 -0.5149777777777778 0.3128444444444444 1.0915555555555554 6.815466666666666 -0.7146222222222223 6.34871111111111 -1.3771555555555555 6.141866666666666 -0.11524444444444443 -0.036 -0.24035555555555552 0.024266666666666666 -0.29346666666666665 0.13662222222222223 -2.0391999999999997 4.311733333333333 -1.5160888888888888 6.340133333333333 -1.564 7.753555555555555l0 0.42582222222222216c0 0.7759999999999999 -0.6290666666666667 1.1476444444444442 -1.138088888888889 0.9206222222222222 -0.9131111111111111 -0.4072444444444444 -1.0687555555555555 -2.8324 -1.0726222222222224 -3.477111111111111 -0.0018222222222222223 -0.3034666666666666 -0.3597333333333333 -0.39071111111111106 -0.5342222222222222 -0.14755555555555555 -3.9132444444444445 5.451999999999999 -1.0333777777777777 10.309955555555554 -0.03653333333333333 11.696488888888888 0.28706666666666664 0.39928888888888886 0.4011111111111111 0.9221333333333334 0.23795555555555553 1.3910222222222222 -0.01831111111111111 0.05257777777777778 -0.03982222222222222 0.10453333333333333 -0.0651111111111111 0.1551111111111111 -0.17724444444444443 0.3547111111111111 0.29808888888888885 0.6222222222222221 0.29808888888888885 0.6222222222222221 0.5846666666666666 0.5484 2.428933333333333 2.3024888888888886 6.347422222222222 2.3024444444444443 3.1708444444444446 -0.00004444444444444445 5.310133333333334 -1.3597777777777778 6.146533333333333 -2.0998666666666668 0.39239999999999997 -0.3472 0.5671555555555555 -0.38195555555555555 0.5658666666666666 -0.7478666666666667 -0.0015999999999999999 -0.4377333333333333 -0.011422222222222222 -1.1122666666666667 0.2155111111111111 -1.3366222222222222" stroke-width="0.4444"></path>
    <path fill="#f1b31c" stroke="none" d="M16.130577777777777 14.470177777777776c-0.13093333333333332 0.6492888888888889 -0.586488888888889 1.778622222222222 -1.8698666666666668 3.7110666666666665 -0.02631111111111111 0.04728888888888889 -0.052088888888888886 0.09351111111111111 -0.0784 0.1408 -0.13724444444444445 0.30635555555555555 -0.6024444444444443 1.4850666666666668 -0.47186666666666666 3.1339555555555556l0 0.00004444444444444445c-0.00008888888888888889 0.0007999999999999999 -0.25466666666666665 1.9275555555555552 -1.323111111111111 1.7669777777777775 -0.22644444444444442 -0.03404444444444445 -0.4095111111111111 -0.11137777777777777 -0.5573777777777777 -0.21208888888888888 -0.2713333333333333 -0.18484444444444442 -0.6326222222222222 0.04808888888888889 -0.5995111111111111 0.3788888888888889 0.142 1.4188444444444444 0.7126222222222222 3.5920888888888887 2.7344888888888885 5.1876 0 0 0.570311111111111 0.47102222222222223 0.6406666666666666 0.8776888888888889 0.002311111111111111 0.013466666666666667 0.012888888888888889 0.022488888888888888 0.026266666666666664 0.022488888888888888l2.344044444444444 0c0.08142222222222222 0 0.09257777777777777 -0.010666666666666666 0.09488888888888888 -0.0264 0.01582222222222222 -0.10675555555555555 0.16191111111111112 -0.5557333333333333 1.4232888888888888 -1.6769777777777777 0.8873777777777777 -0.7888 1.4067555555555555 -1.7324444444444445 1.6632888888888888 -2.376977777777778 0.09102222222222223 -0.22866666666666663 -0.04488888888888889 -0.49657777777777773 -0.28395555555555557 -0.5363555555555556 -0.1528 -0.02542222222222222 -0.3167555555555555 -0.16013333333333332 -0.45035555555555556 -0.5262666666666667 -0.0001333333333333333 -0.0004444444444444444 -0.0001333333333333333 -0.00039999999999999996 -0.00031111111111111107 -0.0008444444444444444 -0.0028 -0.010444444444444444 -0.09631111111111111 -0.3725777777777778 0.2672444444444444 -1.1375555555555554 0.1691111111111111 -0.3558222222222222 0.18853333333333333 -0.7397777777777778 0.15999999999999998 -1.0513333333333332 -0.02573333333333333 -0.28097777777777777 -0.3214666666666667 -0.44355555555555554 -0.5696 -0.3180444444444444 -0.3484 0.17622222222222222 -0.8308444444444444 0.23573333333333332 -1.1552444444444443 -0.47791111111111106 0 0 -0.2926222222222222 -0.6960888888888889 -0.038177777777777776 -2.4228888888888886 0.1942222222222222 -1.3180444444444444 -0.44915555555555553 -3.4939999999999998 -1.2568444444444444 -4.610977777777777 -0.19937777777777776 -0.2756444444444444 -0.6319555555555555 -0.18031111111111112 -0.6995555555555556 0.1551111111111111z" stroke-width="0.4444"></path>
  </g>
  <g id="hair"></g>
  <g id="skin"></g>
  <g id="skin-shadow"></g>
  <g id="line">
    <path fill="none" stroke="#000000" stroke-linecap="round" stroke-linejoin="round" stroke-miterlimit="10" stroke-width="0.8889" d="M9.613244444444444 27.358311111111107c1.5462222222222222 1.6047999999999998 3.8534222222222216 2.4335111111111107 6.2188888888888885 2.4335111111111107 2.2464888888888885 0 4.758977777777778 -0.8721777777777777 6.329288888888889 -2.4300888888888887"></path>
    <path fill="none" stroke="#000000" stroke-linecap="round" stroke-linejoin="round" stroke-miterlimit="10" stroke-width="0.8889" d="M9.560355555555555 25.535866666666664s-4.680933333333333 -4.978266666666666 -0.20204444444444444 -11.546266666666666c0 0 0.08751111111111111 1.8039555555555555 0.5578222222222222 2.9251555555555555 0.21484444444444442 0.4605333333333333 0.5387555555555555 0.8697333333333334 1.0438666666666667 0.8697333333333334 0.5935555555555555 0 1.074711111111111 -0.39875555555555553 1.074711111111111 -1.1425777777777777l0 -0.40817777777777775c0.04666666666666666 -1.3776 -0.23337777777777777 -3.4070666666666662 1.5870222222222221 -7.640000000000001 0 0 3.127333333333333 1.6815555555555555 1.7737333333333332 -6.49431111111111 0 0 6.613244444444444 4.640933333333333 6.344977777777777 12.540888888888887 0 0.5641333333333334 0.4301333333333333 1.0214666666666665 0.9607555555555556 1.0214666666666665s0.9607555555555556 -0.45733333333333326 0.9607555555555556 -1.0214666666666665c0.03333333333333333 0.05959999999999999 2.8097333333333334 5.812444444444444 -1.117333333333333 10.895555555555555"></path>
    <path fill="none" stroke="#000000" stroke-linecap="round" stroke-linejoin="round" stroke-miterlimit="10" stroke-width="0.8889" d="M10.142355555555556 10.210177777777776c0.088 -0.4603555555555556 0.31475555555555557 -1.013422222222222 0.8545777777777778 -1.4748888888888887 0 0 0.8453777777777777 -0.7268888888888888 0.7090222222222221 -1.7024444444444442"></path>
  </g>
</svg>