<svg id="Flying-Saucer--Streamline-Openmoji" viewBox="0 0 32 32" xmlns="http://www.w3.org/2000/svg" height="32" width="32">
  <desc>
    Flying Saucer Streamline Emoji: https://streamlinehq.com
  </desc>
  <g id="color">
    <path fill="#d0cfce" stroke="none" d="m30.348222222222223 20.84342222222222 -0.10408888888888888 0.017377777777777777c-0.04048888888888889 0 -0.08097777777777777 0.0057777777777777775 -0.12724444444444444 0.011555555555555555l0.1388 -0.017377777777777777c0.03471111111111111 0 0.0636 -0.0057777777777777775 0.09253333333333333 -0.011555555555555555Z" stroke-width="0.4444"></path>
    <path fill="#d0cfce" stroke="none" d="M30.255688888888887 20.854977777777776c-0.0057777777777777775 0 -0.0057777777777777775 0 -0.011555555555555555 0.0057777777777777775 -0.04048888888888889 0 -0.08097777777777777 0.0058222222222222226 -0.12724444444444444 0.011600000000000001l0.1388 -0.017377777777777777Z" stroke-width="0.4444"></path>
    <path fill="#d0cfce" stroke="none" d="m30.348222222222223 20.84342222222222 -0.10408888888888888 0.017377777777777777c-0.04048888888888889 0 -0.08097777777777777 0.0057777777777777775 -0.12724444444444444 0.011555555555555555l0.1388 -0.017377777777777777c0.03471111111111111 0 0.0636 -0.0057777777777777775 0.09253333333333333 -0.011555555555555555Z" stroke-width="0.4444"></path>
    <path fill="#d0cfce" stroke="none" d="M30.839777777777776 21.317644444444444c-0.17346666666666666 0.17351111111111112 -2.6891555555555553 0.31808888888888887 -6.182222222222222 0.42217777777777776 -0.9368888888888889 0.023155555555555554 -1.9431555555555553 0.046266666666666664 -2.9899111111111107 0.06942222222222222 -0.6824 0.011555555555555555 -1.3879555555555554 0.02311111111111111 -2.1050666666666666 0.028888888888888888 -0.24288888888888888 0 -0.48 0.0057777777777777775 -0.7229333333333333 0.0057777777777777775 -0.06937777777777777 0.0057777777777777775 -0.13297777777777778 0.0057777777777777775 -0.2024 0.0057777777777777775 -0.3759111111111111 0.0057777777777777775 -0.7518222222222222 0.0057777777777777775 -1.133511111111111 0.011600000000000001 -0.5840888888888889 0.0057777777777777775 -1.1681777777777778 0.011555555555555555 -1.7580888888888888 0.011555555555555555 -1.7580888888888888 0.011555555555555555 -3.5161777777777776 0.0057777777777777775 -5.158622222222221 -0.011555555555555555 -0.6650666666666666 -0.0058222222222222226 -1.3127555555555555 -0.017377777777777777 -1.9315555555555555 -0.023155555555555554 -0.09253333333333333 -0.0057777777777777775 -0.17928888888888886 -0.0057777777777777775 -0.27182222222222224 -0.0057777777777777775 -0.2949333333333333 -0.0057777777777777775 -0.5840888888888889 -0.011555555555555555 -0.8674666666666666 -0.017333333333333333 -3.4583555555555554 -0.08675555555555556 -5.968266666666666 -0.2429333333333333 -6.22271111111111 -0.49737777777777775 -0.4106222222222222 -0.41639999999999994 -0.4453333333333333 -0.8269777777777777 -0.35279999999999995 -1.1450666666666667 0.09831111111111111 -0.3759111111111111 0.35279999999999995 -0.6303555555555554 0.35279999999999995 -0.6303555555555554l5.9104 -4.135022222222222h17.72551111111111L30.839777777777776 19.54222222222222s0.16773333333333332 0.3412 0.2313333333333333 0.7402222222222222c0.06364444444444443 0.34702222222222223 0.046266666666666664 0.7575999999999999 -0.2313333333333333 1.0352000000000001Z" stroke-width="0.4444"></path>
    <path fill="#9b9b9a" stroke="none" d="m18.773777777777777 15.80431111111111 4.599911111111111 5.810177777777778 7.253111111111111 -0.34888888888888886 0.4748444444444444 -0.5908888888888888 -0.4954222222222222 -1.2958666666666667 -5.699999999999999 -3.9715999999999996 -6.268977777777778 0.0867111111111111Z" stroke-width="0.4444"></path>
    <path fill="#d0cfce" stroke="none" d="M18.874355555555557 21.259822222222223c-0.12142222222222221 0 -0.24288888888888888 0.0057777777777777775 -0.36435555555555554 0.0057777777777777775h-0.266c0.12142222222222221 -0.0057777777777777775 0.24288888888888888 -0.0057777777777777775 0.36435555555555554 -0.0057777777777777775h0.266Z" stroke-width="0.4444"></path>
    <path fill="#d0cfce" stroke="none" d="M21.91053333333333 21.213555555555555c-0.0636 0 -0.12724444444444444 0 -0.18506666666666666 0.0057777777777777775 -0.11564444444444444 0 -0.2313333333333333 0 -0.3469777777777777 0.0057777777777777775h-0.09831111111111111c0.05782222222222222 -0.0057777777777777775 0.11564444444444444 -0.0057777777777777775 0.17351111111111112 -0.0057777777777777775 0.11564444444444444 0 0.23128888888888888 -0.0057777777777777775 0.3469777777777777 -0.0057777777777777775h0.10986666666666667Z" stroke-width="0.4444"></path>
    <path fill="#d0cfce" stroke="none" d="M24.88311111111111 21.138355555555556v0.0057777777777777775c-0.1330222222222222 0 -0.2660444444444444 0.0058222222222222226 -0.40484444444444445 0.011600000000000001 0.1388 -0.0057777777777777775 0.27182222222222224 -0.011600000000000001 0.40484444444444445 -0.017377777777777777Z" stroke-width="0.4444"></path>
    <path fill="#9b9b9a" stroke="none" d="M24.657555555555554 21.73982222222222c-0.9426666666666667 1.7580888888888888 -4.2969333333333335 3.065111111111111 -8.316222222222223 3.1171555555555557 0.05782222222222222 -0.046266666666666664 0.10986666666666667 -0.10408888888888888 0.16191111111111112 -0.15617777777777778 0.7460444444444444 -0.746 1.3995555555555554 -1.5209777777777778 1.954711111111111 -2.2901333333333334 0.1330222222222222 -0.19084444444444443 0.26026666666666665 -0.3759111111111111 0.38168888888888886 -0.5667555555555555 0.9658222222222221 -0.0057777777777777775 1.9142666666666666 -0.017333333333333333 2.828 -0.034666666666666665 1.0467555555555554 -0.023155555555555554 2.0530222222222223 -0.046266666666666664 2.9899111111111107 -0.06942222222222222Z" stroke-width="0.4444"></path>
    <path fill="#d0cfce" stroke="none" d="M18.839644444444446 21.84391111111111c-0.12142222222222221 0.19084444444444443 -0.24866666666666665 0.3759111111111111 -0.38168888888888886 0.5667555555555555 -0.5551555555555556 0.7691555555555555 -1.2086666666666666 1.5441333333333331 -1.954711111111111 2.2901333333333334 -0.05204444444444444 0.05204444444444444 -0.10408888888888888 0.1099111111111111 -0.16191111111111112 0.15617777777777778 -0.08675555555555556 0.0057777777777777775 -0.17928888888888886 0.0057777777777777775 -0.27182222222222224 0.0057777777777777775 -0.5031111111111111 0 -1.000488888888889 -0.017377777777777777 -1.480488888888889 -0.05782222222222222 -0.5089333333333333 -0.04048888888888889 -1.000488888888889 -0.09835555555555554 -1.4747111111111109 -0.17928888888888886 -2.6776444444444443 -0.43955555555555553 -4.765377777777777 -1.4631555555555555 -5.557644444444444 -2.747022222222222 -0.017377777777777777 -0.023155555555555554 -0.028933333333333335 -0.04048888888888889 -0.04048888888888889 -0.0636 1.133511111111111 0.02311111111111111 2.371111111111111 0.04044444444444444 3.6665333333333336 0.05204444444444444 0.07519999999999999 0 0.14457777777777775 -0.0057777777777777775 0.21977777777777777 0 2.3248444444444445 0.017333333333333333 4.828977777777777 0.011555555555555555 7.234755555555554 -0.017377777777777777 0.06942222222222222 0 0.1330222222222222 0 0.20244444444444443 -0.0057777777777777775Z" stroke-width="0.4444"></path>
    <path fill="#d0cfce" stroke="none" d="M18.874355555555557 21.259822222222223c-0.12142222222222221 0 -0.24288888888888888 0.0057777777777777775 -0.36435555555555554 0.0057777777777777775h-0.266c0.12142222222222221 -0.0057777777777777775 0.24288888888888888 -0.0057777777777777775 0.36435555555555554 -0.0057777777777777775h0.266Z" stroke-width="0.4444"></path>
    <path fill="#d0cfce" stroke="none" d="M21.91053333333333 21.213555555555555c-0.0636 0 -0.12724444444444444 0 -0.18506666666666666 0.0057777777777777775 -0.11564444444444444 0 -0.2313333333333333 0 -0.3469777777777777 0.0057777777777777775h-0.09831111111111111c0.05782222222222222 -0.0057777777777777775 0.11564444444444444 -0.0057777777777777775 0.17351111111111112 -0.0057777777777777775 0.11564444444444444 0 0.23128888888888888 -0.0057777777777777775 0.3469777777777777 -0.0057777777777777775h0.10986666666666667Z" stroke-width="0.4444"></path>
    <path fill="#9b9b9a" stroke="none" d="M18.874355555555557 21.259822222222223c-0.12142222222222221 0 -0.24288888888888888 0.0057777777777777775 -0.36435555555555554 0.0057777777777777775 0.03471111111111111 0 0.06942222222222222 0 0.09835555555555554 -0.0057777777777777775h0.266Z" stroke-width="0.4444"></path>
    <path fill="#9b9b9a" stroke="none" d="M21.725466666666666 21.21933333333333c-0.11564444444444444 0 -0.2313333333333333 0 -0.3469777777777777 0.0057777777777777775 0.02311111111111111 0 0.05204444444444444 0 0.07519999999999999 -0.0057777777777777775h0.2717777777777778Z" stroke-width="0.4444"></path>
    <path fill="#9b9b9a" stroke="none" d="M21.91053333333333 21.213555555555555c-0.0636 0 -0.12724444444444444 0 -0.18506666666666666 0.0057777777777777775 0.028933333333333335 0 0.05204444444444444 -0.0057777777777777775 0.07519999999999999 -0.0057777777777777775h0.10986666666666667Z" stroke-width="0.4444"></path>
    <path fill="#9b9b9a" stroke="none" d="M25.218533333333333 21.132577777777776c-0.0636 0 -0.12724444444444444 0 -0.19084444444444443 0.0057777777777777775 0.017333333333333333 0 0.028888888888888888 0 0.046266666666666664 -0.0057777777777777775h0.14457777777777775Z" stroke-width="0.4444"></path>
    <path fill="#9b9b9a" stroke="none" d="M26.09755555555555 21.103688888888886c-0.0636 0 -0.1272 0 -0.19084444444444443 0.0057777777777777775 0.023155555555555554 0 0.04048888888888889 0 0.05786666666666667 -0.0057777777777777775h0.13297777777777778Z" stroke-width="0.4444"></path>
    <path fill="#9b9b9a" stroke="none" d="M27.21373333333333 21.05742222222222c-0.07519999999999999 0.0057777777777777775 -0.15035555555555555 0.0057777777777777775 -0.2255555555555555 0.011555555555555555 0.017377777777777777 0 0.03471111111111111 0 0.046266666666666664 -0.0057777777777777775 0.0636 0 0.12146666666666665 0 0.17928888888888886 -0.0057777777777777775Z" stroke-width="0.4444"></path>
    <path fill="#9b9b9a" stroke="none" d="m30.348222222222223 20.84342222222222 -0.10408888888888888 0.017377777777777777c-0.04048888888888889 0 -0.08097777777777777 0.0057777777777777775 -0.12724444444444444 0.011555555555555555l0.1388 -0.017377777777777777c0.03471111111111111 0 0.0636 -0.0057777777777777775 0.09253333333333333 -0.011555555555555555Z" stroke-width="0.4444"></path>
    <path fill="#d0cfce" stroke="none" d="M4.231333333333334 21.103688888888886h-0.046266666666666664c-0.06364444444444443 -0.0058222222222222226 -0.12724444444444444 -0.011600000000000001 -0.18506666666666666 -0.011600000000000001 0.05204444444444444 0 0.10408888888888888 0.0057777777777777775 0.15613333333333332 0.0057777777777777775 0.028933333333333335 0 0.05204444444444444 0.0058222222222222226 0.07519999999999999 0.0058222222222222226Z" stroke-width="0.4444"></path>
    <path fill="#d0cfce" stroke="none" d="M4.578311111111111 21.121022222222223c-0.12146666666666665 -0.0057777777777777775 -0.23711111111111108 -0.011555555555555555 -0.3469777777777777 -0.017333333333333333 0.10408888888888888 0.0057777777777777775 0.2024 0.011555555555555555 0.30648888888888887 0.011555555555555555 0.011555555555555555 0.0057777777777777775 0.028933333333333335 0.0057777777777777775 0.04048888888888889 0.0057777777777777775Z" stroke-width="0.4444"></path>
    <path fill="#d0cfce" stroke="none" d="M7.267511111111111 21.21933333333333c-0.04048888888888889 -0.0057777777777777775 -0.07519999999999999 -0.0057777777777777775 -0.1099111111111111 -0.0057777777777777775h0.10408888888888888l0.0058222222222222226 0.0057777777777777775Z" stroke-width="0.4444"></path>
    <path fill="#d0cfce" stroke="none" d="M18.874355555555557 21.259822222222223c-0.12142222222222221 0 -0.24288888888888888 0.0057777777777777775 -0.36435555555555554 0.0057777777777777775h-0.266c0.12142222222222221 -0.0057777777777777775 0.24288888888888888 -0.0057777777777777775 0.36435555555555554 -0.0057777777777777775h0.266Z" stroke-width="0.4444"></path>
    <path fill="#d0cfce" stroke="none" d="M21.91053333333333 21.213555555555555c-0.0636 0 -0.12724444444444444 0 -0.18506666666666666 0.0057777777777777775 -0.11564444444444444 0 -0.2313333333333333 0 -0.3469777777777777 0.0057777777777777775h-0.09831111111111111c0.05782222222222222 -0.0057777777777777775 0.11564444444444444 -0.0057777777777777775 0.17351111111111112 -0.0057777777777777775 0.11564444444444444 0 0.23128888888888888 -0.0057777777777777775 0.3469777777777777 -0.0057777777777777775h0.10986666666666667Z" stroke-width="0.4444"></path>
    <path fill="#d0cfce" stroke="none" d="M24.912 21.138355555555556c-0.011555555555555555 0.0057777777777777775 -0.02311111111111111 0.0057777777777777775 -0.028888888888888888 0.0057777777777777775 -0.1330222222222222 0 -0.2660444444444444 0.0058222222222222226 -0.40484444444444445 0.011600000000000001 0.1388 -0.0057777777777777775 0.27182222222222224 -0.011600000000000001 0.40484444444444445 -0.017377777777777777h0.028888888888888888Z" stroke-width="0.4444"></path>
    <path fill="#d0cfce" stroke="none" d="M30.255688888888887 20.854977777777776c-0.0057777777777777775 0 -0.0057777777777777775 0 -0.011555555555555555 0.0057777777777777775 -0.04048888888888889 0 -0.08097777777777777 0.0058222222222222226 -0.12724444444444444 0.011600000000000001l0.1388 -0.017377777777777777Z" stroke-width="0.4444"></path>
    <path fill="#9b9b9a" stroke="none" d="M25.276355555555554 21.1268c-0.017333333333333333 0 -0.04048888888888889 0 -0.05782222222222222 0.0057777777777777775 -0.0636 0 -0.12724444444444444 0 -0.19084444444444443 0.0057777777777777775 0.017333333333333333 0 0.028888888888888888 0 0.046266666666666664 -0.0057777777777777775 0.06937777777777777 0 0.1388 0 0.2024 -0.0057777777777777775Z" stroke-width="0.4444"></path>
    <path fill="#9b9b9a" stroke="none" d="M26.14382222222222 21.097866666666665c-0.011555555555555555 0 -0.028888888888888888 0 -0.046266666666666664 0.0058222222222222226 -0.0636 0 -0.1272 0 -0.19084444444444443 0.0057777777777777775 0.023155555555555554 0 0.04048888888888889 0 0.05786666666666667 -0.0057777777777777775 0.0636 0 0.12142222222222221 0 0.17924444444444443 -0.0058222222222222226Z" stroke-width="0.4444"></path>
    <path fill="#9b9b9a" stroke="none" d="M27.21373333333333 21.05742222222222c-0.07519999999999999 0.0057777777777777775 -0.15035555555555555 0.0057777777777777775 -0.2255555555555555 0.011555555555555555 0.017377777777777777 0 0.03471111111111111 0 0.046266666666666664 -0.0057777777777777775 0.0636 0 0.12146666666666665 0 0.17928888888888886 -0.0057777777777777775Z" stroke-width="0.4444"></path>
    <path fill="#9b9b9a" stroke="none" d="m30.348222222222223 20.84342222222222 -0.10408888888888888 0.017377777777777777c-0.04048888888888889 0 -0.08097777777777777 0.0057777777777777775 -0.12724444444444444 0.011555555555555555l0.1388 -0.017377777777777777c0.03471111111111111 0 0.0636 -0.0057777777777777775 0.09253333333333333 -0.011555555555555555Z" stroke-width="0.4444"></path>
    <path fill="#d0cfce" stroke="none" d="M1.5594666666666666 20.837644444444443c-0.011555555555555555 0 -0.02311111111111111 -0.0057777777777777775 -0.03471111111111111 -0.0057777777777777775l-0.05204444444444444 -0.017377777777777777c0.023155555555555554 0.0058222222222222226 0.046266666666666664 0.011600000000000001 0.07519999999999999 0.017377777777777777 0.0057777777777777775 0 0.0057777777777777775 0.0057777777777777775 0.011555555555555555 0.0057777777777777775Z" stroke-width="0.4444"></path>
    <path fill="#d0cfce" stroke="none" d="M4.231333333333334 21.103688888888886h-0.046266666666666664c-0.011600000000000001 -0.0058222222222222226 -0.017377777777777777 -0.0058222222222222226 -0.028933333333333335 -0.0058222222222222226 0.028933333333333335 0 0.05204444444444444 0.0058222222222222226 0.07519999999999999 0.0058222222222222226Z" stroke-width="0.4444"></path>
    <path fill="#d0cfce" stroke="none" d="M1.5594666666666666 20.837644444444443c-0.011555555555555555 0 -0.02311111111111111 -0.0057777777777777775 -0.03471111111111111 -0.0057777777777777775l-0.05204444444444444 -0.017377777777777777c0.023155555555555554 0.0058222222222222226 0.046266666666666664 0.011600000000000001 0.07519999999999999 0.017377777777777777 0.0057777777777777775 0 0.0057777777777777775 0.0057777777777777775 0.011555555555555555 0.0057777777777777775Z" stroke-width="0.4444"></path>
    <path fill="#d0cfce" stroke="none" d="M4.231333333333334 21.103688888888886h-0.046266666666666664c-0.011600000000000001 -0.0058222222222222226 -0.017377777777777777 -0.0058222222222222226 -0.028933333333333335 -0.0058222222222222226 0.028933333333333335 0 0.05204444444444444 0.0058222222222222226 0.07519999999999999 0.0058222222222222226Z" stroke-width="0.4444"></path>
    <path fill="#61b2e4" stroke="none" d="M24.906222222222222 15.349377777777775v0.05786666666666667H18.909066666666664c0.5956444444444444 -2.8337777777777777 -0.2024 -5.9046666666666665 -2.405822222222222 -8.102266666666667 -0.05204444444444444 -0.05782222222222222 -0.10986666666666667 -0.1099111111111111 -0.1676888888888889 -0.16195555555555555 4.551377777777778 0.1330222222222222 8.241022222222222 3.7012444444444443 8.570666666666666 8.206355555555556Z" stroke-width="0.4444"></path>
    <path fill="#92d3f5" stroke="none" d="M18.909066666666664 15.407244444444444H7.227022222222222v-0.052088888888888886c0.10986666666666667 -1.5440888888888888 0.6188 -2.9840888888888886 1.4226666666666665 -4.210133333333333 1.3301333333333332 -2.024133333333333 3.4583555555555554 -3.4699111111111107 5.939333333333333 -3.8863111111111106 0.48 -0.08097777777777777 0.9773333333333332 -0.12146666666666665 1.480488888888889 -0.12146666666666665 0.08675555555555556 0 0.17928888888888886 0 0.2660444444444444 0.0057777777777777775 0.05782222222222222 0.05204444444444444 0.11564444444444444 0.10413333333333333 0.1676888888888889 0.16195555555555555 2.203422222222222 2.1976 3.0014666666666665 5.268488888888889 2.405822222222222 8.102266666666667Z" stroke-width="0.4444"></path>
    <path fill="#92d3f5" stroke="none" stroke-miterlimit="10" stroke-width="0.8889" d="M25.276355555555554 18.64013333333333c0 0.17928888888888886 -0.04048888888888889 0.35279999999999995 -0.11564444444444444 0.5089333333333333 -0.011600000000000001 0.028933333333333335 -0.023155555555555554 0.05204444444444444 -0.04048888888888889 0.08097777777777777 -0.20244444444444443 0.35275555555555554 -0.589911111111111 0.5956444444444444 -1.0236444444444444 0.5956444444444444 -0.10408888888888888 0 -0.2024 -0.011555555555555555 -0.2949333333333333 -0.046266666666666664 -0.3065333333333333 -0.07515555555555554 -0.5725333333333333 -0.2776 -0.7228888888888889 -0.5493777777777777 -0.1099111111111111 -0.17351111111111112 -0.16773333333333332 -0.3759111111111111 -0.16773333333333332 -0.589911111111111 0 -0.3180444444444444 0.12724444444444444 -0.6130222222222221 0.34702222222222223 -0.8211999999999999 0.13875555555555555 -0.15613333333333332 0.3296 -0.2660444444444444 0.5436 -0.31808888888888887 0.09253333333333333 -0.028888888888888888 0.19084444444444443 -0.04048888888888889 0.2949333333333333 -0.04048888888888889 0.6477333333333333 0 1.1797777777777778 0.5320888888888888 1.1797777777777778 1.1797777777777778Z"></path>
    <path fill="#92d3f5" stroke="none" stroke-miterlimit="10" stroke-width="0.8889" d="M17.26951111111111 18.64013333333333c0 0.17928888888888886 -0.04048888888888889 0.35279999999999995 -0.11564444444444444 0.5089333333333333 -0.011555555555555555 0.028933333333333335 -0.023155555555555554 0.05204444444444444 -0.04048888888888889 0.08097777777777777 -0.2024 0.35275555555555554 -0.5898666666666667 0.5956444444444444 -1.0236444444444444 0.5956444444444444 -0.10408888888888888 0 -0.2024 -0.011555555555555555 -0.2949333333333333 -0.046266666666666664 -0.30648888888888887 -0.07515555555555554 -0.5725333333333333 -0.2776 -0.7228888888888889 -0.5493777777777777 -0.10986666666666667 -0.17351111111111112 -0.1676888888888889 -0.3759111111111111 -0.1676888888888889 -0.589911111111111 0 -0.3180444444444444 0.1272 -0.6130222222222221 0.3469777777777777 -0.8211999999999999 0.1388 -0.15613333333333332 0.32964444444444446 -0.2660444444444444 0.5436 -0.31808888888888887 0.09253333333333333 -0.028888888888888888 0.19084444444444443 -0.04048888888888889 0.2949777777777777 -0.04048888888888889 0.6476888888888889 0 1.1797333333333333 0.5320888888888888 1.1797333333333333 1.1797777777777778Z"></path>
    <path fill="#92d3f5" stroke="none" stroke-miterlimit="10" stroke-width="0.8889" d="M9.317644444444444 18.64013333333333c0 0.17928888888888886 -0.04048888888888889 0.35279999999999995 -0.11568888888888887 0.5089333333333333 -0.011555555555555555 0.028933333333333335 -0.02311111111111111 0.05204444444444444 -0.04048888888888889 0.08097777777777777 -0.2024 0.35275555555555554 -0.5898666666666667 0.5956444444444444 -1.0236 0.5956444444444444 -0.10408888888888888 0 -0.2024 -0.011555555555555555 -0.2949333333333333 -0.046266666666666664 -0.3065333333333333 -0.07515555555555554 -0.5725333333333333 -0.2776 -0.7229333333333333 -0.5493777777777777 -0.10986666666666667 -0.17351111111111112 -0.1676888888888889 -0.3759111111111111 -0.1676888888888889 -0.589911111111111 0 -0.3180444444444444 0.12724444444444444 -0.6130222222222221 0.3469777777777777 -0.8211999999999999 0.1388 -0.15613333333333332 0.32964444444444446 -0.2660444444444444 0.5436444444444445 -0.31808888888888887 0.09253333333333333 -0.028888888888888888 0.19084444444444443 -0.04048888888888889 0.2949333333333333 -0.04048888888888889 0.6477333333333333 0 1.1797777777777778 0.5320888888888888 1.1797777777777778 1.1797777777777778Z"></path>
  </g>
  <g id="hair"></g>
  <g id="skin"></g>
  <g id="skin-shadow"></g>
  <g id="line">
    <path fill="none" stroke="#000000" stroke-miterlimit="10" stroke-width="0.8889" d="M25.276355555555554 18.64013333333333c0 0.17928888888888886 -0.04048888888888889 0.35279999999999995 -0.11564444444444444 0.5089333333333333 -0.011600000000000001 0.028933333333333335 -0.023155555555555554 0.05204444444444444 -0.04048888888888889 0.08097777777777777 -0.20244444444444443 0.35275555555555554 -0.589911111111111 0.5956444444444444 -1.0236444444444444 0.5956444444444444 -0.10408888888888888 0 -0.2024 -0.011555555555555555 -0.2949333333333333 -0.046266666666666664 -0.3065333333333333 -0.07515555555555554 -0.5725333333333333 -0.2776 -0.7228888888888889 -0.5493777777777777 -0.1099111111111111 -0.17351111111111112 -0.16773333333333332 -0.3759111111111111 -0.16773333333333332 -0.589911111111111 0 -0.3180444444444444 0.12724444444444444 -0.6130222222222221 0.34702222222222223 -0.8211999999999999 0.13875555555555555 -0.15613333333333332 0.3296 -0.2660444444444444 0.5436 -0.31808888888888887 0.09253333333333333 -0.028888888888888888 0.19084444444444443 -0.04048888888888889 0.2949333333333333 -0.04048888888888889 0.6477333333333333 0 1.1797777777777778 0.5320888888888888 1.1797777777777778 1.1797777777777778Z"></path>
    <path fill="none" stroke="#000000" stroke-miterlimit="10" stroke-width="0.8889" d="M17.26951111111111 18.64013333333333c0 0.17928888888888886 -0.04048888888888889 0.35279999999999995 -0.11564444444444444 0.5089333333333333 -0.011555555555555555 0.028933333333333335 -0.023155555555555554 0.05204444444444444 -0.04048888888888889 0.08097777777777777 -0.2024 0.35275555555555554 -0.5898666666666667 0.5956444444444444 -1.0236444444444444 0.5956444444444444 -0.10408888888888888 0 -0.2024 -0.011555555555555555 -0.2949333333333333 -0.046266666666666664 -0.30648888888888887 -0.07515555555555554 -0.5725333333333333 -0.2776 -0.7228888888888889 -0.5493777777777777 -0.10986666666666667 -0.17351111111111112 -0.1676888888888889 -0.3759111111111111 -0.1676888888888889 -0.589911111111111 0 -0.3180444444444444 0.1272 -0.6130222222222221 0.3469777777777777 -0.8211999999999999 0.1388 -0.15613333333333332 0.32964444444444446 -0.2660444444444444 0.5436 -0.31808888888888887 0.09253333333333333 -0.028888888888888888 0.19084444444444443 -0.04048888888888889 0.2949777777777777 -0.04048888888888889 0.6476888888888889 0 1.1797333333333333 0.5320888888888888 1.1797333333333333 1.1797777777777778Z"></path>
    <path fill="none" stroke="#000000" stroke-miterlimit="10" stroke-width="0.8889" d="M9.317644444444444 18.64013333333333c0 0.17928888888888886 -0.04048888888888889 0.35279999999999995 -0.11568888888888887 0.5089333333333333 -0.011555555555555555 0.028933333333333335 -0.02311111111111111 0.05204444444444444 -0.04048888888888889 0.08097777777777777 -0.2024 0.35275555555555554 -0.5898666666666667 0.5956444444444444 -1.0236 0.5956444444444444 -0.10408888888888888 0 -0.2024 -0.011555555555555555 -0.2949333333333333 -0.046266666666666664 -0.3065333333333333 -0.07515555555555554 -0.5725333333333333 -0.2776 -0.7229333333333333 -0.5493777777777777 -0.10986666666666667 -0.17351111111111112 -0.1676888888888889 -0.3759111111111111 -0.1676888888888889 -0.589911111111111 0 -0.3180444444444444 0.12724444444444444 -0.6130222222222221 0.3469777777777777 -0.8211999999999999 0.1388 -0.15613333333333332 0.32964444444444446 -0.2660444444444444 0.5436444444444445 -0.31808888888888887 0.09253333333333333 -0.028888888888888888 0.19084444444444443 -0.04048888888888889 0.2949333333333333 -0.04048888888888889 0.6477333333333333 0 1.1797777777777778 0.5320888888888888 1.1797777777777778 1.1797777777777778Z"></path>
    <path fill="none" stroke="#000000" stroke-linecap="round" stroke-linejoin="round" stroke-miterlimit="10" stroke-width="0.8889" d="M30.839777777777776 21.317644444444444c-0.17346666666666666 0.17351111111111112 -2.6891555555555553 0.31808888888888887 -6.182222222222222 0.42217777777777776 -0.9368888888888889 0.023155555555555554 -1.9431555555555553 0.046266666666666664 -2.9899111111111107 0.06942222222222222 -0.6824 0.011555555555555555 -1.3879555555555554 0.02311111111111111 -2.1050666666666666 0.028888888888888888 -0.24288888888888888 0 -0.48 0.0057777777777777775 -0.7229333333333333 0.0057777777777777775 -0.06937777777777777 0.0057777777777777775 -0.13297777777777778 0.0057777777777777775 -0.2024 0.0057777777777777775 -0.3759111111111111 0.0057777777777777775 -0.7518222222222222 0.0057777777777777775 -1.133511111111111 0.011600000000000001 -0.5840888888888889 0.0057777777777777775 -1.1681777777777778 0.011555555555555555 -1.7580888888888888 0.011555555555555555 -1.7580888888888888 0.011555555555555555 -3.5161777777777776 0.0057777777777777775 -5.158622222222221 -0.011555555555555555 -0.6650666666666666 -0.0058222222222222226 -1.3127555555555555 -0.017377777777777777 -1.9315555555555555 -0.023155555555555554 -0.09253333333333333 -0.0057777777777777775 -0.17928888888888886 -0.0057777777777777775 -0.27182222222222224 -0.0057777777777777775 -0.2949333333333333 -0.0057777777777777775 -0.5840888888888889 -0.011555555555555555 -0.8674666666666666 -0.017333333333333333 -3.4583555555555554 -0.08675555555555556 -5.968266666666666 -0.2429333333333333 -6.22271111111111 -0.49737777777777775 -0.4106222222222222 -0.41639999999999994 -0.4453333333333333 -0.8269777777777777 -0.35279999999999995 -1.1450666666666667 0.09831111111111111 -0.3759111111111111 0.35279999999999995 -0.6303555555555554 0.35279999999999995 -0.6303555555555554l5.9104 -4.135022222222222h17.72551111111111L30.839777777777776 19.54222222222222s0.16773333333333332 0.3412 0.2313333333333333 0.7402222222222222c0.06364444444444443 0.34702222222222223 0.046266666666666664 0.7575999999999999 -0.2313333333333333 1.0352000000000001Z"></path>
    <path fill="none" stroke="#000000" stroke-linecap="round" stroke-linejoin="round" stroke-miterlimit="10" stroke-width="0.8889" d="M19.562577777777776 21.838133333333335c-0.24288888888888888 0.0057777777777777775 -0.48582222222222216 0.0057777777777777775 -0.7287111111111111 0.011555555555555555 0.0057777777777777775 0 0.0057777777777777775 -0.0057777777777777775 0.0057777777777777775 -0.0057777777777777775 0.24288888888888888 0 0.48 -0.0057777777777777775 0.7229333333333333 -0.0057777777777777775Z"></path>
    <path fill="none" stroke="#000000" stroke-linecap="round" stroke-linejoin="round" stroke-miterlimit="10" stroke-width="0.8889" d="M24.657555555555554 21.73982222222222c-0.9426666666666667 1.7580888888888888 -4.2969333333333335 3.065111111111111 -8.316222222222223 3.1171555555555557 -0.08675555555555556 0.0057777777777777775 -0.17928888888888886 0.0057777777777777775 -0.27182222222222224 0.0057777777777777775 -0.5031555555555556 0 -1.000488888888889 -0.017377777777777777 -1.480488888888889 -0.05782222222222222 -0.5089333333333333 -0.04048888888888889 -1.000488888888889 -0.09831111111111111 -1.4747111111111109 -0.17928888888888886 -2.6776444444444443 -0.4395111111111111 -4.765377777777777 -1.4631555555555555 -5.557644444444444 -2.747022222222222 -0.017377777777777777 -0.023155555555555554 -0.028933333333333335 -0.04048888888888889 -0.04048888888888889 -0.0636 0.28337777777777773 0.0057777777777777775 0.5725333333333333 0.011555555555555555 0.8674666666666666 0.017333333333333333 0.09253333333333333 0 0.17928888888888886 0 0.27182222222222224 0.0057777777777777775 0.6188 0.0057777777777777775 1.2664888888888888 0.017377777777777777 1.9315555555555555 0.023155555555555554 1.6424444444444444 0.017333333333333333 3.400533333333333 0.02311111111111111 5.158622222222221 0.011555555555555555 0.589911111111111 0 1.174 -0.0057777777777777775 1.7580888888888888 -0.011555555555555555 0.38168888888888886 -0.0057777777777777775 0.7575999999999999 -0.0057777777777777775 1.133511111111111 -0.011600000000000001h0.19662222222222223c0.24288888888888888 -0.0057777777777777775 0.48577777777777775 -0.0057777777777777775 0.7287111111111111 -0.011555555555555555 0.717111111111111 -0.0057777777777777775 1.4226666666666665 -0.017333333333333333 2.1050666666666666 -0.028888888888888888 1.0467555555555554 -0.023155555555555554 2.0530222222222223 -0.046266666666666664 2.9899111111111107 -0.06942222222222222Z"></path>
    <path fill="none" stroke="#000000" stroke-linecap="round" stroke-linejoin="round" stroke-miterlimit="10" stroke-width="0.8889" d="M18.839644444444446 21.84391111111111s0 0.0057777777777777775 -0.0057777777777777775 0.0057777777777777775h-0.19662222222222223c0.06942222222222222 0 0.1330222222222222 0 0.20244444444444443 -0.0057777777777777775Z"></path>
    <path fill="none" stroke="#000000" stroke-linecap="round" stroke-linejoin="round" stroke-miterlimit="10" stroke-width="0.8889" d="M19.562577777777776 21.838133333333335c-0.24288888888888888 0.0057777777777777775 -0.48582222222222216 0.0057777777777777775 -0.7287111111111111 0.011555555555555555h-0.19662222222222223c0.06942222222222222 0 0.1330222222222222 0 0.2024 -0.0057777777777777775 0.2429333333333333 0 0.48004444444444444 -0.0057777777777777775 0.7229333333333333 -0.0057777777777777775Z"></path>
    <path fill="none" stroke="#000000" stroke-linecap="round" stroke-linejoin="round" stroke-miterlimit="10" stroke-width="0.8889" d="M24.906222222222222 15.349377777777775v0.05786666666666667H7.227022222222222v-0.052088888888888886c0.10986666666666667 -1.5440888888888888 0.6188 -2.9840888888888886 1.4226666666666665 -4.210133333333333 1.3301333333333332 -2.024133333333333 3.4583555555555554 -3.4699111111111107 5.939333333333333 -3.8863111111111106 0.48 -0.08097777777777777 0.9773333333333332 -0.12146666666666665 1.480488888888889 -0.12146666666666665 0.08675555555555556 0 0.17928888888888886 0 0.2660444444444444 0.0057777777777777775 4.551377777777778 0.1330222222222222 8.241022222222222 3.7012444444444443 8.570666666666666 8.206355555555556Z"></path>
  </g>
</svg>