<svg id="Headphone--Streamline-Openmoji" viewBox="0 0 32 32" xmlns="http://www.w3.org/2000/svg" height="32" width="32">
  <desc>
    Headphone Streamline Emoji: https://streamlinehq.com
  </desc>
  <g id="color">
    <path fill="#9b9b9a" d="m11.324488888888888 31.13431111111111 0.045377777777777774 -12.502666666666666c-2.0157333333333334 0.5863555555555555 -3.6104888888888884 3.0352 -3.8614666666666664 6.449333333333333 -0.26164444444444446 3.555911111111111 1.873022222222222 5.516133333333333 3.8160888888888884 6.053333333333333Z" stroke-width="0.4444"></path>
    <path fill="#9b9b9a" d="m20.747644444444443 18.579822222222223 -0.0876 12.502577777777777c0.5599555555555555 -0.20115555555555553 1.513111111111111 -0.4562222222222222 2.512 -1.5581777777777777 1.0896 -1.0708444444444445 1.468 -2.930622222222222 1.3619999999999999 -4.6328 -0.09257777777777777 -1.4834222222222222 -0.4483555555555555 -2.962 -1.1228444444444445 -3.9808444444444437 -1.1634666666666666 -1.8460444444444444 -2.1144444444444446 -2.1070666666666664 -2.6635555555555555 -2.3307555555555557Z" stroke-width="0.4444"></path>
    <path fill="#d0cfce" d="m20.676488888888887 18.53422222222222 -2.035911111111111 0.6512444444444444 -0.7915555555555555 2.4273333333333333 -0.08515555555555555 7.2988 0.9725777777777777 1.6306666666666665 1.9352444444444445 0.5044444444444445 0.004844444444444444 -12.512488888888887Z" stroke-width="0.4444"></path>
    <path fill="#d0cfce" d="m14.008266666666666 28.510355555555556 0.09044444444444444 -7.536444444444444 -0.7437777777777778 -1.7877777777777777c-0.15128888888888886 -0.07848888888888889 -1.8347555555555553 -0.5260444444444444 -1.8347555555555553 -0.5260444444444444 -0.07124444444444444 0.11244444444444444 -0.0344 12.495644444444444 -0.0344 12.495644444444444l1.7835555555555553 -0.5438222222222222s0.7865333333333333 -1.3543555555555555 0.7390222222222222 -2.1014666666666666Z" stroke-width="0.4444"></path>
    <path fill="#d0cfce" d="M29.54231111111111 23.36564444444444c3.803955555555555 -9.239688888888889 -1.6821777777777775 -16.45111111111111 -2.855511111111111 -17.8664 -0.5669777777777778 -0.6839555555555555 -5.359555555555555 -4.725288888888889 -10.9964 -4.6017777777777775 -4.882355555555556 0.10702222222222221 -10.321288888888889 4.0732888888888885 -12.057022222222221 6.741599999999999C0.39515555555555554 12.897955555555555 1.4768888888888887 19.426666666666666 1.4824 19.461999999999996c0.9258666666666667 5.316577777777778 2.4939555555555555 6.874133333333333 2.4939555555555555 6.874133333333333s0.9042222222222221 -0.7698222222222222 0.1344 -2.3461333333333334c-0.5333333333333333 -0.8336444444444444 -1.4417333333333333 -4.543688888888888 -1.4417333333333333 -7.543866666666666 0 -8.040622222222222 5.731111111111111 -14.107466666666667 13.330533333333333 -14.112266666666667 7.600533333333332 0.0048 13.331066666666667 6.071644444444444 13.331066666666667 14.112266666666667 0 3.000711111111111 -0.7317777777777777 6.2737333333333325 -1.4044888888888887 7.398755555555556 -0.8821333333333332 1.6824 0.10915555555555556 2.519066666666667 0.10915555555555556 2.519066666666667 0.11617777777777778 -0.14288888888888887 0.5180444444444444 -1.3744888888888889 1.5070222222222223 -2.998311111111111Z" stroke-width="0.4444"></path>
  </g>
  <g id="line">
    <path fill="none" stroke="#000000" stroke-linecap="round" stroke-linejoin="round" stroke-width="0.8889" d="M13.35111111111111 19.182844444444445c0.5323555555555555 0.2748888888888889 0.8965333333333332 0.829111111111111 0.8965333333333332 1.4664444444444444l-0.00008888888888888889 8.460444444444445c-0.03551111111111111 0.6680444444444444 0.05151111111111111 0.8977777777777778 -0.9825777777777777 1.4993777777777777"></path>
    <path fill="none" stroke="#000000" stroke-linecap="round" stroke-linejoin="round" stroke-width="0.8889" d="M11.376222222222221 18.631555555555554s-3.4671999999999996 0.9741777777777777 -3.856444444444444 6.269022222222222 3.804711111111111 6.233733333333333 3.804711111111111 6.233733333333333l0.05173333333333333 -12.502755555555554Z"></path>
    <path fill="none" stroke="#000000" stroke-linecap="round" stroke-linejoin="round" stroke-width="0.8889" d="M18.642755555555553 19.17813333333333c-0.46777777777777774 0.2875111111111111 -0.7822666666666667 0.8004444444444444 -0.7888 1.3872888888888888l-0.09417777777777778 8.459911111111111c-0.0076 0.6807111111111112 0.4013777777777778 1.2676444444444444 0.990711111111111 1.5211999999999999"></path>
    <path fill="none" stroke="#000000" stroke-linecap="round" stroke-linejoin="round" stroke-width="0.8889" d="M20.747644444444443 18.579822222222223s3.456088888888889 1.0127111111111111 3.7863999999999995 6.311599999999999c0.3302222222222222 5.298844444444444 -3.8739999999999997 6.1909777777777775 -3.8739999999999997 6.1909777777777775l0.0876 -12.502577777777777Z"></path>
    <path fill="none" stroke="#000000" stroke-linecap="round" stroke-linejoin="round" stroke-width="0.8889" d="M28.022177777777777 26.371333333333332c1.7510666666666665 -2.7601777777777774 2.7767555555555554 -6.095199999999999 2.7767555555555554 -9.925022222222221 0 -8.599377777777779 -6.1944 -15.571200000000001 -14.790577777777775 -15.580266666666665v-0.00035555555555555557c-0.0028888888888888888 0 -0.005555555555555556 0.00008888888888888889 -0.0084 0.00008888888888888889 -0.0027555555555555554 0 -0.005555555555555556 -0.00008888888888888889 -0.008311111111111111 -0.00008888888888888889v0.00035555555555555557C7.395466666666667 0.8751111111111111 1.2010666666666665 7.846933333333332 1.2010666666666665 16.446311111111108c0 3.8298222222222225 1.025511111111111 7.1648444444444435 2.776577777777778 9.925022222222221"></path>
    <path fill="none" stroke="#000000" stroke-linecap="round" stroke-linejoin="round" stroke-width="0.8889" d="M23.74751111111111 8.029066666666667c-1.7091555555555555 -2.4247555555555556 -4.456222222222222 -3.9899999999999993 -7.742088888888888 -3.993422222222222v-0.0002666666666666666c-0.0018666666666666664 0 -0.0035999999999999995 0.00004444444444444445 -0.0054666666666666665 0.00004444444444444445 -0.0017777777777777776 0 -0.0035999999999999995 -0.00004444444444444445 -0.005377777777777777 -0.00004444444444444445v0.0002666666666666666c-3.2719111111111108 0.0034222222222222223 -6.0096 1.5553777777777777 -7.720266666666666 3.962533333333333"></path>
  </g>
</svg>