<svg id="Hot-Dog--Streamline-Openmoji" viewBox="0 0 32 32" xmlns="http://www.w3.org/2000/svg" height="32" width="32">
  <desc>
    Hot Dog Streamline Emoji: https://streamlinehq.com
  </desc>
  <g id="color">
    <path fill="#f4aa41" stroke="none" d="M23.9256 1.866222222222222c-1.2237777777777776 -1.2249777777777777 -3.2094666666666667 -1.2249777777777777 -4.434444444444444 0L1.866222222222222 19.49c-1.2249777777777777 1.2249333333333332 -1.2249777777777777 3.2106222222222223 -0.0012 4.434933333333333L8.074444444444444 30.133777777777777c1.2249333333333332 1.2249777777777777 3.2106222222222223 1.2249777777777777 4.434399999999999 0l17.626133333333332 -17.62377777777778c1.2237777777777776 -1.2249333333333332 1.2237777777777776 -3.2106222222222223 0 -4.434933333333333L23.9256 1.866222222222222Z" stroke-width="0.4444"></path>
    <path fill="#ea5a47" stroke="none" d="M6.300666666666666 30.133777777777777c-1.2250222222222222 1.2249777777777777 -3.210711111111111 1.2249777777777777 -4.435644444444444 0 -1.2237777777777776 -1.2244 -1.2237777777777776 -3.2100444444444443 0 -4.434444444444444L25.699333333333332 1.866222222222222c1.2250222222222222 -1.2249777777777777 3.210711111111111 -1.2249777777777777 4.435644444444444 0 1.2237777777777776 1.2243555555555554 1.2237777777777776 3.2100444444444443 0 4.434444444444444L6.300666666666666 30.133777777777777Z" stroke-width="0.4444"></path>
  </g>
  <g id="hair"></g>
  <g id="skin"></g>
  <g id="skin-shadow"></g>
  <g id="line">
    <path fill="none" stroke="#000000" stroke-linecap="round" stroke-linejoin="round" stroke-miterlimit="10" stroke-width="0.8889" d="M10.355333333333332 21.64533333333333c0 1.0387111111111111 -0.8427555555555556 1.8821777777777775 -1.8822222222222222 1.8821777777777775 -1.0393777777777777 0 -1.8809333333333331 0.8427555555555556 -1.8815555555555556 1.8815555555555556"></path>
    <path fill="none" stroke="#000000" stroke-linecap="round" stroke-linejoin="round" stroke-miterlimit="10" stroke-width="0.8889" d="M17.8828 14.118444444444444C17.8828 15.157244444444444 17.04 16 16 16c-1.0387555555555557 0 -1.8809333333333331 0.8428 -1.8815555555555556 1.8815555555555556"></path>
    <path fill="none" stroke="#000000" stroke-linecap="round" stroke-linejoin="round" stroke-miterlimit="10" stroke-width="0.8889" d="M14.118444444444444 17.881555555555554c0 1.0388 -0.8415555555555555 1.8821777777777775 -1.8815555555555556 1.8815555555555556 -1.0393777777777777 0 -1.8816 0.8433777777777777 -1.8816 1.8822222222222222"></path>
    <path fill="none" stroke="#000000" stroke-linecap="round" stroke-linejoin="round" stroke-miterlimit="10" stroke-width="0.8889" d="M21.645955555555556 10.354044444444444c0 1.0394666666666665 -0.8415555555555555 1.8828444444444443 -1.8816 1.8822222222222222 -1.0399999999999998 0 -1.8815555555555556 0.8434222222222222 -1.8815555555555556 1.8821777777777775"></path>
    <path fill="none" stroke="#000000" stroke-linecap="round" stroke-linejoin="round" stroke-miterlimit="10" stroke-width="0.8889" d="M25.409066666666664 6.590933333333332c0 1.0388 -0.8415555555555555 1.8815555555555556 -1.8815555555555556 1.8815555555555556 -1.0388 0 -1.8815555555555556 0.8434666666666666 -1.8815555555555556 1.8815555555555556"></path>
    <path fill="none" stroke="#000000" stroke-linecap="round" stroke-linejoin="round" stroke-miterlimit="10" stroke-width="0.8889" d="M6.300666666666666 30.133777777777777c-1.2250222222222222 1.2249777777777777 -3.210711111111111 1.2249777777777777 -4.435644444444444 0 -1.2237777777777776 -1.2244 -1.2237777777777776 -3.2100444444444443 0 -4.434444444444444L25.699333333333332 1.866222222222222c1.2250222222222222 -1.2249777777777777 3.210711111111111 -1.2249777777777777 4.435644444444444 0 1.2237777777777776 1.2243555555555554 1.2237777777777776 3.2100444444444443 0 4.434444444444444L6.300666666666666 30.133777777777777Z"></path>
    <path fill="none" stroke="#000000" stroke-linecap="round" stroke-linejoin="round" stroke-miterlimit="10" stroke-width="0.8889" d="M24.812488888888886 2.7531111111111106 23.9256 1.866222222222222c-1.2237777777777776 -1.2249777777777777 -3.2094666666666667 -1.2249777777777777 -4.434444444444444 0L1.866222222222222 19.49c-1.2249777777777777 1.2249333333333332 -1.2249777777777777 3.2106222222222223 -0.0012 4.434933333333333l0.8880888888888888 0.8875555555555555"></path>
    <path fill="none" stroke="#000000" stroke-linecap="round" stroke-linejoin="round" stroke-miterlimit="10" stroke-width="0.8889" d="m7.187511111111111 29.246888888888886 0.8868888888888888 0.8868888888888888c1.2249777777777777 1.2249777777777777 3.2106666666666666 1.2249777777777777 4.434444444444444 0l17.626133333333332 -17.62377777777778c1.2237777777777776 -1.2249333333333332 1.2237777777777776 -3.2106222222222223 0 -4.434933333333333l-0.8868888888888888 -0.8875555555555555"></path>
  </g>
</svg>