<svg id="Kiwi-Fruit--Streamline-Openmoji" viewBox="0 0 72 72" xmlns="http://www.w3.org/2000/svg" height="32" width="32">
  <desc>
    Kiwi Fruit Streamline Emoji: https://streamlinehq.com
  </desc>
  <g id="color">
    <path fill="#5c9e31" stroke="none" stroke-linecap="round" stroke-linejoin="round" stroke-miterlimit="10" stroke-width="2" d="M11.125 35.7625a25.0125 25.0125 0 1 0 50.025 0 25.0125 25.0125 0 1 0-50.025 0"></path>
    <path fill="#b1cc33" stroke="none" stroke-linecap="round" stroke-linejoin="round" stroke-miterlimit="10" stroke-width="2" d="m37.3152 26.3316 2.3679-2.1883c1.156-1.0683 3.0228-.1693 2.9083 1.4006l-.2345 3.2157c-.0658.9029.5736 1.7048 1.4686 1.8415l3.1872.4869c1.5559.2377 2.017 2.2578.7183 3.147l-2.6603 1.8216c-.747.5115-.9752 1.5114-.5241 2.2963l1.6065 2.7955c.7843 1.3647-.5076 2.9846-2.0126 2.5237l-3.0829-.9442c-.8657-.2651-1.7897.1799-2.1221 1.022l-1.184 2.999c-.578 1.464-2.65 1.464-3.228 0l-1.184-2.999c-.3324-.8421-1.2565-1.2871-2.1221-1.022l-3.0829.9442c-1.505.4609-2.7969-1.159-2.0126-2.5237l1.6065-2.7955c.4511-.785.2229-1.7848-.5241-2.2963L24.544 34.235c-1.2987-.8893-.8377-2.9093.7183-3.147l3.1872-.4869c.895-.1367 1.5344-.9386 1.4685-1.8415l-.2345-3.2157c-.1145-1.5698 1.7523-2.4688 2.9083-1.4006l2.3679 2.1883c.665.6145 1.6906.6145 2.3555 0z"></path>
  </g>
  <g id="hair"></g>
  <g id="skin"></g>
  <g id="skin-shadow"></g>
  <g id="line">
    <path fill="none" stroke="#000000" stroke-linecap="round" stroke-linejoin="round" stroke-miterlimit="10" stroke-width="2" d="M11.125 35.7625a25.0125 25.0125 0 1 0 50.025 0 25.0125 25.0125 0 1 0-50.025 0"></path>
    <path fill="none" stroke="#000000" stroke-linecap="round" stroke-linejoin="round" stroke-miterlimit="10" stroke-width="2" d="m37.3152 26.3316 2.3679-2.1883c1.156-1.0683 3.0228-.1693 2.9083 1.4006l-.2345 3.2157c-.0658.9029.5736 1.7048 1.4686 1.8415l3.1872.4869c1.5559.2377 2.017 2.2578.7183 3.147l-2.6603 1.8216c-.747.5115-.9752 1.5114-.5241 2.2963l1.6065 2.7955c.7843 1.3647-.5076 2.9846-2.0126 2.5237l-3.0829-.9442c-.8657-.2651-1.7897.1799-2.1221 1.022l-1.184 2.999c-.578 1.464-2.65 1.464-3.228 0l-1.184-2.999c-.3324-.8421-1.2565-1.2871-2.1221-1.022l-3.0829.9442c-1.505.4609-2.7969-1.159-2.0126-2.5237l1.6065-2.7955c.4511-.785.2229-1.7848-.5241-2.2963L24.544 34.235c-1.2987-.8893-.8377-2.9093.7183-3.147l3.1872-.4869c.895-.1367 1.5344-.9386 1.4685-1.8415l-.2345-3.2157c-.1145-1.5698 1.7523-2.4688 2.9083-1.4006l2.3679 2.1883c.665.6145 1.6906.6145 2.3555 0z"></path>
    <path transform="rotate(-48.417 24.192 25.13)" fill="#000000" stroke="none" d="M23.2774 25.1298a.9136 1.8273 0 1 0 1.8272 0 .9136 1.8273 0 1 0-1.8272 0"></path>
    <path fill="#000000" stroke="none" d="M35.1255 19.0522a.9136 1.8273 0 1 0 1.8272 0 .9136 1.8273 0 1 0-1.8272 0"></path>
    <path transform="rotate(-45.001 48.069 25.24)" fill="#000000" stroke="none" d="M46.2413 25.2399a1.8273.9136 0 1 0 3.6546 0 1.8273.9136 0 1 0-3.6546 0"></path>
    <path transform="rotate(-83.633 50.812 38.101)" fill="#000000" stroke="none" d="M49.8947 38.1005a.9136 1.8273 0 1 0 1.8272 0 .9136 1.8273 0 1 0-1.8272 0"></path>
    <path fill="#000000" stroke="none" d="M19.6454 37.9896a1.8273.9136 0 1 0 3.6546 0 1.8273.9136 0 1 0-3.6546 0"></path>
    <path transform="rotate(-60 29.38 48.706)" fill="#000000" stroke="none" d="M27.5519 48.7042a1.8273.9136 0 1 0 3.6546 0 1.8273.9136 0 1 0-3.6546 0"></path>
    <path transform="rotate(-28.115 43.05 48.739)" fill="#000000" stroke="none" d="M42.1398 48.7368a.9136 1.8273 0 1 0 1.8272 0 .9136 1.8273 0 1 0-1.8272 0"></path>
  </g>
</svg>