<svg id="Level-Slider--Streamline-Openmoji" viewBox="0 0 32 32" xmlns="http://www.w3.org/2000/svg" height="32" width="32">
  <desc>
    Level Slider Streamline Emoji: https://streamlinehq.com
  </desc>
  <g id="color">
    <path fill="#d0cfce" stroke="none" d="M23.05991111111111 2.644311111111111H8.866755555555555c-0.49 0 -0.8888888888888888 0.39866666666666667 -0.8888888888888888 0.8888888888888888v24.952044444444443c0 0.49 0.39888888888888885 0.8888888888888888 0.8888888888888888 0.8888888888888888h14.193155555555554c0.49 0 0.8888888888888888 -0.39888888888888885 0.8888888888888888 -0.8888888888888888V3.5332c0 -0.49022222222222217 -0.39888888888888885 -0.8888888888888888 -0.8888888888888888 -0.8888888888888888z" stroke-width="0.4444"></path>
    <path fill="#3f3f3f" stroke="none" d="M12.934 10.430355555555554v4.301333333333334h6.132v-4.301333333333334h-6.132z" stroke-width="0.4444"></path>
    <path fill="#9b9b9a" stroke="none" d="M17.36564444444444 6.203688888888888c0 -0.49022222222222217 -0.9942222222222222 -1.3333333333333333 -1.484222222222222 -1.3333333333333333 0 0 -1.1943111111111109 0.2530222222222222 -1.1943111111111109 0.7432444444444444 0 0 -0.13115555555555553 4.807377777777777 -0.13115555555555553 4.807422222222223l2.9445333333333332 0.009333333333333334c0 -0.00004444444444444445 -0.13484444444444443 -4.226666666666667 -0.13484444444444443 -4.226666666666667z" stroke-width="0.4444"></path>
    <path fill="#9b9b9a" stroke="none" d="M14.548088888888886 14.849599999999999v10.909644444444444c0 0.49 0.46564444444444447 1.3333333333333333 1.3333333333333333 1.3333333333333333s1.484222222222222 -0.8433333333333333 1.484222222222222 -1.3333333333333333V14.849599999999999h-2.8175555555555554z" stroke-width="0.4444"></path>
  </g>
  <g id="hair"></g>
  <g id="skin"></g>
  <g id="skin-shadow"></g>
  <g id="line">
    <path fill="none" stroke="#000000" stroke-linecap="round" stroke-linejoin="round" stroke-miterlimit="10" stroke-width="0.8889" d="M14.548088888888886 10.26528888888889v-4.0616c0 -0.7363555555555555 0.5970222222222221 -1.3333333333333333 1.3333333333333333 -1.3333333333333333h0.15088888888888888c0.7363111111111111 0 1.3333333333333333 0.5969777777777777 1.3333333333333333 1.3333333333333333v4.0616"></path>
    <path fill="none" stroke="#000000" stroke-linecap="round" stroke-linejoin="round" stroke-miterlimit="10" stroke-width="0.8889" d="M17.36564444444444 14.849599999999999v10.909644444444444c0 0.7363999999999999 -0.5970222222222221 1.3333333333333333 -1.3333333333333333 1.3333333333333333h-0.15088888888888888c-0.7363111111111111 0 -1.3333333333333333 -0.5969333333333333 -1.3333333333333333 -1.3333333333333333V14.849599999999999"></path>
    <path fill="none" stroke="#000000" stroke-linecap="round" stroke-linejoin="round" stroke-miterlimit="10" stroke-width="0.8889" d="M12.934 10.421022222222222h6.132v4.310666666666666h-6.132Z"></path>
    <path fill="none" stroke="#000000" stroke-linecap="round" stroke-linejoin="round" stroke-miterlimit="10" stroke-width="0.8889" d="m14.676088888888888 12.592355555555555 2.6172 0"></path>
    <path fill="none" stroke="#000000" stroke-linecap="round" stroke-linejoin="round" stroke-miterlimit="10" stroke-width="0.8889" d="M23.05982222222222 29.818666666666665H8.866844444444443c-0.7363555555555555 0 -1.3333333333333333 -0.5969777777777777 -1.3333333333333333 -1.3333333333333333V3.5331555555555556c0 -0.7363555555555555 0.5969777777777777 -1.3333333333333333 1.3333333333333333 -1.3333333333333333h14.192977777777777c0.7363999999999999 0 1.3333333333333333 0.5969777777777777 1.3333333333333333 1.3333333333333333V28.48533333333333c0 0.7363555555555555 -0.5969333333333333 1.3333333333333333 -1.3333333333333333 1.3333333333333333z"></path>
    <path fill="none" stroke="#000000" stroke-linecap="round" stroke-linejoin="round" stroke-miterlimit="10" stroke-width="0.8889" d="m21.293777777777777 8.11551111111111 1.1770222222222222 0"></path>
    <path fill="none" stroke="#000000" stroke-linecap="round" stroke-linejoin="round" stroke-miterlimit="10" stroke-width="0.8889" d="m21.293777777777777 5.613599999999999 1.1770222222222222 0"></path>
    <path fill="none" stroke="#000000" stroke-linecap="round" stroke-linejoin="round" stroke-miterlimit="10" stroke-width="0.8889" d="m21.29871111111111 10.430355555555554 1.1720888888888887 0"></path>
    <path fill="none" stroke="#000000" stroke-linecap="round" stroke-linejoin="round" stroke-miterlimit="10" stroke-width="0.8889" d="m21.293777777777777 12.534755555555554 1.1770222222222222 0"></path>
    <path fill="none" stroke="#000000" stroke-linecap="round" stroke-linejoin="round" stroke-miterlimit="10" stroke-width="0.8889" d="m21.29871111111111 14.849599999999999 1.1720888888888887 0"></path>
    <path fill="none" stroke="#000000" stroke-linecap="round" stroke-linejoin="round" stroke-miterlimit="10" stroke-width="0.8889" d="m21.293777777777777 17.35151111111111 1.1770222222222222 0"></path>
    <path fill="none" stroke="#000000" stroke-linecap="round" stroke-linejoin="round" stroke-miterlimit="10" stroke-width="0.8889" d="m21.294266666666665 19.666355555555555 1.1765333333333334 0"></path>
    <path fill="none" stroke="#000000" stroke-linecap="round" stroke-linejoin="round" stroke-miterlimit="10" stroke-width="0.8889" d="m21.289333333333335 21.770755555555557 1.1814666666666667 0"></path>
    <path fill="none" stroke="#000000" stroke-linecap="round" stroke-linejoin="round" stroke-miterlimit="10" stroke-width="0.8889" d="m21.285377777777775 24.085644444444444 1.1854222222222222 0"></path>
    <path fill="none" stroke="#000000" stroke-linecap="round" stroke-linejoin="round" stroke-miterlimit="10" stroke-width="0.8889" d="m21.291777777777778 26.1816 1.1790222222222222 0"></path>
    <path fill="none" stroke="#000000" stroke-linecap="round" stroke-linejoin="round" stroke-miterlimit="10" stroke-width="0.8889" d="m9.458533333333333 8.11551111111111 1.1770666666666667 0"></path>
    <path fill="none" stroke="#000000" stroke-linecap="round" stroke-linejoin="round" stroke-miterlimit="10" stroke-width="0.8889" d="m9.458533333333333 5.613599999999999 1.1770666666666667 0"></path>
    <path fill="none" stroke="#000000" stroke-linecap="round" stroke-linejoin="round" stroke-miterlimit="10" stroke-width="0.8889" d="m9.46351111111111 10.430355555555554 1.1720888888888887 0"></path>
    <path fill="none" stroke="#000000" stroke-linecap="round" stroke-linejoin="round" stroke-miterlimit="10" stroke-width="0.8889" d="m9.458533333333333 12.534755555555554 1.1770666666666667 0"></path>
    <path fill="none" stroke="#000000" stroke-linecap="round" stroke-linejoin="round" stroke-miterlimit="10" stroke-width="0.8889" d="m9.46351111111111 14.849599999999999 1.1720888888888887 0"></path>
    <path fill="none" stroke="#000000" stroke-linecap="round" stroke-linejoin="round" stroke-miterlimit="10" stroke-width="0.8889" d="m9.458533333333333 17.35151111111111 1.1770666666666667 0"></path>
    <path fill="none" stroke="#000000" stroke-linecap="round" stroke-linejoin="round" stroke-miterlimit="10" stroke-width="0.8889" d="m9.459066666666667 19.666355555555555 1.1765333333333334 0"></path>
    <path fill="none" stroke="#000000" stroke-linecap="round" stroke-linejoin="round" stroke-miterlimit="10" stroke-width="0.8889" d="m9.454088888888888 21.770755555555557 1.181511111111111 0"></path>
    <path fill="none" stroke="#000000" stroke-linecap="round" stroke-linejoin="round" stroke-miterlimit="10" stroke-width="0.8889" d="m9.450177777777776 24.085644444444444 1.1854222222222222 0"></path>
    <path fill="none" stroke="#000000" stroke-linecap="round" stroke-linejoin="round" stroke-miterlimit="10" stroke-width="0.8889" d="m9.456577777777778 26.1816 1.1790222222222222 0"></path>
  </g>
</svg>