<svg id="Light-Bulb--Streamline-Openmoji" viewBox="0 0 32 32" xmlns="http://www.w3.org/2000/svg" height="32" width="32">
  <desc>
    Light Bulb Streamline Emoji: https://streamlinehq.com
  </desc>
  <g id="color">
    <path fill="#d0cfce" d="M15.846666666666666 31.227866666666664c2.527066666666667 0 3.9706666666666663 -1.1865777777777777 4.312799999999999 -2.7237777777777774H11.534888888888888c0.34213333333333334 1.5372 1.7852 2.7237777777777774 4.312311111111111 2.7237777777777774h-0.0005333333333333333Z" stroke-width="0.4444"></path>
    <path fill="#fcea2b" d="M20.866355555555554 2.675777777777778s-6.467111111111111 -1.8280444444444444 -9.623999999999999 0.6710222222222222c-3.1563555555555554 2.4990666666666663 -3.3848 8.249155555555555 -3.3848 8.249155555555555 0.30924444444444443 1.170222222222222 2.234666666666666 4.491022222222221 2.234666666666666 4.491022222222221 0.2855555555555555 0.4817777777777778 1.1913777777777776 3.955911111111111 1.7180444444444445 6.007066666666667h8.418355555555554c0.4580444444444444 -1.5044 2.3002666666666665 -6.9536 2.5408444444444442 -7.5141333333333336 0.3088444444444444 -0.7207111111111111 0.835511111111111 -2.1236 1.101511111111111 -2.6529333333333334 0.6398222222222222 -1.2738666666666667 0.6167111111111111 -2.397022222222222 0.28435555555555553 -3.715822222222222 -0.7176 -2.8475555555555556 -1.3081333333333331 -3.554977777777778 -3.2896 -5.536444444444444l0.0006222222222222221 0.0010666666666666665Z" stroke-width="0.4444"></path>
    <path fill="#ffffff" d="M15.846666666666666 0.8498666666666665c-4.511688888888889 0 -8.725066666666667 3.5704 -8.725066666666667 8.07991111111111 0 0.5705777777777777 -0.1396888888888889 2.3748 0.643511111111111 2.3748 0 0 1.2654222222222222 -4.137777777777778 4.421777777777778 -6.636311111111111 3.1563555555555554 -2.498533333333333 8.206844444444444 -1.9697777777777778 8.206844444444444 -1.9697777777777778 -0.35137777777777773 -1.0813777777777778 -2.9347999999999996 -1.8502222222222222 -4.545511111111111 -1.8502222222222222l-0.0015555555555555555 0.0015999999999999999Z" stroke-width="0.4444"></path>
  </g>
  <g id="line">
    <path fill="none" stroke="#000000" stroke-linecap="round" stroke-linejoin="round" stroke-width="0.8889" d="M24.75151111111111 9.600311111111111c0 2.1071999999999997 -0.9439111111111111 3.1240888888888887 -1.9850666666666665 5.55231111111111 -0.2659111111111111 0.6197333333333334 -2.2267555555555556 7.075244444444444 -2.2267555555555556 7.075244444444444H11.46031111111111s-1.576311111111111 -6.171022222222222 -1.8750666666666664 -6.673377777777778c-1.2532444444444444 -2.114088888888889 -2.3367555555555555 -3.653955555555555 -2.3367555555555555 -5.954177777777778 0 -4.833688888888888 3.9183555555555554 -8.75151111111111 8.75151111111111 -8.75151111111111s8.75151111111111 3.9183555555555554 8.75151111111111 8.75151111111111Z"></path>
    <path fill="none" stroke="#000000" stroke-linecap="round" stroke-linejoin="round" stroke-width="0.8889" d="M16 22.01102222222222V15.697288888888888"></path>
    <path fill="none" stroke="#000000" stroke-linecap="round" stroke-linejoin="round" stroke-width="0.8889" d="M19.15688888888889 15.697288888888888H12.84311111111111"></path>
    <path fill="none" stroke="#000000" stroke-linecap="round" stroke-linejoin="round" stroke-width="0.7538" d="M20.314933333333332 28.129155555555553c0 1.7132888888888889 -1.930622222222222 3.1024444444444446 -4.312266666666667 3.1024444444444446s-4.312311111111111 -1.3891555555555555 -4.312311111111111 -3.1024444444444446h8.624577777777777Z"></path>
    <path fill="none" stroke="#000000" stroke-linecap="round" stroke-linejoin="round" stroke-width="0.8733" d="m11.764399999999998 26.114444444444445 8.471244444444444 -1.8348888888888888"></path>
    <path fill="none" stroke="#000000" stroke-linecap="round" stroke-linejoin="round" stroke-width="0.8889" d="m17.163333333333334 26.690844444444444 3.0564444444444443 -0.6239555555555555"></path>
    <path fill="none" stroke="#000000" stroke-linecap="round" stroke-linejoin="round" stroke-width="0.8889" d="m11.780222222222223 24.327155555555553 3.0564444444444443 -0.6239999999999999"></path>
  </g>
</svg>