<svg id="Lying-Face--Streamline-Openmoji" viewBox="0 0 32 32" xmlns="http://www.w3.org/2000/svg" height="32" width="32">
  <desc>
    Lying Face Streamline Emoji: https://streamlinehq.com
  </desc>
  <g id="color">
    <path fill="#fcea2b" d="M15.559955555555556 0.7600444444444444C7.156577777777777 0.7600444444444444 0.31999999999999995 7.596622222222223 0.31999999999999995 16s6.836577777777777 15.239955555555555 15.239955555555555 15.239955555555555S30.79991111111111 24.403333333333332 30.79991111111111 16C30.799999999999997 7.596622222222223 23.96333333333333 0.7600444444444444 15.559955555555556 0.7600444444444444Z" stroke-width="0.4444"></path>
    <path fill="#fcea2b" d="M16.467866666666666 21.18297777777778s5.547555555555555 -0.05137777777777777 7.667644444444443 0.3742222222222222c2.1200444444444444 0.4255111111111111 4.274933333333333 1.3123555555555555 5.804622222222222 0.6031555555555556 0.7215111111111111 -0.3344444444444444 1.0462222222222222 -1.0416444444444444 1.0936 -1.7198666666666664 0.0644 -0.6768444444444444 -0.14008888888888887 -1.4277333333333333 -0.7969333333333333 -1.8759111111111109 -1.3928444444444443 -0.9502666666666667 -3.666577777777778 -0.3959111111111111 -5.827733333333333 -0.32359999999999994s-7.625333333333333 -0.8874666666666666 -7.625333333333333 -0.8874666666666666" stroke-width="0.4444"></path>
  </g>
  <g id="hair"></g>
  <g id="skin"></g>
  <g id="skin-shadow"></g>
  <g id="line">
    <path fill="none" stroke="#000000" stroke-linecap="round" stroke-linejoin="round" stroke-miterlimit="10" stroke-width="0.8889" d="M6.0028 10.460799999999999c0.5403555555555555 -0.8316888888888888 1.3686666666666665 -1.4330222222222222 2.3267555555555552 -1.688488888888889 0.9310222222222223 -0.3564888888888889 1.9610222222222222 -0.3514222222222222 2.888977777777778 0.011377777777777778"></path>
    <path fill="none" stroke="#000000" stroke-linecap="round" stroke-linejoin="round" stroke-miterlimit="10" stroke-width="0.8889" d="M24.80471111111111 9.822844444444444c-0.8595999999999999 -1.8355555555555554 -2.8273333333333333 -2.8848 -4.830666666666667 -2.5755555555555554"></path>
    <path fill="none" stroke="#000000" stroke-linecap="round" stroke-linejoin="round" stroke-miterlimit="10" stroke-width="0.8889" d="M30.141688888888886 15.17391111111111C29.713466666666665 7.491866666666667 23.348488888888888 1.3950222222222222 15.559822222222222 1.3950222222222222c-8.066355555555555 0 -14.604799999999997 6.538444444444444 -14.604799999999997 14.604844444444444 0 8.065822222222222 6.538444444444444 14.604844444444444 14.604799999999997 14.604844444444444 4.4959999999999996 0 8.517555555555555 -2.031733333333333 11.19671111111111 -5.2270666666666665"></path>
    <path d="M11.749955555555555 12.825022222222222c0 1.0520444444444446 -0.8539111111111111 1.9049777777777777 -1.9049777777777777 1.9049777777777777 -1.051111111111111 0 -1.9049777777777777 -0.8529777777777777 -1.9049777777777777 -1.9049777777777777 0 -1.0510666666666666 0.8538666666666667 -1.905022222222222 1.9049777777777777 -1.905022222222222 1.0510666666666666 0 1.9049777777777777 0.8539555555555555 1.9049777777777777 1.905022222222222" stroke-width="0.4444"></path>
    <path d="M23.179955555555555 12.825022222222222c0 1.0520444444444446 -0.8539111111111111 1.9049777777777777 -1.905022222222222 1.9049777777777777s-1.9049777777777777 -0.8529777777777777 -1.9049777777777777 -1.9049777777777777c0 -1.0510666666666666 0.8538666666666667 -1.905022222222222 1.9049777777777777 -1.905022222222222s1.905022222222222 0.8539555555555555 1.905022222222222 1.905022222222222" stroke-width="0.4444"></path>
    <path fill="none" stroke="#000000" stroke-linecap="round" stroke-linejoin="round" stroke-miterlimit="10" stroke-width="0.8889" d="M17.923688888888886 25.293466666666664s-3.6312888888888892 -1.1649777777777777 -5.6335999999999995 0.9844444444444443"></path>
    <path fill="none" stroke="#000000" stroke-linecap="round" stroke-linejoin="round" stroke-miterlimit="10" stroke-width="0.8889" d="M16.467866666666666 21.18297777777778s5.547555555555555 -0.05137777777777777 7.667644444444443 0.3742222222222222c2.1200444444444444 0.4255111111111111 4.274933333333333 1.3123555555555555 5.804622222222222 0.6031555555555556 0.7215111111111111 -0.3344444444444444 1.0462222222222222 -1.0416444444444444 1.0936 -1.7198666666666664 0.0644 -0.6768444444444444 -0.14008888888888887 -1.4277333333333333 -0.7969333333333333 -1.8759111111111109 -1.3928444444444443 -0.9502666666666667 -3.666577777777778 -0.3959111111111111 -5.827733333333333 -0.32359999999999994s-7.625333333333333 -0.8874666666666666 -7.625333333333333 -0.8874666666666666"></path>
  </g>
</svg>