<svg id="Musical-Note--Streamline-Openmoji" viewBox="0 0 32 32" xmlns="http://www.w3.org/2000/svg" height="32" width="32">
  <desc>
    Musical Note Streamline Emoji: https://streamlinehq.com
  </desc>
  <g id="color">
    <path fill="#3f3f3f" stroke="none" d="m11.173244444444444 7.695511111111111 17.058355555555558 -3.547333333333333 -0.04688888888888888 -3.1537777777777776 -17.159155555555554 3.820844444444444Z" stroke-width="0.4444"></path>
    <path fill="#3f3f3f" stroke="none" d="M3.515911111111111 27.103066666666667c0 3.0040888888888886 3.252044444444444 4.8816444444444445 5.853688888888889 3.3796 1.2074222222222222 -0.6971111111111111 1.9512 -1.9854222222222222 1.9512 -3.3796 0 -3.004133333333333 -3.252044444444444 -4.881688888888889 -5.853644444444444 -3.3796444444444442 -1.2074222222222222 0.6971111111111111 -1.9512444444444443 1.9854222222222222 -1.9512444444444443 3.3796444444444442" stroke-width="0.4444"></path>
    <path fill="#3f3f3f" stroke="none" d="M20.67871111111111 23.341822222222223c-0.0031999999999999997 3.0042666666666666 3.247022222222222 4.885377777777777 5.850355555555555 3.386044444444444 1.2107999999999999 -0.6973333333333332 1.9564444444444444 -1.9888 1.9549333333333332 -3.386044444444444 0.0031999999999999997 -3.0042666666666666 -3.2469777777777775 -4.885377777777777 -5.850355555555555 -3.386044444444444 -1.2107999999999999 0.6973333333333332 -1.9564000000000001 1.9888 -1.9549333333333332 3.386044444444444" stroke-width="0.4444"></path>
  </g>
  <g id="hair"></g>
  <g id="skin"></g>
  <g id="skin-shadow"></g>
  <g id="line">
    <path fill="none" stroke="#000000" stroke-linecap="round" stroke-linejoin="round" stroke-miterlimit="10" stroke-width="0.8889" d="m28.231599999999997 4.148177777777777 -17.15982222222222 3.824355555555555 -0.04622222222222222 -3.157288888888889 17.159155555555554 -3.820844444444444Z"></path>
    <path fill="none" stroke="#000000" stroke-linecap="round" stroke-linejoin="round" stroke-miterlimit="10" stroke-width="0.8889" d="M3.5159999999999996 27.103111111111108c0 3.004133333333333 3.2520888888888884 4.881733333333333 5.853777777777777 3.379688888888889 1.2074222222222222 -0.6971111111111111 1.9512444444444443 -1.9854666666666665 1.9512444444444443 -3.379688888888889 0 -3.004133333333333 -3.2520888888888884 -4.881733333333333 -5.853777777777777 -3.379688888888889C4.259822222222222 24.420577777777776 3.5159999999999996 25.708888888888886 3.5159999999999996 27.103111111111108"></path>
    <path fill="none" stroke="#000000" stroke-linecap="round" stroke-linejoin="round" stroke-miterlimit="10" stroke-width="0.8889" d="m11.025555555555556 4.815244444444445 0.2954666666666666 22.287866666666666"></path>
    <path fill="none" stroke="#000000" stroke-linecap="round" stroke-linejoin="round" stroke-miterlimit="10" stroke-width="0.8889" d="M20.678977777777778 23.341955555555554c0 3.004133333333333 3.2520888888888884 4.881733333333333 5.853777777777777 3.379688888888889 1.2074222222222222 -0.6971555555555555 1.9512444444444443 -1.9854666666666665 1.9512444444444443 -3.379688888888889 0 -3.0041777777777776 -3.2520888888888884 -4.881733333333333 -5.853733333333333 -3.379688888888889 -1.2074666666666667 0.6971111111111111 -1.9512888888888886 1.9854666666666665 -1.9512888888888886 3.379688888888889"></path>
    <path fill="none" stroke="#000000" stroke-linecap="round" stroke-linejoin="round" stroke-miterlimit="10" stroke-width="0.8889" d="m28.188577777777777 1.0540444444444443 0.2954222222222222 22.287911111111107"></path>
  </g>
</svg>