<svg id="Musical-Notes--Streamline-Openmoji" viewBox="0 0 32 32" xmlns="http://www.w3.org/2000/svg" height="32" width="32">
  <desc>
    Musical Notes Streamline Emoji: https://streamlinehq.com
  </desc>
  <g id="color">
    <path fill="#3f3f3f" stroke="none" d="M4.291777777777777 20.315644444444445a2.4659555555555555 2.4659555555555555 0 1 0 4.931911111111111 0 2.4659555555555555 2.4659555555555555 0 1 0 -4.931911111111111 0" stroke-width="0.4444"></path>
    <path fill="#3f3f3f" stroke="none" d="M10.621288888888888 25.74684444444444a2.465777777777778 2.465777777777778 0 1 0 4.931555555555556 0 2.465777777777778 2.465777777777778 0 1 0 -4.931555555555556 0" stroke-width="0.4444"></path>
    <path fill="#3f3f3f" stroke="none" d="M18.040488888888888 20.315644444444445a2.4659555555555555 2.4659555555555555 0 1 0 4.931911111111111 0 2.4659555555555555 2.4659555555555555 0 1 0 -4.931911111111111 0" stroke-width="0.4444"></path>
  </g>
  <g id="hair"></g>
  <g id="skin"></g>
  <g id="skin-shadow"></g>
  <g id="line">
    <path fill="none" stroke="#000000" stroke-linecap="round" stroke-linejoin="round" stroke-miterlimit="10" stroke-width="0.8889" d="M4.535511111111111 20.315644444444445a2.2222222222222223 2.2222222222222223 0 1 0 4.444444444444445 0 2.2222222222222223 2.2222222222222223 0 1 0 -4.444444444444445 0"></path>
    <path fill="none" stroke="#000000" stroke-linecap="round" stroke-linejoin="round" stroke-miterlimit="10" stroke-width="0.8889" d="M10.864844444444445 25.74684444444444a2.2222222222222223 2.2222222222222223 0 1 0 4.444444444444445 0 2.2222222222222223 2.2222222222222223 0 1 0 -4.444444444444445 0"></path>
    <path fill="none" stroke="#000000" stroke-linecap="round" stroke-linejoin="round" stroke-miterlimit="10" stroke-width="0.8889" d="M18.28422222222222 20.315644444444445a2.2222222222222223 2.2222222222222223 0 1 0 4.444444444444445 0 2.2222222222222223 2.2222222222222223 0 1 0 -4.444444444444445 0"></path>
    <path fill="none" stroke="#000000" stroke-linecap="round" stroke-linejoin="round" stroke-miterlimit="10" stroke-width="0.8889" d="m25.21302222222222 7.62431111111111 -2.652622222222222 0 0.16826666666666665 12.691333333333333"></path>
    <path fill="none" stroke="#000000" stroke-linecap="round" stroke-linejoin="round" stroke-miterlimit="10" stroke-width="0.8889" d="m17.793688888888887 13.05551111111111 -2.6526666666666663 0 0.16826666666666665 12.691333333333333"></path>
    <path fill="none" stroke="#000000" stroke-linecap="round" stroke-linejoin="round" stroke-miterlimit="10" stroke-width="0.8889" d="m11.46431111111111 7.62431111111111 -2.652622222222222 0 0.16826666666666665 12.691333333333333"></path>
  </g>
</svg>