<svg id="Ogre--Streamline-Openmoji" viewBox="0 0 32 32" xmlns="http://www.w3.org/2000/svg" height="32" width="32">
  <desc>
    Ogre Streamline Emoji: https://streamlinehq.com
  </desc>
  <g id="color">
    <path fill="#ea5a47" d="M23.756444444444444 7.968355555555554c-0.31008888888888886 0.12733333333333333 -0.6425777777777777 0.19133333333333333 -0.9778222222222221 0.1882222222222222 -2.1546666666666665 0.0010666666666666665 -4.021066666666666 0.9100888888888887 -6.1414222222222214 1.0631111111111111 -2.5005777777777776 0.18044444444444444 -4.665644444444444 -0.854 -7.10111111111111 -1.0264444444444443 -0.2827111111111111 -0.0184 -0.560711111111111 -0.08195555555555556 -0.8233777777777778 -0.1882222222222222 -0.2021777777777778 0.06893333333333332 -0.41191111111111106 0.11319999999999998 -0.6246666666666666 0.13199999999999998 -4.387777777777778 4.3744 -4.398711111111111 11.477644444444444 -0.02422222222222222 15.865511111111111s11.477644444444444 4.398711111111111 15.865511111111111 0.02422222222222222 4.398711111111111 -11.477644444444444 0.024266666666666666 -15.865511111111111c-0.06497777777777777 -0.0651111111111111 -0.13066666666666665 -0.12942222222222222 -0.19715555555555553 -0.1928888888888889Z" stroke-width="0.4444"></path>
    <path fill="#6a462f" d="M26.73533333333333 11.994266666666666c1.0051999999999999 -0.29786666666666667 2.0898666666666665 -0.1504888888888889 2.9791999999999996 0.4047111111111111 0 0 0.47679999999999995 -3.2870222222222223 -4.290844444444445 -5.634844444444444l2.7875555555555556 -0.6736888888888889 -3.200711111111111 -2.1343555555555556c-0.9041777777777779 -0.21311111111111108 -1.8470666666666666 -0.2712444444444444 -2.958311111111111 -0.21102222222222222V6.293333333333333s-1.9911111111111113 0 -2.4888888888888885 -0.4977777777777778l0.48342222222222214 -2.218488888888889c-2.896 -0.9284 -5.545333333333333 -1.0945333333333331 -7.893111111111111 0.028266666666666666l-0.056888888888888885 1.6924444444444442c0 0.4977777777777778 -1.9911111111111113 0.9955555555555556 -1.9911111111111113 0.9955555555555556l-0.9736888888888888 -2.9339999999999997c-1.2829333333333333 0 -2.0802222222222224 0.3274222222222222 -2.0802222222222224 0.3274222222222222l-2.9481333333333333 2.4036c0.984 -0.492 3.2022666666666666 0.20408888888888888 3.2022666666666666 0.20408888888888888S3.014711111111111 6.764044444444444 2.0612 12.868577777777777c0 0 1.9071555555555555 -1.408711111111111 3.3374666666666664 -1.408711111111111 0 0 -5.244577777777778 1.8783111111111113 -3.3374666666666664 10.330799999999998 0 0 0.9535111111111111 -2.347911111111111 2.3838666666666666 -2.817422222222222 0 0 -1.9071111111111112 4.226133333333333 2.8608 8.921999999999999 0 0 0.7489333333333333 -2.147377777777778 1.2257333333333331 -2.6168888888888886 0 0 0.6661777777777776 4.025644444444445 3.526844444444444 4.4952 0 0 -0.4615555555555555 -0.939111111111111 0.4920444444444444 -2.347911111111111 1.0113777777777777 2.049155555555555 2.9787555555555554 3.4583555555555554 5.2444 3.7565777777777773 0 0 -0.8234666666666666 -3.4664444444444444 1.5604888888888888 -3.935955555555555 0 0 0.8234666666666666 0.1792 0.8234666666666666 2.057644444444444 0 0 2.6204888888888886 -2.147377777777778 2.6204888888888886 -4.025688888888888 1.071422222222222 0.23924444444444443 1.9081333333333335 1.075911111111111 2.147422222222222 2.147333333333333 0 0 2.2653777777777777 -2.416311111111111 1.7885777777777778 -8.051333333333334 0 0 2.025688888888889 -0.8707111111111111 3.4559999999999995 1.9468444444444444 0 0.00017777777777777779 1.3118666666666667 -5.100533333333333 -3.4559999999999995 -9.326799999999999Zm0.29475555555555555 6.245733333333333c-1.4933333333333332 4.977777777777777 -5.475555555555555 8.959999999999999 -9.955555555555554 8.959999999999999s-11.44888888888889 -2.4888888888888885 -11.946666666666665 -7.466666666666667 -0.9955555555555556 -6.9688888888888885 2.4888888888888885 -11.44888888888889c0 0 6.471111111111111 0.4977777777777778 8.959999999999999 0.9955555555555556 0 0 6.471111111111111 -1.9911111111111113 7.964444444444445 -0.9955555555555556 0 0 3.9822222222222226 4.977777777777777 2.4888888888888885 9.955555555555554Z" stroke-width="0.4444"></path>
    <path fill="#d22f27" d="M12.421911111111111 4.407288888888888c-1.1964888888888887 -0.7976888888888888 -1.5952888888888888 -1.9941777777777778 -1.1962666666666666 -3.589511111111111 -2.791822222222222 0.7976888888888888 -2.3930222222222217 3.9883555555555557 -1.1964888888888887 5.982533333333333 2.1138666666666666 0.39897777777777776 2.3927555555555555 -2.3930222222222217 2.3927555555555555 -2.3930222222222217Z" stroke-width="0.4444"></path>
    <path fill="#d22f27" d="M21.464933333333335 6.800311111111111C22.66133333333333 4.806133333333333 23.060177777777774 1.6154666666666664 20.268355555555555 0.8177777777777777c0.3988 1.5953333333333333 0 2.791822222222222 -1.1965333333333332 3.589511111111111 -1.794711111111111 1.1965777777777777 0.2789333333333333 2.792 2.393111111111111 2.3930222222222217Z" stroke-width="0.4444"></path>
  </g>
  <g id="line">
    <path fill="none" stroke="#000000" stroke-linecap="round" stroke-linejoin="round" stroke-width="0.8889" d="m22.487777777777776 10.597288888888889 -3.8048 1.1212888888888888"></path>
    <path fill="none" stroke="#000000" stroke-linecap="round" stroke-linejoin="round" stroke-width="0.8889" d="M7.055422222222222 4.122311111111111c-2.4601777777777776 0.9840444444444445 -3.0873777777777778 2.172133333333333 -3.0873777777777778 2.172133333333333s1.9071555555555555 -0.4695555555555555 3.337511111111111 0c0 0 -4.290844444444445 0.46959999999999996 -5.244622222222222 6.574133333333333 0 0 1.9071111111111112 -1.408711111111111 3.3374666666666664 -1.408711111111111 0 0 -5.244622222222222 1.8783555555555556 -3.3374666666666664 10.330799999999998 0 0 0.9535555555555556 -2.3478666666666665 2.3839555555555556 -2.817422222222222 0 0 -1.9071999999999998 4.226133333333333 2.8606666666666665 8.921999999999999 0 0 0.7490222222222221 -2.147333333333333 1.2257777777777776 -2.616933333333333 0 0 0.6661777777777776 4.025688888888888 3.5268888888888887 4.495244444444444 0 0 -0.4615555555555555 -0.9391555555555556 0.49195555555555553 -2.3478666666666665 1.011511111111111 2.0492444444444446 2.979022222222222 3.4584888888888887 5.244755555555556 3.756533333333333 0 0 -0.8234666666666666 -3.4664444444444444 1.5604444444444443 -3.935955555555555 0 0 0.8234666666666666 0.1792 0.8234666666666666 2.057644444444444 0 0 2.6204888888888886 -2.147377777777778 2.6204888888888886 -4.025688888888888 1.071422222222222 0.23924444444444443 1.9081333333333335 1.0759555555555556 2.147377777777778 2.147377777777778 0 0 2.265422222222222 -2.416355555555555 1.7886222222222221 -8.051333333333334 0 0 2.025644444444444 -0.8707555555555555 3.4559999999999995 1.9467999999999999 0 0 1.3118666666666667 -5.100533333333333 -3.4559999999999995 -9.326799999999999 1.0051999999999999 -0.29786666666666667 2.0899111111111113 -0.15053333333333332 2.979244444444444 0.4047111111111111 0 0 0.47675555555555554 -3.2870222222222223 -4.290844444444445 -5.634844444444444 0 0 1.9071111111111112 -0.9391555555555556 2.860711111111111 -0.46959999999999996 0 0 -2.3553777777777776 -1.656711111111111 -3.4281333333333333 -1.9144"></path>
    <path fill="none" stroke="#000000" stroke-linecap="round" stroke-miterlimit="2" stroke-width="0.8889" d="m13.573999999999998 19.84422222222222 -0.2442222222222222 1.7332444444444444"></path>
    <path fill="none" stroke="#000000" stroke-linecap="round" stroke-miterlimit="2" stroke-width="0.8889" d="m18.24973333333333 19.84422222222222 0.24426666666666663 1.7332444444444444"></path>
    <path fill="none" stroke="#000000" stroke-linecap="round" stroke-linejoin="round" stroke-width="0.8889" d="m13.139822222222222 11.718577777777778 -3.8048444444444445 -1.1212888888888888"></path>
    <path fill="none" stroke="#000000" stroke-linecap="round" stroke-linejoin="round" stroke-width="0.8889" d="M13.787155555555556 3.5209777777777775c1.3300444444444444 -0.43093333333333333 2.7621777777777776 -0.43093333333333333 4.092177777777778 0"></path>
    <path fill="none" stroke="#000000" stroke-linecap="round" stroke-linejoin="round" stroke-width="0.8889" d="M11.72991111111111 19.374266666666667h8.363955555555554"></path>
    <path fill="none" stroke="#000000" stroke-linecap="round" stroke-miterlimit="10" stroke-width="0.8889" d="M24.563066666666664 8.685288888888888c4.0283999999999995 4.778177777777778 3.420622222222222 11.917288888888889 -1.3575555555555554 15.945688888888888s-11.917244444444444 3.420622222222222 -15.945644444444442 -1.3575555555555554c-3.6047999999999996 -4.275688888888888 -3.5456 -10.54351111111111 0.1394222222222222 -14.750399999999999"></path>
    <path fill="none" stroke="#000000" stroke-linecap="round" stroke-linejoin="round" stroke-width="0.8889" d="M7.401555555555555 8.525066666666666s2.477822222222222 -0.6440888888888888 4.5738666666666665 0.025244444444444444c1.26 0.4202666666666666 2.585111111111111 0.6114222222222222 3.912533333333333 0.5644444444444444"></path>
    <path fill="none" stroke="#000000" stroke-linecap="round" stroke-linejoin="round" stroke-width="0.8889" d="M24.25182222222222 8.525066666666666s-2.4778666666666664 -0.6440888888888888 -4.5738666666666665 0.025244444444444444c-1.26 0.4202666666666666 -2.585111111111111 0.6114222222222222 -3.912533333333333 0.5644444444444444"></path>
    <path fill="none" stroke="#000000" stroke-linecap="round" stroke-linejoin="round" stroke-width="0.8889" d="M12.421911111111111 4.407288888888888c-1.1964888888888887 -0.7976888888888888 -1.5952888888888888 -1.9941777777777778 -1.1962666666666666 -3.589511111111111 -2.791822222222222 0.7976888888888888 -2.3930222222222217 3.9883555555555557 -1.1964888888888887 5.982533333333333 2.1138666666666666 0.39897777777777776 2.3927555555555555 -2.3930222222222217 2.3927555555555555 -2.3930222222222217Z"></path>
    <path fill="none" stroke="#000000" stroke-linecap="round" stroke-linejoin="round" stroke-width="0.8889" d="M21.464933333333335 6.800311111111111C22.66133333333333 4.806133333333333 23.060177777777774 1.6154666666666664 20.268355555555555 0.8177777777777777c0.3988 1.5953333333333333 0 2.791822222222222 -1.1965333333333332 3.589511111111111 -1.794711111111111 1.1965777777777777 0.2789333333333333 2.792 2.393111111111111 2.3930222222222217Z"></path>
    <path d="M12.9252 14.257777777777775c0 0.8247111111111111 -0.6693777777777777 1.4933333333333332 -1.4933333333333332 1.4933333333333332 -0.8239555555555556 0 -1.4933333333333332 -0.6686666666666666 -1.4933333333333332 -1.4933333333333332 0 -0.823911111111111 0.6693777777777777 -1.4933333333333332 1.4933333333333332 -1.4933333333333332 0.8239555555555556 0 1.4933333333333332 0.6694222222222221 1.4933333333333332 1.4933333333333332" stroke-width="0.4444"></path>
    <path d="M21.8852 14.257777777777775c0 0.8247111111111111 -0.6693333333333333 1.4933333333333332 -1.4933333333333332 1.4933333333333332s-1.4933333333333332 -0.6686666666666666 -1.4933333333333332 -1.4933333333333332c0 -0.823911111111111 0.6693777777777777 -1.4933333333333332 1.4933333333333332 -1.4933333333333332s1.4933333333333332 0.6694222222222221 1.4933333333333332 1.4933333333333332" stroke-width="0.4444"></path>
  </g>
</svg>