<svg id="Onion--Streamline-Openmoji" viewBox="0 0 32 32" xmlns="http://www.w3.org/2000/svg" height="32" width="32">
  <desc>
    Onion Streamline Emoji: https://streamlinehq.com
  </desc>
  <g id="color">
    <g>
      <path fill="#f4aa41" d="m17.261511111111112 5.493777777777778 0.009333333333333334 -0.0005777777777777778c-0.9660888888888889 -0.4213777777777778 -1.4348444444444444 -1.523911111111111 -1.068 -2.5119555555555557l-1.7074666666666667 1.0806666666666667 -0.9166222222222221 1.1438666666666666s0.0768 0.4251555555555555 -0.03666666666666667 0.4447555555555555c-6.119022222222221 1.0563555555555555 -10.749333333333333 5.977866666666666 -10.749333333333333 11.893777777777776 0 6.6864888888888885 5.913111111111111 12.10688888888889 13.207244444444443 12.10688888888889s13.2072 -5.4204 13.2072 -12.10688888888889c0 -6.296222222222221 -5.2436 -11.468133333333332 -11.945688888888888 -12.050533333333334Z" stroke-width="0.4444"></path>
      <path fill="#e27022" d="M16.630399999999998 1.5693333333333332s-1.384311111111111 3.2065777777777775 0.3246222222222222 4.013599999999999l-0.009377777777777778 0.0005333333333333333C23.64782222222222 6.165911111111111 28.891333333333332 11.337777777777777 28.891333333333332 17.634088888888886c0 6.686399999999999 -5.913022222222222 11.368488888888889 -13.2072 11.368488888888889 0 0 4.472177777777778 -1.0646666666666667 7.285466666666665 -4.733422222222222 2.3996444444444447 -3.129422222222222 3.5159999999999996 -7.680977777777777 0.45288888888888884 -12.9252 -1.061288888888889 -1.8169777777777776 -3.4953777777777777 -3.852355555555555 -6.589377777777777 -4.776711111111111 -0.060622222222222216 -0.018133333333333335 -0.7864444444444444 -0.3668888888888889 -0.8331111111111111 -0.4095555555555555 -0.2430222222222222 -0.22199999999999998 -0.40146666666666664 -0.8656888888888888 -0.31586666666666663 -2.274755555555555 0.1323111111111111 -0.834 0.4562222222222222 -1.625911111111111 0.9462666666666667 -2.3135999999999997Z" stroke-width="0.4444"></path>
    </g>
  </g>
  <g id="line">
    <g>
      <path fill="none" stroke="#000000" stroke-linecap="round" stroke-linejoin="round" stroke-width="0.8889" d="m14.991733333333332 4.293911111111111 2.397733333333333 -3.416844444444444c-0.2528444444444444 0.4009333333333333 -0.47982222222222215 0.8175555555555555 -0.6795999999999999 1.2473777777777777 -1.5524444444444443 3.400044444444444 1.182711111111111 3.551022222222222 1.182711111111111 3.551022222222222 6.397688888888888 0.8348888888888889 11.314622222222221 5.837155555555555 11.314622222222221 11.883244444444445 0 6.630444444444444 -5.9130666666666665 12.005555555555555 -13.2072 12.005555555555555S2.7928 24.189155555555555 2.7928 17.558711111111112c0 -4.585466666666666 2.827955555555555 -8.570444444444444 6.9850666666666665 -10.592488888888889 0.5571555555555555 -0.2708 1.131911111111111 -0.5039111111111111 1.7203555555555554 -0.6976888888888889q0.06897777777777778 -0.02262222222222222 0.13822222222222222 -0.04457777777777778 0.09017777777777777 -0.028666666666666667 0.18097777777777777 -0.05617777777777778c0.5995555555555555 -0.18168888888888887 1.2105333333333332 -0.3234666666666666 1.828844444444444 -0.4244444444444444"></path>
      <path fill="none" stroke="#000000" stroke-linecap="round" stroke-linejoin="round" stroke-width="0.8889" d="m15.86982222222222 29.680222222222223 -3.2291999999999996 1.442711111111111Z"></path>
      <path fill="none" stroke="#000000" stroke-linecap="round" stroke-linejoin="round" stroke-width="0.8889" d="m18.620577777777775 31.122888888888887 -2.750711111111111 -1.4427555555555556v1.4427555555555556"></path>
      <path fill="none" stroke="#000000" stroke-linecap="round" stroke-linejoin="round" stroke-width="0.8889" d="M13.854755555555556 25.920755555555555c-1.297911111111111 -1.3051555555555554 -2.218222222222222 -4.5884 -2.218222222222222 -8.43231111111111 0 -3.2332888888888887 0.6513777777777777 -6.0699555555555555 1.6305777777777777 -7.666266666666665"></path>
      <path fill="none" stroke="#000000" stroke-linecap="round" stroke-linejoin="round" stroke-width="0.8889" d="M9.036533333333333 23.935955555555555c-0.9776888888888889 -0.9833333333333333 -1.6711555555555555 -3.4569777777777775 -1.6711555555555555 -6.353022222222222 0 -2.436088888888889 0.49075555555555556 -4.573333333333332 1.2285333333333333 -5.775955555555556"></path>
      <path fill="none" stroke="#000000" stroke-linecap="round" stroke-linejoin="round" stroke-width="0.8889" d="M23.271333333333335 23.935955555555555c0.9776888888888889 -0.9833333333333333 1.6711555555555555 -3.4569777777777775 1.6711555555555555 -6.353022222222222 0 -2.436088888888889 -0.4908 -4.573333333333332 -1.2285777777777778 -5.775955555555556"></path>
      <path fill="none" stroke="#000000" stroke-linecap="round" stroke-linejoin="round" stroke-width="0.8889" d="M17.66497777777778 25.920755555555555c1.297911111111111 -1.3051555555555554 2.2182666666666666 -4.5884 2.2182666666666666 -8.43231111111111 0 -3.2332888888888887 -0.6513777777777777 -6.0699555555555555 -1.6306666666666665 -7.666266666666665"></path>
    </g>
  </g>
</svg>