<svg id="Optical-Disk--Streamline-Openmoji" viewBox="0 0 32 32" xmlns="http://www.w3.org/2000/svg" height="32" width="32">
  <desc>
    Optical Disk Streamline Emoji: https://streamlinehq.com
  </desc>
  <g id="color">
    <path fill="#ffffff" stroke="none" stroke-miterlimit="10" d="M16.261333333333333 0.8426666666666666c-0.04182222222222222 0 -0.08884444444444443 0 -0.13066666666666665 0.005244444444444444 -2.853733333333333 0.020888888888888887 -5.519333333333333 0.8310222222222221 -7.787733333333334 2.2213333333333334C5.583288888888888 4.762666666666666 3.408977777777778 7.313288888888888 2.1964444444444444 10.355199999999998c-0.7056444444444444 1.7404444444444442 -1.0924 3.6481777777777773 -1.0924 5.644755555555555 0 8.326088888888888 6.711022222222222 15.084133333333334 15.02662222222222 15.152088888888887 0.010444444444444444 0.0052 0.015688888888888888 0.0052 0.020888888888888887 0 0.03662222222222222 0.005244444444444444 0.0732 0.005244444444444444 0.10977777777777777 0.005244444444444444 8.373111111111111 0 15.157288888888889 -6.789422222222221 15.157288888888889 -15.157333333333332 0 -8.373066666666666 -6.784177777777778 -15.157288888888889 -15.157288888888889 -15.157288888888889Zm2.352 15.157288888888889c0 1.4425777777777777 -1.1707555555555553 2.6133333333333333 -2.6133333333333333 2.6133333333333333s-2.6133333333333333 -1.1707555555555553 -2.6133333333333333 -2.6133333333333333c0 -1.442488888888889 1.1708 -2.613288888888889 2.6133333333333333 -2.613288888888889s2.6133333333333333 1.1707555555555553 2.6133333333333333 2.613288888888889Z" stroke-width="0.4444"></path>
    <path fill="#d0cfce" stroke="none" d="M2.0030666666666663 10.186844444444445c-0.7465333333333333 1.7909777777777778 -1.1606222222222222 3.753822222222222 -1.1606222222222222 5.812088888888888C0.8424444444444443 24.356888888888886 7.642044444444444 31.156755555555552 16 31.156755555555552c2.7638666666666665 0 5.354933333333333 -0.7472 7.588399999999999 -2.0447999999999995L2.0030666666666663 10.186844444444445Z" stroke-width="0.4444"></path>
    <path fill="#d0cfce" stroke="none" d="M29.92182222222222 21.98711111111111c0.7936444444444444 -1.8380444444444444 1.2354666666666665 -3.8621777777777773 1.2354666666666665 -5.988177777777778C31.157288888888885 7.641244444444443 24.357955555555552 0.8416444444444444 16 0.8416444444444444c-2.8322666666666665 0 -5.484266666666667 0.7827555555555555 -7.754666666666666 2.1404444444444444L29.92182222222222 21.98711111111111Z" stroke-width="0.4444"></path>
  </g>
  <g id="hair"></g>
  <g id="skin"></g>
  <g id="skin-shadow"></g>
  <g id="line">
    <path fill="none" stroke="#000000" stroke-miterlimit="10" d="M16.261333333333333 0.8426666666666666c-0.04182222222222222 0 -0.08884444444444443 0 -0.13066666666666665 0.005244444444444444 -2.853733333333333 0.020888888888888887 -5.519333333333333 0.8310222222222221 -7.787733333333334 2.2213333333333334C5.583288888888888 4.762666666666666 3.408977777777778 7.313288888888888 2.1964444444444444 10.355199999999998c-0.7056444444444444 1.7404444444444442 -1.0924 3.6481777777777773 -1.0924 5.644755555555555 0 8.326088888888888 6.711022222222222 15.084133333333334 15.02662222222222 15.152088888888887 0.010444444444444444 0.0052 0.015688888888888888 0.0052 0.020888888888888887 0 0.03662222222222222 0.005244444444444444 0.0732 0.005244444444444444 0.10977777777777777 0.005244444444444444 8.373111111111111 0 15.157288888888889 -6.789422222222221 15.157288888888889 -15.157333333333332 0 -8.373066666666666 -6.784177777777778 -15.157288888888889 -15.157288888888889 -15.157288888888889Zm2.352 15.157288888888889c0 1.4425777777777777 -1.1707555555555553 2.6133333333333333 -2.6133333333333333 2.6133333333333333s-2.6133333333333333 -1.1707555555555553 -2.6133333333333333 -2.6133333333333333c0 -1.442488888888889 1.1708 -2.613288888888889 2.6133333333333333 -2.613288888888889s2.6133333333333333 1.1707555555555553 2.6133333333333333 2.613288888888889Z" stroke-width="0.4444"></path>
    <path fill="none" stroke="#000000" stroke-linecap="round" stroke-linejoin="round" stroke-miterlimit="10" stroke-width="0.8889" d="M30.681688888888885 12.210666666666667c-0.1255111111111111 -0.4808888888888889 -0.2717777777777778 -0.9564888888888888 -0.44426666666666664 -1.4164444444444444 -0.16724444444444445 -0.46515555555555554 -0.36066666666666664 -0.9251111111111111 -0.5749333333333333 -1.3641333333333334 -1.4895999999999998 -3.0942222222222218 -3.9983999999999997 -5.602977777777777 -7.092577777777777 -7.092577777777777 -0.4390222222222222 -0.21431111111111112 -0.8989777777777777 -0.4076888888888889 -1.3641777777777777 -0.5749333333333333 -0.45991111111111105 -0.17248888888888889 -0.9355555555555555 -0.31884444444444443 -1.4163999999999999 -0.44426666666666664 -1.1707555555555553 -0.29795555555555553 -2.393822222222222 -0.46519999999999995 -3.658666666666666 -0.4704 -0.04182222222222222 -0.005244444444444444 -0.08884444444444443 -0.005244444444444444 -0.13066666666666665 -0.005244444444444444 -0.22995555555555552 0 -0.4599555555555555 0.005244444444444444 -0.689911111111111 0.020888888888888887 -0.0575111111111111 -0.0052 -0.11497777777777776 0 -0.16724444444444445 0.005244444444444444 -0.16728888888888888 0.005244444444444444 -0.33453333333333335 0.020888888888888887 -0.49653333333333327 0.03657777777777777 -0.0732 0.005244444444444444 -0.14635555555555554 0.010444444444444444 -0.21955555555555553 0.020933333333333335 -0.17244444444444443 0.015644444444444443 -0.3397333333333333 0.03657777777777777 -0.5121777777777778 0.0627111111111111 -0.17248888888888889 0.020888888888888887 -0.3397333333333333 0.04702222222222222 -0.5122222222222222 0.0784 -0.33453333333333335 0.057466666666666666 -0.6690222222222222 0.1254222222222222 -0.998311111111111 0.20906666666666665 -0.1568 0.03657777777777777 -0.3136 0.0784 -0.4704 0.12022222222222223 -0.015688888888888888 0 -0.03653333333333333 0.0052 -0.05226666666666666 0.015644444444444443 -0.3136 0.08364444444444444 -0.6272 0.18293333333333334 -0.9303555555555556 0.29795555555555553 -0.1411111111111111 0.04702222222222222 -0.2822222222222222 0.09928888888888887 -0.42333333333333334 0.1568 -0.03657777777777777 0.0052 -0.06795555555555556 0.020888888888888887 -0.10453333333333333 0.041777777777777775 -0.2927111111111111 0.10453333333333333 -0.5801777777777777 0.22999999999999998 -0.8623999999999999 0.37111111111111106 -0.15159999999999998 0.07315555555555554 -0.29791111111111107 0.14635555555555554 -0.44426666666666664 0.2195111111111111 -0.29791111111111107 0.15159999999999998 -0.5906222222222222 0.3136 -0.8728444444444444 0.48084444444444446l0.008755555555555555 0.00791111111111111c-2.7874666666666665 1.6564444444444444 -4.997244444444444 4.173555555555555 -6.249377777777777 7.199644444444445 -0.09408888888888889 0.22475555555555557 -0.18293333333333334 0.44951111111111114 -0.26653333333333334 0.6794666666666666 -0.16724444444444445 0.4547555555555556 -0.3136 0.9251555555555555 -0.4285777777777778 1.4007555555555555 -0.0784 0.2927111111111111 -0.1411111111111111 0.5853777777777777 -0.19337777777777776 0.8833333333333333 -0.08884444444444443 0.43377777777777776 -0.15155555555555555 0.8780444444444444 -0.19337777777777776 1.322311111111111 -0.05231111111111111 0.5017777777777778 -0.07844444444444444 1.0139999999999998 -0.07844444444444444 1.5261777777777776 0 1.3066666666666666 0.16724444444444445 2.5767999999999995 0.4756 3.784177777777778 0.1255111111111111 0.4860888888888888 0.2717777777777778 0.9564888888888888 0.44426666666666664 1.4216444444444445 0.2508888888888889 0.6951555555555555 0.5592444444444444 1.3693777777777778 0.9094666666666666 2.0174666666666665 0.7003555555555555 1.291022222222222 1.5836444444444444 2.467022222222222 2.6133333333333333 3.491422222222222 0.5174222222222221 0.5226666666666666 1.0662222222222222 0.998311111111111 1.6516 1.4268888888888889 0.3868444444444444 0.29791111111111107 0.7892444444444444 0.5696888888888889 1.2021333333333333 0.8205777777777777h0.005244444444444444c0.41288888888888886 0.2560888888888889 0.8414666666666666 0.4860888888888888 1.2857333333333332 0.7003555555555555C11.41622222222222 30.61897777777778 13.6428 31.15733333333333 16 31.15733333333333c0.04182222222222222 0 0.08884444444444443 0 0.13066666666666665 -0.005155555555555555 0.010444444444444444 0.005155555555555555 0.015688888888888888 0.005155555555555555 0.020933333333333335 0 0.17244444444444443 0.005155555555555555 0.3397333333333333 0 0.5069777777777777 -0.010488888888888888 0.0784 0 0.16199999999999998 -0.0052 0.24564444444444442 -0.015644444444444443 0.16724444444444445 -0.0052 0.32928888888888885 -0.015688888888888888 0.49128888888888883 -0.03662222222222222 0.24568888888888885 -0.015644444444444443 0.4860888888888888 -0.04702222222222222 0.7265333333333334 -0.0836 0.13586666666666666 -0.015688888888888888 0.27702222222222217 -0.03657777777777777 0.41288888888888886 -0.0627111111111111 0.32928888888888885 -0.05226666666666666 0.6533333333333333 -0.12022222222222223 0.9773777777777778 -0.19862222222222223 0.14635555555555554 -0.031377777777777775 0.2927555555555555 -0.06795555555555556 0.43906666666666666 -0.10977777777777777 0.3449333333333333 -0.08884444444444443 0.6846666666666666 -0.19337777777777776 1.0192 -0.31880000000000003 0.14635555555555554 -0.04706666666666666 0.28746666666666665 -0.09933333333333333 0.42333333333333334 -0.15159999999999998 0.30839999999999995 -0.10973333333333334 0.6063111111111111 -0.2404 0.9042222222222221 -0.38155555555555554 0.14635555555555554 -0.06786666666666666 0.2927111111111111 -0.1358222222222222 0.43906666666666666 -0.20906666666666665 0.28746666666666665 -0.1463111111111111 0.5696888888888889 -0.29791111111111107 0.8519111111111111 -0.45991111111111105l-0.006666666666666666 -0.005866666666666667c2.806222222222222 -1.6198666666666666 5.0527999999999995 -4.112977777777778 6.341377777777778 -7.118088888888888 0.005244444444444444 -0.005244444444444444 0.005244444444444444 -0.005244444444444444 0.005244444444444444 -0.010444444444444444 0.19862222222222223 -0.45471111111111107 0.37111111111111106 -0.9251111111111111 0.5226666666666666 -1.4007555555555555 0.07315555555555554 -0.2404 0.14635555555555554 -0.4860888888888888 0.20906666666666665 -0.7317333333333333 0.05226666666666666 -0.19862222222222223 0.09928888888888887 -0.4024444444444444 0.14635555555555554 -0.6062666666666666 0.06795555555555556 -0.2927111111111111 0.12022222222222223 -0.5906222222222222 0.16724444444444445 -0.8937777777777778 0.04182222222222222 -0.2561777777777778 0.07315555555555554 -0.5122222222222222 0.09928888888888887 -0.7735555555555554 0.020933333333333335 -0.18813333333333332 0.03653333333333333 -0.38155555555555554 0.04706666666666666 -0.5749333333333333 0.02613333333333333 -0.32928888888888885 0.03657777777777777 -0.6637777777777778 0.03657777777777777 -0.9982666666666667 0 -1.3068 -0.16724444444444445 -2.5768888888888886 -0.4756444444444444 -3.7894666666666668ZM13.386666666666667 15.999955555555553c0 -1.442488888888889 1.1708 -2.613288888888889 2.6133333333333333 -2.613288888888889s2.6133333333333333 1.1708 2.6133333333333333 2.613288888888889c0 1.4425777777777777 -1.1707555555555553 2.6133333333333333 -2.6133333333333333 2.6133333333333333s-2.6133333333333333 -1.1707555555555553 -2.6133333333333333 -2.6133333333333333Z"></path>
  </g>
</svg>