<svg id="Plastic-Bottle--Streamline-Openmoji" viewBox="0 0 32 32" version="1.1" xmlns="http://www.w3.org/2000/svg" height="32" width="32">
  <desc>
    Plastic Bottle Streamline Emoji: https://streamlinehq.com
  </desc>
  <g id="color">
    <path fill="#92d3f5" d="M13.333333333333332 3.7777777777777777V6.666666666666666l-2.2222222222222223 3.1111111111111107 0.8888888888888888 1.7777777777777777 -0.8888888888888888 1.3333333333333333 0.8888888888888888 1.3333333333333333 -0.8888888888888888 1.3333333333333333 0.8888888888888888 1.3333333333333333 -0.8888888888888888 1.3333333333333333 0.8888888888888888 1.3333333333333333 -0.8888888888888888 1.3333333333333333 0.8888888888888888 1.3333333333333333 -0.8888888888888888 1.3333333333333333 0.8888888888888888 1.3333333333333333 -0.8888888888888888 1.3333333333333333 0.8888888888888888 1.3333333333333333 -0.8888888888888888 1.7777777777777777 0.8888888888888888 0.4444444444444444h8l0.8888888888888888 -0.4444444444444444 -0.8888888888888888 -1.7777777777777777 0.8888888888888888 -1.3333333333333333 -0.8888888888888888 -1.3333333333333333 0.8888888888888888 -1.3333333333333333 -0.8888888888888888 -1.3333333333333333 0.8888888888888888 -1.3333333333333333 -0.8888888888888888 -1.3333333333333333 0.8888888888888888 -1.3333333333333333 -0.8888888888888888 -1.3333333333333333 0.8888888888888888 -1.3333333333333333 -0.8888888888888888 -1.3333333333333333 0.8888888888888888 -1.3333333333333333 -0.8888888888888888 -1.3333333333333333 0.8888888888888888 -1.7777777777777777 -2.2222222222222223 -3.1111111111111107V3.7777777777777777z" stroke-width="0.4444"></path>
    <path fill="#9b9b9a" d="M13.333333333333332 1.7777777777777777h5.333333333333333s0.4444444444444444 0 0.4444444444444444 0.4444444444444444v2s0 0.4444444444444444 -0.4444444444444444 0.4444444444444444H13.333333333333332s-0.4444444444444444 0 -0.4444444444444444 -0.4444444444444444V2.2222222222222223s0 -0.4444444444444444 0.4444444444444444 -0.4444444444444444" stroke-width="0.4444"></path>
    <path fill="#3f3f3f" d="M19.11111111111111 2.2222222222222223v2.2222222222222223h-2.2222222222222223V2.2222222222222223z" stroke-width="0.4444"></path>
    <path fill="#61b2e4" d="M18.666666666666664 4.666666666666666v2.6666666666666665l2 2.2222222222222223 -0.4444444444444444 2 0.6666666666666666 1.3333333333333333 -0.6666666666666666 1.3333333333333333 0.6666666666666666 1.3333333333333333 -0.6666666666666666 1.3333333333333333 0.6666666666666666 1.3333333333333333 -0.6666666666666666 1.3333333333333333 0.6666666666666666 1.3333333333333333 -0.6666666666666666 1.3333333333333333 0.6666666666666666 1.3333333333333333 -0.6666666666666666 1.3333333333333333 0.6666666666666666 1.3333333333333333 -0.6666666666666666 1.3333333333333333 0.4444444444444444 2.2222222222222223H18.666666666666664c-0.1259111111111111 0 0.8888888888888888 0 0.8888888888888888 -0.8888888888888888s-0.8888888888888888 -0.8888888888888888 -0.8888888888888888 -1.3333333333333333 0.8888888888888888 -0.4444444444444444 0.8888888888888888 -1.3333333333333333 -0.8888888888888888 -0.8888888888888888 -0.8888888888888888 -1.3333333333333333 0.8888888888888888 -0.4444444444444444 0.8888888888888888 -1.3333333333333333 -0.8888888888888888 -0.8888888888888888 -0.8888888888888888 -1.3333333333333333 0.8888888888888888 -0.4444444444444444 0.8888888888888888 -1.3333333333333333 -0.8888888888888888 -0.8888888888888888 -0.8888888888888888 -1.3333333333333333 0.8888888888888888 -0.4444444444444444 0.8888888888888888 -1.3333333333333333 -0.8888888888888888 -0.8888888888888888 -0.8888888888888888 -1.3333333333333333 0.8888888888888888 -0.4444444444444444 0.8888888888888888 -1.3333333333333333 -0.8888888888888888 -0.8888888888888888 -0.8888888888888888 -1.3333333333333333 0.8888888888888888 -0.4444444444444444 0.8888888888888888 -1.3333333333333333 -0.8888888888888888 -0.8888888888888888 -0.8888888888888888 -1.3333333333333333 1.1111111111111112 -0.6666666666666666 1.1111111111111112 -1.5555555555555554C19.777777777777775 9.333333333333332 17.333333333333332 7.555555555555555 17.333333333333332 6.666666666666666v-2z" stroke-width="0.4444"></path>
  </g>
  <g id="line">
    <path fill="none" stroke="#000000" stroke-linecap="round" stroke-linejoin="round" stroke-width="0.8889" d="M12.888888888888888 4.444444444444445h6.222222222222221"></path>
    <path fill="none" stroke="#000000" stroke-linecap="round" stroke-linejoin="round" stroke-width="0.8889" d="M13.333333333333332 2.2222222222222223h5.333333333333333"></path>
    <path fill="none" stroke="#000000" stroke-linecap="round" stroke-linejoin="round" stroke-width="0.8889" d="M18.22222222222222 6V6.666666666666666c1.7777777777777777 2.2222222222222223 2.6666666666666665 2.6666666666666665 2.6666666666666665 3.5555555555555554s-0.8888888888888888 0.8888888888888888 -0.8888888888888888 1.3333333333333333 0.8888888888888888 0.4444444444444444 0.8888888888888888 1.3333333333333333 -0.8888888888888888 0.8888888888888888 -0.8888888888888888 1.3333333333333333 0.8888888888888888 0.4444444444444444 0.8888888888888888 1.3333333333333333 -0.8888888888888888 0.8888888888888888 -0.8888888888888888 1.3333333333333333 0.8888888888888888 0.4444444444444444 0.8888888888888888 1.3333333333333333 -0.8888888888888888 0.8888888888888888 -0.8888888888888888 1.3333333333333333 0.8888888888888888 0.4444444444444444 0.8888888888888888 1.3333333333333333 -0.8888888888888888 0.8888888888888888 -0.8888888888888888 1.3333333333333333 0.8888888888888888 0.4444444444444444 0.8888888888888888 1.3333333333333333 -0.8888888888888888 0.8888888888888888 -0.8888888888888888 1.3333333333333333 0.8888888888888888 0.4444444444444444 0.8888888888888888 1.3333333333333333 -0.8888888888888888 0.8888888888888888 -0.8888888888888888 1.3333333333333333 0.8888888888888888 0.4444444444444444 0.8888888888888888 1.3333333333333333 -0.7631111111111111 0.8888888888888888 -0.8888888888888888 0.8888888888888888H12c-0.1259111111111111 0 -0.8888888888888888 0 -0.8888888888888888 -0.8888888888888888s0.8888888888888888 -0.8888888888888888 0.8888888888888888 -1.3333333333333333 -0.8888888888888888 -0.4444444444444444 -0.8888888888888888 -1.3333333333333333 0.8888888888888888 -0.8888888888888888 0.8888888888888888 -1.3333333333333333 -0.8888888888888888 -0.4444444444444444 -0.8888888888888888 -1.3333333333333333 0.8888888888888888 -0.8888888888888888 0.8888888888888888 -1.3333333333333333 -0.8888888888888888 -0.4444444444444444 -0.8888888888888888 -1.3333333333333333 0.8888888888888888 -0.8888888888888888 0.8888888888888888 -1.3333333333333333 -0.8888888888888888 -0.4444444444444444 -0.8888888888888888 -1.3333333333333333 0.8888888888888888 -0.8888888888888888 0.8888888888888888 -1.3333333333333333 -0.8888888888888888 -0.4444444444444444 -0.8888888888888888 -1.3333333333333333 0.8888888888888888 -0.8888888888888888 0.8888888888888888 -1.3333333333333333 -0.8888888888888888 -0.4444444444444444 -0.8888888888888888 -1.3333333333333333 0.8888888888888888 -0.8888888888888888 0.8888888888888888 -1.3333333333333333 -0.8888888888888888 -0.4444444444444444 -0.8888888888888888 -1.3333333333333333 0.8888888888888888 -1.3333333333333333 2.6666666666666665 -3.5555555555555554v-0.6666666666666666"></path>
    <path fill="none" stroke="#000000" stroke-linecap="round" stroke-linejoin="round" stroke-width="0.8889" d="M14 11.555555555555555h4"></path>
    <path fill="none" stroke="#000000" stroke-linecap="round" stroke-linejoin="round" stroke-width="0.8889" d="M14 14.222222222222221h4"></path>
    <path fill="none" stroke="#000000" stroke-linecap="round" stroke-linejoin="round" stroke-width="0.8889" d="M14 16.88888888888889h4"></path>
    <path fill="none" stroke="#000000" stroke-linecap="round" stroke-linejoin="round" stroke-width="0.8889" d="M14 19.555555555555554h4"></path>
    <path fill="none" stroke="#000000" stroke-linecap="round" stroke-linejoin="round" stroke-width="0.8889" d="M14 22.22222222222222h4"></path>
    <path fill="none" stroke="#000000" stroke-linecap="round" stroke-linejoin="round" stroke-width="0.8889" d="M14 24.888888888888886h4"></path>
    <path fill="none" stroke="#000000" stroke-linecap="round" stroke-linejoin="round" stroke-width="0.8889" d="M14 27.555555555555554h4"></path>
  </g>
</svg>