<svg id="Pot-Of-Food--Streamline-Openmoji" viewBox="0 0 32 32" xmlns="http://www.w3.org/2000/svg" height="32" width="32">
  <desc>
    Pot Of Food Streamline Emoji: https://streamlinehq.com
  </desc>
  <g id="color">
    <path fill="#ffffff" stroke="none" d="M0.8426666666666666 15.990577777777776c0 8.371333333333332 6.786 15.157333333333332 15.157333333333332 15.157333333333332s15.157333333333332 -6.786 15.157333333333332 -15.157333333333332H0.8426666666666666Z" stroke-width="0.4444"></path>
    <path fill="#d0cfce" stroke="none" d="M22.794666666666664 15.990577777777776c0 8.3708 -2.0906666666666665 15.157333333333332 -6.794666666666666 15.157333333333332 8.371333333333332 0 15.157333333333332 -6.786533333333333 15.157333333333332 -15.157333333333332H22.794666666666664Z" stroke-width="0.4444"></path>
  </g>
  <g id="hair"></g>
  <g id="skin"></g>
  <g id="skin-shadow"></g>
  <g id="line">
    <path fill="none" stroke="#000000" stroke-linecap="round" stroke-linejoin="round" stroke-miterlimit="10" stroke-width="0.8889" d="M0.8426666666666666 15.990577777777776c0 8.371333333333332 6.786 15.157333333333332 15.157333333333332 15.157333333333332s15.157333333333332 -6.786 15.157333333333332 -15.157333333333332H0.8426666666666666Z"></path>
    <path fill="none" stroke="#000000" stroke-linecap="round" stroke-linejoin="round" stroke-miterlimit="10" stroke-width="0.8889" d="m0.8426666666666666 10.31471111111111 3.658666666666666 3.658666666666666"></path>
    <path fill="none" stroke="#000000" stroke-linecap="round" stroke-linejoin="round" stroke-miterlimit="10" stroke-width="0.8889" d="M12.363822222222222 1.2752444444444444c0.05302222222222222 0.588 0.2929333333333333 1.1622222222222223 0.7426666666666667 1.6119111111111109 1.0202666666666667 1.0198222222222222 1.0202666666666667 2.674577777777778 0 3.695422222222222 -1.0203555555555555 1.0208 -1.0203555555555555 2.675555555555555 0 3.695377777777778 1.0202666666666667 1.0198222222222222 1.0202666666666667 2.6746222222222222 0 3.695422222222222"></path>
    <path fill="none" stroke="#000000" stroke-linecap="round" stroke-linejoin="round" stroke-miterlimit="10" stroke-width="0.8889" d="M15.252755555555554 0.8520888888888889c-0.05257777777777778 0.7304444444444443 0.18884444444444443 1.4771555555555553 0.7472444444444444 2.0350666666666664 1.0203111111111112 1.0198222222222222 1.0203111111111112 2.674577777777778 0 3.695422222222222 -1.0203111111111112 1.0208 -1.0203111111111112 2.675555555555555 0 3.695377777777778 1.0203111111111112 1.0198222222222222 1.0203111111111112 2.6746222222222222 0 3.695422222222222"></path>
    <path fill="none" stroke="#000000" stroke-linecap="round" stroke-linejoin="round" stroke-miterlimit="10" stroke-width="0.8889" d="M18.096266666666665 0.9812444444444445c-0.015777777777777776 0.6880444444444445 0.2343111111111111 1.3812 0.7595111111111111 1.905911111111111 1.0203111111111112 1.0198222222222222 1.0203111111111112 2.674577777777778 0 3.695422222222222 -1.0203111111111112 1.0208 -1.0203111111111112 2.675555555555555 0 3.695377777777778 1.0203111111111112 1.0198222222222222 1.0203111111111112 2.6746222222222222 0 3.695422222222222"></path>
  </g>
</svg>