<svg id="Rolling-On-The-Floor-Laughing--Streamline-Openmoji" viewBox="0 0 32 32" xmlns="http://www.w3.org/2000/svg" height="32" width="32">
  <desc>
    Rolling On The Floor Laughing Streamline Emoji: https://streamlinehq.com
  </desc>
  <g id="color">
    <path fill="#fcea2b" d="M1.1240444444444444 15.834088888888887c0 9.918844444444444 10.737466666666666 16.118133333333333 19.32742222222222 11.15871111111111 3.9866222222222225 -2.3016888888888887 6.442488888888889 -6.555377777777777 6.442488888888889 -11.15871111111111 0 -9.918844444444444 -10.737466666666666 -16.118133333333333 -19.32742222222222 -11.15871111111111C3.579911111111111 6.977066666666666 1.1240444444444444 11.230755555555556 1.1240444444444444 15.834088888888887" stroke-width="0.4444"></path>
    <path fill="#ffffff" d="M22.37364444444444 15.058355555555556c0.37368888888888885 0.7373777777777778 0.5962222222222221 1.5419555555555553 0.6545333333333333 2.3665333333333334 -5.281022222222222 4.4411555555555555 -12.144977777777777 6.239644444444444 -13.247644444444445 6.505822222222221 -0.5995999999999999 -0.5324 -1.089111111111111 -1.1771999999999998 -1.4407999999999999 -1.8978222222222223l0.05288888888888888 -0.026266666666666664s7.973422222222222 -1.8102222222222224 13.906222222222222 -6.8691555555555555Z" stroke-width="0.4444"></path>
    <path fill="#ea5a47" d="M23.028088888888888 17.42488888888889c0.15964444444444445 2.4806222222222223 -1.3254222222222223 4.993244444444444 -4.854311111111111 6.747066666666666 -3.5625333333333336 1.7704888888888888 -6.507644444444445 1.4176888888888888 -8.393199999999998 -0.2412444444444444 1.1026222222222222 -0.2662222222222222 7.966622222222222 -2.0648 13.247511111111109 -6.505822222222221Z" stroke-width="0.4444"></path>
    <path fill="#92d3f5" d="M31.024044444444446 14.175155555555556c-0.40017777777777774 1.1930222222222222 -1.6921333333333333 1.8353777777777776 -2.8848888888888884 1.4343555555555556 -2.1388 -0.7186666666666667 -3.5863111111111112 -3.59 -3.600755555555555 -3.618533333333333 0.11435555555555554 -0.04893333333333333 2.9240444444444447 -1.4157333333333333 5.0520000000000005 -0.7007111111111111 1.1930222222222222 0.4002222222222222 1.8352 1.6923555555555554 1.4337777777777776 2.884977777777778Z" stroke-width="0.4444"></path>
    <path fill="#92d3f5" d="M2.41 28.396266666666662c-1.1930222222222222 -0.4002222222222222 -1.8353777777777776 -1.6921333333333333 -1.4344 -2.884933333333333 0.7187111111111111 -2.1387555555555555 3.59 -3.5863111111111112 3.618533333333333 -3.6007111111111105 0.04893333333333333 0.11435555555555554 1.4156888888888888 2.9240444444444447 0.7007111111111111 5.0520000000000005 -0.4002222222222222 1.1930222222222222 -1.6923555555555554 1.8352 -2.884977777777778 1.4338222222222223Z" stroke-width="0.4444"></path>
  </g>
  <g id="hair"></g>
  <g id="skin"></g>
  <g id="skin-shadow"></g>
  <g id="line">
    <path fill="none" stroke="#000000" stroke-linecap="round" stroke-linejoin="round" stroke-width="0.8889" d="M24.35822222222222 9.096355555555554q-0.02462222222222222 -0.03804444444444444 -0.0496 -0.07577777777777778C19.06231111111111 1.0924 7.200844444444443 1.816622222222222 2.9579999999999997 10.324133333333332c-1.4694666666666665 2.946533333333333 -1.7014666666666667 6.357822222222222 -0.6444444444444444 9.476177777777778 0.0184 0.05488888888888888 0.05613333333333333 0.15955555555555553 0.07515555555555554 0.21435555555555555"></path>
    <path fill="none" stroke="#000000" stroke-linecap="round" stroke-linejoin="round" stroke-width="0.8889" d="M8.123288888888888 26.690266666666666c3.5468444444444445 1.8693777777777778 7.770444444444443 1.9441777777777776 11.381244444444444 0.2016 3.5630666666666664 -1.8041777777777777 6.0527999999999995 -5.1985777777777775 6.703333333333333 -9.139022222222222"></path>
    <path fill="none" stroke="#000000" stroke-linecap="round" stroke-linejoin="round" stroke-width="0.8889" d="M22.37364444444444 15.058355555555556c0.37368888888888885 0.7373777777777778 0.5962222222222221 1.5419555555555553 0.6545333333333333 2.3665333333333334 -5.281022222222222 4.4411555555555555 -12.144977777777777 6.239644444444444 -13.247644444444445 6.505822222222221 -0.5995999999999999 -0.5324 -1.089111111111111 -1.1771999999999998 -1.4407999999999999 -1.8978222222222223l0.05288888888888888 -0.026266666666666664s7.973422222222222 -1.8102222222222224 13.906222222222222 -6.8691555555555555Z"></path>
    <path fill="none" stroke="#000000" stroke-linecap="round" stroke-linejoin="round" stroke-width="0.8889" d="M23.028088888888888 17.42488888888889c0.15964444444444445 2.4806222222222223 -1.3254222222222223 4.993244444444444 -4.854311111111111 6.747066666666666 -3.5625333333333336 1.7704888888888888 -6.507644444444445 1.4176888888888888 -8.393199999999998 -0.2412444444444444 1.1026222222222222 -0.26626666666666665 7.9665333333333335 -2.0647555555555552 13.247511111111109 -6.505822222222221Z"></path>
    <path fill="none" stroke="#000000" stroke-linejoin="round" stroke-width="0.8889" d="M31.024044444444446 14.175155555555556c-0.40017777777777774 1.1930222222222222 -1.6921333333333333 1.8353777777777776 -2.8848888888888884 1.4343555555555556 -2.1388 -0.7186666666666667 -3.5863111111111112 -3.59 -3.600755555555555 -3.618533333333333 0.11435555555555554 -0.04893333333333333 2.9240444444444447 -1.4157333333333333 5.0520000000000005 -0.7007111111111111 1.1930222222222222 0.4002222222222222 1.8352 1.6923555555555554 1.4337777777777776 2.884977777777778Z"></path>
    <path fill="none" stroke="#000000" stroke-linejoin="round" stroke-width="0.8889" d="M2.41 28.396266666666662c-1.1930222222222222 -0.4002222222222222 -1.8353777777777776 -1.6921333333333333 -1.4344 -2.884933333333333 0.7187111111111111 -2.1387555555555555 3.59 -3.5863111111111112 3.618533333333333 -3.6007111111111105 0.04893333333333333 0.11435555555555554 1.4156888888888888 2.9240444444444447 0.7007111111111111 5.0520000000000005 -0.4002222222222222 1.1930222222222222 -1.6923555555555554 1.8352 -2.884977777777778 1.4338222222222223Z"></path>
    <path fill="none" stroke="#000000" stroke-linecap="round" stroke-linejoin="round" stroke-width="0.8889" d="m6.749555555555555 14.293866666666666 4.125866666666667 0.3559555555555555 -2.2736444444444444 3.3710222222222224"></path>
    <path fill="none" stroke="#000000" stroke-linecap="round" stroke-linejoin="round" stroke-width="0.8889" d="m17.16488888888889 9.117333333333333 -2.2076000000000002 3.5036444444444443 4.059822222222222 0.2233333333333333"></path>
  </g>
</svg>