<svg id="Roller-Skate--Streamline-Openmoji" viewBox="0 0 32 32" xmlns="http://www.w3.org/2000/svg" height="32" width="32">
  <desc>
    Roller Skate Streamline Emoji: https://streamlinehq.com
  </desc>
  <g id="color">
    <path fill="#61b2e4" d="M19.731511111111107 13.4696c0.47608888888888884 -0.0005777777777777778 0.7742666666666667 0.5144888888888889 0.5367111111111111 0.927111111111111 -0.009733333333333332 0.016844444444444447 -0.02022222222222222 0.033244444444444445 -0.031466666666666664 0.049111111111111105l-3.595466666666667 5.0797333333333325h12.690577777777776c0.2934222222222222 0 0.5464888888888889 -0.2061333333333333 0.6058222222222222 -0.4935111111111111 0.2816444444444444 -1.5824888888888888 -0.07426666666666666 -3.212133333333333 -0.99 -4.533066666666667 -1.034622222222222 -1.3674666666666666 -2.7276 -2.1442666666666668 -5.0332 -2.3096888888888887 -8.9864 -0.6456 -8.849333333333334 -9.784755555555554 -8.839022222222221 -10.173822222222222 0.009288888888888888 -0.3480888888888889 -0.27031111111111106 -0.6353333333333333 -0.6184888888888889 -0.6354222222222222H4.114577777777777c-0.33302222222222216 0.00008888888888888889 -0.6062222222222222 0.2639111111111111 -0.6179555555555556 0.5967555555555555 -0.0030222222222222217 0.0804 -0.3001333333333333 8.108577777777777 -1.404 10.703022222222222 -0.5398222222222222 1.359111111111111 -0.8510666666666666 2.7981777777777777 -0.921111111111111 4.2588888888888885v1.9684444444444444c0 0.34159999999999996 0.27688888888888885 0.6185333333333333 0.6184888888888889 0.6184888888888889h5.1341777777777775l4.101155555555556 -5.794888888888889c0.11599999999999999 -0.16386666666666666 0.30439999999999995 -0.2612 0.5051555555555556 -0.26106666666666667h2.786311111111111c0.4761333333333333 -0.00008888888888888889 0.7738222222222222 0.5152444444444444 0.5358666666666666 0.9276444444444445 -0.0096 0.016666666666666666 -0.019999999999999997 0.032888888888888884 -0.03115555555555555 0.04862222222222222l-3.5949777777777774 5.079688888888889h1.1357333333333333l4.1015999999999995 -5.794888888888889c0.11604444444444444 -0.1638222222222222 0.3043111111111111 -0.26115555555555553 0.5050666666666667 -0.26106666666666667Z" stroke-width="0.4444"></path>
    <path fill="#b399c8" d="M29.33613333333333 21.785866666666667H2.0687555555555557c-1.346088888888889 -0.008311111111111111 -2.1783555555555556 -1.4706666666666666 -1.4981333333333333 -2.6322666666666668 0.31177777777777776 -0.5324444444444444 0.8811111111111111 -0.8611555555555555 1.4981333333333333 -0.8649333333333332h27.267377777777774c1.3460444444444444 0.008311111111111111 2.1783555555555556 1.4706666666666666 1.4981333333333333 2.632222222222222 -0.3118222222222222 0.5324444444444444 -0.8811555555555555 0.8611555555555555 -1.4981333333333333 0.8649777777777777Z" stroke-width="0.4444"></path>
    <path fill="#d0cfce" d="m4.389777777777778 25.18342222222222 -2.811733333333333 -4.036355555555555h26.103955555555554l-2.7337777777777776 4.036355555555555 -5.216488888888889 -0.029688888888888886 -1.5926222222222222 -1.0434222222222223H11.383777777777777l-1.4590222222222222 1.073111111111111H4.389777777777778Z" stroke-width="0.4444"></path>
    <path fill="#3f3f3f" d="m28.700355555555554 21.147333333333332 -2.5010222222222223 3.643511111111111c-0.1167111111111111 0.2680444444444444 -0.048799999999999996 0.5806666666666667 0.16857777777777777 0.7760888888888888l1.6906666666666665 1.3821777777777777 3.002933333333333 -3.9680444444444447Z" stroke-width="0.4444"></path>
    <path fill="#fcea2b" d="M7.053022222222222 30.620088888888887c-2.8567555555555555 0 -4.642222222222222 -3.092533333333333 -3.213822222222222 -5.566533333333333 1.4283555555555554 -2.4740444444444445 4.999288888888889 -2.4740444444444445 6.427688888888889 0 0.32568888888888886 0.5641333333333334 0.4971555555555556 1.2040888888888888 0.4971555555555556 1.8555111111111111 -0.0022222222222222222 2.0485777777777776 -1.6623999999999999 3.7087555555555554 -3.7110222222222222 3.7110222222222222Z" stroke-width="0.4444"></path>
    <path fill="#fcea2b" d="M22.0536 30.620088888888887c-2.8567555555555555 0 -4.642222222222222 -3.092533333333333 -3.213822222222222 -5.566533333333333 1.4283555555555554 -2.4740444444444445 4.999288888888889 -2.4740444444444445 6.427688888888889 0 0.32568888888888886 0.5641333333333334 0.4971555555555556 1.2040888888888888 0.4971555555555556 1.8555111111111111 -0.002266666666666667 2.0485777777777776 -1.6623999999999999 3.7087555555555554 -3.7110222222222222 3.7110222222222222Z" stroke-width="0.4444"></path>
  </g>
  <g id="line">
    <path fill="none" stroke="#000000" stroke-linecap="round" stroke-linejoin="round" stroke-width="0.8889" d="M29.324311111111108 16.938355555555553c-0.28946666666666665 -1.671511111111111 -1.4472888888888888 -3.844311111111111 -5.454088888888888 -4.132311111111111C14.166577777777777 12.108888888888888 14.457066666666664 1.9984444444444445 14.457066666666664 1.9984444444444445H4.1142666666666665s-0.2907111111111111 8.19288888888889 -1.4526222222222223 10.923822222222222c-0.5102222222222221 1.2815555555555556 -0.804711111111111 2.6387555555555555 -0.8715999999999999 4.016577777777778"></path>
    <path fill="none" stroke="#000000" stroke-linecap="round" stroke-linejoin="round" stroke-width="0.8889" d="M14.7096 4.484711111111111h-1.4978222222222222"></path>
    <path fill="none" stroke="#000000" stroke-linecap="round" stroke-linejoin="round" stroke-width="0.8889" d="M15.330355555555554 6.757955555555554h-1.4978222222222222"></path>
    <path fill="none" stroke="#000000" stroke-linecap="round" stroke-linejoin="round" stroke-width="0.8889" d="M16.483066666666666 8.925377777777777h-1.4978666666666667"></path>
    <path fill="none" stroke="#000000" stroke-linecap="round" stroke-linejoin="round" stroke-width="0.8889" d="M18.012355555555555 10.739333333333333h-1.4977777777777777"></path>
    <path fill="none" stroke="#000000" stroke-linecap="round" stroke-linejoin="round" stroke-width="0.8889" d="m8.092533333333334 18.907155555555555 3.438266666666667 -4.818933333333333"></path>
    <path fill="none" stroke="#000000" stroke-linecap="round" stroke-linejoin="round" stroke-width="0.8889" d="m10.878844444444443 18.907155555555555 3.438266666666667 -4.818933333333333"></path>
    <path fill="none" stroke="#000000" stroke-linecap="round" stroke-linejoin="round" stroke-width="0.8889" d="m13.530888888888889 18.907155555555555 3.438266666666667 -4.818933333333333"></path>
    <path fill="none" stroke="#000000" stroke-linecap="round" stroke-linejoin="round" stroke-width="0.8889" d="m16.293244444444444 18.907155555555555 3.438266666666667 -4.818933333333333"></path>
    <path fill="none" stroke="#000000" stroke-linecap="round" stroke-linejoin="round" stroke-width="0.8889" d="M6.312755555555555 18.907155555555555h23.0236c0.6233333333333333 0.0018222222222222223 1.1282222222222222 0.506711111111111 1.13 1.1300444444444444h0c-0.0017777777777777776 0.6233777777777778 -0.5066666666666666 1.1282666666666668 -1.13 1.1300888888888887H2.068622222222222c-0.6233777777777778 -0.0018222222222222223 -1.1282666666666668 -0.506711111111111 -1.1301333333333334 -1.1300888888888887h0c0.0018666666666666664 -0.6233333333333333 0.506711111111111 -1.1282222222222222 1.1300888888888887 -1.1300444444444444h1.2734222222222222"></path>
    <path fill="none" stroke="#000000" stroke-linecap="round" stroke-linejoin="round" stroke-width="0.8889" d="M11.180444444444444 23.494177777777775h6.958399999999999"></path>
    <path fill="none" stroke="#000000" stroke-linecap="round" stroke-linejoin="round" stroke-width="0.8889" d="m28.362355555555553 21.167466666666666 2.6991555555555555 1.9186222222222222 -2.5457777777777775 3.440711111111111 -1.7577777777777777 -1.4491555555555555"></path>
    <path fill="none" stroke="#000000" stroke-linecap="round" stroke-linejoin="round" stroke-width="0.8889" d="M3.960711111111111 26.90893333333333c0 2.380622222222222 2.5770666666666666 3.868488888888889 4.638755555555556 2.6781777777777775 0.9568444444444443 -0.5523999999999999 1.5462666666666665 -1.5733333333333333 1.5462666666666665 -2.6781777777777775 0 -2.380622222222222 -2.577111111111111 -3.868533333333333 -4.638755555555556 -2.678222222222222 -0.9568444444444443 0.5524444444444445 -1.5462666666666665 1.5733777777777775 -1.5462666666666665 2.678222222222222"></path>
    <path fill="none" stroke="#000000" stroke-linecap="round" stroke-linejoin="round" stroke-width="0.8889" d="M18.960977777777774 26.90893333333333c0 2.380622222222222 2.5770666666666666 3.868488888888889 4.638755555555556 2.6781777777777775 0.9568444444444443 -0.5523999999999999 1.5462666666666665 -1.5733333333333333 1.5462666666666665 -2.6781777777777775 0 -2.380622222222222 -2.577111111111111 -3.868533333333333 -4.6388 -2.678222222222222 -0.9568 0.5524444444444445 -1.5462222222222222 1.5733777777777775 -1.5462222222222222 2.678222222222222"></path>
    <path fill="none" stroke="#000000" stroke-linecap="round" stroke-linejoin="round" stroke-width="0.8889" d="m3.3856 22.648444444444443 0.4410222222222222 0.6485333333333333"></path>
    <path fill="none" stroke="#000000" stroke-linecap="round" stroke-linejoin="round" stroke-width="0.8889" d="m25.918222222222223 22.648444444444443 -0.4410666666666666 0.6485333333333333"></path>
  </g>
</svg>