<svg id="Shushing-Face--Streamline-Openmoji" viewBox="0 0 32 32" xmlns="http://www.w3.org/2000/svg" height="32" width="32">
  <desc>
    Shushing Face Streamline Emoji: https://streamlinehq.com
  </desc>
  <g id="color">
    <path fill="none" stroke="#fcea2b" stroke-miterlimit="10" stroke-width="0.8" d="M2.1234666666666664 14.81502222222222c-0.006044444444444443 10.682177777777778 11.553955555555556 17.365066666666664 20.807999999999996 12.0292 4.299644444444445 -2.4791555555555553 6.947866666666666 -7.065955555555555 6.9450666666666665 -12.0292 0.006044444444444443 -10.682133333333333 -11.553955555555556 -17.365022222222223 -20.807999999999996 -12.029155555555555C4.768888888888889 5.265022222222222 2.1206666666666663 9.851822222222221 2.1234666666666664 14.81502222222222"></path>
    <path fill="#fcea2b" d="M22.515911111111112 27.183244444444444c6.8176 -3.6199555555555554 9.472266666666666 -12.187199999999999 5.852266666666666 -19.0048S16.30164444444444 -1.173111111111111 9.48408888888889 2.4468444444444444 0.13248888888888888 14.513377777777777 3.7524888888888883 21.33097777777778c1.3876444444444442 2.533955555555555 3.4992888888888887 4.6456 6.0935999999999995 5.912577777777778 0 0.9653333333333334 0.4223111111111111 1.9306666666666668 1.0859555555555556 2.6546666666666665 0.8446666666666667 0.9652888888888889 5.128266666666667 1.9909777777777777 7.360577777777777 -0.12066666666666667 0.6636888888888889 -0.6033333333333333 4.404311111111111 -2.534 4.223288888888889 -2.5943111111111112Z" stroke-width="0.4444"></path>
  </g>
  <g id="hair"></g>
  <g id="skin"></g>
  <g id="skin-shadow"></g>
  <g id="line">
    <path fill="none" stroke="#000000" stroke-linecap="round" stroke-linejoin="round" stroke-width="0.8889" d="M25.351555555555553 25.071599999999997c5.671288888888889 -5.1886222222222225 6.0935999999999995 -13.936844444444445 0.9049777777777778 -19.60813333333333S12.319688888888889 -0.6301333333333333 6.6484444444444435 4.558488888888889 0.5548444444444444 18.49533333333333 5.7434666666666665 24.16662222222222c0.5429777777777778 0.5429777777777778 1.0859555555555556 1.0859555555555556 1.6892888888888888 1.5686222222222221"></path>
    <path fill="none" stroke="#000000" stroke-linecap="round" stroke-linejoin="round" stroke-width="0.8889" d="M7.191422222222222 7.454444444444444c0.42235555555555554 -0.8446666666666667 1.146311111111111 -1.4479555555555554 1.9909777777777777 -1.7496444444444443 0.7843111111111111 -0.4223111111111111 1.7496444444444443 -0.4826666666666667 2.5943111111111112 -0.24133333333333334"></path>
    <path fill="none" stroke="#000000" stroke-linecap="round" stroke-linejoin="round" stroke-width="0.8889" d="M24.868888888888886 7.454444444444444c-0.9049777777777778 -1.6289777777777776 -2.7752888888888885 -2.413288888888889 -4.585288888888889 -1.9909777777777777"></path>
    <path fill="none" stroke="#000000" stroke-linecap="round" stroke-linejoin="round" stroke-width="0.8889" d="M14.793333333333331 18.253999999999998c-0.8446666666666667 -0.12066666666666667 -1.6892888888888888 -0.4223111111111111 -2.413288888888889 -0.9049777777777778"></path>
    <path fill="none" stroke="#000000" stroke-linecap="round" stroke-linejoin="round" stroke-width="0.8889" d="M19.680311111111113 17.34902222222222c-0.7843555555555555 0.4223111111111111 -1.629022222222222 0.724 -2.534 0.9049777777777778"></path>
    <path fill="none" stroke="#000000" stroke-linecap="round" stroke-linejoin="round" stroke-width="0.8889" d="M17.086 16.504355555555556c0 -0.6033333333333333 -0.5430222222222222 -1.146311111111111 -1.146311111111111 -1.146311111111111s-1.1463555555555554 0.5429777777777778 -1.1463555555555554 1.146311111111111"></path>
    <path fill="none" stroke="#000000" stroke-linecap="round" stroke-linejoin="round" stroke-width="0.8889" d="M14.793333333333331 21.813644444444442V16.504355555555556"></path>
    <path fill="none" stroke="#000000" stroke-linecap="round" stroke-linejoin="round" stroke-width="0.8889" d="M17.086 16.504355555555556v5.369599999999999"></path>
    <path fill="none" stroke="#000000" stroke-miterlimit="10" stroke-width="0.8889" d="M16.723999999999997 21.813644444444442c1.0256444444444444 0 1.8099555555555555 0.7843111111111111 1.8099555555555555 1.8099555555555555v1.0859999999999999h2.473644444444444c0.7843555555555555 -0.06035555555555555 1.508311111111111 0.4223111111111111 1.6893333333333334 1.2066666666666666s-0.18102222222222222 1.5686222222222221 -0.8446666666666667 1.930622222222222c-0.30164444444444444 0.18102222222222222 -0.6636444444444445 0.362 -0.9653333333333334 0.5430222222222222 -1.2066222222222223 0.6636444444444445 -2.473644444444444 1.327288888888889 -3.7406222222222216 1.9909777777777777 -1.146311111111111 0.6032888888888889 -2.413288888888889 0.8446222222222222 -3.6802666666666664 0.6032888888888889 -2.1719999999999997 -0.36195555555555553 -3.6199999999999997 -2.413288888888889 -3.2579999999999996 -4.6456 0.12066666666666667 -0.9049777777777778 0.30168888888888884 -1.8099555555555555 0.6033333333333333 -2.654622222222222 0.362 -1.0859999999999999 1.3876444444444442 -1.8703111111111108 2.534 -1.8703111111111108h3.378622222222222Z"></path>
    <path d="M12.380044444444444 9.988444444444443c0 1.0256444444444444 -0.7843111111111111 1.8099555555555555 -1.8099999999999998 1.8099555555555555s-1.8099555555555555 -0.7843111111111111 -1.8099555555555555 -1.8099555555555555 0.7843111111111111 -1.8099999999999998 1.8099555555555555 -1.8099999999999998c0.9653333333333334 0 1.8099999999999998 0.7843111111111111 1.8099999999999998 1.7496444444444443v0.06035555555555555" stroke-width="0.4444"></path>
    <path d="M23.23991111111111 9.988444444444443c0 1.0256444444444444 -0.7843111111111111 1.8099555555555555 -1.8099555555555555 1.8099555555555555s-1.8099999999999998 -0.7843111111111111 -1.8099999999999998 -1.8099555555555555 0.7843111111111111 -1.8099999999999998 1.8099999999999998 -1.8099999999999998c0.9652888888888889 0 1.8099555555555555 0.7843111111111111 1.8099555555555555 1.7496444444444443v0.06035555555555555" stroke-width="0.4444"></path>
    <path fill="none" stroke="#000000" stroke-linecap="round" stroke-linejoin="round" stroke-miterlimit="10" stroke-width="0.8889" d="M16.12066666666667 24.46826666666667c-0.7843111111111111 0 -1.2066666666666666 0.4223111111111111 -1.508311111111111 0.9049777777777778 -0.362 0.5430222222222222 0 1.3273333333333333 0.6033333333333333 1.3273333333333333h2.5943111111111112c0.4223111111111111 0 0.7239555555555556 -0.362 0.7239555555555556 -0.8446666666666667v-1.146311111111111"></path>
  </g>
</svg>