<svg id="Three-Finger-Operation--Streamline-Openmoji" viewBox="0 0 32 32" xmlns="http://www.w3.org/2000/svg" height="32" width="32">
  <desc>
    Three Finger Operation Streamline Emoji: https://streamlinehq.com
  </desc>
  <g id="color">
    <path fill="#ffffff" d="M8.24471111111111 6.230266666666666c0 2.4984444444444445 2.7046666666666663 4.06 4.868444444444444 2.8107555555555557 1.0041777777777776 -0.5797777777777777 1.6227999999999998 -1.6512444444444443 1.6227999999999998 -2.8107555555555557 0 -2.4984888888888888 -2.704711111111111 -4.060044444444444 -4.868444444444444 -2.8108 -1.0041777777777776 0.5797777777777777 -1.6227999999999998 1.6512444444444443 -1.6227999999999998 2.8108" stroke-width="0.4444"></path>
    <path fill="#ffffff" d="M12.163377777777777 4.670577777777778c0 2.4984444444444445 2.7046666666666663 4.06 4.8684 2.8107555555555557 1.0041777777777776 -0.5797777777777777 1.6227999999999998 -1.6511999999999998 1.6227999999999998 -2.8107555555555557 0 -2.4984888888888888 -2.7046666666666663 -4.06 -4.8684 -2.8108 -1.0042222222222221 0.5797777777777777 -1.6227999999999998 1.6512444444444443 -1.6227999999999998 2.8108" stroke-width="0.4444"></path>
    <path fill="#ffffff" d="M15.653111111111109 6.561644444444444c0 2.4984888888888888 2.7046666666666663 4.060044444444444 4.8684 2.8108 1.0041777777777776 -0.5797777777777777 1.6227999999999998 -1.6512444444444443 1.6227999999999998 -2.8108 0 -2.4984444444444445 -2.7046666666666663 -4.06 -4.8684 -2.8107555555555557 -1.0041777777777776 0.5797777777777777 -1.6227999999999998 1.6512444444444443 -1.6227999999999998 2.8107555555555557" stroke-width="0.4444"></path>
    <path fill="#fcea2b" d="M13.159288888888888 7.506488888888889c0.1447111111111111 -0.9829333333333332 -0.5348888888888889 -1.8971111111111112 -1.517822222222222 -2.041733333333333s-1.8971111111111112 0.5348444444444445 -2.041777777777778 1.517822222222222c-0.023155555555555554 0.1576 -0.025377777777777777 0.31751111111111113 -0.0063999999999999994 0.4756888888888889L9.462222222222222 17.13751111111111l0.011066666666666666 2.203377777777778 0.0029777777777777775 -2.5467999999999997c0.14466666666666667 -0.9829333333333332 -0.4482666666666666 -1.8971111111111112 -1.4312 -2.041733333333333 -0.9829333333333332 -0.1447111111111111 -1.8971111111111112 0.5348444444444445 -2.041733333333333 1.5178666666666667 -0.023200000000000002 0.15755555555555553 -0.025377777777777777 0.31751111111111113 -0.0064444444444444445 0.4756444444444444l-0.0896 2.5467999999999997 0.026799999999999997 5.1382666666666665c0.21639999999999998 4.233911111111111 3.949377777777778 6.943866666666666 8.182266666666667 6.727511111111111 2.441333333333333 -0.13520000000000001 4.748399999999999 -1.1606666666666665 6.484577777777777 -2.8821777777777773 1.4865777777777778 -1.5745333333333331 5.1384 -5.876844444444444 5.1384 -5.876844444444444 0.7453333333333333 -1.0995555555555556 0.1672 -2.799022222222222 -0.40795555555555557 -2.380622222222222l-5.031422222222222 2.3695555555555554 -0.01982222222222222 -2.7509777777777775 0.01982222222222222 2.7509777777777775 -0.01982222222222222 -2.7509777777777775 0.020133333333333333 -11.132444444444443c0.14466666666666667 -0.9829333333333332 -0.5349333333333333 -1.8971111111111112 -1.5178666666666667 -2.041733333333333s-1.8971111111111112 0.5348444444444445 -2.041733333333333 1.517822222222222c-0.023200000000000002 0.1576 -0.025377777777777777 0.31751111111111113 -0.0064444444444444445 0.4756444444444444l-0.04822222222222222 3.5660888888888884 -0.09484444444444444 5.4191111111111105 0.18706666666666666 -11.306844444444444c0.14466666666666667 -0.9829333333333332 -0.5349333333333333 -1.8971111111111112 -1.5178666666666667 -2.041733333333333s-1.8971111111111112 0.5348444444444445 -2.041733333333333 1.517822222222222c-0.023200000000000002 0.1576 -0.025377777777777777 0.31751111111111113 -0.0064444444444444445 0.4756444444444444l-0.10515555555555556 12.235733333333332" stroke-width="0.4444"></path>
  </g>
  <g id="line">
    <path fill="none" stroke="#000000" stroke-linecap="round" stroke-linejoin="round" stroke-width="0.8889" d="M9.483422222222222 9.666088888888888c-1.1104444444444443 -0.6969777777777778 -1.8486666666666667 -1.9323555555555556 -1.8486666666666667 -3.3401777777777775 0 -2.1763999999999997 1.7643555555555555 -3.9407999999999994 3.9407999999999994 -3.9407999999999994 1.3390222222222221 0 2.522044444444444 0.6678666666666666 3.234222222222222 1.6885777777777777"></path>
    <path fill="none" stroke="#000000" stroke-linecap="round" stroke-linejoin="round" stroke-width="0.8889" d="M11.499777777777778 5.380133333333333c-0.03088888888888889 -0.19875555555555555 -0.046933333333333334 -0.4024444444444444 -0.046933333333333334 -0.6098666666666667 0 -2.1763999999999997 1.764311111111111 -3.9407999999999994 3.9407999999999994 -3.9407999999999994s3.9407999999999994 1.7643555555555555 3.9407999999999994 3.9407999999999994c0 0.5789333333333333 -0.12484444444444442 1.1286666666666665 -0.34906666666666664 1.623822222222222"></path>
    <path fill="none" stroke="#000000" stroke-linecap="round" stroke-linejoin="round" stroke-width="0.8889" d="M15.8516 4.073688888888889c0.7224444444444443 -0.8298222222222221 1.7866666666666664 -1.3543555555555555 2.973333333333333 -1.3543555555555555 2.1763999999999997 0 3.9407999999999994 1.7643555555555555 3.9407999999999994 3.9407999999999994 0 1.5571555555555554 -0.9031111111111111 2.903333333333333 -2.214177777777778 3.5433777777777777"></path>
    <path fill="none" stroke="#000000" stroke-linecap="round" stroke-linejoin="round" stroke-width="0.8889" d="M13.159288888888888 7.506488888888889c0.1447111111111111 -0.9829333333333332 -0.5348888888888889 -1.8971111111111112 -1.517822222222222 -2.041733333333333s-1.8971111111111112 0.5348444444444445 -2.041777777777778 1.517822222222222c-0.023155555555555554 0.1576 -0.025377777777777777 0.31751111111111113 -0.0063999999999999994 0.4756888888888889L9.462222222222222 17.13751111111111l0.002444444444444444 0.48466666666666663 -0.0028444444444444446 -0.8280888888888889c0.1447111111111111 -0.9829333333333332 -0.43377777777777776 -1.8971111111111112 -1.4167555555555555 -2.041733333333333 -0.9829333333333332 -0.1447111111111111 -1.8971111111111112 0.5348444444444445 -2.041777777777778 1.5178666666666667 -0.023155555555555554 0.15755555555555553 -0.025333333333333333 0.8920444444444443 -0.0063999999999999994 1.0501777777777777l-0.0896 1.9722666666666664 0.026799999999999997 5.1382666666666665c0.21639999999999998 4.233911111111111 3.949377777777778 6.943866666666666 8.182266666666667 6.727511111111111 2.441333333333333 -0.13520000000000001 4.748355555555555 -1.1606666666666665 6.484577777777777 -2.8821777777777773 1.4865777777777778 -1.5745333333333331 5.1384 -5.876844444444444 5.1384 -5.876844444444444 0.7453333333333333 -1.0995555555555556 0.1672 -2.799022222222222 -0.40795555555555557 -2.380622222222222l-5.031422222222222 2.3695555555555554 -0.01982222222222222 -2.7509777777777775 0.01982222222222222 2.7509777777777775 -0.01982222222222222 -2.7509777777777775 0.020133333333333333 -11.132444444444443c0.14466666666666667 -0.9829333333333332 -0.5349333333333333 -1.8971111111111112 -1.5178666666666667 -2.041733333333333s-1.8971111111111112 0.5348444444444445 -2.041733333333333 1.517822222222222c-0.023200000000000002 0.1576 -0.025377777777777777 0.31751111111111113 -0.0064444444444444445 0.4756444444444444l-0.04822222222222222 3.5660888888888884 -0.09484444444444444 5.4191111111111105 0.18706666666666666 -11.306844444444444c0.14466666666666667 -0.9829333333333332 -0.5349333333333333 -1.8971111111111112 -1.5178666666666667 -2.041733333333333s-1.8971111111111112 0.5348444444444445 -2.041733333333333 1.517822222222222c-0.023200000000000002 0.1576 -0.025377777777777777 0.31751111111111113 -0.0064444444444444445 0.4756444444444444l-0.08955555555555555 10.420844444444443"></path>
  </g>
</svg>