<svg id="Video-Game--Streamline-Openmoji" viewBox="0 0 32 32" xmlns="http://www.w3.org/2000/svg" height="32" width="32">
  <desc>
    Video Game Streamline Emoji: https://streamlinehq.com
  </desc>
  <g id="color">
    <path fill="#9b9b9a" stroke="#9b9b9a" stroke-miterlimit="10" stroke-width="0.8889" d="M15.18871111111111 12.866577777777778V3.4662666666666664s0.6481333333333332 -1.179822222222222 1.4798666666666664 0v9.40031111111111"></path>
    <path fill="#9b9b9a" stroke="none" stroke-miterlimit="10" stroke-width="0.8889" d="M16.02248888888889 25.54124444444444H10.869422222222221c-0.3344444444444444 0 -0.6338666666666666 0.19062222222222222 -0.7940444444444443 0.484311111111111 -1.7059555555555554 3.1283555555555553 -3.9875555555555553 3.8682222222222222 -4.607644444444444 3.9848888888888885 -0.07999999999999999 0.01502222222222222 -0.15817777777777778 0.028399999999999998 -0.23951111111111112 0.030755555555555553 -7.105333333333333 0.2096 -3.5005777777777776 -9.157422222222221 -3.5005777777777776 -9.157422222222221 1.0282666666666667 -3.004133333333333 3.509333333333333 -6.531555555555555 4.344844444444444 -7.345377777777777 0.172 -0.1675111111111111 0.3996444444444444 -0.2607555555555555 0.6397333333333333 -0.2607555555555555h18.575555555555557c0.24008888888888888 0 0.46777777777777774 0.09324444444444444 0.6397333333333333 0.2607555555555555 0.835511111111111 0.8138222222222221 3.3165777777777774 4.341244444444444 4.344844444444444 7.345377777777777 0 0 3.6047555555555553 9.367022222222221 -3.5005777777777776 9.157422222222221 -0.08142222222222222 -0.0024 -0.1595111111111111 -0.015733333333333332 -0.23951111111111112 -0.030755555555555553 -0.6200888888888888 -0.11666666666666667 -2.9016888888888888 -0.8565333333333333 -4.607644444444444 -3.9848888888888885 -0.16013333333333332 -0.2936888888888889 -0.45955555555555555 -0.484311111111111 -0.7940444444444443 -0.484311111111111H15.97751111111111"></path>
  </g>
  <g id="hair"></g>
  <g id="skin"></g>
  <g id="skin-shadow"></g>
  <g id="line">
    <path fill="none" stroke="#000000" stroke-miterlimit="10" stroke-width="0.8889" d="M16.02248888888889 25.54124444444444H10.869422222222221c-0.3344444444444444 0 -0.6338666666666666 0.19062222222222222 -0.7940444444444443 0.484311111111111 -1.7059555555555554 3.1283555555555553 -3.9875555555555553 3.8682222222222222 -4.607644444444444 3.9848888888888885 -0.07999999999999999 0.01502222222222222 -0.15817777777777778 0.028399999999999998 -0.23951111111111112 0.030755555555555553 -7.105333333333333 0.2096 -3.5005777777777776 -9.157422222222221 -3.5005777777777776 -9.157422222222221 1.0282666666666667 -3.004133333333333 3.509333333333333 -6.531555555555555 4.344844444444444 -7.345377777777777 0.172 -0.1675111111111111 0.3996444444444444 -0.2607555555555555 0.6397333333333333 -0.2607555555555555h18.575555555555557c0.24008888888888888 0 0.46777777777777774 0.09324444444444444 0.6397333333333333 0.2607555555555555 0.835511111111111 0.8138222222222221 3.3165777777777774 4.341244444444444 4.344844444444444 7.345377777777777 0 0 3.6047555555555553 9.367022222222221 -3.5005777777777776 9.157422222222221 -0.08142222222222222 -0.0024 -0.1595111111111111 -0.015733333333333332 -0.23951111111111112 -0.030755555555555553 -0.6200888888888888 -0.11666666666666667 -2.9016888888888888 -0.8565333333333333 -4.607644444444444 -3.9848888888888885 -0.16013333333333332 -0.2936888888888889 -0.45955555555555555 -0.484311111111111 -0.7940444444444443 -0.484311111111111H15.97751111111111"></path>
    <path fill="#000000" stroke="#000000" stroke-linecap="round" stroke-linejoin="round" stroke-miterlimit="10" stroke-width="0.8889" d="M10.085866666666666 17.900177777777774v0.39959999999999996H5.467022222222222v-0.39959999999999996h2.488577777777778Z"></path>
    <path fill="#000000" stroke="#000000" stroke-linecap="round" stroke-linejoin="round" stroke-miterlimit="10" stroke-width="0.8889" d="M7.576666666666666 15.790577777777775h0.39955555555555555V20.409333333333333h-0.39955555555555555v-2.4884888888888885Z"></path>
    <path fill="#000000" stroke="none" d="M11.190488888888888 21.661199999999997c-0.002266666666666667 1.5189333333333332 1.6405777777777777 2.470711111111111 2.9571555555555555 1.7132444444444443 0.6128444444444444 -0.3526222222222222 0.9901777777777777 -1.0061777777777778 0.9891111111111109 -1.7132444444444443 0.002311111111111111 -1.5189333333333332 -1.6405777777777777 -2.470711111111111 -2.9571111111111112 -1.7131999999999998 -0.6128444444444444 0.35257777777777777 -0.9902222222222222 1.006133333333333 -0.9891555555555556 1.7131999999999998" stroke-width="0.4444"></path>
    <path fill="#000000" stroke="none" d="M16.86328888888889 21.661199999999997c-0.002311111111111111 1.5189333333333332 1.6405777777777777 2.470711111111111 2.9571111111111112 1.7132444444444443 0.6128444444444444 -0.3526222222222222 0.9902222222222222 -1.0061777777777778 0.9891555555555556 -1.7132444444444443 0.002266666666666667 -1.5189333333333332 -1.6405777777777777 -2.470711111111111 -2.9571555555555555 -1.7131999999999998 -0.6128444444444444 0.35257777777777777 -0.9901777777777777 1.006133333333333 -0.9891111111111109 1.7131999999999998" stroke-width="0.4444"></path>
    <path fill="#000000" stroke="none" d="M21.23484444444444 18.099999999999998c0 0.7594666666666666 0.8221333333333334 1.2341333333333333 1.4798666666666664 0.8544 0.30524444444444443 -0.17626666666666665 0.4932888888888889 -0.5019555555555555 0.4932888888888889 -0.8544 0 -0.7594666666666666 -0.8221333333333334 -1.2341333333333333 -1.4798666666666664 -0.8544 -0.30524444444444443 0.17622222222222222 -0.4932888888888889 0.5019111111111111 -0.4932888888888889 0.8544" stroke-width="0.4444"></path>
    <path fill="#000000" stroke="none" d="M25.412444444444443 18.099999999999998c0 0.7594666666666666 0.8221333333333334 1.2341333333333333 1.4798222222222222 0.8544 0.30524444444444443 -0.17626666666666665 0.4932888888888889 -0.5019555555555555 0.4932888888888889 -0.8544 0 -0.7594666666666666 -0.8221333333333334 -1.2341333333333333 -1.4798666666666664 -0.8544 -0.30524444444444443 0.17622222222222222 -0.4932444444444444 0.5019111111111111 -0.4932444444444444 0.8544" stroke-width="0.4444"></path>
    <path fill="#000000" stroke="none" d="M23.3236 19.952311111111108c0 0.7594666666666666 0.8221333333333334 1.2341333333333333 1.4798666666666664 0.8544 0.30524444444444443 -0.17622222222222222 0.4932888888888889 -0.5019111111111111 0.4932888888888889 -0.8544 0 -0.7594666666666666 -0.8221333333333334 -1.2341333333333333 -1.4798666666666664 -0.8544 -0.30524444444444443 0.17626666666666665 -0.4932888888888889 0.5019555555555555 -0.4932888888888889 0.8544" stroke-width="0.4444"></path>
    <path fill="#000000" stroke="none" d="M23.3236 16.268c0 0.7594222222222222 0.8221333333333334 1.2340888888888888 1.4798666666666664 0.8543555555555554 0.30524444444444443 -0.17622222222222222 0.4932888888888889 -0.5019111111111111 0.4932888888888889 -0.8543555555555554 0 -0.7594666666666666 -0.8221333333333334 -1.2341333333333333 -1.4798666666666664 -0.8544 -0.30524444444444443 0.17622222222222222 -0.4932888888888889 0.5019111111111111 -0.4932888888888889 0.8544" stroke-width="0.4444"></path>
    <path fill="none" stroke="#000000" stroke-linecap="round" stroke-linejoin="round" stroke-miterlimit="10" stroke-width="0.8889" d="M15.18871111111111 11.343377777777777V2.4513333333333334s0.24906666666666666 -0.42879999999999996 0.6364888888888888 -0.48902222222222225c0.23755555555555552 -0.03688888888888889 0.5272444444444444 0.06475555555555555 0.8433777777777777 0.48902222222222225v8.892044444444444"></path>
  </g>
</svg>