<svg id="Videocassette--Streamline-Openmoji" viewBox="0 0 32 32" xmlns="http://www.w3.org/2000/svg" height="32" width="32">
  <desc>
    Videocassette Streamline Emoji: https://streamlinehq.com
  </desc>
  <g id="color">
    <path fill="#d0cfce" stroke="none" d="M2.3465333333333334 7.581644444444445v15.48488888888889c0 0.49004444444444445 0.8433333333333333 1.3333333333333333 1.3333333333333333 1.3333333333333333H28.374666666666666c0.49 0 1.3333333333333333 -0.8432888888888889 1.3333333333333333 -1.3333333333333333v-15.48488888888889H2.3465333333333334z" stroke-width="0.4444"></path>
    <path fill="none" stroke="none" d="m4.888888888888888 12.495688888888889 0 -3.128711111111111 22.214577777777777 0 0 3.128711111111111" stroke-width="0.4444"></path>
    <path fill="#ffffff" stroke="none" d="M21.86093333333333 19.036888888888885c0.9276444444444445 0 1.6796888888888888 -0.7520444444444444 1.6796888888888888 -1.6796888888888888 0 -0.9276888888888888 -0.7520444444444444 -1.679733333333333 -1.6796888888888888 -1.679733333333333v3.359422222222222z" stroke-width="0.4444"></path>
    <path fill="#fcea2b" stroke="none" d="M12.178888888888888 14.167111111111112h7.656577777777777v6.0356H12.178888888888888Z" stroke-width="0.4444"></path>
    <path fill="#ffffff" stroke="none" d="M23.096355555555554 17.3572c0 -0.5243111111111111 -0.32857777777777775 -0.973511111111111 -0.7908 -1.1527555555555555v2.3055555555555554c0.4622222222222222 -0.17928888888888886 0.7908 -0.6284888888888888 0.7908 -1.1527999999999998z" stroke-width="0.4444"></path>
    <path fill="#ffffff" stroke="none" d="M8.846355555555554 17.3572c0 0.5243111111111111 0.32857777777777775 0.973511111111111 0.7908 1.1527999999999998V16.204444444444444c-0.4622222222222222 0.17924444444444443 -0.7908 0.6284444444444444 -0.7908 1.1527555555555555z" stroke-width="0.4444"></path>
    <path fill="#d0cfce" stroke="none" d="M5.982844444444444 17.485466666666667c0 1.8183555555555557 2.256844444444444 3.512266666666666 4.0988 3.7411555555555553V19.036888888888885c-1.051288888888889 -0.21457777777777776 -1.6796888888888888 -0.6136444444444444 -1.6796888888888888 -1.6796888888888888 0 -1.0659999999999998 0.6284 -1.4651555555555555 1.6796888888888888 -1.679733333333333v-2.189688888888889s-1.8145777777777776 0.5739555555555556 -2.4583555555555554 0.8820888888888888c-0.585511111111111 0.2802222222222222 -1.6404444444444444 3.1156 -1.6404444444444444 3.1156z" stroke-width="0.4444"></path>
    <path fill="#d0cfce" stroke="none" d="M24.05062222222222 14.167111111111112c-0.6945777777777777 -0.4971555555555556 -1.8355999999999997 -0.6633333333333332 -1.8355999999999997 -0.6633333333333332l0.09053333333333333 2.2347555555555556s1.0852444444444445 0.6088444444444444 1.0852444444444445 1.5157333333333334c0 0.8581333333333333 -0.6898666666666666 1.3164444444444445 -1.388311111111111 1.7826222222222223l-0.14155555555555555 2.2948444444444442c1.6665333333333332 -0.6015555555555555 4.012311111111111 -1.8194666666666666 3.8123111111111108 -4.3168 -0.19999999999999998 -2.497288888888889 -1.4026666666666667 -2.6903555555555556 -1.6226222222222222 -2.8478222222222223z" stroke-width="0.4444"></path>
    <path fill="#9b9b9a" stroke="none" d="m10.081644444444445 14.517644444444445 -0.3505777777777777 -1.0298666666666667c-1.6792444444444445 0.21875555555555556 -3.6330666666666667 2.276622222222222 -3.0744 3.8694222222222225 0 0 0.2544444444444444 -0.7323999999999999 0.5583999999999999 -1.2152444444444443 0.30395555555555553 -0.48288888888888887 0.7883111111111111 -1.008088888888889 1.3221333333333334 -1.2759555555555553 0.5868888888888889 -0.2944444444444444 1.5444444444444445 -0.3483555555555556 1.5444444444444445 -0.3483555555555556z" stroke-width="0.4444"></path>
    <path fill="#9b9b9a" stroke="none" d="M23.096933333333332 20.97182222222222c-0.25093333333333334 0.09742222222222222 -0.9607111111111111 0.3240444444444444 -1.236 0.35991111111111107l0.14155555555555555 -2.2948444444444442c0.2899555555555555 -0.062044444444444444 0.8607111111111111 -0.010488888888888888 1.0938666666666665 -0.17764444444444444l0.0005777777777777778 2.1125777777777777z" stroke-width="0.4444"></path>
    <path fill="#9b9b9a" stroke="none" d="M25.086177777777777 16.203733333333332c0.5990666666666666 -0.9152444444444443 -1.9368888888888887 -2.548133333333333 -3.2252444444444444 -2.7159555555555555v1.994622222222222c0.2396 0.051288888888888884 0.9090222222222222 0.3837333333333333 1.1114222222222223 0.5083555555555554l0.0276 -1.4310666666666665s0.5892444444444445 0.21226666666666666 1.122222222222222 0.6231555555555555c0.5329777777777778 0.4109333333333333 0.964 1.020888888888889 0.964 1.020888888888889z" stroke-width="0.4444"></path>
    <path fill="#9b9b9a" stroke="none" d="M26.65884444444444 10.3708v-0.5591555555555555H5.333333333333333v2.6839999999999997c0 0.18404444444444445 -0.11164444444444444 0.3416888888888889 -0.27084444444444444 0.40919999999999995 0 0 0.8102222222222222 0.10039999999999999 0.8102222222222222 -0.4091555555555555l0 -2.1248888888888886" stroke-width="0.4444"></path>
    <path fill="#9b9b9a" stroke="none" d="m27.54773333333333 9.366977777777779 0 0.0002222222222222222 0 -0.0002222222222222222z" stroke-width="0.4444"></path>
  </g>
  <g id="hair"></g>
  <g id="skin"></g>
  <g id="skin-shadow"></g>
  <g id="line">
    <path fill="none" stroke="#000000" stroke-linecap="round" stroke-linejoin="round" stroke-miterlimit="10" stroke-width="0.8889" d="M28.374666666666666 24.399866666666668H3.6798666666666664c-0.7363999999999999 0 -1.3333333333333333 -0.5969333333333333 -1.3333333333333333 -1.3333333333333333v-15.48488888888889H29.708v15.48488888888889c0 0.7363999999999999 -0.5969777777777777 1.3333333333333333 -1.3333333333333333 1.3333333333333333z"></path>
    <path fill="none" stroke="#000000" stroke-linecap="round" stroke-linejoin="round" stroke-miterlimit="10" stroke-width="0.8889" d="M10.081644444444445 13.487777777777778c-2.137022222222222 0 -3.8694222222222225 1.7324 -3.8694222222222225 3.8694222222222225s1.7324 3.8694222222222225 3.8694222222222225 3.8694222222222225V13.487777777777778z"></path>
    <path fill="none" stroke="#000000" stroke-linecap="round" stroke-linejoin="round" stroke-miterlimit="10" stroke-width="0.8889" d="M21.86093333333333 21.226622222222222c2.137022222222222 0 3.8694222222222225 -1.7324 3.8694222222222225 -3.8694222222222225s-1.7324 -3.8694222222222225 -3.8694222222222225 -3.8694222222222225v7.738844444444445z"></path>
    <path fill="none" stroke="#000000" stroke-linecap="round" stroke-linejoin="round" stroke-miterlimit="10" stroke-width="0.8889" d="M10.081644444444445 15.677466666666664c-0.9276888888888888 0 -1.6796888888888888 0.7520444444444444 -1.6796888888888888 1.679733333333333 0 0.9276444444444445 0.7519999999999999 1.6796888888888888 1.6796888888888888 1.6796888888888888v-3.359422222222222z"></path>
    <path fill="none" stroke="#000000" stroke-linecap="round" stroke-linejoin="round" stroke-miterlimit="10" stroke-width="0.8889" d="M12.032799999999998 14.167111111111112h7.802666666666667v6.0356h-7.802666666666667Z"></path>
    <path fill="none" stroke="#000000" stroke-linecap="round" stroke-linejoin="round" stroke-miterlimit="10" stroke-width="0.8889" d="m4.888888888888888 12.495688888888889 0 -3.128711111111111 22.214577777777777 0 0 3.128711111111111"></path>
    <path fill="none" stroke="#000000" stroke-linecap="round" stroke-linejoin="round" stroke-miterlimit="10" stroke-width="0.8889" d="M21.86093333333333 19.036888888888885c0.9276444444444445 0 1.6796888888888888 -0.7520444444444444 1.6796888888888888 -1.6796888888888888 0 -0.9276888888888888 -0.7520444444444444 -1.679733333333333 -1.6796888888888888 -1.679733333333333v3.359422222222222z"></path>
    <path fill="none" stroke="#000000" stroke-linecap="round" stroke-linejoin="round" stroke-miterlimit="10" stroke-width="0.8889" d="m7.4589333333333325 11.472044444444444 17.483999999999998 0"></path>
  </g>
</svg>