<svg id="Warning-Strip--Streamline-Openmoji" viewBox="0 0 32 32" xmlns="http://www.w3.org/2000/svg" height="32" width="32">
  <desc>
    Warning Strip Streamline Emoji: https://streamlinehq.com
  </desc>
  <g id="color">
    <path fill="#fcea2b" d="M3.735555555555555 10.510444444444444c0.16946666666666665 -0.5566666666666666 0.6723555555555555 -0.9453333333333331 1.2537777777777779 -0.9690222222222221h25.394488888888887c0.5233333333333333 -0.03546666666666666 0.9152 0.4715555555555555 0.7489777777777777 0.9690222222222221l-2.8597333333333332 10.979022222222222c-0.1694222222222222 0.5567555555555554 -0.6723555555555555 0.9455555555555555 -1.2538222222222222 0.9692888888888888H1.6247555555555555c-0.5233333333333333 0.03546666666666666 -0.9152 -0.4715555555555555 -0.7489333333333333 -0.9690222222222221Z" stroke-width="0.4444"></path>
    <path fill="#f1b31c" d="m28.189822222222222 21.814755555555553 1.7497333333333334 -6.7233777777777775c-4.057111111111111 1.7781333333333331 -8.231333333333332 3.276088888888889 -12.493333333333332 4.483466666666666 -4.736222222222222 1.284311111111111 -9.553688888888887 2.247777777777778 -14.419599999999999 2.8839111111111113h24.311955555555556c0.39915555555555554 0.00991111111111111 0.7522222222222221 -0.2572 0.8512444444444444 -0.644Z" stroke-width="0.4444"></path>
    <path d="M14.95271111111111 9.5412h4.806533333333333L16.394666666666666 22.458755555555555H11.588133333333333l3.3645777777777774 -12.917555555555554Z" stroke-width="0.4444"></path>
    <path d="M22.793866666666666 9.5412h4.806533333333333l-3.3645777777777774 12.917555555555554H19.429288888888887l3.3645777777777774 -12.917555555555554Z" stroke-width="0.4444"></path>
    <path d="M7.112044444444443 9.5412h4.806533333333333l-3.3645777777777774 12.917555555555554H3.747466666666667l3.3645777777777774 -12.917555555555554Z" stroke-width="0.4444"></path>
    <path fill="none" d="M3.735555555555555 10.510444444444444c0.16946666666666665 -0.5566666666666666 0.6723555555555555 -0.9453333333333331 1.2537777777777779 -0.9690222222222221h25.394488888888887c0.5233333333333333 -0.03546666666666666 0.9152 0.4715555555555555 0.7489777777777777 0.9690222222222221l-2.8597333333333332 10.979022222222222c-0.1694222222222222 0.5567555555555554 -0.6723555555555555 0.9455555555555555 -1.2538222222222222 0.9692888888888888H1.6247555555555555c-0.5233333333333333 0.03546666666666666 -0.9152 -0.4715555555555555 -0.7489333333333333 -0.9690222222222221Z" stroke-width="0.4444"></path>
  </g>
  <g id="line">
    <path fill="none" stroke="#000000" stroke-linecap="round" stroke-linejoin="round" stroke-width="0.8889" d="M3.4285777777777775 10.516266666666667c0.1539111111111111 -0.5583111111111111 0.6516444444444444 -0.9526666666666666 1.2303111111111111 -0.9748444444444444h25.724977777777777c0.5246666666666667 -0.03337777777777778 0.9191555555555554 0.4707111111111111 0.7606222222222222 0.9719999999999999l-2.717911111111111 10.97311111111111c-0.16164444444444445 0.5576 -0.6619555555555555 0.9492444444444444 -1.2420888888888888 0.9722222222222222H1.6247555555555555c-0.5260444444444444 0.0312 -0.9230666666666667 -0.46991111111111106 -0.7723555555555556 -0.9748444444444444Z"></path>
    <path fill="none" stroke="#000000" stroke-linecap="round" stroke-linejoin="round" stroke-width="0.8889" d="M17.28813333333333 9.541422222222222 13.923555555555554 22.458488888888887"></path>
    <path fill="none" stroke="#000000" stroke-linecap="round" stroke-linejoin="round" stroke-width="0.8889" d="m24.96364444444444 9.541422222222222 -3.3645777777777774 12.917066666666667"></path>
    <path fill="none" stroke="#000000" stroke-linecap="round" stroke-linejoin="round" stroke-width="0.8889" d="m9.44742222222222 9.541422222222222 -3.3645777777777774 12.917066666666667"></path>
  </g>
</svg>